<?xml version="1.0" encoding="UTF-8" standalone="no"?>
<svg enable-background="new" height="128" viewBox="0 0 128 128" width="128" xmlns="http://www.w3.org/2000/svg" xmlns:xlink="http://www.w3.org/1999/xlink" xmlns:dc="http://purl.org/dc/elements/1.1/" xmlns:cc="http://creativecommons.org/ns#" xmlns:rdf="http://www.w3.org/1999/02/22-rdf-syntax-ns#" xmlns:svg="http://www.w3.org/2000/svg">
    <linearGradient id="a" gradientUnits="userSpaceOnUse" x1="64.000008" x2="64.000008" y1="202.38483" y2="444.5">
        <stop offset="0" stop-color="#a347ba"/>
        <stop offset="1" stop-color="#c061cb"/>
    </linearGradient>
    <linearGradient id="b" gradientUnits="userSpaceOnUse" x1="108.000001" x2="116.000001" y1="251" y2="251">
        <stop offset="0" stop-color="#e8e7e4"/>
        <stop offset="0.51104856" stop-color="#ffffff"/>
        <stop offset="1" stop-color="#c2bfba"/>
    </linearGradient>
    <g transform="matrix(1 0 0 1 0 -172)">
        <path d="m 12 204 v 84 h 96 c 4.432 0 8 -3.568 8 -8 v -68 c 0 -4.432 -3.568 -8 -8 -8 z" fill="#813d9c"/>
        <path d="m 14.000001 216 v 70 h 93.999999 c 4.432 0 8 -3.568 8 -8 v -54 c 0 -4.432 -3.568 -8 -8 -8 z" fill="url(#b)" paint-order="normal"/>
        <path d="m 12 186 v 94 h 96 c 4.432 0 8 -3.568 8 -8 v -78 c 0 -4.432 -3.568 -8 -8 -8 z" fill="#813d9c"/>
        <path d="m 12 184 v 94 h 96 c 4.432 0 8 -3.568 8 -8 v -78 c 0 -4.432 -3.568 -8 -8 -8 z" fill="url(#a)"/>
        <g fill="#813d9c">
            <path d="m 84.98308203125 196.4900715625 c -3.89542359375 0 -7.83614390625 1.0417921875 -10.508585625 2.944209375 l 2.53655578125 4.93723125 c 1.7665284375 -1.40416875 4.4389715625 -2.2647796875 7.02082125 -2.2647796875 c 3.80483296875 0 5.93324859375 2.0273765625 5.93324859375 5.0621765625 l -7.03262953125 -0.033103125 c -7.42839890625 -0.034959375 -10.46281640625 3.744 -10.46281640625 8.047096875 c 0 4.2124921875 3.100179375 7.264378125 8.807428125 7.264378125 c 3.57835359375 0 7.3744453125 -1.058878125 8.6880178125 -3.2783625 l 0.000421875 3.0013875 l 7.4995790625 -0.00140625 l -0.00084375 -14.626828125 c -0.000421875 -7.383178125 -5.05266328125 -11.0520140625 -12.4811465625 -11.0520140625 z m -1.64245640625 21.3199734375 c -2.4912590625 0 -3.98601421875 -1.1776921875 -3.98601421875 -2.9442234375 c 0 -1.63063125 1.04139421875 -3.2512078125 4.34790703125 -3.2300015625 l 6.26260359375 0.033103125 l 0.000421875 2.2710234375 c 0.000421875 2.364496875 -4.26959578125 3.8700984375 -6.62496890625 3.8700984375 z"/>
            <path d="m 58.000001 218 c -0.944974 0.77446 -1.612023 1.05106 -2.445832 1.05106 c -1.278503 0 -1.667605 -0.77447 -1.667605 -3.20851 v -10.78724 c 0 -2.8766 -0.277936 -4.48085 -1.111745 -5.80851 c -1.22291 -1.99149 -4.573306 -3.04255 -7.852936 -3.04255 c -5.225182 0 -9.33863 2.71064 -9.33863 6.19575 c 0 1.27234 1.056163 2.37871 2.39025 2.37871 c 1.334086 0 2.501413 -1.10637 2.501413 -2.3234 c 0 -0.22127 -0.05563 -0.49787 -0.111176 -0.8851 c -0.111177 -0.49787 -0.16676 -0.94042 -0.16676 -1.32766 c 0 -1.49362 1.778783 -2.71064 4.002271 -2.71064 c 2.723757 0 4.672684 1.60425 4.672684 4.59149 v 4.39862 c -7.655771 2.24877 -9.953459 2.84819 -12.343697 4.95032 c -1.22292 1.10637 -2.001135 2.98723 -2.001135 4.81276 c 0 3.48511 2.445832 5.91915 5.836637 5.91915 c 2.445831 0 5.172972 -1.1617 8.563777 -4.0383 c 0.277937 2.93191 1.790584 4.0383 4.069655 4.0383 c 1.889959 0 3.057287 -0.66383 5.002829 -2.76596 z m -9.128066 -3.1532 c 0 1.65958 -0.277936 2.26809 -1.445263 2.93191 c -1.389682 0.77448 -3.338597 1.21703 -4.505924 1.21703 c -1.945553 0 -3.501982 -1.88085 -3.501982 -4.25958 v -0.22127 c 0.05563 -3.31915 2.949483 -4.39712 9.453169 -6.6652 z"/>
            <path d="m 86.312915 236.674 c -0.913953 -0.0795 -2.066328 0.23842 -3.457126 0.95369 c -1.390799 0.71527 -2.801467 1.78817 -4.232002 3.21871 c -1.430536 1.3908 -2.761727 3.07963 -3.99358 5.06648 c -1.192112 1.98686 -2.066328 4.19227 -2.622647 6.61623 c -0.437107 1.78817 -0.596055 3.33791 -0.476846 4.64924 c 0.119213 1.27158 0.397373 2.32462 0.834481 3.15909 c 0.437107 0.79475 0.973557 1.37094 1.609351 1.72857 c 0.635794 0.39738 1.231851 0.59606 1.78817 0.59606 c 1.192113 -0.0795 2.384226 -0.33776 3.576339 -0.77488 c 1.033163 -0.39736 2.125935 -1.01329 3.278311 -1.84777 c 1.152376 -0.87422 2.205409 -2.10606 3.159099 -3.69555 c -0.03974 1.0729 0.01987 1.96699 0.178817 2.68225 c 0.198685 0.71527 0.397372 1.29143 0.596055 1.72857 c 0.238423 0.51658 0.536452 0.91394 0.894085 1.19211 c 0.357634 0.23845 0.774874 0.3974 1.251719 0.47685 c 0.476845 0.11922 0.973556 0.15898 1.490143 0.11921 c 0.556313 -0.0398 1.092769 -0.13908 1.609345 -0.29804 c 0.516587 -0.15894 0.97357 -0.35763 1.370936 -0.59605 c 0.596061 -0.39736 1.331189 -1.0729 2.205406 -2.02659 c 0.913953 -0.99342 1.827907 -2.06632 2.741871 -3.21871 c 0.953691 -1.19211 1.867644 -2.36436 2.741858 -3.51673 c 0.87421 -1.19211 1.58947 -2.18554 2.14579 -2.98028 c 0.47687 -0.63579 0.75503 -1.19211 0.83449 -1.66897 c 0.11917 -0.47683 0.0993 -0.83448 -0.0596 -1.0729 c -0.15895 -0.23839 -0.39737 -0.31787 -0.71528 -0.23842 c -0.31789 0.0398 -0.63578 0.23844 -0.95369 0.59607 c -0.23843 0.31789 -0.63578 0.81461 -1.1921 1.49013 c -0.51659 0.67554 -1.112642 1.45041 -1.788176 2.32463 c -0.675533 0.87421 -1.410661 1.78817 -2.205405 2.74186 c -0.755007 0.91394 -1.490146 1.7683 -2.205405 2.56303 c -0.715271 0.75501 -1.390805 1.39081 -2.026602 1.90738 c -0.635786 0.47685 -1.152373 0.71527 -1.54974 0.71527 c -0.47685 0 -0.854348 -0.0993 -1.132505 -0.29802 c -0.238431 -0.23842 -0.417245 -0.53645 -0.536454 -0.89409 c -0.119215 -0.35763 -0.198689 -0.73514 -0.238423 -1.1325 c 0 -0.43712 0.01987 -0.83448 0.05961 -1.19212 c 0.119204 -0.59605 0.218553 -1.09276 0.298027 -1.49014 c 0.07952 -0.39736 0.139089 -0.73514 0.178814 -1.01329 c 0.07952 -0.31791 0.13909 -0.61593 0.178826 -0.89409 c 0.07941 -0.31789 0.158936 -0.65566 0.23842 -1.01329 c 0.397366 -1.82791 0.71527 -3.31805 0.95369 -4.47043 c 0.23842 -1.15237 0.417235 -2.06633 0.536445 -2.74186 c 0.119221 -0.67552 0.178826 -1.13251 0.178826 -1.37093 c 0 -0.27819 -0.01982 -0.457 -0.05958 -0.53645 c -0.07952 -0.0398 -0.238419 -0.0596 -0.476839 -0.0596 c -0.198683 0 -0.496708 0.0198 -0.894086 0.0596 c -0.357629 0.0398 -0.814612 0.11921 -1.37093 0.23842 c 0.834486 -1.27159 1.152379 -2.28488 0.953696 -3.03989 c -0.158958 -0.79474 -0.516588 -1.3908 -1.072909 -1.78817 c -0.675529 -0.4371 -1.549746 -0.75501 -2.622648 -0.95369 z m -1.403712 3.72833 c 0.151497 0.008 0.281139 0.0567 0.390417 0.14604 c 0.119214 0.15896 0.198687 0.37751 0.238422 0.65566 c 0.03975 0.23842 0.01987 0.57618 -0.05961 1.0133 c -0.03974 0.39736 -0.218555 0.91395 -0.536451 1.54975 c 0.317896 -0.0794 0.635794 -0.13905 0.95369 -0.17882 c 0.317896 -0.0398 0.576189 -0.0993 0.774874 -0.17882 c 0.238422 -0.0794 0.456975 -0.13904 0.655661 -0.17882 c 0.158946 -0.0397 0.178818 0.27817 0.05961 0.95369 c -0.07947 0.6358 -0.218554 1.45041 -0.41724 2.44384 c -0.198686 0.99344 -0.437108 2.0266 -0.715267 3.09949 c -0.278161 1.0729 -0.516583 2.00672 -0.715268 2.80147 c -0.03974 0.19868 -0.218554 0.51657 -0.53645 0.95369 c -0.27816 0.43711 -0.655663 0.91395 -1.132508 1.43053 c -0.437109 0.51658 -0.95369 1.0133 -1.549747 1.49014 c -0.556319 0.47685 -1.132507 0.87422 -1.728565 1.19211 c -0.556318 0.27813 -1.112638 0.43707 -1.668957 0.47685 c -0.55632 0 -1.053033 -0.21856 -1.490141 -0.65566 c -0.238419 -0.23843 -0.397365 -0.73513 -0.476845 -1.49014 c -0.07947 -0.79474 -0.05961 -1.70871 0.05961 -2.74186 c 0.15895 -1.03317 0.417241 -2.12594 0.774874 -3.27831 c 0.357635 -1.19211 0.83448 -2.30475 1.430536 -3.33791 c 1.430536 -2.50345 2.682256 -4.21214 3.755155 -5.1261 c 0.834481 -0.71526 1.479711 -1.06246 1.934205 -1.04012 z"/>
            <path d="m 38.796942 238.07613 c -2.704645 -0.03825 -2.704645 4.03825 0 4 h 9.880859 c 0.01107 0.001 0.285634 0.0327 0.585938 0.197266 c 0.306304 0.16789 0.485897 0.188343 0.537109 0.939453 v -0.01953 l 0.246094 5.193358 c -0.460676 -0.176436 -0.769531 -0.251953 -0.769531 -0.251953 l -0.236328 -0.058594 h -9.244141 c -4.333333 0 -5.896484 4.367188 -5.896484 4.367188 l -0.103516 0.308593 v 2.324219 c 0 3.03333 1.431289 5.127712 2.939453 6.070312 s 3.060547 0.929688 3.060547 0.929688 h 7.591797 l 3.392578 -2.203125 l 0.01953 0.320313 c 0.08969 2.735348 4.223189 2.492675 3.992188 -0.234376 l -1 -17.009765 v -0.0098 c -0.140818 -2.06533 -1.461734 -3.545828 -2.607422 -4.173828 c -1.145688 -0.62799 -2.257813 -0.685547 -2.257813 -0.685547 l -0.066405 -0.003872 z m 1 14 h 8.644531 c 0.106906 0.0312 0.525263 0.141312 1.03711 0.482422 c 0.558515 0.372213 0.877827 0.68942 0.894531 1.355469 l 0.138672 1.363281 l -4.306641 2.798828 h -6.408203 s -0.447617 -0.0129 -0.939453 -0.320312 c -0.491836 -0.3074 -1.060547 -0.713018 -1.060547 -2.679688 v -1.564453 c 0.102847 -0.30497 0.534758 -1.435547 2 -1.435547 z" fill-rule="evenodd" font-variant-ligatures="normal" font-variant-position="normal" font-variant-caps="normal" font-variant-numeric="normal" font-variant-alternates="normal" font-feature-settings="normal" text-indent="0" text-align="start" text-decoration-line="none" text-decoration-style="solid" text-decoration-color="#000000" text-transform="none" text-orientation="mixed" white-space="normal" shape-padding="0" isolation="auto" mix-blend-mode="normal" solid-color="#000000" solid-opacity="1" vector-effect="none"/>
        </g>
        <rect fill="#3d3846" height="94" width="8" x="12" y="184"/>
        <path d="m 84.98308203125 198.4900715625 c -3.89542359375 0 -7.83614390625 1.0417921875 -10.508585625 2.944209375 l 2.53655578125 4.93723125 c 1.7665284375 -1.40416875 4.4389715625 -2.2647796875 7.02082125 -2.2647796875 c 3.80483296875 0 5.93324859375 2.0273765625 5.93324859375 5.0621765625 l -7.03262953125 -0.033103125 c -7.42839890625 -0.034959375 -10.46281640625 3.744 -10.46281640625 8.047096875 c 0 4.2124921875 3.100179375 7.264378125 8.807428125 7.264378125 c 3.57835359375 0 7.3744453125 -1.058878125 8.6880178125 -3.2783625 l 0.000421875 3.0013875 l 7.4995790625 -0.00140625 l -0.00084375 -14.626828125 c -0.000421875 -7.383178125 -5.05266328125 -11.0520140625 -12.4811465625 -11.0520140625 z m -1.64245640625 21.3199734375 c -2.4912590625 0 -3.98601421875 -1.1776921875 -3.98601421875 -2.9442234375 c 0 -1.63063125 1.04139421875 -3.2512078125 4.34790703125 -3.2300015625 l 6.26260359375 0.033103125 l 0.000421875 2.2710234375 c 0.000421875 2.364496875 -4.26959578125 3.8700984375 -6.62496890625 3.8700984375 z" fill="#ffffff"/>
        <path d="m 58.000001 220 c -0.944974 0.77446 -1.612023 1.05106 -2.445832 1.05106 c -1.278503 0 -1.667605 -0.77447 -1.667605 -3.20851 v -10.78724 c 0 -2.8766 -0.277936 -4.48085 -1.111745 -5.80851 c -1.22291 -1.99149 -4.573306 -3.04255 -7.852936 -3.04255 c -5.225182 0 -9.33863 2.71064 -9.33863 6.19575 c 0 1.27234 1.056163 2.37871 2.39025 2.37871 c 1.334086 0 2.501413 -1.10637 2.501413 -2.3234 c 0 -0.22127 -0.05563 -0.49787 -0.111176 -0.8851 c -0.111177 -0.49787 -0.16676 -0.94042 -0.16676 -1.32766 c 0 -1.49362 1.778783 -2.71064 4.002271 -2.71064 c 2.723757 0 4.672684 1.60425 4.672684 4.59149 v 4.39862 c -7.655771 2.24877 -9.953459 2.84819 -12.343697 4.95032 c -1.22292 1.10637 -2.001135 2.98723 -2.001135 4.81276 c 0 3.48511 2.445832 5.91915 5.836637 5.91915 c 2.445831 0 5.172972 -1.1617 8.563777 -4.0383 c 0.277937 2.93191 1.790584 4.0383 4.069655 4.0383 c 1.889959 0 3.057287 -0.66383 5.002829 -2.76596 z m -9.128066 -3.1532 c 0 1.65958 -0.277936 2.26809 -1.445263 2.93191 c -1.389682 0.77448 -3.338597 1.21703 -4.505924 1.21703 c -1.945553 0 -3.501982 -1.88085 -3.501982 -4.25958 v -0.22127 c 0.05563 -3.31915 2.949483 -4.39712 9.453169 -6.6652 z" fill="#ffffff"/>
        <path d="m 86.312915 238.674 c -0.913953 -0.0795 -2.066328 0.23842 -3.457126 0.95369 c -1.390799 0.71527 -2.801467 1.78817 -4.232002 3.21871 c -1.430536 1.3908 -2.761727 3.07963 -3.99358 5.06648 c -1.192112 1.98686 -2.066328 4.19227 -2.622647 6.61623 c -0.437107 1.78817 -0.596055 3.33791 -0.476846 4.64924 c 0.119213 1.27158 0.397373 2.32462 0.834481 3.15909 c 0.437107 0.79475 0.973557 1.37094 1.609351 1.72857 c 0.635794 0.39738 1.231851 0.59606 1.78817 0.59606 c 1.192113 -0.0795 2.384226 -0.33776 3.576339 -0.77488 c 1.033163 -0.39736 2.125935 -1.01329 3.278311 -1.84777 c 1.152376 -0.87422 2.205409 -2.10606 3.159099 -3.69555 c -0.03974 1.0729 0.01987 1.96699 0.178817 2.68225 c 0.198685 0.71527 0.397372 1.29143 0.596055 1.72857 c 0.238423 0.51658 0.536452 0.91394 0.894085 1.19211 c 0.357634 0.23845 0.774874 0.3974 1.251719 0.47685 c 0.476845 0.11922 0.973556 0.15898 1.490143 0.11921 c 0.556313 -0.0398 1.092769 -0.13908 1.609345 -0.29804 c 0.516587 -0.15894 0.97357 -0.35763 1.370936 -0.59605 c 0.596061 -0.39736 1.331189 -1.0729 2.205406 -2.02659 c 0.913953 -0.99342 1.827907 -2.06632 2.741871 -3.21871 c 0.953691 -1.19211 1.867644 -2.36436 2.741858 -3.51673 c 0.87421 -1.19211 1.58947 -2.18554 2.14579 -2.98028 c 0.47687 -0.63579 0.75503 -1.19211 0.83449 -1.66897 c 0.11917 -0.47683 0.0993 -0.83448 -0.0596 -1.0729 c -0.15895 -0.23839 -0.39737 -0.31787 -0.71528 -0.23842 c -0.31789 0.0398 -0.63578 0.23844 -0.95369 0.59607 c -0.23843 0.31789 -0.63578 0.81461 -1.1921 1.49013 c -0.51659 0.67554 -1.112642 1.45041 -1.788176 2.32463 c -0.675533 0.87421 -1.410661 1.78817 -2.205405 2.74186 c -0.755007 0.91394 -1.490146 1.7683 -2.205405 2.56303 c -0.715271 0.75501 -1.390805 1.39081 -2.026602 1.90738 c -0.635786 0.47685 -1.152373 0.71527 -1.54974 0.71527 c -0.47685 0 -0.854348 -0.0993 -1.132505 -0.29802 c -0.238431 -0.23842 -0.417245 -0.53645 -0.536454 -0.89409 c -0.119215 -0.35763 -0.198689 -0.73514 -0.238423 -1.1325 c 0 -0.43712 0.01987 -0.83448 0.05961 -1.19212 c 0.119204 -0.59605 0.218553 -1.09276 0.298027 -1.49014 c 0.07952 -0.39736 0.139089 -0.73514 0.178814 -1.01329 c 0.07952 -0.31791 0.13909 -0.61593 0.178826 -0.89409 c 0.07941 -0.31789 0.158936 -0.65566 0.23842 -1.01329 c 0.397366 -1.82791 0.71527 -3.31805 0.95369 -4.47043 c 0.23842 -1.15237 0.417235 -2.06633 0.536445 -2.74186 c 0.119221 -0.67552 0.178826 -1.13251 0.178826 -1.37093 c 0 -0.27819 -0.01982 -0.457 -0.05958 -0.53645 c -0.07952 -0.0398 -0.238419 -0.0596 -0.476839 -0.0596 c -0.198683 0 -0.496708 0.0198 -0.894086 0.0596 c -0.357629 0.0398 -0.814612 0.11921 -1.37093 0.23842 c 0.834486 -1.27159 1.152379 -2.28488 0.953696 -3.03989 c -0.158958 -0.79474 -0.516588 -1.3908 -1.072909 -1.78817 c -0.675529 -0.4371 -1.549746 -0.75501 -2.622648 -0.95369 z m -1.403712 3.72833 c 0.151497 0.008 0.281139 0.0567 0.390417 0.14604 c 0.119214 0.15896 0.198687 0.37751 0.238422 0.65566 c 0.03975 0.23842 0.01987 0.57618 -0.05961 1.0133 c -0.03974 0.39736 -0.218555 0.91395 -0.536451 1.54975 c 0.317896 -0.0794 0.635794 -0.13905 0.95369 -0.17882 c 0.317896 -0.0398 0.576189 -0.0993 0.774874 -0.17882 c 0.238422 -0.0794 0.456975 -0.13904 0.655661 -0.17882 c 0.158946 -0.0397 0.178818 0.27817 0.05961 0.95369 c -0.07947 0.6358 -0.218554 1.45041 -0.41724 2.44384 c -0.198686 0.99344 -0.437108 2.0266 -0.715267 3.09949 c -0.278161 1.0729 -0.516583 2.00672 -0.715268 2.80147 c -0.03974 0.19868 -0.218554 0.51657 -0.53645 0.95369 c -0.27816 0.43711 -0.655663 0.91395 -1.132508 1.43053 c -0.437109 0.51658 -0.95369 1.0133 -1.549747 1.49014 c -0.556319 0.47685 -1.132507 0.87422 -1.728565 1.19211 c -0.556318 0.27813 -1.112638 0.43707 -1.668957 0.47685 c -0.55632 0 -1.053033 -0.21856 -1.490141 -0.65566 c -0.238419 -0.23843 -0.397365 -0.73513 -0.476845 -1.49014 c -0.07947 -0.79474 -0.05961 -1.70871 0.05961 -2.74186 c 0.15895 -1.03317 0.417241 -2.12594 0.774874 -3.27831 c 0.357635 -1.19211 0.83448 -2.30475 1.430536 -3.33791 c 1.430536 -2.50345 2.682256 -4.21214 3.755155 -5.1261 c 0.834481 -0.71526 1.479711 -1.06246 1.934205 -1.04012 z" fill="#ffffff"/>
        <path d="m 38.796942 240.07613 c -2.704645 -0.03825 -2.704645 4.03825 0 4 h 9.880859 c 0.01107 0.001 0.285634 0.0327 0.585938 0.197266 c 0.306304 0.16789 0.485897 0.188343 0.537109 0.939453 v -0.01953 l 0.246094 5.193358 c -0.460676 -0.176436 -0.769531 -0.251953 -0.769531 -0.251953 l -0.236328 -0.058594 h -9.244141 c -4.333333 0 -5.896484 4.367188 -5.896484 4.367188 l -0.103516 0.308593 v 2.324219 c 0 3.03333 1.431289 5.127712 2.939453 6.070312 s 3.060547 0.929688 3.060547 0.929688 h 7.591797 l 3.392578 -2.203125 l 0.01953 0.320313 c 0.08969 2.735348 4.223189 2.492675 3.992188 -0.234376 l -1 -17.009765 v -0.0098 c -0.140818 -2.06533 -1.461734 -3.545828 -2.607422 -4.173828 c -1.145688 -0.62799 -2.257813 -0.685547 -2.257813 -0.685547 l -0.066405 -0.003872 z m 1 14 h 8.644531 c 0.106906 0.0312 0.525263 0.141312 1.03711 0.482422 c 0.558515 0.372213 0.877827 0.68942 0.894531 1.355469 l 0.138672 1.363281 l -4.306641 2.798828 h -6.408203 s -0.447617 -0.0129 -0.939453 -0.320312 c -0.491836 -0.3074 -1.060547 -0.713018 -1.060547 -2.679688 v -1.564453 c 0.102847 -0.30497 0.534758 -1.435547 2 -1.435547 z" fill="#ffffff" fill-rule="evenodd" font-variant-ligatures="normal" font-variant-position="normal" font-variant-caps="normal" font-variant-numeric="normal" font-variant-alternates="normal" font-feature-settings="normal" text-indent="0" text-align="start" text-decoration-line="none" text-decoration-style="solid" text-decoration-color="#000000" text-transform="none" text-orientation="mixed" white-space="normal" shape-padding="0" isolation="auto" mix-blend-mode="normal" solid-color="#000000" solid-opacity="1" vector-effect="none"/>
        <path d="m 12 278 v 10 h 8 v -2 h -6 v -6 h 6 v -2 z" fill="#241f31"/>
        <path d="m 15 278 v -94" fill="none" opacity="0.15" stroke="#ffffff" stroke-width="2"/>
    </g>
</svg>