<?xml version="1.0" encoding="UTF-8"?>
<svg height="128px" viewBox="0 0 128 128" width="128px" xmlns="http://www.w3.org/2000/svg" xmlns:xlink="http://www.w3.org/1999/xlink">
    <linearGradient id="a" gradientTransform="matrix(0.23161 0 0 0.328992 -8.195464 263.88034)" gradientUnits="userSpaceOnUse" x1="88.595886" x2="536.595886" y1="-449.394012" y2="-449.394012">
        <stop offset="0" stop-color="#114427"/>
        <stop offset="0.0394735" stop-color="#29ab61"/>
        <stop offset="0.0768555" stop-color="#217e49"/>
        <stop offset="0.923077" stop-color="#217e49"/>
        <stop offset="0.961538" stop-color="#29ab61"/>
        <stop offset="1" stop-color="#114427"/>
    </linearGradient>
    <path d="m 20.304688 16.019531 h 87.800781 c 4.40625 0 7.980469 3.582031 7.980469 8 v 84.011719 c 0 4.417969 -3.574219 8.003906 -7.980469 8.003906 h -87.800781 c -4.40625 0 -7.980469 -3.585937 -7.980469 -8.003906 v -84.011719 c 0 -4.417969 3.574219 -8 7.980469 -8 z m 0 0" fill="url(#a)"/>
    <path d="m 20.304688 12.019531 h 87.800781 c 4.40625 0 7.980469 3.582031 7.980469 8 v 84.011719 c 0 4.417969 -3.574219 8 -7.980469 8 h -87.800781 c -4.40625 0 -7.980469 -3.582031 -7.980469 -8 v -84.011719 c 0 -4.417969 3.574219 -8 7.980469 -8 z m 0 0" fill="#60cb84"/>
    <path d="m 19.664062 15.964844 h 89.003907 c 2.164062 0 3.917969 1.75 3.917969 3.914062 v 84.238282 c 0 2.164062 -1.753907 3.917968 -3.917969 3.917968 h -89.003907 c -2.160156 0 -3.914062 -1.753906 -3.914062 -3.917968 v -84.238282 c 0 -2.164062 1.753906 -3.914062 3.914062 -3.914062 z m 0 0" fill="#002f00"/>
    <g fill="#60cb84">
        <path d="m 40.171875 40.511719 c 0 -0.75 0.300781 -1.398438 0.902344 -1.945313 c 0.601562 -0.546875 1.320312 -0.820312 2.152343 -0.820312 c 0.878907 0 1.628907 0.273437 2.253907 0.820312 s 0.9375 1.195313 0.9375 1.945313 c 0 0.757812 -0.3125 1.410156 -0.9375 1.945312 c -0.613281 0.535157 -1.363281 0.804688 -2.253907 0.804688 c -0.867187 0 -1.597656 -0.257813 -2.1875 -0.777344 c -0.578124 -0.527344 -0.867187 -1.183594 -0.867187 -1.972656 z m 3.105469 -12.503907 c -2.195313 0 -3.835938 1.039063 -4.925782 3.117188 c -1.082031 2.074219 -1.617187 5.242188 -1.617187 9.488281 c 0 4.234375 0.535156 7.382813 1.617187 9.460938 c 1.089844 2.074219 2.730469 3.113281 4.925782 3.113281 c 2.210937 0 3.863281 -1.039062 4.941406 -3.113281 c 1.089844 -2.078125 1.636719 -5.226563 1.636719 -9.460938 c 0 -4.246093 -0.546875 -7.414062 -1.636719 -9.488281 c -1.078125 -2.078125 -2.730469 -3.117188 -4.941406 -3.117188 z m 0 -3.273437 c 3.726562 0 6.550781 1.339844 8.464844 4.019531 c 1.914062 2.671875 2.871093 6.625 2.871093 11.859375 c 0 5.214844 -0.957031 9.164063 -2.871093 11.84375 c -1.914063 2.683594 -4.738282 4.019531 -8.464844 4.019531 c -3.730469 0 -6.542969 -1.335937 -8.449219 -4.019531 c -1.902344 -2.679687 -2.855469 -6.628906 -2.855469 -11.84375 c 0 -5.234375 0.953125 -9.1875 2.855469 -11.859375 c 1.90625 -2.679687 4.71875 -4.019531 8.449219 -4.019531 z m -14.410156 -7.808594"/>
        <path d="m 79.511719 83.851562 c 0 -0.75 0.300781 -1.398437 0.902343 -1.945312 c 0.601563 -0.542969 1.320313 -0.820312 2.15625 -0.820312 c 0.875 0 1.625 0.277343 2.253907 0.820312 c 0.621093 0.546875 0.933593 1.195312 0.933593 1.945312 c 0 0.761719 -0.3125 1.410157 -0.933593 1.945313 c -0.613281 0.535156 -1.367188 0.804687 -2.253907 0.804687 c -0.871093 0 -1.601562 -0.257812 -2.1875 -0.777343 c -0.582031 -0.527344 -0.871093 -1.183594 -0.871093 -1.972657 z m 3.105469 -12.503906 c -2.195313 0 -3.835938 1.039063 -4.921876 3.117188 c -1.082031 2.074218 -1.621093 5.242187 -1.621093 9.488281 c 0 4.234375 0.539062 7.382813 1.621093 9.460937 c 1.085938 2.078126 2.726563 3.113282 4.921876 3.113282 c 2.214843 0 3.863281 -1.035156 4.945312 -3.113282 c 1.089844 -2.078124 1.636719 -5.226562 1.636719 -9.460937 c 0 -4.246094 -0.546875 -7.414063 -1.636719 -9.488281 c -1.082031 -2.078125 -2.730469 -3.117188 -4.945312 -3.117188 z m 0 -3.273437 c 3.730468 0 6.550781 1.339843 8.46875 4.019531 c 1.910156 2.671875 2.871093 6.625 2.871093 11.859375 c 0 5.21875 -0.960937 9.164063 -2.871093 11.84375 c -1.917969 2.683594 -4.738282 4.023437 -8.46875 4.023437 c -3.730469 0 -6.542969 -1.339843 -8.445313 -4.023437 c -1.90625 -2.679687 -2.855469 -6.625 -2.855469 -11.84375 c 0 -5.234375 0.949219 -9.1875 2.855469 -11.859375 c 1.902344 -2.679688 4.714844 -4.019531 8.445313 -4.019531 z m -14.40625 -7.808594"/>
        <path d="m 72.988281 52.726562 h 8.332031 v -24.035156 l -8.980468 1.597656 v -3.882812 l 8.929687 -1.558594 h 5.367188 v 27.878906 h 8.226562 v 3.574219 h -21.875 z m -7.175781 -36.472656"/>
        <path d="m 33.640625 96.066406 h 8.332031 v -24.035156 l -8.980468 1.601562 v -3.882812 l 8.929687 -1.558594 h 5.367187 v 27.875 h 8.226563 v 3.578125 h -21.875 z m -7.175781 -36.46875"/>
    </g>
</svg>