<svg width="24" height="24" viewBox="0 0 24 24" fill="none" xmlns="http://www.w3.org/2000/svg">
<path d="M7 3.34132C8.47087 2.48824 10.1786 2 12 2C17.5228 2 22 6.48884 22 12.0261C22 20.178 13.8385 14.4192 12.2619 16.9268C11.8674 17.5541 12.2938 18.3364 12.8168 18.8607C13.4703 19.5159 13.4703 20.5781 12.8168 21.2333C12.2938 21.7576 11.5816 22.0709 10.8468 21.9863C5.86713 21.413 2 17.1723 2 12.0261C2 10.1945 2.48985 8.47765 3.34537 7" stroke="#1A5FB4" stroke-width="1.5" stroke-linecap="round"/>
<circle cx="17.5" cy="11.5" r="1.5" stroke="#1A5FB4" stroke-width="1.5"/>
<circle cx="6.5" cy="11.5" r="1.5" stroke="#1A5FB4" stroke-width="1.5"/>
<path d="M11.085 6.99979C11.085 7.82821 10.4134 8.49979 9.585 8.49979C8.75658 8.49979 8.085 7.82821 8.085 6.99979C8.085 6.17136 8.75658 5.49979 9.585 5.49979C10.4134 5.49979 11.085 6.17136 11.085 6.99979Z" stroke="#1A5FB4" stroke-width="1.5"/>
<path d="M16 7C16 7.82843 15.3284 8.5 14.5 8.5C13.6716 8.5 13 7.82843 13 7C13 6.17157 13.6716 5.5 14.5 5.5C15.3284 5.5 16 6.17157 16 7Z" stroke="#1A5FB4" stroke-width="1.5"/>
</svg>
