<svg width="220" height="161" viewBox="0 0 220 161" fill="none" xmlns="http://www.w3.org/2000/svg">
<ellipse cx="194.974" cy="97.428" rx="20.2582" ry="32.7224" transform="rotate(-13.6573 194.974 97.428)" fill="url(#paint0_radial_67_10)"/>
<ellipse cx="29.035" cy="80.8312" rx="17.0184" ry="32.7224" transform="rotate(135 29.035 80.8312)" fill="url(#paint1_radial_67_10)"/>
<ellipse cx="193.307" cy="101.231" rx="16.88" ry="29.1583" transform="rotate(-13.6573 193.307 101.231)" fill="#180A33"/>
<ellipse cx="31.0924" cy="79.0306" rx="14.3401" ry="30.0935" transform="rotate(135 31.0924 79.0306)" fill="#180A33"/>
<circle cx="117.765" cy="79.7651" r="79.7651" fill="url(#paint2_radial_67_10)"/>
<path d="M170.873 63.0114C171.463 70.4872 170.471 78.0035 167.962 85.069C165.452 92.1346 161.482 98.5905 156.31 104.015C151.138 109.439 144.882 113.71 137.949 116.548C131.016 119.386 123.563 120.727 116.078 120.484C108.592 120.241 101.241 118.419 94.5067 115.137C87.7721 111.856 81.8049 107.188 76.995 101.44C72.1851 95.6919 68.6407 88.992 66.5936 81.7785C64.5464 74.565 64.0425 67.0002 65.1148 59.5784L70.3836 60.3415C69.4185 67.0212 69.872 73.8295 71.7145 80.3216C73.5569 86.8138 76.7468 92.8436 81.0758 98.0171C85.4047 103.191 90.7752 107.391 96.8363 110.345C102.897 113.298 109.513 114.938 116.25 115.156C122.987 115.375 129.695 114.168 135.934 111.614C142.174 109.06 147.805 105.216 152.459 100.334C157.114 95.4524 160.687 89.6421 162.946 83.2831C165.204 76.9241 166.097 70.1594 165.566 63.4313L170.873 63.0114Z" fill="url(#paint3_radial_67_10)"/>
<path d="M171.104 65.4753C171.104 93.1547 147.27 115.593 117.868 115.593C88.4667 115.593 64.632 93.1547 64.632 65.4753C64.632 37.796 88.4667 15.3574 117.868 15.3574C147.27 15.3574 171.104 37.796 171.104 65.4753Z" fill="url(#paint4_radial_67_10)"/>
<rect x="99.0156" y="60.8184" width="23.7981" height="12.4525" rx="6.22625" transform="rotate(-90 99.0156 60.8184)" fill="url(#paint5_linear_67_10)"/>
<rect x="124.137" y="60.7402" width="23.7981" height="12.4525" rx="6.22625" transform="rotate(-90 124.137 60.7402)" fill="url(#paint6_linear_67_10)"/>
<defs>
<radialGradient id="paint0_radial_67_10" cx="0" cy="0" r="1" gradientUnits="userSpaceOnUse" gradientTransform="translate(195.745 41.75) rotate(84.3927) scale(84.719 63.7192)">
<stop offset="0.0311558" stop-color="#8E5CF1"/>
<stop offset="0.294505" stop-color="#7441D9"/>
<stop offset="0.844362" stop-color="#532F9D"/>
</radialGradient>
<radialGradient id="paint1_radial_67_10" cx="0" cy="0" r="1" gradientUnits="userSpaceOnUse" gradientTransform="translate(22.511 61.7029) rotate(73.5252) scale(49.8088 31.5237)">
<stop stop-color="#8E5CF1"/>
<stop offset="0.489303" stop-color="#7441D9"/>
<stop offset="1" stop-color="#6239B4"/>
</radialGradient>
<radialGradient id="paint2_radial_67_10" cx="0" cy="0" r="1" gradientUnits="userSpaceOnUse" gradientTransform="translate(84.5585 20.3391) rotate(61.9578) scale(146.419)">
<stop offset="0.1539" stop-color="#8E5CF1"/>
<stop offset="0.456731" stop-color="#7441D9"/>
<stop offset="0.935869" stop-color="#6239B4"/>
</radialGradient>
<radialGradient id="paint3_radial_67_10" cx="0" cy="0" r="1" gradientUnits="userSpaceOnUse" gradientTransform="translate(94.9144 29.479) rotate(62.5934) scale(97.7811 99.1198)">
<stop stop-color="#371875"/>
<stop offset="0.38667" stop-color="#200E42"/>
<stop offset="1" stop-color="#0A0318"/>
</radialGradient>
<radialGradient id="paint4_radial_67_10" cx="0" cy="0" r="1" gradientUnits="userSpaceOnUse" gradientTransform="translate(94.9144 29.479) rotate(62.5934) scale(97.7811 99.1198)">
<stop stop-color="#371875"/>
<stop offset="0.38667" stop-color="#200E42"/>
<stop offset="1" stop-color="#0A0318"/>
</radialGradient>
<linearGradient id="paint5_linear_67_10" x1="119.822" y1="62.0326" x2="101.737" y2="61.707" gradientUnits="userSpaceOnUse">
<stop stop-color="#7441D9"/>
<stop offset="1" stop-color="#6239B4"/>
</linearGradient>
<linearGradient id="paint6_linear_67_10" x1="144.944" y1="61.9545" x2="126.858" y2="61.6289" gradientUnits="userSpaceOnUse">
<stop stop-color="#7441D9"/>
<stop offset="1" stop-color="#6239B4"/>
</linearGradient>
</defs>
</svg>
