<?xml version="1.0" encoding="utf-8"?>
<svg width="290px" height="150px" preserveAspectRatio="xMidYMid meet" viewBox="4.692 1.953 76.797 28.069" style="-ms-transform: rotate(360deg); -webkit-transform: rotate(360deg); transform: rotate(360deg);" xmlns="http://www.w3.org/2000/svg">
  <defs>
    <linearGradient id="grad1" x1="0%" y1="0%" x2="0%" y2="100%" gradientTransform="rotate(-80)">
      <stop offset="0" style="stop-color:#62a9d3;stop-opacity:1"/>
      <stop offset="1" style="stop-color:#8d6fc7;stop-opacity:1"/>
    </linearGradient>
  </defs>
  <g>
    <path fill="url(#IconifyId-18336ff944b-bf80ea-28503)" d="M7.75 2.005h17a2 2 0 0 1 2 2v22h-19v-24Z"/>
    <path fill="url(#IconifyId-18336ff944b-bf80ea-28504)" d="M7.75 2.005h17a2 2 0 0 1 2 2v22h-19v-24Z"/>
    <path fill="url(#IconifyId-18336ff944b-bf80ea-28505)" d="M5.25 26.505h21.5v2.5h-.5l-.5.5H5.25v-3Z"/>
    <path fill="url(#IconifyId-18336ff944b-bf80ea-28506)" d="M5.25 26.505h21.5v2.5h-.5l-.5.5H5.25v-3Z"/>
    <path fill="url(#IconifyId-18336ff944b-bf80ea-28507)" d="M6.25 2.005a1.5 1.5 0 0 0-1.5 1.5v24.5h1a1 1 0 0 1 1-1h1v-25h-1.5Z"/>
    <path fill="url(#IconifyId-18336ff944b-bf80ea-28509)" d="M6.25 2.005a1.5 1.5 0 0 0-1.5 1.5v24.5h1a1 1 0 0 1 1-1h1v-25h-1.5Z"/>
    <path fill="url(#IconifyId-18336ff944b-bf80ea-28508)" d="M6.25 26.005a1.5 1.5 0 0 0-1.5 1.5v1a1.5 1.5 0 0 0 1.5 1.5h19.408c.653 0 1.092-.335 1.092-1h-20a1 1 0 1 1 0-2h20v-1H6.25Z"/>
    <rect width="2.575" height="1.272" x="9.452" y="3.631" fill="#CEC8D4" rx=".636" transform="rotate(45 9.452 3.63)"/>
    <rect width="2.575" height="1.272" x="9.452" y="12.645" fill="#CD62AB" rx=".636" transform="rotate(45 9.452 12.645)"/>
    <rect width="2.575" height="1.272" x="9.452" y="21.645" fill="#3E8FD4" rx=".636" transform="rotate(45 9.452 21.645)"/>
    <rect width="2.575" height="1.272" x="20.38" y="3.631" fill="#CBC5D1" rx=".636" transform="rotate(45 20.38 3.63)"/>
    <rect width="2.575" height="1.272" x="20.38" y="12.645" fill="#CB60A9" rx=".636" transform="rotate(45 20.38 12.645)"/>
    <rect width="2.575" height="1.272" x="20.38" y="21.645" fill="#3C8DD1" rx=".636" transform="rotate(45 20.38 21.645)"/>
    <rect width="2.575" height="1.272" fill="#CE62AB" rx=".636" transform="scale(-1 1) rotate(45 -11.19 -14.62)"/>
    <rect width="2.575" height="1.272" fill="#418FD3" rx=".636" transform="scale(-1 1) rotate(45 -22.072 -10.113)"/>
    <rect width="2.575" height="1.272" fill="#CDC7D3" rx=".636" transform="scale(-1 1) rotate(45 -32.936 -5.613)"/>
    <rect width="2.575" height="1.272" fill="#CC61AA" rx=".636" transform="scale(-1 1) rotate(45 -18.68 -16.952)"/>
    <rect width="2.575" height="1.272" x="24.126" y="8.244" fill="#CAC5D1" rx=".636" transform="rotate(45 24.126 8.244)"/>
    <rect width="2.575" height="1.272" fill="#428DD1" rx=".636" transform="matrix(-1 0 0 1 22.128 8.968)"/>
    <rect width="2.575" height="1.272" fill="#CDC7D3" rx=".636" transform="matrix(-1 0 0 1 14.443 8.968)"/>
    <rect width="2.575" height="1.272" fill="#3F8DD2" rx=".636" transform="scale(-1 1) rotate(45 -29.545 -12.452)"/>
    <rect width="2.575" height="1.272" x="24.126" y="17.244" fill="#CA5FA8" rx=".636" transform="rotate(45 24.126 17.244)"/>
    <rect width="2.575" height="1.272" fill="#438FD4" rx=".636" transform="matrix(0 -1 -1 0 10.27 10.892)"/>
    <rect width="2.575" height="1.272" fill="#448ED2" rx=".636" transform="matrix(-1 0 0 1 18.285 4.355)"/>
    <rect width="2.575" height="1.272" fill="#CBC5D1" rx=".636" transform="matrix(-1 0 0 1 22.128 17.968)"/>
    <rect width="2.575" height="1.272" fill="#CFCAD6" rx=".636" transform="matrix(-1 0 0 1 18.285 13.37)"/>
    <rect width="2.575" height="1.272" fill="#CC60A9" rx=".636" transform="matrix(-1 0 0 1 18.285 22.37)"/>
    <rect width="2.575" height="1.272" fill="#CD61AA" rx=".636" transform="matrix(-1 0 0 1 14.443 17.968)"/>
    <rect width="2.575" height="1.272" fill="#CA61A9" rx=".636" transform="matrix(0 -1 -1 0 25.223 6.279)"/>
    <rect width="2.575" height="1.272" fill="#418DD1" rx=".636" transform="matrix(0 -1 -1 0 25.223 15.293)"/>
    <rect width="2.575" height="1.272" fill="#CAC5D1" rx=".636" transform="matrix(0 -1 -1 0 25.223 24.293)"/>
    <rect width="2.575" height="1.272" fill="#CEC8D4" rx=".636" transform="matrix(0 -1 -1 0 10.27 19.892)"/>
    <defs>
      <linearGradient id="IconifyId-18336ff944b-bf80ea-28503" x1="17.25" x2="17.25" y1="2.005" y2="26.005" gradientUnits="userSpaceOnUse">
        <stop stop-color="#5D4573"/>
        <stop offset="1" stop-color="#4B3E59"/>
      </linearGradient>
      <linearGradient id="IconifyId-18336ff944b-bf80ea-28504" x1="28.44" x2="25.73" y1="5.387" y2="5.484" gradientUnits="userSpaceOnUse">
        <stop offset="0.409" stop-color="#806E91"/>
        <stop offset="1" stop-color="#806E91" stop-opacity="0"/>
      </linearGradient>
      <linearGradient id="IconifyId-18336ff944b-bf80ea-28505" x1="6.471" x2="26.569" y1="28.42" y2="28.42" gradientUnits="userSpaceOnUse">
        <stop stop-color="#D6C0EA"/>
        <stop offset="1" stop-color="#DCCCED"/>
      </linearGradient>
      <linearGradient id="IconifyId-18336ff944b-bf80ea-28506" x1="16" x2="16" y1="26.743" y2="28.162" gradientUnits="userSpaceOnUse">
        <stop stop-color="#9F8CB4"/>
        <stop offset="1" stop-color="#9F8CB4" stop-opacity="0"/>
      </linearGradient>
      <linearGradient id="IconifyId-18336ff944b-bf80ea-28507" x1="4.955" x2="7.75" y1="16.742" y2="16.742" gradientUnits="userSpaceOnUse">
        <stop stop-color="#4E4459"/>
        <stop offset="1" stop-color="#453C4E"/>
      </linearGradient>
      <linearGradient id="IconifyId-18336ff944b-bf80ea-28508" x1="6.181" x2="26.75" y1="28.969" y2="28.936" gradientUnits="userSpaceOnUse">
        <stop stop-color="#512F71"/>
        <stop offset="1" stop-color="#4F2E6D"/>
      </linearGradient>
      <radialGradient id="IconifyId-18336ff944b-bf80ea-28509" cx="0" cy="0" r="1" gradientTransform="matrix(0 -6.6454 1.17096 0 5.149 26.678)" gradientUnits="userSpaceOnUse">
        <stop stop-color="#51475C"/>
        <stop offset="1" stop-color="#51475C" stop-opacity="0"/>
      </radialGradient>
    </defs>
  </g>
  <g transform="matrix(0.029904, 0, 0, 0.031879, 24.306225, 4.296008)">
    <path d="M 1186.904 97.656 L 1187.904 97.656 L 1189.404 99.156 L 1189.404 104.156 L 1188.404 105.156 L 1188.404 106.156 L 1186.404 108.156 L 1186.404 109.156 L 1183.404 112.156 L 1183.404 113.156 L 1182.404 114.156 L 1182.404 115.156 L 1178.404 119.156 L 1178.404 120.156 L 1176.404 122.156 L 1176.404 123.156 L 1173.404 126.156 L 1173.404 127.156 L 1171.404 129.156 L 1171.404 131.156 L 1169.404 133.156 L 1169.404 139.156 L 1167.404 141.156 L 1167.404 146.156 L 1166.404 147.156 L 1166.404 148.156 L 1165.404 149.156 L 1165.404 154.156 L 1164.404 155.156 L 1164.404 157.156 L 1163.404 158.156 L 1163.404 161.156 L 1162.404 162.156 L 1162.404 168.156 L 1161.404 169.156 L 1161.404 172.156 L 1160.404 173.156 L 1160.404 196.156 L 1158.404 198.156 L 1158.404 231.156 L 1156.404 233.156 L 1156.404 309.156 L 1156.404 309.656 L 1156.904 309.656 L 1158.904 309.656 L 1160.904 307.656 L 1161.904 307.656 L 1162.904 306.656 L 1163.904 306.656 L 1174.904 295.656 L 1175.904 295.656 L 1179.904 291.656 L 1180.904 291.656 L 1183.904 288.656 L 1184.904 288.656 L 1188.904 284.656 L 1190.904 284.656 L 1193.904 281.656 L 1194.904 281.656 L 1195.904 280.656 L 1196.904 280.656 L 1197.904 279.656 L 1198.904 279.656 L 1200.904 277.656 L 1201.904 277.656 L 1203.904 275.656 L 1205.904 275.656 L 1207.904 273.656 L 1208.904 273.656 L 1209.904 272.656 L 1210.904 272.656 L 1211.904 271.656 L 1212.904 271.656 L 1213.904 270.656 L 1214.904 270.656 L 1216.904 268.656 L 1219.904 268.656 L 1221.904 266.656 L 1225.904 266.656 L 1226.904 265.656 L 1227.904 265.656 L 1228.904 264.656 L 1231.904 264.656 L 1232.904 263.656 L 1234.904 263.656 L 1235.904 262.656 L 1236.904 262.656 L 1237.904 261.656 L 1266.904 261.656 L 1267.904 262.656 L 1268.904 262.656 L 1269.904 263.656 L 1270.904 263.656 L 1271.904 264.656 L 1274.904 264.656 L 1275.904 265.656 L 1276.904 265.656 L 1277.904 266.656 C 1278.738 266.656 1279.238 266.656 1279.404 266.656 L 1279.404 267.156 C 1279.404 267.989 1279.404 268.489 1279.404 268.656 L 1279.904 268.656 L 1281.904 268.656 L 1293.404 280.156 L 1293.404 281.156 L 1295.404 283.156 C 1295.404 283.989 1295.404 284.489 1295.404 284.656 L 1295.904 284.656 C 1296.738 284.656 1297.238 284.656 1297.404 284.656 C 1297.404 284.823 1297.404 285.323 1297.404 286.156 L 1298.404 287.156 L 1298.404 288.156 L 1300.404 290.156 L 1300.404 291.156 L 1302.404 293.156 L 1302.404 296.156 L 1303.404 297.156 L 1303.404 298.156 L 1304.404 299.156 L 1304.404 302.156 L 1305.404 303.156 L 1305.404 304.156 L 1306.404 305.156 L 1306.404 313.156 L 1307.404 314.156 L 1307.404 330.156 L 1306.404 331.156 L 1306.404 336.156 L 1305.404 337.156 L 1305.404 338.156 L 1304.404 339.156 L 1304.404 342.156 L 1303.404 343.156 L 1303.404 344.156 L 1302.404 345.156 L 1302.404 348.156 L 1300.404 350.156 L 1300.404 353.156 L 1298.404 355.156 L 1298.404 357.156 L 1296.404 359.156 L 1296.404 360.156 L 1295.404 361.156 L 1295.404 362.156 L 1293.404 364.156 L 1293.404 365.156 L 1291.404 367.156 L 1291.404 368.156 L 1288.404 371.156 L 1288.404 372.156 L 1284.404 376.156 C 1284.404 376.989 1284.404 377.489 1284.404 377.656 L 1283.904 377.656 C 1283.071 377.656 1282.571 377.656 1282.404 377.656 C 1282.404 377.823 1282.404 378.323 1282.404 379.156 L 1280.404 381.156 L 1280.404 382.156 L 1274.904 387.656 C 1274.071 387.656 1273.571 387.656 1273.404 387.656 C 1273.404 387.823 1273.404 388.323 1273.404 389.156 L 1267.904 394.656 L 1266.904 394.656 L 1260.904 400.656 L 1259.904 400.656 L 1257.904 402.656 L 1256.904 402.656 L 1254.904 404.656 L 1253.904 404.656 L 1251.904 406.656 L 1250.904 406.656 L 1249.904 407.656 L 1248.904 407.656 L 1247.904 408.656 L 1246.904 408.656 L 1245.904 409.656 L 1243.904 409.656 L 1242.904 410.656 L 1241.904 410.656 L 1240.904 411.656 L 1239.904 411.656 L 1238.904 412.656 L 1236.904 412.656 L 1235.904 413.656 L 1232.904 413.656 L 1231.904 414.656 L 1227.904 414.656 L 1225.904 416.656 L 1213.904 416.656 L 1212.904 417.656 L 1209.904 417.656 L 1208.904 418.656 L 1207.904 417.656 L 1206.904 417.656 L 1205.904 416.656 L 1200.904 416.656 L 1198.904 414.656 L 1196.904 414.656 L 1195.904 413.656 L 1194.904 413.656 L 1192.904 411.656 L 1190.904 411.656 L 1190.404 411.656 C 1190.404 411.489 1190.404 410.989 1190.404 410.156 L 1189.404 409.156 L 1189.404 408.156 L 1188.404 407.156 L 1188.404 406.156 L 1187.404 405.156 L 1187.404 404.156 L 1186.404 403.156 L 1186.404 393.156 L 1188.404 391.156 L 1188.404 390.156 L 1190.404 388.156 L 1190.404 387.156 L 1192.404 385.156 L 1192.404 384.156 L 1194.404 382.156 L 1194.404 381.156 L 1195.404 380.156 L 1195.404 379.156 L 1201.904 372.656 L 1205.904 372.656 L 1206.904 371.656 L 1219.904 371.656 L 1220.904 372.656 L 1221.904 372.656 L 1223.904 374.656 L 1225.904 374.656 L 1228.904 377.656 L 1229.904 377.656 L 1231.904 379.656 L 1232.904 379.656 L 1233.904 380.656 L 1234.904 380.656 L 1235.904 381.656 L 1257.904 381.656 L 1258.904 380.656 L 1261.904 380.656 L 1262.904 379.656 L 1263.904 379.656 L 1264.904 378.656 L 1265.904 378.656 L 1267.404 377.156 L 1267.404 375.156 L 1269.404 373.156 L 1269.404 371.156 L 1270.404 370.156 L 1270.404 369.156 L 1271.404 368.156 L 1271.404 363.156 L 1272.404 362.156 L 1272.404 361.156 L 1273.404 360.156 L 1273.404 350.156 L 1272.404 349.156 L 1272.404 345.156 L 1271.404 344.156 L 1271.404 338.156 L 1270.404 337.156 L 1270.404 336.156 L 1269.404 335.156 L 1269.404 332.156 L 1267.404 330.156 L 1267.404 328.156 L 1266.404 327.156 L 1266.404 326.156 L 1265.404 325.156 L 1265.404 324.156 L 1264.404 323.156 L 1264.404 322.156 L 1263.404 321.156 L 1263.404 320.156 L 1260.404 317.156 L 1260.404 316.156 L 1258.404 314.156 L 1258.404 313.156 L 1250.904 305.656 L 1249.904 305.656 L 1247.904 303.656 L 1246.904 303.656 L 1244.904 301.656 L 1242.904 301.656 L 1240.904 299.656 L 1238.904 299.656 L 1237.904 298.656 L 1236.904 298.656 L 1235.904 297.656 L 1231.904 297.656 L 1230.904 296.656 L 1225.904 296.656 L 1224.904 295.656 L 1215.904 295.656 L 1214.904 296.656 L 1212.904 296.656 L 1211.904 297.656 L 1208.904 297.656 L 1207.904 298.656 L 1206.904 298.656 L 1205.904 299.656 L 1200.904 299.656 L 1198.904 301.656 L 1194.904 301.656 L 1192.904 303.656 L 1189.904 303.656 L 1188.904 304.656 L 1187.904 304.656 L 1186.904 305.656 L 1185.904 305.656 L 1180.904 310.656 L 1179.904 310.656 L 1175.904 314.656 L 1174.904 314.656 L 1169.904 319.656 L 1168.904 319.656 L 1164.404 324.156 L 1164.404 326.156 L 1163.404 327.156 L 1163.404 328.156 L 1162.404 329.156 L 1162.404 331.156 L 1160.404 333.156 L 1160.404 335.156 L 1158.404 337.156 L 1158.404 341.156 L 1156.404 343.156 L 1156.404 350.156 L 1155.404 351.156 L 1155.404 355.156 L 1154.404 356.156 L 1154.404 359.156 L 1153.404 360.156 L 1153.404 369.156 L 1151.404 371.156 L 1151.404 377.156 L 1149.404 379.156 L 1149.404 380.156 L 1147.404 382.156 L 1147.404 384.156 L 1145.404 386.156 L 1145.404 387.156 L 1144.404 388.156 L 1144.404 389.156 L 1140.404 393.156 L 1140.404 394.156 L 1138.404 396.156 L 1138.404 397.156 L 1131.404 404.156 C 1131.404 404.989 1131.404 405.489 1131.404 405.656 L 1130.904 405.656 C 1130.071 405.656 1129.571 405.656 1129.404 405.656 L 1129.404 406.156 C 1129.404 406.989 1129.404 407.489 1129.404 407.656 C 1129.238 407.656 1128.738 407.656 1127.904 407.656 L 1122.904 412.656 L 1121.904 412.656 L 1120.904 413.656 L 1119.904 413.656 L 1118.904 414.656 L 1116.904 414.656 L 1115.904 415.656 L 1114.904 415.656 L 1113.904 416.656 L 1112.904 416.656 L 1111.904 417.656 L 1110.904 417.656 L 1109.404 416.156 L 1109.404 412.156 L 1111.404 410.156 L 1111.404 409.156 L 1112.404 408.156 L 1112.404 406.156 L 1114.404 404.156 L 1114.404 402.156 L 1116.404 400.156 L 1116.404 398.156 L 1118.404 396.156 L 1118.404 394.156 L 1120.404 392.156 L 1120.404 278.156 L 1121.404 277.156 L 1121.404 276.156 L 1122.404 275.156 L 1122.404 236.156 L 1123.404 235.156 L 1123.404 215.156 L 1125.404 213.156 L 1125.404 210.156 L 1126.404 209.156 L 1126.404 207.156 L 1127.404 206.156 L 1127.404 189.156 L 1128.404 188.156 L 1128.404 187.156 L 1129.404 186.156 L 1129.404 181.156 L 1130.404 180.156 L 1130.404 178.156 L 1131.404 177.156 L 1131.404 175.156 L 1132.404 174.156 L 1132.404 170.156 L 1133.404 169.156 L 1133.404 168.156 L 1134.404 167.156 L 1134.404 163.156 L 1135.404 162.156 L 1135.404 161.156 L 1136.404 160.156 L 1136.404 158.156 L 1138.404 156.156 L 1138.404 154.156 L 1139.404 153.156 L 1139.404 152.156 L 1140.404 151.156 L 1140.404 150.156 L 1141.404 149.156 L 1141.404 147.156 L 1143.404 145.156 L 1143.404 143.156 L 1146.404 140.156 L 1146.404 139.156 L 1148.404 137.156 L 1148.404 136.156 L 1154.404 130.156 L 1154.404 129.156 L 1157.404 126.156 L 1157.404 125.156 L 1161.404 121.156 L 1161.404 120.156 L 1165.404 116.156 L 1165.404 115.156 L 1168.404 112.156 L 1168.404 111.156 L 1172.904 106.656 L 1173.904 106.656 L 1175.904 104.656 L 1176.904 104.656 L 1178.904 102.656 L 1179.904 102.656 L 1180.904 101.656 L 1181.904 101.656 L 1183.904 99.656 L 1184.904 99.656 L 1186.904 97.656 Z M 1263.904 101.656 L 1266.904 101.656 L 1267.904 102.656 L 1275.904 102.656 L 1276.904 103.656 L 1278.904 103.656 L 1279.904 104.656 L 1281.904 104.656 L 1283.904 106.656 L 1284.904 106.656 L 1286.904 108.656 L 1287.904 108.656 L 1293.404 114.156 L 1293.404 115.156 L 1297.404 119.156 L 1297.404 121.156 L 1298.404 122.156 L 1298.404 140.156 L 1297.404 141.156 L 1297.404 144.156 L 1295.404 146.156 L 1295.404 150.156 L 1293.404 152.156 L 1293.404 153.156 L 1291.404 155.156 L 1291.404 157.156 L 1289.404 159.156 L 1289.404 160.156 L 1286.404 163.156 L 1286.404 164.156 L 1277.904 172.656 L 1276.904 172.656 L 1273.904 175.656 L 1272.904 175.656 L 1270.904 177.656 L 1269.904 177.656 L 1267.904 179.656 L 1266.904 179.656 L 1264.904 181.656 L 1263.904 181.656 L 1262.904 182.656 L 1261.904 182.656 L 1259.904 184.656 L 1258.904 184.656 L 1256.904 186.656 L 1254.904 186.656 L 1252.904 188.656 L 1251.904 188.656 L 1250.904 189.656 L 1249.904 189.656 L 1247.904 191.656 L 1245.904 191.656 L 1243.904 193.656 L 1241.904 193.656 L 1241.404 193.656 L 1241.404 194.156 C 1241.404 194.989 1241.404 195.489 1241.404 195.656 L 1240.904 195.656 L 1238.904 195.656 L 1237.904 196.656 L 1236.904 196.656 L 1235.904 197.656 L 1234.904 197.656 L 1233.904 198.656 L 1231.904 198.656 L 1229.904 200.656 L 1227.904 200.656 L 1225.904 202.656 L 1223.904 202.656 L 1221.904 204.656 L 1219.904 204.656 L 1218.904 205.656 L 1216.904 205.656 L 1215.904 206.656 L 1214.904 206.656 L 1213.904 207.656 L 1211.904 207.656 L 1209.904 209.656 L 1207.904 209.656 L 1205.904 211.656 L 1201.904 211.656 L 1199.904 213.656 L 1196.904 213.656 L 1195.904 214.656 L 1194.904 214.656 L 1193.904 215.656 L 1191.904 215.656 L 1190.904 216.656 L 1188.904 216.656 L 1187.904 217.656 L 1186.904 217.656 L 1185.904 218.656 L 1182.904 218.656 L 1181.904 219.656 L 1180.904 219.656 L 1179.404 218.156 L 1179.404 213.156 L 1179.404 212.656 C 1179.571 212.656 1180.071 212.656 1180.904 212.656 L 1182.904 210.656 L 1183.904 210.656 L 1184.904 209.656 L 1186.904 209.656 L 1188.904 207.656 L 1189.904 207.656 L 1191.904 205.656 L 1192.904 205.656 L 1194.904 203.656 L 1196.904 203.656 L 1198.904 201.656 L 1199.904 201.656 L 1200.904 200.656 L 1201.904 200.656 L 1203.904 198.656 L 1204.904 198.656 L 1206.904 196.656 L 1208.904 196.656 L 1210.904 194.656 L 1211.904 194.656 L 1213.904 192.656 L 1214.904 192.656 L 1215.904 191.656 L 1216.904 191.656 L 1217.904 190.656 L 1218.904 190.656 L 1219.904 189.656 L 1220.904 189.656 L 1222.904 187.656 L 1223.904 187.656 L 1225.904 185.656 L 1226.904 185.656 L 1228.904 183.656 L 1230.904 183.656 L 1231.904 182.656 L 1232.904 182.656 L 1234.904 180.656 L 1235.904 180.656 L 1237.904 178.656 L 1239.904 178.656 L 1240.404 178.656 L 1240.404 178.156 C 1240.404 177.323 1240.404 176.823 1240.404 176.656 L 1240.904 176.656 L 1242.904 176.656 L 1244.904 174.656 L 1245.904 174.656 L 1247.404 173.156 C 1247.404 172.323 1247.404 171.823 1247.404 171.656 L 1247.904 171.656 C 1248.738 171.656 1249.238 171.656 1249.404 171.656 L 1249.404 171.156 C 1249.404 170.323 1249.404 169.823 1249.404 169.656 L 1249.904 169.656 C 1250.738 169.656 1251.238 169.656 1251.404 169.656 L 1251.404 169.156 C 1251.404 168.323 1251.404 167.823 1251.404 167.656 C 1251.571 167.656 1252.071 167.656 1252.904 167.656 L 1254.904 165.656 L 1255.904 165.656 L 1265.404 156.156 L 1265.404 155.156 L 1267.404 153.156 L 1267.404 150.156 L 1268.404 149.156 L 1268.404 146.156 L 1269.404 145.156 L 1269.404 144.156 L 1268.404 143.156 L 1268.404 142.156 L 1267.404 141.156 L 1267.404 138.156 L 1266.404 137.156 L 1266.404 136.156 L 1260.904 130.656 L 1259.904 130.656 L 1257.904 128.656 L 1254.904 128.656 L 1253.904 127.656 L 1252.904 127.656 L 1251.904 126.656 L 1242.904 126.656 L 1241.904 127.656 L 1240.904 127.656 L 1239.904 128.656 L 1238.904 128.656 L 1236.904 130.656 L 1235.904 130.656 L 1233.904 132.656 L 1232.904 132.656 L 1231.904 133.656 L 1230.904 133.656 L 1228.904 135.656 L 1227.904 135.656 L 1226.904 136.656 L 1225.904 136.656 L 1224.904 137.656 L 1222.904 137.656 L 1222.404 137.656 L 1222.404 137.156 L 1222.404 131.156 L 1224.404 129.156 L 1224.404 128.156 L 1229.404 123.156 L 1229.404 122.156 L 1235.904 115.656 L 1236.904 115.656 L 1238.904 113.656 L 1239.904 113.656 L 1241.904 111.656 L 1243.904 111.656 L 1245.904 109.656 L 1246.904 109.656 L 1249.904 106.656 L 1251.904 106.656 L 1253.904 104.656 L 1255.904 104.656 L 1256.904 103.656 L 1258.904 103.656 L 1259.904 102.656 L 1262.904 102.656 L 1263.904 101.656 Z M 768.904 103.656 L 779.904 103.656 L 780.904 104.656 L 783.904 104.656 L 784.904 105.656 L 787.904 105.656 L 788.904 106.656 L 789.904 106.656 L 792.904 109.656 L 793.904 109.656 L 797.404 113.156 L 797.404 114.156 L 798.404 115.156 L 798.404 116.156 L 800.404 118.156 L 800.404 119.156 L 802.404 121.156 L 802.404 122.156 L 803.404 123.156 L 803.404 124.156 L 804.404 125.156 L 804.404 140.156 L 803.404 141.156 L 803.404 144.156 L 802.404 145.156 L 802.404 148.156 L 800.404 150.156 L 800.404 152.156 L 798.404 154.156 L 798.404 155.156 L 796.404 157.156 L 796.404 158.156 L 795.404 159.156 L 795.404 160.156 L 791.404 164.156 L 791.404 165.156 L 784.904 171.656 L 783.904 171.656 L 781.904 173.656 L 780.904 173.656 L 778.904 175.656 L 777.904 175.656 L 776.904 176.656 L 775.904 176.656 L 774.904 177.656 L 773.904 177.656 L 771.904 179.656 L 770.904 179.656 L 769.904 180.656 L 765.904 180.656 L 765.404 180.656 L 765.404 180.156 L 765.404 175.156 L 769.404 171.156 L 769.404 170.156 L 771.404 168.156 L 771.404 167.156 L 772.404 166.156 L 772.404 165.156 L 774.404 163.156 L 774.404 162.156 L 776.404 160.156 L 776.404 146.156 L 775.404 145.156 L 775.404 144.156 L 774.404 143.156 L 774.404 142.156 L 773.404 141.156 L 773.404 140.156 L 772.404 139.156 L 772.404 138.156 L 770.404 136.156 C 770.404 135.323 770.404 134.823 770.404 134.656 C 770.238 134.656 769.738 134.656 768.904 134.656 L 767.904 133.656 L 766.904 133.656 L 765.904 132.656 L 755.904 132.656 L 754.904 133.656 L 753.904 133.656 L 752.904 134.656 L 751.904 134.656 L 750.904 135.656 L 749.904 135.656 L 747.904 137.656 L 746.904 137.656 L 742.904 141.656 L 741.904 141.656 L 737.904 145.656 L 736.904 145.656 L 732.404 150.156 L 732.404 151.156 L 728.404 155.156 L 728.404 156.156 L 724.404 160.156 L 724.404 161.156 L 719.404 166.156 L 719.404 167.156 L 717.404 169.156 L 717.404 170.156 L 712.404 175.156 L 712.404 177.156 L 712.404 177.656 L 711.904 177.656 C 711.071 177.656 710.571 177.656 710.404 177.656 L 710.404 178.156 C 710.404 178.989 710.404 179.489 710.404 179.656 L 709.904 179.656 C 709.071 179.656 708.571 179.656 708.404 179.656 C 708.404 179.823 708.404 180.323 708.404 181.156 L 706.404 183.156 L 706.404 184.156 L 703.404 187.156 L 703.404 188.156 L 699.404 192.156 L 699.404 193.156 L 695.404 197.156 L 695.404 198.156 L 692.404 201.156 L 692.404 202.156 L 687.404 207.156 L 687.404 209.156 L 687.404 209.656 L 686.904 209.656 C 686.071 209.656 685.571 209.656 685.404 209.656 C 685.404 209.823 685.404 210.323 685.404 211.156 L 681.404 215.156 L 681.404 216.156 L 678.904 218.656 L 673.904 218.656 L 673.404 218.656 C 673.404 218.489 673.404 217.989 673.404 217.156 L 675.404 215.156 L 675.404 213.156 L 676.404 212.156 L 676.404 211.156 L 677.404 210.156 L 677.404 209.156 L 678.404 208.156 L 678.404 207.156 L 679.404 206.156 L 679.404 204.156 L 681.404 202.156 L 681.404 200.156 L 682.404 199.156 L 682.404 198.156 L 683.404 197.156 L 683.404 196.156 L 684.404 195.156 L 684.404 193.156 L 686.404 191.156 L 686.404 189.156 L 688.404 187.156 L 688.404 186.156 L 690.404 184.156 L 690.404 183.156 L 691.404 182.156 L 691.404 181.156 L 693.404 179.156 L 693.404 177.156 L 693.404 176.656 L 693.904 176.656 C 694.738 176.656 695.238 176.656 695.404 176.656 L 695.404 176.156 L 695.404 174.156 L 697.404 172.156 L 697.404 171.156 L 699.404 169.156 L 699.404 168.156 L 700.404 167.156 L 700.404 166.156 L 702.404 164.156 L 702.404 163.156 L 706.404 159.156 L 706.404 157.156 L 706.404 156.656 L 706.904 156.656 C 707.738 156.656 708.238 156.656 708.404 156.656 C 708.404 156.489 708.404 155.989 708.404 155.156 L 711.404 152.156 L 711.404 151.156 L 713.404 149.156 L 713.404 148.156 L 717.404 144.156 L 717.404 143.156 L 719.404 141.156 L 719.404 140.156 L 727.404 132.156 L 727.404 131.156 L 740.904 117.656 L 741.904 117.656 L 743.904 115.656 L 745.904 115.656 L 747.904 113.656 L 749.904 113.656 L 751.904 111.656 L 753.904 111.656 L 754.904 110.656 L 755.904 110.656 L 757.904 108.656 L 759.904 108.656 L 761.904 106.656 L 763.904 106.656 L 765.904 104.656 L 767.904 104.656 L 768.904 103.656 Z M 1560.904 104.656 L 1573.904 104.656 L 1574.904 105.656 L 1575.904 105.656 L 1576.904 106.656 L 1581.904 106.656 L 1583.904 108.656 L 1585.904 108.656 L 1588.904 111.656 C 1589.738 111.656 1590.238 111.656 1590.404 111.656 C 1590.404 111.823 1590.404 112.323 1590.404 113.156 L 1593.404 116.156 L 1593.404 117.156 L 1595.404 119.156 L 1595.404 123.156 L 1596.404 124.156 L 1596.404 126.156 L 1597.404 127.156 L 1597.404 133.156 L 1598.404 134.156 L 1598.404 136.156 L 1599.404 137.156 L 1597.404 139.156 L 1597.404 143.156 L 1595.404 145.156 L 1595.404 149.156 L 1594.404 150.156 L 1594.404 151.156 L 1592.404 153.156 L 1592.404 155.156 L 1590.404 157.156 L 1590.404 159.156 L 1586.404 163.156 L 1586.404 164.156 L 1583.404 167.156 C 1583.404 167.989 1583.404 168.489 1583.404 168.656 C 1583.238 168.656 1582.738 168.656 1581.904 168.656 L 1578.904 171.656 L 1577.904 171.656 L 1573.904 175.656 L 1572.904 175.656 L 1570.904 177.656 L 1568.904 177.656 L 1567.904 178.656 L 1566.904 178.656 L 1565.904 179.656 L 1564.904 179.656 L 1563.904 180.656 L 1554.904 180.656 L 1554.404 180.656 L 1554.404 180.156 L 1554.404 178.156 L 1555.404 177.156 L 1555.404 176.156 L 1559.404 172.156 L 1559.404 171.156 L 1560.404 170.156 L 1560.404 169.156 L 1562.404 167.156 L 1562.404 166.156 L 1564.404 164.156 L 1564.404 163.156 L 1566.404 161.156 L 1566.404 160.156 L 1567.404 159.156 L 1567.404 156.156 L 1568.404 155.156 L 1568.404 143.156 L 1566.404 141.156 C 1566.404 140.323 1566.404 139.823 1566.404 139.656 L 1565.904 139.656 C 1565.071 139.656 1564.571 139.656 1564.404 139.656 L 1564.404 139.156 L 1564.404 137.156 L 1562.404 135.156 L 1562.404 134.156 L 1560.904 132.656 L 1547.904 132.656 L 1546.904 133.656 L 1545.904 133.656 L 1544.904 134.656 L 1543.904 134.656 L 1540.904 137.656 L 1539.904 137.656 L 1537.904 139.656 L 1536.904 139.656 L 1534.904 141.656 L 1532.904 141.656 L 1530.904 143.656 L 1529.904 143.656 L 1454.904 218.656 L 1452.904 218.656 L 1451.904 219.656 L 1449.404 217.156 L 1449.404 215.156 L 1450.404 214.156 L 1450.404 213.156 L 1451.404 212.156 C 1451.404 211.323 1451.404 210.823 1451.404 210.656 L 1451.904 210.656 C 1452.738 210.656 1453.238 210.656 1453.404 210.656 C 1453.404 210.489 1453.404 209.989 1453.404 209.156 L 1456.404 206.156 L 1456.404 205.156 L 1458.404 203.156 C 1458.404 202.323 1458.404 201.823 1458.404 201.656 L 1458.904 201.656 C 1459.738 201.656 1460.238 201.656 1460.404 201.656 C 1460.404 201.489 1460.404 200.989 1460.404 200.156 L 1462.404 198.156 L 1462.404 197.156 L 1465.404 194.156 L 1465.404 193.156 L 1469.404 189.156 L 1469.404 188.156 L 1471.404 186.156 L 1471.404 185.156 L 1474.404 182.156 L 1474.404 181.156 L 1479.404 176.156 L 1479.404 175.156 L 1481.404 173.156 L 1481.404 172.156 L 1485.404 168.156 L 1485.404 167.156 L 1487.404 165.156 L 1487.404 164.156 L 1492.404 159.156 L 1492.404 158.156 L 1494.404 156.156 C 1494.404 155.323 1494.404 154.823 1494.404 154.656 C 1494.571 154.656 1495.071 154.656 1495.904 154.656 L 1497.404 153.156 C 1497.404 152.323 1497.404 151.823 1497.404 151.656 L 1497.904 151.656 C 1498.738 151.656 1499.238 151.656 1499.404 151.656 L 1499.404 151.156 C 1499.404 150.323 1499.404 149.823 1499.404 149.656 L 1499.904 149.656 C 1500.738 149.656 1501.238 149.656 1501.404 149.656 L 1501.404 149.156 C 1501.404 148.323 1501.404 147.823 1501.404 147.656 L 1501.904 147.656 C 1502.738 147.656 1503.238 147.656 1503.404 147.656 L 1503.404 147.156 C 1503.404 146.323 1503.404 145.823 1503.404 145.656 C 1503.571 145.656 1504.071 145.656 1504.904 145.656 L 1506.404 144.156 C 1506.404 143.323 1506.404 142.823 1506.404 142.656 L 1506.904 142.656 C 1507.738 142.656 1508.238 142.656 1508.404 142.656 L 1508.404 142.156 C 1508.404 141.323 1508.404 140.823 1508.404 140.656 L 1508.904 140.656 C 1509.738 140.656 1510.238 140.656 1510.404 140.656 L 1510.404 140.156 C 1510.404 139.323 1510.404 138.823 1510.404 138.656 L 1510.904 138.656 C 1511.738 138.656 1512.238 138.656 1512.404 138.656 L 1512.404 138.156 C 1512.404 137.323 1512.404 136.823 1512.404 136.656 C 1512.571 136.656 1513.071 136.656 1513.904 136.656 L 1515.404 135.156 C 1515.404 134.323 1515.404 133.823 1515.404 133.656 L 1515.904 133.656 C 1516.738 133.656 1517.238 133.656 1517.404 133.656 L 1517.404 133.156 C 1517.404 132.323 1517.404 131.823 1517.404 131.656 L 1517.904 131.656 C 1518.738 131.656 1519.238 131.656 1519.404 131.656 L 1519.404 131.156 C 1519.404 130.323 1519.404 129.823 1519.404 129.656 L 1519.904 129.656 C 1520.738 129.656 1521.238 129.656 1521.404 129.656 L 1521.404 129.156 C 1521.404 128.323 1521.404 127.823 1521.404 127.656 C 1521.571 127.656 1522.071 127.656 1522.904 127.656 L 1524.404 126.156 C 1524.404 125.323 1524.404 124.823 1524.404 124.656 L 1524.904 124.656 C 1525.738 124.656 1526.238 124.656 1526.404 124.656 L 1526.404 124.156 C 1526.404 123.323 1526.404 122.823 1526.404 122.656 C 1526.571 122.656 1527.071 122.656 1527.904 122.656 L 1532.904 117.656 L 1533.904 117.656 L 1535.904 115.656 L 1536.904 115.656 L 1538.904 113.656 L 1539.904 113.656 L 1540.904 112.656 L 1541.904 112.656 L 1542.904 111.656 L 1543.904 111.656 L 1544.904 110.656 L 1546.904 110.656 L 1548.904 108.656 L 1552.904 108.656 L 1553.404 108.656 L 1553.404 108.156 C 1553.404 107.323 1553.404 106.823 1553.404 106.656 L 1553.904 106.656 L 1558.904 106.656 L 1560.904 104.656 Z M 1000.904 124.656 L 1005.904 124.656 L 1006.904 125.656 L 1007.904 125.656 L 1008.904 126.656 C 1009.738 126.656 1010.238 126.656 1010.404 126.656 C 1010.404 126.823 1010.404 127.323 1010.404 128.156 L 1011.404 129.156 L 1011.404 130.156 L 1012.404 131.156 L 1012.404 135.156 L 1013.404 136.156 L 1013.404 139.156 L 1009.404 143.156 L 1009.404 144.156 L 1006.404 147.156 C 1006.404 147.989 1006.404 148.489 1006.404 148.656 L 1005.904 148.656 C 1005.071 148.656 1004.571 148.656 1004.404 148.656 C 1004.404 148.823 1004.404 149.323 1004.404 150.156 L 1002.404 152.156 L 1002.404 153.156 L 999.904 155.656 L 998.904 155.656 L 995.904 158.656 L 994.904 158.656 L 991.904 161.656 L 990.904 161.656 L 989.904 162.656 L 988.904 162.656 L 984.904 166.656 L 982.904 166.656 L 982.404 166.656 L 982.404 167.156 C 982.404 167.989 982.404 168.489 982.404 168.656 C 982.238 168.656 981.738 168.656 980.904 168.656 L 979.904 169.656 L 978.904 169.656 L 974.904 173.656 L 973.904 173.656 L 971.904 175.656 L 970.904 175.656 L 968.904 177.656 L 967.904 177.656 L 965.904 179.656 L 964.904 179.656 L 962.904 181.656 L 961.904 181.656 L 958.904 184.656 L 957.904 184.656 L 954.904 187.656 L 953.904 187.656 L 952.904 188.656 L 951.904 188.656 L 948.904 191.656 L 947.904 191.656 L 945.904 193.656 L 944.904 193.656 L 942.904 195.656 L 941.904 195.656 L 938.904 198.656 L 937.904 198.656 L 936.904 199.656 L 935.904 199.656 L 932.904 202.656 L 931.904 202.656 L 929.904 204.656 L 928.904 204.656 L 925.904 207.656 L 924.904 207.656 L 922.904 209.656 L 921.904 209.656 L 919.904 211.656 L 917.904 211.656 L 915.904 213.656 L 913.904 213.656 L 911.904 215.656 L 909.904 215.656 L 908.904 216.656 L 907.904 216.656 L 905.904 218.656 L 904.904 218.656 L 902.904 220.656 L 897.904 220.656 L 895.404 218.156 L 895.404 215.156 L 904.904 205.656 L 905.904 205.656 L 914.904 196.656 C 915.738 196.656 916.238 196.656 916.404 196.656 L 916.404 196.156 C 916.404 195.323 916.404 194.823 916.404 194.656 C 916.571 194.656 917.071 194.656 917.904 194.656 L 924.904 187.656 L 925.904 187.656 L 934.904 178.656 C 935.738 178.656 936.238 178.656 936.404 178.656 L 936.404 178.156 C 936.404 177.323 936.404 176.823 936.404 176.656 L 936.904 176.656 C 937.738 176.656 938.238 176.656 938.404 176.656 L 938.404 176.156 C 938.404 175.323 938.404 174.823 938.404 174.656 C 938.571 174.656 939.071 174.656 939.904 174.656 L 946.904 167.656 L 947.904 167.656 L 961.904 153.656 C 962.738 153.656 963.238 153.656 963.404 153.656 L 963.404 153.156 C 963.404 152.323 963.404 151.823 963.404 151.656 L 963.904 151.656 C 964.738 151.656 965.238 151.656 965.404 151.656 L 965.404 151.156 C 965.404 150.323 965.404 149.823 965.404 149.656 L 965.904 149.656 L 967.904 149.656 L 968.404 149.656 L 968.404 149.156 C 968.404 148.323 968.404 147.823 968.404 147.656 L 968.904 147.656 C 969.738 147.656 970.238 147.656 970.404 147.656 L 970.404 147.156 C 970.404 146.323 970.404 145.823 970.404 145.656 C 970.571 145.656 971.071 145.656 971.904 145.656 L 978.904 138.656 L 979.904 138.656 L 982.904 135.656 L 983.904 135.656 L 987.904 131.656 L 988.904 131.656 L 990.904 129.656 L 991.904 129.656 L 992.904 128.656 L 993.904 128.656 L 995.904 126.656 L 998.904 126.656 L 1000.904 124.656 Z M 1084.904 248.656 L 1088.904 248.656 L 1089.404 248.656 L 1089.404 249.156 L 1089.404 252.156 L 1088.404 253.156 L 1088.404 254.156 L 1087.404 255.156 L 1087.404 256.156 L 1086.404 257.156 L 1086.404 259.156 L 1084.404 261.156 L 1084.404 262.156 L 1082.404 264.156 L 1082.404 265.156 L 1081.404 266.156 C 1081.404 266.989 1081.404 267.489 1081.404 267.656 L 1080.904 267.656 C 1080.071 267.656 1079.571 267.656 1079.404 267.656 C 1079.404 267.823 1079.404 268.323 1079.404 269.156 L 1069.904 278.656 L 1068.904 278.656 L 1063.904 283.656 L 1062.904 283.656 L 1060.904 285.656 C 1060.071 285.656 1059.571 285.656 1059.404 285.656 L 1059.404 286.156 C 1059.404 286.989 1059.404 287.489 1059.404 287.656 C 1059.238 287.656 1058.738 287.656 1057.904 287.656 L 1056.904 288.656 L 1055.904 288.656 L 1054.904 289.656 L 1053.904 289.656 L 1052.904 290.656 L 1051.904 290.656 L 1049.904 292.656 L 1047.904 292.656 L 1046.904 293.656 L 1045.904 293.656 L 1044.904 294.656 L 1043.904 294.656 L 1042.904 295.656 L 1040.904 295.656 L 1039.904 296.656 L 1037.904 296.656 L 1036.904 297.656 L 1033.904 297.656 L 1031.904 299.656 L 1025.904 299.656 L 1023.904 301.656 L 1022.904 301.656 L 1020.904 299.656 L 1017.904 299.656 L 1016.904 300.656 L 1015.904 300.656 L 1014.904 301.656 L 1013.904 301.656 L 1011.904 303.656 L 967.904 303.656 L 965.904 301.656 L 945.904 301.656 L 943.904 299.656 L 940.904 299.656 L 939.904 298.656 L 937.904 298.656 L 936.904 297.656 L 922.904 297.656 L 921.904 296.656 L 910.904 296.656 L 909.904 295.656 L 903.904 295.656 L 902.904 294.656 L 885.904 294.656 L 874.904 305.656 L 873.904 305.656 L 859.904 319.656 C 859.071 319.656 858.571 319.656 858.404 319.656 L 858.404 320.156 C 858.404 320.989 858.404 321.489 858.404 321.656 L 857.904 321.656 C 857.071 321.656 856.571 321.656 856.404 321.656 L 856.404 322.156 C 856.404 322.989 856.404 323.489 856.404 323.656 L 855.904 323.656 C 855.071 323.656 854.571 323.656 854.404 323.656 C 854.404 323.823 854.404 324.323 854.404 325.156 L 847.404 332.156 L 847.404 333.156 L 842.404 338.156 L 842.404 339.156 L 841.404 340.156 L 841.404 341.156 L 838.404 344.156 L 838.404 346.156 L 838.404 346.656 L 837.904 346.656 C 837.071 346.656 836.571 346.656 836.404 346.656 C 836.404 346.823 836.404 347.323 836.404 348.156 L 834.404 350.156 L 834.404 351.156 L 833.404 352.156 L 833.404 353.156 L 832.404 354.156 L 832.404 355.156 L 830.404 357.156 L 830.404 358.156 L 829.404 359.156 L 829.404 360.156 L 828.404 361.156 L 828.404 362.156 L 827.404 363.156 L 827.404 364.156 L 826.404 365.156 L 826.404 366.156 L 825.404 367.156 L 825.404 370.156 L 823.404 372.156 L 823.404 375.156 L 822.404 376.156 L 822.404 379.156 L 821.404 380.156 L 821.404 382.156 L 820.404 383.156 L 820.404 387.156 L 818.404 389.156 L 818.404 431.156 L 819.404 432.156 L 819.404 433.156 L 820.404 434.156 L 820.404 439.156 L 821.404 440.156 L 821.404 441.156 L 822.404 442.156 L 822.404 445.156 L 823.404 446.156 L 823.404 447.156 L 824.404 448.156 L 824.404 450.156 L 825.404 451.156 L 825.404 453.156 L 827.404 455.156 L 827.404 457.156 L 829.404 459.156 L 829.404 461.156 L 831.404 463.156 L 831.404 464.156 L 832.404 465.156 L 832.404 466.156 L 834.404 468.156 L 834.404 469.156 L 836.404 471.156 L 836.404 472.156 L 838.404 474.156 L 838.404 475.156 L 854.904 491.656 C 855.738 491.656 856.238 491.656 856.404 491.656 L 856.404 492.156 C 856.404 492.989 856.404 493.489 856.404 493.656 C 856.571 493.656 857.071 493.656 857.904 493.656 L 859.904 495.656 L 860.904 495.656 L 865.904 500.656 L 866.904 500.656 L 868.904 502.656 L 869.904 502.656 L 871.904 504.656 L 872.904 504.656 L 873.904 505.656 L 874.904 505.656 L 876.904 507.656 L 879.904 507.656 L 881.904 509.656 L 883.904 509.656 L 885.904 511.656 L 887.904 511.656 L 889.904 513.656 L 892.904 513.656 L 893.904 514.656 L 896.904 514.656 L 897.904 515.656 L 898.904 515.656 L 899.904 516.656 L 904.904 516.656 L 906.904 518.656 L 913.904 518.656 L 914.904 519.656 L 915.904 519.656 L 916.904 520.656 L 956.904 520.656 L 958.904 518.656 L 963.904 518.656 L 965.904 516.656 L 970.904 516.656 L 971.904 515.656 L 974.904 515.656 L 975.904 514.656 L 978.904 514.656 L 979.904 513.656 L 983.904 513.656 L 985.904 511.656 L 987.904 511.656 L 989.904 509.656 L 990.904 509.656 L 992.904 507.656 L 993.904 507.656 L 994.904 506.656 L 995.904 506.656 L 997.904 504.656 L 998.904 504.656 L 1000.904 502.656 L 1001.904 502.656 L 1003.904 500.656 L 1004.904 500.656 L 1006.904 498.656 L 1007.904 498.656 L 1009.904 496.656 L 1010.904 496.656 L 1011.904 495.656 L 1012.904 495.656 L 1014.904 493.656 L 1015.904 493.656 L 1019.404 490.156 L 1019.404 489.156 L 1021.404 487.156 L 1021.404 486.156 L 1023.404 484.156 L 1023.404 483.156 L 1026.404 480.156 L 1026.404 479.156 L 1028.404 477.156 L 1028.404 476.156 L 1030.404 474.156 L 1030.404 473.156 L 1032.404 471.156 L 1032.404 470.156 L 1035.404 467.156 L 1035.404 465.156 L 1035.404 464.656 L 1035.904 464.656 C 1036.738 464.656 1037.238 464.656 1037.404 464.656 L 1037.404 464.156 L 1037.404 462.156 L 1038.404 461.156 L 1038.404 460.156 L 1039.404 459.156 L 1039.404 457.156 L 1040.404 456.156 L 1040.404 454.156 L 1041.404 453.156 L 1041.404 451.156 L 1042.404 450.156 L 1042.404 425.156 L 1041.404 424.156 L 1041.404 423.156 L 1040.404 422.156 L 1040.404 421.156 L 1037.404 418.156 L 1037.404 417.156 L 1034.904 414.656 L 1033.904 414.656 L 1032.404 413.156 L 1032.404 409.156 L 1031.404 408.156 L 1031.404 403.156 L 1030.404 402.156 L 1030.404 401.156 L 1031.404 400.156 L 1031.404 396.156 L 1032.404 395.156 L 1032.404 394.156 L 1033.404 393.156 L 1033.404 391.156 L 1035.404 389.156 L 1035.404 388.156 L 1039.904 383.656 L 1040.904 383.656 L 1041.904 382.656 L 1042.904 382.656 L 1043.904 381.656 L 1045.904 381.656 L 1046.904 380.656 L 1047.904 380.656 L 1049.904 378.656 L 1051.904 378.656 L 1052.904 377.656 L 1053.904 377.656 L 1054.904 376.656 L 1060.904 376.656 L 1062.904 378.656 L 1063.904 378.656 L 1066.904 381.656 L 1068.904 381.656 L 1074.404 387.156 L 1074.404 388.156 L 1075.404 389.156 L 1075.404 390.156 L 1076.404 391.156 L 1076.404 392.156 L 1077.404 393.156 L 1077.404 407.156 L 1078.404 408.156 L 1078.404 411.156 L 1079.404 412.156 L 1077.404 414.156 L 1077.404 420.156 L 1075.404 422.156 L 1075.404 428.156 L 1074.404 429.156 L 1074.404 430.156 L 1072.404 432.156 L 1072.404 434.156 L 1070.404 436.156 L 1070.404 438.156 L 1068.404 440.156 L 1068.404 442.156 L 1066.404 444.156 L 1066.404 446.156 L 1065.404 447.156 L 1065.404 448.156 L 1063.404 450.156 L 1063.404 452.156 L 1061.404 454.156 L 1061.404 456.156 L 1059.404 458.156 L 1059.404 459.156 L 1056.404 462.156 L 1056.404 463.156 L 1054.404 465.156 L 1054.404 466.156 L 1052.404 468.156 L 1052.404 469.156 L 1050.404 471.156 L 1050.404 472.156 L 1045.404 477.156 L 1045.404 478.156 L 1043.404 480.156 C 1043.404 480.989 1043.404 481.489 1043.404 481.656 L 1042.904 481.656 C 1042.071 481.656 1041.571 481.656 1041.404 481.656 C 1041.404 481.823 1041.404 482.323 1041.404 483.156 L 1038.404 486.156 L 1038.404 487.156 L 1034.404 491.156 C 1034.404 491.989 1034.404 492.489 1034.404 492.656 C 1034.238 492.656 1033.738 492.656 1032.904 492.656 L 1029.404 496.156 L 1029.404 497.156 L 1015.904 510.656 L 1014.904 510.656 L 1011.904 513.656 L 1010.904 513.656 L 1006.904 517.656 C 1006.071 517.656 1005.571 517.656 1005.404 517.656 L 1005.404 518.156 C 1005.404 518.989 1005.404 519.489 1005.404 519.656 C 1005.238 519.656 1004.738 519.656 1003.904 519.656 L 1001.904 521.656 L 1000.904 521.656 L 998.904 523.656 L 997.904 523.656 L 994.904 526.656 L 993.904 526.656 L 991.904 528.656 L 990.904 528.656 L 988.904 530.656 L 987.904 530.656 L 986.904 531.656 L 985.904 531.656 L 983.904 533.656 L 981.904 533.656 L 979.904 535.656 L 978.904 535.656 L 976.904 537.656 L 974.904 537.656 L 972.904 539.656 L 971.904 539.656 L 970.904 540.656 L 968.904 540.656 L 966.904 542.656 L 964.904 542.656 L 962.904 544.656 L 960.904 544.656 L 958.904 546.656 L 956.904 546.656 L 955.904 547.656 L 953.904 547.656 L 952.904 548.656 L 949.904 548.656 L 948.904 549.656 L 945.904 549.656 L 944.904 550.656 L 943.904 550.656 L 942.904 551.656 L 937.904 551.656 L 935.904 553.656 L 930.904 553.656 L 929.904 554.656 L 928.904 554.656 L 927.904 555.656 L 902.904 555.656 L 901.904 556.656 L 894.904 556.656 L 893.904 555.656 L 886.904 555.656 L 884.904 553.656 L 875.904 553.656 L 873.904 551.656 L 866.904 551.656 L 865.904 550.656 L 864.904 550.656 L 863.904 549.656 L 860.904 549.656 L 858.904 547.656 L 857.904 547.656 L 856.904 546.656 L 853.904 546.656 L 851.904 544.656 L 848.904 544.656 L 846.904 542.656 L 844.904 542.656 L 842.904 540.656 L 841.904 540.656 L 840.904 539.656 L 839.904 539.656 L 838.904 538.656 L 837.904 538.656 L 836.904 537.656 L 835.904 537.656 L 833.904 535.656 L 832.904 535.656 L 828.904 531.656 L 827.904 531.656 L 826.904 530.656 L 825.904 530.656 L 823.904 528.656 L 822.904 528.656 L 818.904 524.656 C 818.071 524.656 817.571 524.656 817.404 524.656 L 817.404 524.156 C 817.404 523.323 817.404 522.823 817.404 522.656 C 817.238 522.656 816.738 522.656 815.904 522.656 L 812.404 519.156 C 812.404 518.323 812.404 517.823 812.404 517.656 L 811.904 517.656 C 811.071 517.656 810.571 517.656 810.404 517.656 L 810.404 517.156 C 810.404 516.323 810.404 515.823 810.404 515.656 C 810.238 515.656 809.738 515.656 808.904 515.656 L 805.404 512.156 L 805.404 511.156 L 803.404 509.156 L 803.404 508.156 L 801.404 506.156 L 801.404 505.156 L 799.404 503.156 L 799.404 502.156 L 798.404 501.156 L 798.404 500.156 L 796.404 498.156 L 796.404 496.156 L 794.404 494.156 L 794.404 492.156 L 792.404 490.156 L 792.404 488.156 L 790.404 486.156 L 790.404 484.156 L 789.404 483.156 L 789.404 481.156 L 788.404 480.156 L 788.404 479.156 L 787.404 478.156 L 787.404 475.156 L 786.404 474.156 L 786.404 473.156 L 785.404 472.156 L 785.404 469.156 L 783.404 467.156 L 783.404 437.156 L 782.404 436.156 L 782.404 429.156 L 783.404 428.156 L 783.404 422.156 L 785.404 420.156 L 785.404 414.156 L 786.404 413.156 L 786.404 412.156 L 787.404 411.156 L 787.404 408.156 L 788.404 407.156 L 788.404 406.156 L 789.404 405.156 L 789.404 402.156 L 790.404 401.156 L 790.404 398.156 L 791.404 397.156 L 791.404 396.156 L 792.404 395.156 L 792.404 393.156 L 794.404 391.156 L 794.404 388.156 L 796.404 386.156 L 796.404 384.156 L 797.404 383.156 L 797.404 382.156 L 798.404 381.156 L 798.404 380.156 L 799.404 379.156 L 799.404 378.156 L 801.404 376.156 L 801.404 374.156 L 803.404 372.156 L 803.404 371.156 L 805.404 369.156 L 805.404 367.156 L 807.404 365.156 L 807.404 364.156 L 810.404 361.156 L 810.404 359.156 L 810.404 358.656 L 810.904 358.656 C 811.738 358.656 812.238 358.656 812.404 358.656 C 812.404 358.489 812.404 357.989 812.404 357.156 L 814.404 355.156 L 814.404 354.156 L 815.404 353.156 L 815.404 352.156 L 817.404 350.156 L 817.404 349.156 L 821.404 345.156 L 821.404 344.156 L 823.404 342.156 L 823.404 341.156 L 826.404 338.156 L 826.404 337.156 L 830.404 333.156 L 830.404 332.156 L 837.404 325.156 C 837.404 324.323 837.404 323.823 837.404 323.656 C 837.571 323.656 838.071 323.656 838.904 323.656 L 842.404 320.156 C 842.404 319.323 842.404 318.823 842.404 318.656 L 842.904 318.656 C 843.738 318.656 844.238 318.656 844.404 318.656 L 844.404 318.156 L 844.404 316.156 L 844.404 315.656 L 844.904 315.656 C 845.738 315.656 846.238 315.656 846.404 315.656 L 846.404 315.156 C 846.404 314.323 846.404 313.823 846.404 313.656 L 846.904 313.656 C 847.738 313.656 848.238 313.656 848.404 313.656 L 848.404 313.156 C 848.404 312.323 848.404 311.823 848.404 311.656 L 848.904 311.656 C 849.738 311.656 850.238 311.656 850.404 311.656 C 850.404 311.489 850.404 310.989 850.404 310.156 L 851.904 308.656 C 852.738 308.656 853.238 308.656 853.404 308.656 L 853.404 308.156 C 853.404 307.323 853.404 306.823 853.404 306.656 C 853.571 306.656 854.071 306.656 854.904 306.656 L 855.904 305.656 L 856.904 305.656 L 858.404 304.156 C 858.404 303.323 858.404 302.823 858.404 302.656 L 858.904 302.656 C 859.738 302.656 860.238 302.656 860.404 302.656 L 860.404 302.156 C 860.404 301.323 860.404 300.823 860.404 300.656 C 860.571 300.656 861.071 300.656 861.904 300.656 L 866.404 296.156 L 866.404 294.156 L 862.904 290.656 L 802.904 290.656 L 800.904 292.656 L 793.904 292.656 L 791.904 294.656 L 789.904 294.656 L 788.904 295.656 L 787.904 295.656 L 785.904 297.656 L 784.904 297.656 L 782.904 299.656 L 781.904 299.656 L 779.904 301.656 L 778.904 301.656 L 776.904 303.656 L 775.904 303.656 L 774.904 304.656 L 773.904 304.656 L 771.904 306.656 L 765.904 306.656 L 765.404 306.656 L 765.404 306.156 L 765.404 300.156 L 767.404 298.156 L 767.404 297.156 L 776.404 288.156 C 776.404 287.323 776.404 286.823 776.404 286.656 L 776.904 286.656 C 777.738 286.656 778.238 286.656 778.404 286.656 C 778.404 286.489 778.404 285.989 778.404 285.156 L 789.904 273.656 L 790.904 273.656 L 793.904 270.656 L 794.904 270.656 L 796.904 268.656 L 798.904 268.656 L 800.904 266.656 L 801.904 266.656 L 803.904 264.656 L 804.904 264.656 L 805.904 263.656 L 808.904 263.656 L 810.904 261.656 L 813.904 261.656 L 815.904 259.656 L 819.904 259.656 L 821.904 257.656 L 827.904 257.656 L 828.904 256.656 L 836.904 256.656 L 837.904 255.656 L 839.904 255.656 L 840.904 254.656 L 887.904 254.656 L 888.904 255.656 L 890.904 255.656 L 891.904 256.656 L 896.904 256.656 L 897.904 257.656 L 926.904 257.656 L 927.904 258.656 L 928.904 258.656 L 929.904 259.656 L 937.904 259.656 L 939.904 261.656 L 946.904 261.656 L 947.904 262.656 L 951.904 262.656 L 952.904 263.656 L 962.904 263.656 L 963.904 264.656 L 989.904 264.656 L 991.904 266.656 L 1051.904 266.656 L 1052.904 265.656 L 1053.904 265.656 L 1054.904 264.656 L 1059.904 264.656 L 1060.904 263.656 L 1063.904 263.656 L 1064.904 262.656 L 1065.904 262.656 L 1066.904 261.656 L 1068.904 261.656 L 1069.404 261.656 L 1069.404 261.156 C 1069.404 260.323 1069.404 259.823 1069.404 259.656 C 1069.571 259.656 1070.071 259.656 1070.904 259.656 L 1072.904 257.656 L 1073.904 257.656 L 1078.904 252.656 L 1079.904 252.656 L 1080.904 251.656 L 1081.904 251.656 L 1084.904 248.656 Z M 389.904 261.656 L 405.904 261.656 L 406.904 262.656 L 409.904 262.656 L 410.904 263.656 L 412.904 263.656 L 413.904 264.656 L 414.904 264.656 L 415.904 265.656 L 416.904 265.656 L 424.404 273.156 L 424.404 275.156 L 425.404 276.156 L 425.404 277.156 L 426.404 278.156 L 426.404 288.156 L 423.404 291.156 L 423.404 292.156 L 422.404 293.156 C 422.404 293.989 422.404 294.489 422.404 294.656 L 421.904 294.656 C 421.071 294.656 420.571 294.656 420.404 294.656 C 420.404 294.823 420.404 295.323 420.404 296.156 L 417.404 299.156 L 417.404 300.156 L 415.404 302.156 C 415.404 302.989 415.404 303.489 415.404 303.656 C 415.238 303.656 414.738 303.656 413.904 303.656 L 410.904 306.656 L 408.904 306.656 L 407.904 307.656 L 406.904 307.656 L 405.904 308.656 L 396.904 308.656 L 394.904 306.656 L 393.904 306.656 L 392.904 305.656 L 391.904 305.656 L 390.904 304.656 L 389.904 304.656 L 388.904 303.656 C 388.071 303.656 387.571 303.656 387.404 303.656 L 387.404 303.156 C 387.404 302.323 387.404 301.823 387.404 301.656 L 386.904 301.656 L 384.904 301.656 L 382.904 299.656 L 381.904 299.656 L 380.904 298.656 L 379.904 298.656 L 378.904 297.656 L 356.904 297.656 L 356.404 297.656 L 356.404 298.156 C 356.404 298.989 356.404 299.489 356.404 299.656 C 356.238 299.656 355.738 299.656 354.904 299.656 L 352.904 301.656 L 351.904 301.656 L 350.404 303.156 L 350.404 305.156 L 348.404 307.156 L 348.404 310.156 L 347.404 311.156 L 347.404 315.156 L 346.404 316.156 L 346.404 318.156 L 345.404 319.156 L 345.404 342.156 L 346.404 343.156 L 346.404 345.156 L 347.404 346.156 L 347.404 349.156 L 348.404 350.156 L 348.404 352.156 L 350.404 354.156 L 350.404 356.156 L 352.404 358.156 L 352.404 360.156 L 357.404 365.156 L 357.404 366.156 L 360.904 369.656 L 361.904 369.656 L 366.904 374.656 L 367.904 374.656 L 369.904 376.656 L 370.904 376.656 L 373.904 379.656 L 374.904 379.656 L 375.904 380.656 L 376.904 380.656 L 377.904 381.656 L 380.904 381.656 L 381.904 382.656 L 384.904 382.656 L 385.904 383.656 L 397.904 383.656 L 398.904 382.656 L 399.904 382.656 L 400.904 381.656 L 405.904 381.656 L 406.904 380.656 L 409.904 380.656 L 410.904 379.656 L 412.904 379.656 L 413.904 378.656 L 417.904 378.656 L 419.904 376.656 L 424.904 376.656 L 426.904 374.656 L 427.904 374.656 L 430.904 371.656 L 431.904 371.656 L 432.904 370.656 L 433.904 370.656 L 436.404 368.156 L 436.404 367.156 L 438.404 365.156 L 438.404 362.156 L 439.404 361.156 L 439.404 360.156 L 440.404 359.156 L 440.404 357.156 L 441.404 356.156 L 441.404 354.156 L 443.404 352.156 L 443.404 345.156 L 445.404 343.156 L 445.404 337.156 L 446.404 336.156 L 446.404 335.156 L 447.404 334.156 L 447.404 332.156 L 449.404 330.156 L 449.404 329.156 L 450.404 328.156 L 450.404 325.156 L 452.404 323.156 L 452.404 321.156 L 454.404 319.156 L 454.404 317.156 L 456.404 315.156 L 456.404 314.156 L 458.404 312.156 L 458.404 311.156 L 459.404 310.156 L 459.404 309.156 L 462.404 306.156 L 462.404 305.156 L 465.404 302.156 L 465.404 301.156 L 474.404 292.156 L 474.404 291.156 L 477.904 287.656 L 478.904 287.656 L 486.904 279.656 L 488.904 279.656 L 490.904 277.656 L 491.904 277.656 L 493.904 275.656 L 494.904 275.656 L 496.904 273.656 L 497.904 273.656 L 499.904 271.656 L 500.904 271.656 L 501.904 270.656 L 502.904 270.656 L 506.904 266.656 L 508.904 266.656 L 510.904 264.656 L 513.904 264.656 L 514.904 263.656 L 518.904 263.656 L 519.904 262.656 L 520.904 262.656 L 521.904 261.656 L 539.904 261.656 L 540.904 262.656 L 542.904 262.656 L 543.904 263.656 L 545.904 263.656 L 546.904 264.656 L 547.904 264.656 L 548.904 265.656 L 549.904 265.656 L 553.404 269.156 L 553.404 270.156 L 555.404 272.156 L 555.404 273.156 L 556.404 274.156 L 556.404 276.156 L 557.404 277.156 L 557.404 289.156 L 555.404 291.156 L 555.404 294.156 L 552.404 297.156 L 552.404 298.156 L 546.904 303.656 L 545.904 303.656 L 542.904 306.656 L 540.904 306.656 L 538.904 308.656 L 529.904 308.656 L 527.904 306.656 L 526.904 306.656 L 525.904 305.656 L 523.904 305.656 L 521.904 303.656 L 519.904 303.656 L 517.904 301.656 L 516.904 301.656 L 514.904 299.656 L 513.904 299.656 L 512.904 298.656 L 511.904 298.656 L 510.904 297.656 L 490.904 297.656 L 488.904 299.656 L 487.904 299.656 L 485.904 301.656 L 484.904 301.656 L 480.404 306.156 L 480.404 308.156 L 478.404 310.156 L 478.404 315.156 L 476.404 317.156 L 476.404 335.156 L 477.404 336.156 L 477.404 339.156 L 478.404 340.156 L 478.404 343.156 L 479.404 344.156 L 479.404 345.156 L 480.404 346.156 L 480.404 351.156 L 482.404 353.156 L 482.404 354.156 L 483.404 355.156 L 483.404 356.156 L 485.404 358.156 L 485.404 360.156 L 489.404 364.156 L 489.404 365.156 L 494.904 370.656 L 495.904 370.656 L 499.904 374.656 L 500.904 374.656 L 502.904 376.656 L 503.904 376.656 L 506.904 379.656 L 507.904 379.656 L 508.904 380.656 L 509.904 380.656 L 510.904 381.656 L 513.904 381.656 L 514.904 382.656 L 517.904 382.656 L 518.904 383.656 L 530.904 383.656 L 531.904 382.656 L 532.904 382.656 L 533.904 381.656 L 539.904 381.656 L 540.904 380.656 L 543.904 380.656 L 544.904 379.656 L 546.904 379.656 L 547.904 378.656 L 551.904 378.656 L 553.904 376.656 L 555.904 376.656 L 557.904 374.656 L 558.904 374.656 L 560.904 372.656 L 561.904 372.656 L 563.904 370.656 L 564.904 370.656 L 565.904 369.656 C 566.738 369.656 567.238 369.656 567.404 369.656 L 567.404 369.156 C 567.404 368.323 567.404 367.823 567.404 367.656 L 567.904 367.656 L 569.904 367.656 L 572.404 365.156 L 572.404 364.156 L 573.404 363.156 L 573.404 361.156 L 574.404 360.156 L 574.404 359.156 L 575.404 358.156 L 575.404 357.156 L 576.404 356.156 L 576.404 351.156 L 577.404 350.156 L 577.404 348.156 L 578.404 347.156 L 578.404 324.156 L 579.404 323.156 L 579.404 322.156 L 580.404 321.156 L 580.404 316.156 L 581.404 315.156 L 581.404 314.156 L 582.404 313.156 L 582.404 310.156 L 583.404 309.156 L 583.404 307.156 L 584.404 306.156 L 584.404 305.156 L 585.404 304.156 L 585.404 303.156 L 586.404 302.156 L 586.404 301.156 L 587.404 300.156 L 587.404 298.156 L 589.404 296.156 L 589.404 295.156 L 591.404 293.156 L 591.404 292.156 L 592.404 291.156 L 592.404 290.156 L 594.404 288.156 L 594.404 287.156 L 596.404 285.156 L 596.404 284.156 L 603.404 277.156 L 603.404 276.156 L 605.904 273.656 L 606.904 273.656 L 611.904 268.656 L 612.904 268.656 L 616.904 264.656 L 619.904 264.656 L 620.904 263.656 L 624.904 263.656 L 625.904 262.656 C 626.738 262.656 627.238 262.656 627.404 262.656 L 627.404 263.156 L 627.404 267.156 L 626.404 268.156 L 626.404 269.156 L 625.404 270.156 L 625.404 271.156 L 624.404 272.156 L 624.404 273.156 L 623.404 274.156 L 623.404 275.156 L 622.404 276.156 L 622.404 277.156 L 620.404 279.156 L 620.404 281.156 L 618.404 283.156 L 618.404 284.156 L 617.404 285.156 L 617.404 286.156 L 615.404 288.156 L 615.404 294.156 L 614.404 295.156 L 614.404 296.156 L 613.404 297.156 L 613.404 325.156 L 615.404 327.156 L 615.404 353.156 L 616.404 354.156 L 616.404 358.156 L 617.404 359.156 L 617.404 362.156 L 618.404 363.156 L 618.404 371.156 L 619.404 372.156 L 619.404 373.156 L 620.404 374.156 L 620.404 388.156 L 618.404 390.156 L 618.404 391.156 L 617.404 392.156 L 617.404 393.156 L 616.404 394.156 L 616.404 395.156 L 613.404 398.156 L 613.404 400.156 L 613.404 400.656 L 612.904 400.656 C 612.071 400.656 611.571 400.656 611.404 400.656 L 611.404 401.156 C 611.404 401.989 611.404 402.489 611.404 402.656 L 610.904 402.656 C 610.071 402.656 609.571 402.656 609.404 402.656 C 609.404 402.823 609.404 403.323 609.404 404.156 L 607.904 405.656 C 607.071 405.656 606.571 405.656 606.404 405.656 L 606.404 406.156 C 606.404 406.989 606.404 407.489 606.404 407.656 L 605.904 407.656 C 605.071 407.656 604.571 407.656 604.404 407.656 L 604.404 408.156 C 604.404 408.989 604.404 409.489 604.404 409.656 C 604.238 409.656 603.738 409.656 602.904 409.656 L 600.904 411.656 L 599.904 411.656 L 598.904 412.656 L 597.904 412.656 L 596.904 413.656 L 595.904 413.656 L 594.904 414.656 L 592.904 414.656 L 590.904 416.656 L 588.904 416.656 L 587.904 417.656 L 586.904 417.656 L 585.904 416.656 C 585.071 416.656 584.571 416.656 584.404 416.656 L 584.404 416.156 L 584.404 410.156 L 583.404 409.156 L 583.404 401.156 L 582.404 400.156 L 582.404 386.156 L 581.404 385.156 L 581.404 381.156 L 580.404 380.156 L 580.404 378.156 L 580.404 377.656 L 579.904 377.656 L 577.904 377.656 L 575.904 379.656 L 574.904 379.656 L 569.904 384.656 L 568.904 384.656 L 561.904 391.656 L 560.904 391.656 L 557.904 394.656 L 556.904 394.656 L 554.904 396.656 L 553.904 396.656 L 552.904 397.656 L 551.904 397.656 L 550.904 398.656 L 549.904 398.656 L 547.904 400.656 L 546.904 400.656 L 545.904 401.656 L 544.904 401.656 L 543.904 402.656 L 542.904 402.656 L 541.904 403.656 L 540.904 403.656 L 538.904 405.656 L 536.904 405.656 L 534.904 407.656 L 533.904 407.656 L 531.904 409.656 L 529.904 409.656 L 527.904 411.656 L 525.904 411.656 L 524.904 412.656 L 522.904 412.656 L 521.904 413.656 L 519.904 413.656 L 518.904 414.656 L 512.904 414.656 L 511.904 415.656 L 510.904 415.656 L 509.904 416.656 L 497.904 416.656 L 496.904 417.656 L 490.904 417.656 L 489.904 418.656 L 486.904 418.656 L 484.904 416.656 L 479.904 416.656 L 478.904 415.656 L 477.904 415.656 L 476.904 414.656 L 475.904 414.656 L 474.904 413.656 L 473.904 413.656 L 471.904 411.656 L 469.904 411.656 L 467.904 409.656 L 466.904 409.656 L 465.904 408.656 L 464.904 408.656 L 463.904 407.656 L 462.904 407.656 L 460.904 405.656 L 459.904 405.656 L 458.404 404.156 L 458.404 403.156 L 454.404 399.156 L 454.404 398.156 L 452.404 396.156 L 452.404 394.156 L 450.404 392.156 L 450.404 389.156 L 449.404 388.156 L 449.404 387.156 L 448.404 386.156 L 448.404 385.156 L 447.404 384.156 L 447.404 381.156 L 444.904 378.656 L 443.904 378.656 L 441.904 380.656 L 440.904 380.656 L 434.904 386.656 L 433.904 386.656 L 430.904 389.656 L 429.904 389.656 L 423.904 395.656 L 422.904 395.656 L 419.904 398.656 L 417.904 398.656 L 415.904 400.656 L 414.904 400.656 L 412.904 402.656 L 410.904 402.656 L 408.904 404.656 L 407.904 404.656 L 406.904 405.656 L 405.904 405.656 L 403.904 407.656 L 401.904 407.656 L 399.904 409.656 L 398.904 409.656 L 396.904 411.656 L 391.904 411.656 L 390.904 412.656 L 388.904 412.656 L 387.904 413.656 L 384.904 413.656 L 383.904 414.656 L 378.904 414.656 L 376.904 416.656 L 370.904 416.656 L 368.904 418.656 L 353.904 418.656 L 351.904 416.656 L 346.904 416.656 L 345.904 415.656 L 344.904 415.656 L 343.904 414.656 L 340.904 414.656 L 339.904 413.656 L 338.904 413.656 L 336.904 411.656 L 335.904 411.656 L 333.904 409.656 L 332.904 409.656 L 330.904 407.656 L 329.904 407.656 L 328.904 406.656 L 327.904 406.656 L 326.404 405.156 L 326.404 404.156 L 324.404 402.156 L 324.404 401.156 L 322.404 399.156 L 322.404 398.156 L 321.404 397.156 L 321.404 396.156 L 319.404 394.156 L 319.404 393.156 L 317.404 391.156 L 317.404 389.156 L 314.404 386.156 L 314.404 385.156 L 312.404 383.156 L 312.404 379.156 L 310.404 377.156 L 310.404 347.156 L 311.404 346.156 L 311.404 345.156 L 312.404 344.156 L 312.404 341.156 L 313.404 340.156 L 313.404 338.156 L 314.404 337.156 L 314.404 336.156 L 315.404 335.156 L 315.404 333.156 L 316.404 332.156 L 316.404 331.156 L 317.404 330.156 L 317.404 328.156 L 318.404 327.156 L 318.404 326.156 L 319.404 325.156 L 319.404 324.156 L 320.404 323.156 L 320.404 322.156 L 321.404 321.156 L 321.404 320.156 L 322.404 319.156 L 322.404 318.156 L 323.404 317.156 L 323.404 316.156 L 324.404 315.156 L 324.404 314.156 L 326.404 312.156 L 326.404 311.156 L 328.404 309.156 L 328.404 308.156 L 330.404 306.156 L 330.404 305.156 L 332.404 303.156 L 332.404 302.156 L 335.404 299.156 L 335.404 298.156 L 351.904 281.656 L 352.904 281.656 L 354.904 279.656 L 355.904 279.656 L 357.904 277.656 L 358.904 277.656 L 360.904 275.656 L 362.904 275.656 L 364.904 273.656 L 366.904 273.656 L 367.904 272.656 L 368.904 272.656 L 369.904 271.656 L 370.904 271.656 L 371.904 270.656 L 372.904 270.656 L 374.904 268.656 L 376.904 268.656 L 378.904 266.656 L 380.904 266.656 L 382.904 264.656 L 384.904 264.656 L 385.904 263.656 L 386.904 263.656 L 387.904 262.656 L 388.904 262.656 L 389.904 261.656 Z M 1472.904 261.656 L 1474.904 261.656 L 1475.904 262.656 L 1486.904 262.656 L 1487.904 263.656 L 1497.904 263.656 L 1498.904 264.656 L 1499.904 264.656 L 1500.904 265.656 L 1501.904 265.656 L 1509.904 273.656 L 1510.904 273.656 L 1514.904 277.656 L 1515.904 277.656 L 1523.404 285.156 L 1523.404 286.156 L 1525.404 288.156 L 1525.404 289.156 L 1527.404 291.156 L 1527.404 294.156 L 1528.404 295.156 L 1528.404 296.156 L 1529.404 297.156 L 1529.404 302.156 L 1531.904 304.656 L 1532.904 304.656 L 1536.904 300.656 L 1537.904 300.656 L 1540.904 297.656 L 1541.904 297.656 L 1545.904 293.656 L 1546.904 293.656 L 1551.904 288.656 C 1552.738 288.656 1553.238 288.656 1553.404 288.656 L 1553.404 288.156 C 1553.404 287.323 1553.404 286.823 1553.404 286.656 L 1553.904 286.656 L 1555.904 286.656 L 1559.904 282.656 L 1560.904 282.656 L 1561.904 281.656 L 1562.904 281.656 L 1564.904 279.656 L 1565.904 279.656 L 1567.904 277.656 L 1568.904 277.656 L 1570.904 275.656 L 1572.904 275.656 L 1575.904 272.656 L 1576.904 272.656 L 1578.904 270.656 L 1579.904 270.656 L 1580.904 269.656 L 1581.904 269.656 L 1582.904 268.656 L 1585.904 268.656 L 1587.904 266.656 L 1591.904 266.656 L 1592.904 265.656 L 1593.904 265.656 L 1594.904 264.656 L 1597.904 264.656 L 1598.904 263.656 L 1601.904 263.656 L 1602.904 262.656 L 1603.904 262.656 L 1604.904 261.656 L 1619.904 261.656 L 1620.904 262.656 L 1622.904 262.656 L 1623.904 263.656 L 1625.904 263.656 L 1626.904 264.656 L 1629.904 264.656 L 1631.904 266.656 L 1633.904 266.656 L 1637.904 270.656 L 1638.904 270.656 L 1642.404 274.156 L 1642.404 275.156 L 1646.404 279.156 L 1646.404 280.156 L 1648.404 282.156 L 1648.404 283.156 L 1649.404 284.156 L 1649.404 285.156 L 1652.404 288.156 L 1652.404 289.156 L 1653.404 290.156 L 1653.404 291.156 L 1654.404 292.156 L 1654.404 293.156 L 1655.404 294.156 L 1655.404 297.156 L 1656.404 298.156 L 1656.404 299.156 L 1657.404 300.156 L 1657.404 302.156 L 1658.404 303.156 L 1658.404 311.156 L 1659.404 312.156 L 1659.404 315.156 L 1660.404 316.156 L 1660.404 330.156 L 1659.404 331.156 L 1659.404 332.156 L 1658.404 333.156 L 1658.404 335.156 L 1657.404 336.156 L 1657.404 339.156 L 1656.404 340.156 L 1656.404 341.156 L 1655.404 342.156 L 1655.404 346.156 L 1653.404 348.156 L 1653.404 351.156 L 1651.404 353.156 L 1651.404 357.156 L 1649.404 359.156 L 1649.404 361.156 L 1648.404 362.156 L 1648.404 363.156 L 1646.404 365.156 L 1646.404 366.156 L 1644.404 368.156 L 1644.404 369.156 L 1642.404 371.156 L 1642.404 372.156 L 1639.404 375.156 L 1639.404 376.156 L 1632.404 383.156 L 1632.404 384.156 L 1622.904 393.656 C 1622.071 393.656 1621.571 393.656 1621.404 393.656 L 1621.404 394.156 C 1621.404 394.989 1621.404 395.489 1621.404 395.656 C 1621.238 395.656 1620.738 395.656 1619.904 395.656 L 1614.904 400.656 L 1613.904 400.656 L 1611.904 402.656 L 1610.904 402.656 L 1607.904 405.656 L 1606.904 405.656 L 1604.904 407.656 L 1602.904 407.656 L 1600.904 409.656 L 1598.904 409.656 L 1596.904 411.656 L 1593.904 411.656 L 1592.904 412.656 L 1591.904 412.656 L 1590.904 413.656 L 1588.904 413.656 L 1587.904 414.656 L 1583.904 414.656 L 1582.904 415.656 L 1580.904 415.656 L 1579.904 416.656 L 1570.904 416.656 L 1569.904 417.656 L 1565.904 417.656 L 1564.904 416.656 L 1558.904 416.656 L 1556.904 414.656 L 1553.904 414.656 L 1551.904 412.656 L 1550.904 412.656 L 1549.904 411.656 L 1548.904 411.656 L 1546.404 409.156 L 1546.404 405.156 L 1545.404 404.156 L 1545.404 403.156 L 1544.404 402.156 L 1544.404 392.156 L 1546.404 390.156 L 1546.404 386.156 L 1557.904 374.656 C 1558.738 374.656 1559.238 374.656 1559.404 374.656 L 1559.404 374.156 C 1559.404 373.323 1559.404 372.823 1559.404 372.656 L 1559.904 372.656 L 1562.904 372.656 L 1563.904 371.656 L 1576.904 371.656 L 1577.904 372.656 L 1578.904 372.656 L 1580.904 374.656 L 1581.904 374.656 L 1583.904 376.656 L 1585.904 376.656 L 1587.904 378.656 L 1589.904 378.656 L 1591.904 380.656 L 1592.904 380.656 L 1593.904 381.656 L 1613.904 381.656 L 1614.904 380.656 L 1615.904 380.656 L 1616.904 379.656 C 1617.738 379.656 1618.238 379.656 1618.404 379.656 C 1618.404 379.489 1618.404 378.989 1618.404 378.156 L 1620.404 376.156 L 1620.404 375.156 L 1621.404 374.156 L 1621.404 373.156 L 1622.404 372.156 L 1622.404 370.156 L 1623.404 369.156 L 1623.404 367.156 L 1624.404 366.156 L 1624.404 363.156 L 1625.404 362.156 L 1625.404 343.156 L 1624.404 342.156 L 1624.404 338.156 L 1623.404 337.156 L 1623.404 335.156 L 1622.404 334.156 L 1622.404 331.156 L 1621.404 330.156 L 1621.404 329.156 L 1620.404 328.156 L 1620.404 327.156 L 1619.404 326.156 L 1619.404 325.156 L 1618.404 324.156 L 1618.404 322.156 L 1616.404 320.156 L 1616.404 319.156 L 1614.404 317.156 L 1614.404 316.156 L 1613.404 315.156 L 1613.404 314.156 L 1602.904 303.656 L 1601.904 303.656 L 1599.904 301.656 C 1599.071 301.656 1598.571 301.656 1598.404 301.656 L 1598.404 301.156 C 1598.404 300.323 1598.404 299.823 1598.404 299.656 L 1597.904 299.656 L 1594.904 299.656 L 1592.904 297.656 L 1587.904 297.656 L 1586.904 296.656 L 1572.904 296.656 L 1571.904 297.656 L 1566.904 297.656 L 1565.904 298.656 L 1564.904 298.656 L 1563.904 299.656 L 1560.904 299.656 L 1558.904 301.656 L 1556.904 301.656 L 1556.404 301.656 L 1556.404 302.156 C 1556.404 302.989 1556.404 303.489 1556.404 303.656 C 1556.238 303.656 1555.738 303.656 1554.904 303.656 L 1553.904 304.656 L 1552.904 304.656 L 1548.904 308.656 C 1548.071 308.656 1547.571 308.656 1547.404 308.656 L 1547.404 309.156 C 1547.404 309.989 1547.404 310.489 1547.404 310.656 L 1546.904 310.656 C 1546.071 310.656 1545.571 310.656 1545.404 310.656 C 1545.404 310.823 1545.404 311.323 1545.404 312.156 L 1543.404 314.156 L 1543.404 316.156 L 1542.404 317.156 L 1542.404 318.156 L 1541.404 319.156 L 1541.404 320.156 L 1540.404 321.156 L 1540.404 322.156 L 1539.404 323.156 L 1539.404 324.156 L 1538.404 325.156 L 1538.404 327.156 L 1536.404 329.156 L 1536.404 331.156 L 1534.404 333.156 L 1534.404 335.156 L 1532.404 337.156 L 1532.404 339.156 L 1531.404 340.156 L 1531.404 341.156 L 1530.404 342.156 L 1530.404 343.156 L 1529.404 344.156 L 1529.404 346.156 L 1527.404 348.156 L 1527.404 350.156 L 1525.404 352.156 L 1525.404 353.156 L 1524.404 354.156 L 1524.404 355.156 L 1523.404 356.156 L 1523.404 357.156 L 1522.404 358.156 L 1522.404 360.156 L 1520.404 362.156 L 1520.404 364.156 L 1516.404 368.156 L 1516.404 369.156 L 1511.404 374.156 L 1511.404 375.156 L 1509.404 377.156 L 1509.404 378.156 L 1504.404 383.156 L 1504.404 384.156 L 1498.404 390.156 L 1498.404 391.156 L 1495.904 393.656 L 1494.904 393.656 L 1491.904 396.656 L 1490.904 396.656 L 1488.904 398.656 L 1487.904 398.656 L 1485.904 400.656 L 1484.904 400.656 L 1482.904 402.656 L 1481.904 402.656 L 1479.904 404.656 L 1478.904 404.656 L 1477.904 405.656 L 1476.904 405.656 L 1474.904 407.656 L 1473.904 407.656 L 1471.904 409.656 L 1470.904 409.656 L 1468.904 411.656 L 1467.904 411.656 L 1464.904 414.656 L 1461.904 414.656 L 1460.904 415.656 L 1459.904 415.656 L 1458.904 416.656 L 1454.904 416.656 L 1453.904 417.656 L 1452.904 417.656 L 1451.904 418.656 L 1440.904 418.656 L 1439.904 417.656 L 1438.904 417.656 L 1437.904 416.656 L 1432.904 416.656 L 1430.904 414.656 L 1427.904 414.656 L 1425.904 412.656 L 1424.904 412.656 L 1421.904 409.656 C 1421.071 409.656 1420.571 409.656 1420.404 409.656 C 1420.404 409.489 1420.404 408.989 1420.404 408.156 L 1419.404 407.156 L 1419.404 404.156 L 1418.404 403.156 L 1418.404 396.156 L 1417.404 395.156 L 1417.404 393.156 L 1418.404 392.156 L 1418.404 391.156 L 1419.404 390.156 L 1419.404 389.156 L 1420.404 388.156 L 1420.404 386.156 L 1422.404 384.156 L 1422.404 382.156 L 1422.404 381.656 C 1422.571 381.656 1423.071 381.656 1423.904 381.656 L 1428.904 376.656 L 1429.904 376.656 L 1431.904 374.656 C 1432.738 374.656 1433.238 374.656 1433.404 374.656 L 1433.404 374.156 C 1433.404 373.323 1433.404 372.823 1433.404 372.656 L 1433.904 372.656 L 1436.904 372.656 L 1437.904 371.656 L 1449.904 371.656 L 1450.904 372.656 L 1451.904 372.656 L 1453.904 374.656 L 1455.904 374.656 L 1457.904 376.656 L 1458.904 376.656 L 1460.904 378.656 L 1461.904 378.656 L 1462.904 379.656 L 1463.904 379.656 L 1464.904 380.656 L 1465.904 380.656 L 1466.904 381.656 L 1489.904 381.656 L 1490.404 381.656 L 1490.404 381.156 C 1490.404 380.323 1490.404 379.823 1490.404 379.656 L 1490.904 379.656 C 1491.738 379.656 1492.238 379.656 1492.404 379.656 L 1492.404 379.156 L 1492.404 377.156 L 1494.404 375.156 L 1494.404 372.156 L 1496.404 370.156 L 1496.404 365.156 L 1497.404 364.156 L 1497.404 356.156 L 1498.404 355.156 L 1498.404 350.156 L 1497.404 349.156 L 1497.404 343.156 L 1496.404 342.156 L 1496.404 336.156 L 1494.404 334.156 L 1494.404 330.156 L 1492.404 328.156 L 1492.404 326.156 L 1490.404 324.156 L 1490.404 322.156 L 1489.404 321.156 L 1489.404 320.156 L 1487.404 318.156 L 1487.404 317.156 L 1485.404 315.156 L 1485.404 314.156 L 1483.404 312.156 C 1483.404 311.323 1483.404 310.823 1483.404 310.656 L 1482.904 310.656 C 1482.071 310.656 1481.571 310.656 1481.404 310.656 L 1481.404 310.156 C 1481.404 309.323 1481.404 308.823 1481.404 308.656 L 1480.904 308.656 C 1480.071 308.656 1479.571 308.656 1479.404 308.656 C 1479.404 308.489 1479.404 307.989 1479.404 307.156 L 1477.904 305.656 C 1477.071 305.656 1476.571 305.656 1476.404 305.656 L 1476.404 305.156 C 1476.404 304.323 1476.404 303.823 1476.404 303.656 C 1476.238 303.656 1475.738 303.656 1474.904 303.656 L 1473.904 302.656 L 1472.904 302.656 L 1469.904 299.656 L 1467.904 299.656 L 1466.904 298.656 L 1465.904 298.656 L 1464.904 297.656 L 1459.904 297.656 L 1458.904 296.656 L 1445.904 296.656 L 1444.904 297.656 L 1438.904 297.656 L 1437.904 298.656 L 1436.904 298.656 L 1435.904 299.656 L 1432.904 299.656 L 1430.904 301.656 L 1428.904 301.656 L 1426.904 303.656 L 1424.904 303.656 L 1423.904 304.656 L 1422.904 304.656 L 1421.904 305.656 L 1420.904 305.656 L 1417.904 308.656 L 1416.904 308.656 L 1408.404 317.156 L 1408.404 318.156 L 1407.404 319.156 L 1407.404 320.156 L 1406.404 321.156 L 1406.404 323.156 L 1405.404 324.156 L 1405.404 325.156 L 1404.404 326.156 L 1404.404 327.156 L 1403.404 328.156 L 1403.404 330.156 L 1401.404 332.156 L 1401.404 335.156 L 1399.404 337.156 L 1399.404 339.156 L 1398.404 340.156 L 1398.404 341.156 L 1397.404 342.156 L 1397.404 351.156 L 1396.404 352.156 L 1396.404 378.156 L 1395.404 379.156 L 1395.404 402.156 L 1394.404 403.156 L 1394.404 441.156 L 1392.404 443.156 L 1392.404 446.156 L 1391.404 447.156 L 1391.404 449.156 L 1390.404 450.156 L 1390.404 468.156 L 1389.404 469.156 L 1389.404 475.156 L 1388.404 476.156 L 1388.404 488.156 L 1387.404 489.156 L 1387.404 492.156 L 1386.404 493.156 L 1386.404 496.156 L 1385.404 497.156 L 1385.404 504.156 L 1383.404 506.156 L 1383.404 513.156 L 1381.404 515.156 L 1381.404 521.156 L 1380.404 522.156 L 1380.404 525.156 L 1379.404 526.156 L 1379.404 528.156 L 1378.404 529.156 L 1378.404 532.156 L 1377.404 533.156 L 1377.404 534.156 L 1376.404 535.156 L 1376.404 537.156 L 1374.404 539.156 L 1374.404 542.156 L 1372.404 544.156 L 1372.404 546.156 L 1371.404 547.156 L 1371.404 548.156 L 1370.404 549.156 L 1370.404 550.156 L 1369.404 551.156 L 1369.404 552.156 L 1367.404 554.156 L 1367.404 556.156 L 1365.404 558.156 L 1365.404 559.156 L 1363.404 561.156 L 1363.404 562.156 L 1361.404 564.156 L 1361.404 565.156 L 1360.404 566.156 C 1360.404 566.989 1360.404 567.489 1360.404 567.656 L 1359.904 567.656 C 1359.071 567.656 1358.571 567.656 1358.404 567.656 C 1358.404 567.823 1358.404 568.323 1358.404 569.156 L 1353.404 574.156 L 1353.404 575.156 L 1351.404 577.156 C 1351.404 577.989 1351.404 578.489 1351.404 578.656 L 1350.904 578.656 C 1350.071 578.656 1349.571 578.656 1349.404 578.656 L 1349.404 579.156 C 1349.404 579.989 1349.404 580.489 1349.404 580.656 C 1349.238 580.656 1348.738 580.656 1347.904 580.656 L 1342.904 585.656 L 1341.904 585.656 L 1335.904 591.656 L 1331.904 591.656 L 1330.904 592.656 L 1327.904 592.656 L 1326.904 593.656 L 1323.904 593.656 L 1323.404 593.656 L 1323.404 593.156 L 1323.404 591.156 L 1325.404 589.156 L 1325.404 588.156 L 1327.404 586.156 L 1327.404 585.156 L 1328.404 584.156 L 1328.404 583.156 L 1330.404 581.156 L 1330.404 580.156 L 1332.404 578.156 L 1332.404 577.156 L 1334.404 575.156 L 1334.404 574.156 L 1336.404 572.156 L 1336.404 571.156 L 1339.404 568.156 L 1339.404 566.156 L 1339.404 565.656 L 1339.904 565.656 C 1340.738 565.656 1341.238 565.656 1341.404 565.656 L 1341.404 565.156 L 1341.404 563.156 L 1343.404 561.156 L 1343.404 557.156 L 1344.404 556.156 L 1344.404 555.156 L 1345.404 554.156 L 1345.404 551.156 L 1346.404 550.156 L 1346.404 548.156 L 1347.404 547.156 L 1347.404 545.156 L 1348.404 544.156 L 1348.404 540.156 L 1350.404 538.156 L 1350.404 529.156 L 1351.404 528.156 L 1351.404 527.156 L 1352.404 526.156 L 1352.404 518.156 L 1353.404 517.156 L 1353.404 516.156 L 1354.404 515.156 L 1354.404 506.156 L 1355.404 505.156 L 1355.404 490.156 L 1356.404 489.156 L 1356.404 481.156 L 1357.404 480.156 L 1357.404 460.156 L 1359.404 458.156 L 1359.404 420.156 L 1361.404 418.156 L 1361.404 314.156 L 1359.404 312.156 L 1359.404 309.156 L 1358.404 308.156 L 1358.404 307.156 L 1357.404 306.156 L 1357.404 305.156 L 1355.404 303.156 C 1355.404 302.323 1355.404 301.823 1355.404 301.656 C 1355.238 301.656 1354.738 301.656 1353.904 301.656 L 1351.904 299.656 L 1342.904 299.656 L 1340.904 301.656 L 1336.904 301.656 L 1334.904 303.656 L 1332.904 303.656 L 1329.904 306.656 L 1328.904 306.656 L 1326.904 308.656 L 1325.904 308.656 L 1323.904 310.656 L 1322.904 310.656 L 1320.904 312.656 L 1317.904 312.656 L 1316.404 311.156 L 1316.404 308.156 L 1321.404 303.156 L 1321.404 302.156 L 1328.404 295.156 L 1328.404 294.156 L 1334.404 288.156 L 1334.404 287.156 L 1341.904 279.656 L 1343.904 279.656 L 1347.904 275.656 L 1349.904 275.656 L 1351.904 273.656 L 1352.904 273.656 L 1355.904 270.656 L 1356.904 270.656 L 1357.904 269.656 L 1358.904 269.656 L 1359.904 268.656 L 1361.904 268.656 L 1363.904 266.656 L 1368.904 266.656 L 1370.904 264.656 L 1385.904 264.656 L 1388.404 267.156 L 1388.404 268.156 L 1389.404 269.156 L 1389.404 270.156 L 1392.404 273.156 L 1392.404 275.156 L 1394.404 277.156 L 1394.404 278.156 L 1395.404 279.156 L 1395.404 283.156 L 1396.404 284.156 L 1396.404 290.156 L 1397.404 291.156 L 1397.404 301.156 L 1398.404 302.156 L 1398.404 306.156 L 1399.904 307.656 L 1401.904 307.656 L 1409.404 300.156 C 1409.404 299.323 1409.404 298.823 1409.404 298.656 C 1409.571 298.656 1410.071 298.656 1410.904 298.656 L 1420.904 288.656 L 1421.904 288.656 L 1425.904 284.656 L 1426.904 284.656 L 1429.904 281.656 L 1430.904 281.656 L 1431.904 280.656 L 1432.904 280.656 L 1433.904 279.656 L 1434.904 279.656 L 1436.904 277.656 C 1437.738 277.656 1438.238 277.656 1438.404 277.656 L 1438.404 277.156 C 1438.404 276.323 1438.404 275.823 1438.404 275.656 L 1438.904 275.656 L 1440.904 275.656 L 1442.904 273.656 L 1443.904 273.656 L 1444.904 272.656 L 1445.904 272.656 L 1447.904 270.656 L 1449.904 270.656 L 1451.904 268.656 L 1453.904 268.656 L 1455.904 266.656 L 1458.904 266.656 L 1460.904 264.656 L 1463.904 264.656 L 1464.904 263.656 L 1470.904 263.656 L 1472.904 261.656 Z M 702.904 263.656 L 717.904 263.656 L 718.904 264.656 L 720.904 264.656 L 722.904 266.656 L 723.904 266.656 L 726.404 269.156 L 726.404 270.156 L 728.404 272.156 L 728.404 275.156 L 730.404 277.156 L 730.404 401.156 L 728.404 403.156 L 728.404 432.156 L 726.404 434.156 L 726.404 439.156 L 725.404 440.156 L 725.404 451.156 L 724.404 452.156 L 724.404 472.156 L 723.404 473.156 L 723.404 478.156 L 722.404 479.156 L 722.404 482.156 L 721.404 483.156 L 721.404 492.156 L 721.404 492.656 L 720.904 492.656 C 720.071 492.656 719.571 492.656 719.404 492.656 L 719.404 493.156 L 719.404 501.156 L 717.404 503.156 L 717.404 511.156 L 716.404 512.156 L 716.404 514.156 L 715.404 515.156 L 715.404 519.156 L 714.404 520.156 L 714.404 523.156 L 713.404 524.156 L 713.404 525.156 L 712.404 526.156 L 712.404 529.156 L 710.404 531.156 L 710.404 535.156 L 708.404 537.156 L 708.404 539.156 L 707.404 540.156 L 707.404 541.156 L 706.404 542.156 L 706.404 543.156 L 705.404 544.156 L 705.404 545.156 L 703.404 547.156 L 703.404 549.156 L 701.404 551.156 L 701.404 553.156 L 699.404 555.156 L 699.404 557.156 L 696.404 560.156 L 696.404 561.156 L 694.404 563.156 L 694.404 564.156 L 692.404 566.156 L 692.404 567.156 L 690.404 569.156 L 690.404 570.156 L 683.404 577.156 L 683.404 578.156 L 675.904 585.656 L 674.904 585.656 L 672.904 587.656 L 671.904 587.656 L 668.904 590.656 L 667.904 590.656 L 666.904 591.656 L 665.904 591.656 L 663.904 593.656 L 662.904 593.656 L 661.904 594.656 L 659.904 594.656 L 659.404 594.656 L 659.404 594.156 L 659.404 589.156 L 661.404 587.156 L 661.404 583.156 L 666.404 578.156 L 666.404 577.156 L 671.404 572.156 L 671.404 571.156 L 672.404 570.156 L 672.404 569.156 L 673.404 568.156 L 673.404 566.156 L 675.404 564.156 L 675.404 562.156 L 677.404 560.156 L 677.404 558.156 L 678.404 557.156 L 678.404 556.156 L 679.404 555.156 L 679.404 549.156 L 680.404 548.156 L 680.404 546.156 L 681.404 545.156 L 681.404 541.156 L 682.404 540.156 L 682.404 537.156 L 683.404 536.156 L 683.404 534.156 L 684.404 533.156 L 684.404 526.156 L 685.404 525.156 L 685.404 524.156 L 686.404 523.156 L 686.404 506.156 L 687.404 505.156 L 687.404 504.156 L 688.404 503.156 L 688.404 496.156 L 689.404 495.156 L 689.404 494.156 L 690.404 493.156 L 690.404 470.156 L 691.404 469.156 L 691.404 468.156 L 692.404 467.156 L 692.404 441.156 L 693.404 440.156 L 693.404 432.156 L 694.404 431.156 L 694.404 416.156 L 695.404 415.156 L 695.404 317.156 L 693.404 315.156 L 693.404 306.156 L 691.404 304.156 L 691.404 303.156 L 690.404 302.156 L 690.404 301.156 L 688.904 299.656 L 686.904 299.656 L 685.904 298.656 L 675.904 298.656 L 674.904 299.656 L 672.904 299.656 L 668.904 303.656 L 667.904 303.656 L 666.904 304.656 L 665.904 304.656 L 663.904 306.656 L 662.904 306.656 L 660.904 308.656 L 659.904 308.656 L 657.904 310.656 L 650.904 310.656 L 650.404 310.656 L 650.404 310.156 L 650.404 307.156 L 652.404 305.156 L 652.404 303.156 L 655.404 300.156 L 655.404 299.156 L 657.404 297.156 L 657.404 296.156 L 664.404 289.156 L 664.404 288.156 L 665.904 286.656 L 666.904 286.656 L 673.904 279.656 C 674.738 279.656 675.238 279.656 675.404 279.656 L 675.404 279.156 C 675.404 278.323 675.404 277.823 675.404 277.656 L 675.904 277.656 C 676.738 277.656 677.238 277.656 677.404 277.656 L 677.404 277.156 C 677.404 276.323 677.404 275.823 677.404 275.656 L 677.904 275.656 L 679.904 275.656 L 682.904 272.656 L 683.904 272.656 L 685.904 270.656 L 687.904 270.656 L 688.904 269.656 L 689.904 269.656 L 690.904 268.656 L 691.904 268.656 L 693.904 266.656 L 696.904 266.656 L 697.904 265.656 L 698.904 265.656 L 699.904 264.656 L 701.904 264.656 L 702.904 263.656 Z" style="fill: url(#grad1)"/>
  </g>
</svg>