<?xml version="1.0" encoding="UTF-8" standalone="no"?>
<!-- Created with Inkscape (http://www.inkscape.org/) -->
<svg xmlns:svg="http://www.w3.org/2000/svg" xmlns="http://www.w3.org/2000/svg" version="1.0" width="800" height="375" viewBox="0 0 400.101 187.664" id="svg2" xml:space="preserve">
 <defs id="defs4">
  <style type="text/css" id="style6"/>
 
  
  
 
   
   
   
   
   
   
   
   
   
   
   
   
   
   
   
  </defs>
 
<g id="g7160"><path d="M 58.3207,88.9327 L 54.47064,86.50542 C 52.70838,85.39484 50.76486,84.55887 48.63705,83.99934 C 46.49045,83.434349 44.13713,83.15246 41.57224,83.15246 C 40.30707,83.15246 39.13344,83.296739 38.05196,83.58469 L 38.06954,83.58469 C 37.839179,83.64713 37.640341,83.710782 37.47242,83.774435 C 37.482726,83.78171 37.493638,83.790803 37.50455,83.799896 C 38.175022,84.33397 39.19528,84.944426 40.56168,85.637936 C 42.9932,86.842486 44.85791,87.784536 46.14915,88.461676 C 47.57921,89.212774 48.57097,89.774126 49.13051,90.151796 C 50.86974,91.274506 52.21432,92.456016 53.18123,93.686626 C 54.27848,95.084556 54.90469,96.551586 55.0805,98.078636 L 55.0805,98.096216 C 55.36542,100.68839 54.599773,102.99078 52.77628,105.02342 C 51.15951,106.82569 48.6898,108.38002 45.36229,109.70157 L 45.370776,109.69247 C 42.564616,110.81457 39.465656,111.65539 36.079346,112.21371 C 32.711836,112.7684 29.083646,113.04604 25.200846,113.04604 C 19.803126,113.04544 14.935846,112.60351 10.599646,111.71843 C 7.7474165,111.1298 5.5614065,110.49691 4.0458765,109.81189 C 1.9392865,108.86014 0.78990648,107.63377 0.60561648,106.12126 L 0.61955938,106.24614 C 0.54438898,105.87029 0.54620758,105.52051 0.60561648,105.16162 L 0.60561648,105.15253 C 0.64683898,104.90277 0.71412848,104.68453 0.80021048,104.46266 L 3.4530005,96.251501 L 4.4017235,93.313791 L 6.8702235,95.153041 C 8.8422335,96.621891 10.839703,97.715501 12.851123,98.441751 C 14.844953,99.161932 16.852733,99.516571 18.864753,99.516571 C 19.415801,99.515964 19.725576,99.91061 19.711633,99.752994 L 19.729214,99.821496 C 19.668592,99.315308 19.44975,98.807906 19.066623,98.298086 C 18.590746,97.663987 17.876023,97.026246 16.913353,96.379426 L 16.947907,96.404887 C 16.327145,96.005999 15.439647,95.425247 14.278147,94.655967 C 13.434905,94.097039 12.198227,93.271987 10.492347,92.126847 L 10.449306,92.10866 C 8.9252857,91.04233 7.7613557,89.85233 6.9556957,88.51624 C 6.1045727,87.10437 5.6790157,85.57793 5.6790157,83.91448 C 5.6790157,81.05073 6.8168757,78.57859 9.0980557,76.50474 C 11.137966,74.64973 14.116286,73.15117 18.037876,72.01452 C 20.662176,71.251298 23.475006,70.68388 26.464846,70.31106 C 29.461356,69.937027 32.658526,69.750313 36.044226,69.750313 C 39.672416,69.750313 43.115706,70.00856 46.368626,70.529297 C 49.610046,71.048215 52.624136,71.828407 55.405446,72.874127 L 56.680916,73.353642 L 56.823982,74.716412 L 57.844842,84.411582 L 58.320719,88.932722 L 58.3207,88.9327 z M 53.02361,80.81308 L 52.575619,76.55625 C 50.421139,75.835463 48.119949,75.28078 45.676919,74.88977 C 42.713139,74.414499 39.500209,74.179894 36.044189,74.179894 C 32.831869,74.179288 29.813529,74.355696 27.001309,74.706087 C 24.193329,75.055872 21.611469,75.572365 19.266639,76.253747 C 16.013089,77.196408 13.617339,78.372457 12.074529,79.774637 C 10.762679,80.967057 10.108579,82.348617 10.108579,83.914467 C 10.108579,84.759528 10.320754,85.528817 10.745103,86.232627 C 11.215524,87.012217 11.964803,87.756647 12.992333,88.476217 L 12.949292,88.458637 C 14.202332,89.300061 15.481442,90.151787 16.717512,90.970177 C 17.839002,91.712788 18.710742,92.283237 19.335742,92.685157 L 19.370296,92.710618 C 20.746396,93.636305 21.817576,94.614738 22.595956,95.650748 C 23.467084,96.809218 23.971456,98.024678 24.123616,99.303178 L 24.141196,99.372286 C 24.410355,102.42094 22.651126,103.94617 18.864716,103.94617 C 16.342866,103.94617 13.837996,103.50545 11.362826,102.6119 C 9.8145562,102.05236 8.2778062,101.314 6.7549962,100.39437 L 5.0503262,105.66964 C 5.1600512,105.67327 5.4195102,105.58052 5.8626522,105.78057 C 7.1005422,106.3395 8.9755522,106.876 11.481642,107.3931 C 15.479012,108.20846 20.052282,108.61704 25.200842,108.61704 C 28.890862,108.61704 32.282012,108.36243 35.369442,107.85322 C 38.432632,107.34824 41.220002,106.59472 43.726692,105.59205 L 43.735179,105.58235 C 46.403119,104.5233 48.313909,103.35512 49.471769,102.0645 C 50.422311,101.00423 50.826049,99.840296 50.686009,98.563006 L 50.686009,98.57998 C 50.604777,97.876773 50.280452,97.15659 49.703338,96.42065 C 49.029229,95.562252 48.037468,94.70567 46.714098,93.85394 L 46.66257,93.818779 C 46.281868,93.55932 45.43075,93.084049 44.10738,92.389329 C 42.6258,91.612164 40.79382,90.684049 38.59569,89.595289 L 38.578716,89.58559 C 36.929816,88.750228 35.654946,87.97913 34.753516,87.26016 C 33.493806,86.25566 32.794846,85.20934 32.656016,84.09755 L 32.656016,84.08785 C 32.502038,82.80207 32.934874,81.69816 33.943006,80.78763 L 33.934519,80.787024 C 34.634089,80.15535 35.628889,79.660684 36.910419,79.310894 L 36.927393,79.310894 C 38.397463,78.91928 39.946333,78.722867 41.572193,78.722867 C 44.492323,78.722261 47.220883,79.057497 49.762133,79.725547 C 50.889083,80.021379 51.976633,80.384501 53.023563,80.813097 L 53.02361,80.81308 z " style="fill:#ff0000;fill-opacity:1" id="_46845672"/><path d="M 106.319,86.4866 C 105.63762,88.26705 104.86409,89.9505 104.00933,91.53393 C 103.13214,93.15858 102.1725,94.66926 101.14376,96.06416 L 101.12618,96.098108 C 99.63368,98.064668 98.07996,99.568678 96.46501,100.60409 C 94.7173,101.72377 92.91866,102.28754 91.06911,102.28754 C 87.55186,102.28693 85.79324,100.1464 85.79324,95.863498 C 85.79324,93.225258 86.594047,90.255418 88.19506,87.052798 L 88.19506,87.061285 C 89.46871,84.488515 91.04487,82.543785 92.93383,81.218605 L 92.93383,81.210118 C 94.89675,79.833408 97.14822,79.148388 99.70159,79.148388 L 109.12578,79.148388 L 107.97761,82.149748 L 106.31901,86.486598 L 106.319,86.4866 z M 102.18402,84.91287 L 102.69445,83.57678 L 99.701581,83.57678 C 98.087841,83.57678 96.682031,83.998098 95.476881,84.84316 L 95.476881,84.834673 C 94.198381,85.730656 93.094461,87.124343 92.157261,89.016333 L 92.157261,89.02482 C 90.867841,91.60547 90.222231,93.90908 90.222231,95.86351 C 90.222231,97.19233 90.504726,97.85856 91.069111,97.85856 C 92.0633,97.85856 93.065981,97.532417 94.077141,96.884376 C 95.231371,96.14419 96.405001,94.986326 97.596211,93.416836 L 97.579237,93.45139 C 98.489163,92.21775 99.338467,90.88044 100.11624,89.44008 C 100.87219,88.03852 101.56509,86.53026 102.18403,84.91288 L 102.18402,84.91287 z M 92.64283,74.26417 C 88.90189,74.26417 85.40828,74.6964 82.15593,75.54813 C 78.9133,76.396828 75.88526,77.66684 73.06698,79.34545 L 73.08456,79.336357 C 69.85526,81.301697 67.44072,83.589547 65.85123,86.196267 C 64.29872,88.741757 63.51792,91.640667 63.51792,94.885117 C 63.51792,95.202166 63.528226,95.554982 63.554899,95.964177 C 63.580966,96.363065 63.615521,96.72255 63.662199,97.031717 L 63.670686,97.126286 C 63.871343,99.062526 64.401779,100.75387 65.265636,102.18938 C 66.107666,103.58852 67.289786,104.77306 68.815616,105.73088 L 68.815616,105.72178 C 70.221426,106.60261 71.795156,107.26884 73.549536,107.71319 C 75.360896,108.1721 77.383226,108.40428 79.630456,108.40428 C 83.689656,108.40428 87.320266,107.61862 90.515656,106.05339 C 93.704946,104.49057 96.492306,102.13665 98.872306,98.995856 L 102.74783,100.97636 L 100.61638,107.85142 L 121.12518,107.85142 L 131.36168,75.108016 C 126.96845,74.8528 121.96295,74.6576 116.34938,74.520596 C 109.40157,74.35025 101.49718,74.264774 92.642776,74.264168 L 92.64283,74.26417 z M 92.64283,69.83578 C 101.56629,69.83578 109.50523,69.92065 116.45363,70.090996 C 123.49722,70.263161 129.50293,70.518376 134.46243,70.856037 L 137.26495,71.046994 L 136.42656,73.727664 L 124.86006,110.72366 L 124.37327,112.28042 L 94.619068,112.28042 L 95.50717,109.41667 L 95.959405,107.95752 C 94.842155,108.74318 93.673375,109.43547 92.453675,110.03259 C 88.646055,111.8973 84.369825,112.8339 79.630475,112.8339 C 77.030425,112.8333 74.651045,112.55505 72.476555,112.00461 C 70.244475,111.4384 68.245185,110.59456 66.462315,109.47731 L 66.462315,109.46821 C 64.344205,108.13757 62.683785,106.46321 61.476215,104.45604 C 60.275915,102.46099 59.544215,100.16345 59.275665,97.576732 L 59.284152,97.671907 C 59.202919,97.129953 59.152604,96.660137 59.125324,96.241247 C 59.099257,95.832053 59.088345,95.375575 59.088345,94.885147 C 59.088345,90.824127 60.089205,87.158357 62.079405,83.895147 C 64.041115,80.677977 66.946085,77.899097 70.783415,75.565177 L 70.800389,75.555478 C 73.978159,73.663488 77.392349,72.232218 81.048989,71.274398 C 84.695969,70.3184 88.559359,69.835858 92.642789,69.835858 L 92.64283,69.83578 z " style="fill:#ff0000;fill-opacity:1" id="_46792160"/><path d="M 369.147,86.5042 L 369.15549,86.48662 C 368.46622,88.28889 367.69149,89.99114 366.82763,91.59457 C 365.95892,93.2077 365.00535,94.70626 363.96206,96.09025 L 363.96206,96.098131 C 362.47259,98.061051 360.91948,99.564461 359.31119,100.60108 C 357.56893,101.72257 355.77879,102.28756 353.94742,102.28756 C 350.37804,102.28695 348.62851,100.14642 348.62851,95.863521 C 348.62851,93.225281 349.42931,90.255441 351.03093,87.052821 L 351.03093,87.061308 C 352.30943,84.479448 353.88437,82.531688 355.7697,81.210138 L 355.7703,81.218625 C 357.74049,79.836455 359.99197,79.148405 362.53685,79.148405 L 372.03075,79.148405 L 370.84742,82.166735 L 369.14699,86.504185 L 369.147,86.5042 z M 365.0199,84.91289 L 365.02839,84.895916 L 365.54549,83.576796 L 362.53746,83.576796 C 360.91584,83.576796 359.50943,83.995689 358.31276,84.834686 L 358.31336,84.843173 C 357.03001,85.743399 355.92549,87.133443 354.99313,89.016343 L 354.99374,89.02483 C 353.70372,91.60548 353.0581,93.90909 353.0581,95.86352 C 353.05871,97.19234 353.35029,97.85857 353.94741,97.85857 C 354.92099,97.85857 355.91397,97.531215 356.92331,96.880748 C 358.07027,96.14238 359.24147,94.985118 360.43207,93.416848 L 360.43207,93.424729 C 361.34443,92.215329 362.17736,90.907129 362.93452,89.501319 C 363.69775,88.085809 364.39064,86.555729 365.01989,84.912889 L 365.0199,84.91289 z M 355.47811,74.26419 C 351.75172,74.26419 348.26902,74.692783 345.03301,75.53845 C 341.78371,76.387755 338.75446,77.6602 335.94527,79.34547 L 335.95376,79.344864 C 332.71476,81.304144 330.30689,83.582904 328.72649,86.175674 C 327.17095,88.724804 326.3956,91.630984 326.3956,94.885134 C 326.3956,95.662905 326.43258,96.400064 326.50593,97.135394 L 326.50653,97.126301 C 326.70598,99.050421 327.23823,100.73872 328.11118,102.17969 C 328.96413,103.5861 330.1523,104.77125 331.68481,105.7224 L 331.70239,105.73028 C 333.08274,106.60747 334.65707,107.27127 336.41933,107.71684 C 338.22766,108.17332 340.24453,108.40429 342.46631,108.40429 C 346.52491,108.40429 350.15309,107.61924 353.35271,106.05582 C 356.55352,104.48997 359.35604,102.13241 361.75907,98.987377 L 365.62671,100.98546 L 363.46799,107.85143 L 383.96039,107.85143 L 394.19809,75.108027 C 389.80426,74.852811 384.79876,74.657611 379.18519,74.520607 C 372.23738,74.350261 364.33299,74.264785 355.47799,74.264179 L 355.47811,74.26419 z M 355.47811,69.8358 C 364.40278,69.8358 372.34051,69.92067 379.28891,70.091016 C 386.33371,70.263181 392.33821,70.518396 397.29831,70.856057 L 400.10083,71.047014 L 399.26244,73.727684 L 387.69654,110.72368 L 387.20854,112.28044 L 357.43924,112.28044 L 358.34249,109.40881 L 358.79655,107.96481 C 357.67869,108.74804 356.50931,109.43912 355.29021,110.03503 C 351.47834,111.89792 347.20333,112.83392 342.46641,112.83392 C 339.89425,112.83332 337.51789,112.55628 335.34644,112.00766 C 333.11315,111.44267 331.10537,110.59458 329.3322,109.46823 L 329.34978,109.47732 C 327.20197,108.14305 325.52943,106.47414 324.32185,104.48091 C 323.11488,102.48768 322.38197,100.18225 322.1116,97.576749 L 322.1122,97.567656 C 322.01521,96.602565 321.96671,95.722946 321.96671,94.885166 C 321.96732,90.816266 322.9609,87.143826 324.95473,83.873866 C 326.9134,80.660936 329.81717,77.886296 333.67026,75.556016 L 333.67935,75.55541 C 336.84318,73.65736 340.25979,72.22306 343.92615,71.26463 C 347.55737,70.3153 351.40864,69.83579 355.47815,69.83579 L 355.47811,69.8358 z " style="fill:#ff0000;fill-opacity:1" id="_46998616"/><path d="M 299.711,42.3397 L 284.9073,9.0774 L 256.3698,43.0866 L 263.50917,42.961114 L 266.49659,42.907161 L 265.67275,45.780611 L 247.85615,107.85141 L 269.17545,107.85141 L 269.9902,105.73997 L 271.2002,102.59918 L 273.59777,104.96159 C 274.81444,106.16189 276.51972,107.07303 278.70815,107.69864 C 281.05238,108.36851 283.92279,108.70192 287.31456,108.70192 C 291.03004,108.70192 294.50425,108.25999 297.74326,107.37128 C 300.95983,106.48863 303.94421,105.16648 306.70188,103.40119 L 306.70188,103.3921 C 312.82463,99.488088 315.88661,94.243128 315.88661,87.656598 C 315.88721,86.876402 315.84963,86.099238 315.77627,85.363898 L 315.77627,85.372385 C 315.40588,81.749045 313.68908,79.033215 310.62588,77.228515 C 307.27413,75.254075 302.31106,74.264735 295.73428,74.264735 C 292.19157,74.264129 287.89958,74.880041 282.85828,76.109445 L 279.29678,76.978148 L 280.19337,73.427558 L 287.50733,44.468758 L 287.91289,42.863508 L 289.55876,42.790762 L 299.71106,42.339739 L 299.711,42.3397 z M 305.06386,43.5103 L 306.3854,46.48074 L 303.14337,46.624412 L 291.39377,47.146361 L 285.36256,71.024461 C 289.2884,70.230928 292.74624,69.835681 295.73426,69.835681 C 303.09551,69.835681 308.80116,71.032951 312.85796,73.422041 C 317.21299,75.986321 319.64876,79.822441 320.17131,84.922541 L 320.17131,84.931028 C 320.2683,85.895513 320.3162,86.819988 320.3162,87.656558 C 320.3162,95.866498 316.57405,102.35846 309.0897,107.12936 L 309.0897,107.12026 C 305.93739,109.13895 302.5426,110.646 298.9023,111.64503 C 295.28442,112.63741 291.42345,113.13146 287.3145,113.13146 C 283.51961,113.13086 280.24545,112.74106 277.49688,111.9548 C 275.82616,111.47711 274.34336,110.85028 273.05091,110.07372 L 272.74659,110.8618 L 272.19978,112.28034 L 241.98128,112.28034 L 242.79058,109.46024 L 260.59138,47.442842 L 251.5873,47.602276 L 246.73578,47.688358 L 249.85656,43.969238 L 283.79116,3.5299381 L 286.06446,0.81895808 L 287.50179,4.0482581 L 305.06379,43.510258 L 305.06386,43.5103 z M 292.95476,91.326 L 292.95476,91.334487 C 291.42771,95.344587 289.65696,98.385347 287.64858,100.46406 C 285.40317,102.78949 282.8789,103.94615 280.08547,103.94615 C 278.24016,103.94615 276.66097,103.68426 275.30124,103.1611 L 275.05027,103.03986 C 274.84416,102.93013 274.49619,102.76221 274.15004,102.59429 C 273.83845,102.44274 273.52382,102.29118 273.09402,102.06204 L 271.40087,101.15878 L 272.05619,99.362569 L 273.03401,96.683709 L 273.02552,96.692802 C 274.12034,93.647792 275.20061,91.104122 276.26573,89.054522 C 277.39571,86.882462 278.52933,85.230532 279.6678,84.092062 L 279.65022,84.117523 C 280.72443,83.015423 282.00596,82.208563 283.50149,81.680543 C 284.92427,81.177992 286.51801,80.934295 288.29239,80.934295 L 296.89577,80.933689 L 295.76094,83.927779 L 292.95478,91.325999 L 292.95476,91.326 z M 288.81857,89.76076 L 288.81857,89.769247 L 290.49051,85.363287 L 288.29238,85.363287 C 287.006,85.363287 285.89966,85.523327 284.97215,85.850682 C 284.1186,86.151364 283.40085,86.598143 282.81706,87.197692 L 282.79948,87.223759 C 281.97867,88.043965 281.10996,89.333989 280.19337,91.096249 C 279.22222,92.965809 278.22197,95.325799 277.19504,98.180459 L 277.18655,98.188946 L 276.88345,99.018852 C 276.90648,99.029764 276.92831,99.042494 276.95074,99.054619 C 277.78913,99.361969 278.82273,99.516553 280.08547,99.516553 C 281.64041,99.515947 283.10077,98.813952 284.46536,97.401473 C 286.05,95.760453 287.50309,93.216173 288.81858,89.760763 L 288.81857,89.76076 z " style="fill:#ff0000;fill-opacity:1" id="_46999560"/><path d="M 239.83,82.1407 C 239.56145,79.52853 238.45329,77.5838 236.50977,76.3059 C 234.35408,74.88797 231.14418,74.17991 226.88856,74.17991 C 221.05861,74.179304 216.00766,74.458768 211.73806,75.025577 C 207.54064,75.583293 204.06461,76.419867 201.31176,77.544997 L 200.19148,78.002688 L 199.19244,77.285538 C 197.79269,76.280438 195.89707,75.520848 193.51344,75.000118 C 190.99947,74.450283 187.97568,74.179912 184.44995,74.179912 C 172.87495,74.179306 160.20025,74.495749 146.46465,75.128029 L 136.21965,107.85143 L 157.45595,107.85143 L 158.31435,105.58722 C 160.5143,99.742109 162.59906,95.014819 164.57289,91.406119 C 166.65159,87.605769 168.6527,84.985109 170.58228,83.544139 L 170.59077,83.544139 C 171.7941,82.654218 173.19506,81.979499 174.79243,81.533329 C 176.30736,81.10898 177.98232,80.891956 179.81491,80.891956 L 183.12847,80.891956 L 181.85663,83.953336 C 181.30861,85.273666 180.8491,86.456996 180.46719,87.512416 C 180.04708,88.671496 179.70396,89.720246 179.42572,90.660476 L 179.41723,90.704123 L 173.99284,107.85142 L 195.55704,107.85142 L 196.41544,105.58721 L 196.42392,105.55327 C 197.73819,102.24698 198.88575,99.401415 199.89085,96.977165 C 200.86019,94.640815 201.60765,92.914935 202.1399,91.807375 L 202.149,91.798282 C 203.10621,89.815362 204.04887,88.167672 204.98244,86.849162 C 205.99178,85.423952 207.03023,84.321862 208.10504,83.535602 L 208.09716,83.544089 C 209.29625,82.656593 210.66993,81.984909 212.22911,81.541769 C 213.73797,81.111964 215.41658,80.891909 217.27826,80.891909 L 220.54332,80.891909 L 219.32908,83.928429 C 218.78106,85.296049 218.30034,86.539999 217.89296,87.659669 C 217.49104,88.765399 217.15338,89.764439 216.88907,90.660419 L 216.88058,90.704066 L 199.57318,144.87827 L 199.07002,146.45261 L 197.42779,146.42715 L 187.71019,146.27014 L 202.41329,179.34214 L 229.29219,146.83764 L 223.46042,146.76671 L 220.46997,146.73094 L 221.38414,143.8775 L 238.86124,89.320103 L 238.86124,89.311616 C 239.31166,87.940366 239.61295,86.659436 239.76874,85.462766 C 239.9209,84.295806 239.93969,83.189466 239.82997,82.140716 L 239.83,82.1407 z M 244.22504,81.69089 C 244.36932,83.06518 244.34507,84.5116 244.14623,86.0338 C 243.95164,87.5263 243.59337,89.07335 243.06596,90.6786 L 243.06657,90.670113 L 226.50297,142.37341 L 233.97394,142.46495 L 238.60298,142.52194 L 235.65193,146.0895 L 203.54693,184.9138 L 201.27121,187.66419 L 199.81812,184.39488 L 182.25552,144.89098 L 180.85032,141.72897 L 184.31483,141.78413 L 195.85533,141.97084 L 212.65893,89.371545 L 212.65044,89.41398 C 212.93779,88.440402 213.30333,87.35467 213.74041,86.15437 C 213.79861,85.996148 213.8562,85.835502 213.91621,85.673643 C 213.75375,85.711228 213.59553,85.753663 213.43973,85.797917 C 212.38431,86.097992 211.48287,86.532041 210.72632,87.090967 L 210.71844,87.098847 C 210.04918,87.588667 209.34415,88.357947 208.59912,89.409727 C 207.77952,90.566987 206.95689,92.003107 206.1282,93.719297 L 206.13669,93.710204 C 205.60625,94.813514 204.88728,96.469084 203.97433,98.672664 C 203.09835,100.78713 201.94897,103.63997 200.54195,107.17965 L 200.55104,107.1451 L 199.14826,110.84482 L 198.60267,112.28033 L 167.94827,112.28033 L 168.85941,109.39961 L 175.19555,89.37151 L 175.18645,89.413945 C 175.48471,88.404605 175.85692,87.271585 176.31461,86.006425 C 176.35462,85.895488 176.39524,85.782732 176.43646,85.669977 C 176.27763,85.70635 176.12184,85.74636 175.96907,85.789401 C 174.90456,86.087052 173.98857,86.523525 173.22111,87.090941 L 173.2296,87.090335 C 171.80015,88.158485 170.20763,90.300835 168.4484,93.516795 C 166.5849,96.923715 164.58682,101.46667 162.44992,107.14509 L 161.04654,110.84481 L 160.50155,112.28032 L 130.19935,112.28032 L 131.09897,109.40869 L 142.70737,72.327895 L 143.17234,70.844495 L 144.71515,70.770537 C 159.04485,70.090366 172.30455,69.750277 184.44995,69.750277 C 188.28061,69.750277 191.61539,70.054596 194.44762,70.674146 C 196.90157,71.210645 198.99786,71.992056 200.73405,73.026256 C 203.61114,71.979936 207.08898,71.190036 211.16695,70.648086 C 215.699,70.046116 220.9391,69.750284 226.88845,69.750284 C 232.03399,69.750284 236.0556,70.701432 238.94905,72.603124 C 242.05165,74.641814 243.81209,77.671674 244.22492,81.690864 L 244.22504,81.69089 z " style="fill:#ff0000;fill-opacity:1" id="_46775592"/><path d="M 54.2015,82.1704 C 50.28961,79.70372 45.61207,78.47129 40.1689,78.47129 C 38.72308,78.470684 37.3197,78.684071 36.04423,79.024156 C 34.17285,79.534587 33.2799,80.299626 33.40781,81.405356 C 33.535115,82.425616 35.10884,83.659256 38.12779,85.147506 C 42.7629,87.485666 45.52662,88.932096 46.50505,89.527396 C 49.56643,91.567906 51.22503,93.652066 51.43781,95.905966 C 51.862765,99.732386 49.09904,102.83741 43.10299,105.21862 C 37.78771,107.344 31.32429,108.36487 23.75509,108.36487 C 18.52468,108.36426 13.76227,107.93991 9.59459,107.0894 C 4.23688,106.0261 1.51559,104.79306 1.34524,103.38968 C 1.3028051,103.1775 1.34524,102.96472 1.4301098,102.75194 L 4.1089698,94.50199 C 8.4464198,97.69188 12.91179,99.30744 17.41897,99.30744 C 19.63044,99.30744 20.65069,98.584834 20.48095,97.13902 C 20.268169,95.35251 19.03513,93.65208 16.7388,92.07896 C 15.50516,91.355142 13.37917,89.90993 10.31779,87.86881 C 7.7237998,86.08291 6.4477298,83.95692 6.4477298,81.49024 C 6.4477298,77.02487 10.02014,73.79376 17.20623,71.66777 C 22.18142,70.22195 28.00713,69.49874 34.59853,69.49874 C 41.65728,69.49874 47.86553,70.5196 53.18143,72.47585 L 54.20169,82.17041 L 54.2015,82.1704 z " style="fill:#000000" id="_46927288"/><path d="M 55.8056,84.748 L 53.49532,83.29188 C 49.80288,80.96342 45.36055,79.80009 40.16892,79.80009 C 39.511785,79.799484 38.88314,79.844344 38.28905,79.923757 C 37.63434,80.011052 36.99418,80.143206 36.3813,80.306277 L 36.391606,80.306277 C 35.655057,80.506934 35.141596,80.730626 34.859096,80.982811 C 34.760283,81.071318 34.715424,81.161644 34.726335,81.255001 L 34.726335,81.244089 C 34.743915,81.388974 35.005193,81.659951 35.508956,82.057627 C 36.233381,82.629892 37.302136,83.262777 38.714006,83.958707 L 38.724917,83.963557 C 41.150377,85.186897 43.004777,86.135617 44.300257,86.812757 C 45.698787,87.544456 46.660847,88.070047 47.195527,88.395577 L 47.242206,88.421038 C 48.882616,89.515248 50.164156,90.642808 51.083176,91.821898 C 52.065241,93.083428 52.625386,94.396488 52.755716,95.781078 L 52.755716,95.760467 C 53.012144,98.068927 52.318636,100.14642 50.669736,101.99173 C 49.145716,103.6964 46.788156,105.18405 43.590986,106.45406 L 43.595836,106.4486 C 40.849086,107.54706 37.808926,108.35999 34.481426,108.89709 C 31.169076,109.43116 27.591815,109.69365 23.755125,109.69365 C 18.450765,109.69365 13.599225,109.25839 9.3303255,108.38726 L 9.3406311,108.39211 C 6.5690211,107.84228 4.4539511,107.23667 2.9844911,106.5765 C 1.1961611,105.77267 0.2183411,104.78878 0.0389011,103.62909 C -0.0489998,103.16595 0.0201085,102.73857 0.1728741,102.32998 L 2.8480941,94.092764 L 3.4149031,92.345654 L 4.8928531,93.432594 C 6.9564031,94.949944 9.0460231,96.092054 11.150793,96.851634 C 13.227683,97.60152 15.320933,97.979194 17.419033,97.979194 C 18.635093,97.978588 19.216453,97.748833 19.162503,97.289324 L 19.162503,97.29478 C 19.083089,96.625521 18.801806,95.96051 18.316836,95.30398 C 17.784581,94.584405 17.012876,93.87453 15.995646,93.17738 C 14.956596,92.561468 13.392566,91.51696 11.250206,90.08448 C 10.728257,89.734695 10.171756,89.363693 9.5806961,88.96905 L 9.5649346,88.958138 C 8.1088146,87.955458 7.0133846,86.843058 6.2731946,85.620328 C 5.5020916,84.344248 5.1195746,82.968148 5.1195746,81.490198 C 5.1195746,78.867718 6.1574146,76.617458 8.2397546,74.720618 C 10.179635,72.952898 13.042785,71.517388 16.832825,70.395898 L 16.837674,70.395292 C 19.406804,69.64965 22.172954,69.091932 25.126424,68.723962 C 28.086564,68.354778 31.247354,68.169883 34.598504,68.169883 C 38.159404,68.169277 41.528124,68.429342 44.696804,68.936743 C 47.910944,69.451418 50.893514,70.220093 53.637844,71.230043 L 54.412584,71.514963 L 54.499273,72.340019 L 55.520133,82.035189 L 55.805659,84.747989 L 55.8056,84.748 z M 52.61692,79.77645 L 51.950692,73.44516 C 49.566452,72.622529 47.008842,71.98964 44.281492,71.55317 C 41.284372,71.073049 38.055082,70.827533 34.598452,70.827533 C 31.350972,70.827533 28.297472,71.00576 25.448272,71.360394 C 22.603922,71.714422 19.975982,72.241828 17.574772,72.938974 L 17.580228,72.938368 C 14.184218,73.943468 11.667228,75.187418 10.024998,76.682948 C 8.5252279,78.049958 7.7765579,79.647938 7.7765579,81.490218 C 7.7765579,82.478345 8.0323799,83.398578 8.5470549,84.249698 C 9.0920409,85.151137 9.9304349,85.993168 11.065265,86.775788 C 11.652685,87.166189 12.205555,87.537192 12.724475,87.883338 C 14.890475,89.330978 16.456925,90.379118 17.408075,90.936838 L 17.486276,90.983516 C 18.750226,91.849794 19.734716,92.766386 20.444596,93.726026 C 21.215699,94.768716 21.664906,95.856866 21.798876,96.983206 L 21.798876,96.988662 C 22.085009,99.419572 20.625246,100.63624 17.418986,100.63624 C 15.012926,100.63624 12.622026,100.20704 10.257786,99.353492 C 8.4270264,98.69272 6.6126264,97.776122 4.8200564,96.607342 L 2.6916464,103.16232 L 2.6637606,103.23567 C 2.6910402,103.44179 3.1560056,103.74974 4.0641106,104.15772 C 5.3377606,104.72999 7.2631006,105.27376 9.8492006,105.78661 L 9.8595062,105.79207 C 13.924766,106.62137 18.598676,107.03663 23.755106,107.03663 C 27.486956,107.03602 30.926606,106.78808 34.066806,106.28129 C 37.191836,105.77631 40.041646,105.01552 42.610166,103.98799 L 42.615016,103.98253 C 45.413296,102.87195 47.435626,101.61587 48.686846,100.21673 C 49.811376,98.957633 50.287856,97.569403 50.119326,96.051443 L 50.119326,96.029619 C 50.037487,95.161522 49.661635,94.305549 48.996616,93.451999 C 48.267342,92.514794 47.188886,91.580009 45.767926,90.633109 L 45.814604,90.65857 C 45.371462,90.389411 44.461534,89.894135 43.075124,89.1691 C 41.588084,88.391935 39.745804,87.44867 37.541614,86.33627 C 37.537977,86.333845 37.53434,86.332633 37.530703,86.330814 L 37.541614,86.335664 C 37.537977,86.333845 37.53434,86.332633 37.530703,86.330814 C 35.929693,85.540918 34.705143,84.814064 33.858263,84.144204 C 32.788293,83.299143 32.199053,82.442564 32.089333,81.565984 L 32.089333,81.555072 C 31.97294,80.544512 32.310601,79.698242 33.093833,78.999882 C 33.693378,78.465808 34.562683,78.051159 35.696303,77.741992 L 35.706608,77.741992 C 36.41224,77.55346 37.159698,77.4013 37.936258,77.297638 C 38.680081,77.197613 39.429358,77.142447 40.168938,77.142447 C 44.845268,77.142447 48.994798,78.02085 52.616938,79.776447 L 52.61692,79.77645 z " style="fill:#fce016" id="_47013696"/><path d="M 102.806,83.2337 C 101.48749,86.72003 99.87193,89.74018 97.91568,92.29113 C 95.23682,95.86354 92.47249,97.64945 89.66633,97.64945 C 87.58217,97.648844 86.56191,96.24607 86.56191,93.39687 C 86.56191,91.09993 87.284516,88.50655 88.73033,85.61552 C 90.9418,81.15015 94.08865,78.9393 98.25576,78.9393 L 104.50642,78.938694 L 102.80599,83.233714 L 102.806,83.2337 z M 91.197,69.626 C 83.37261,69.626 76.4836,71.41251 70.5306,75.02675 C 63.42942,79.32116 59.9,85.10505 59.9,92.41905 C 59.9,93.227132 59.942435,94.07765 60.027305,94.92756 C 60.495301,99.43475 62.536425,102.83743 66.235535,105.13316 C 69.382385,107.17428 73.379755,108.15271 78.184635,108.15271 C 86.986845,108.15271 94.003135,104.75064 99.233535,97.90471 L 96.172155,107.59927 L 121.30336,107.59927 L 132.86986,70.60447 C 122.87644,69.966734 108.97176,69.626648 91.196955,69.626042 L 91.197,69.626 z " style="fill:#0000ff" id="_47054432"/><path d="M 104.041,83.7211 L 104.04646,83.701095 C 103.36568,85.501545 102.60792,87.182575 101.76771,88.741755 C 100.92143,90.312455 99.990286,91.764335 98.969426,93.096185 L 98.974882,93.085879 C 97.541792,94.996059 96.069912,96.440059 94.565892,97.417269 C 92.963672,98.457529 91.328112,98.978269 89.666482,98.978269 C 88.172772,98.977663 87.039152,98.44662 86.258352,97.375439 C 85.572725,96.434596 85.233242,95.111229 85.233242,93.396859 C 85.233242,90.892589 86.003133,88.101589 87.542312,85.023839 L 87.542312,85.028083 C 88.748672,82.592323 90.229652,80.757313 91.996762,79.518213 L 91.996762,79.512757 C 93.808122,78.242137 95.890472,77.610457 98.255912,77.610457 L 106.46161,77.610457 L 105.74204,79.426667 L 104.04101,83.721077 L 104.041,83.7211 z M 101.56523,82.766921 L 101.57069,82.74631 L 102.55214,80.2675 L 98.255915,80.2675 C 96.454245,80.2675 94.879305,80.741559 93.522605,81.69271 L 93.522605,81.68786 C 92.122255,82.669925 90.923765,84.17333 89.919275,86.20172 L 89.919275,86.20657 C 88.567415,88.91149 87.890885,91.30846 87.890885,93.39686 C 87.890885,94.53169 88.061837,95.33432 88.407379,95.80777 C 88.657139,96.15028 89.076032,96.320626 89.666479,96.320626 C 90.814649,96.320626 91.967659,95.94538 93.122499,95.195496 C 94.367659,94.386808 95.614039,93.153766 96.856769,91.496986 L 96.862225,91.486074 C 97.797006,90.266374 98.652375,88.933314 99.431965,87.485674 C 100.21822,86.024704 100.92809,84.452184 101.56522,82.766914 L 101.56523,82.766921 z M 91.19713,70.954821 C 87.38708,70.954821 83.81891,71.386445 80.49443,72.253331 C 77.18875,73.11476 74.09767,74.417511 71.22119,76.163401 L 71.215734,76.162795 C 67.848824,78.199065 65.339714,80.571175 63.683534,83.280945 C 62.045544,85.962225 61.228974,89.007235 61.228974,92.419005 C 61.228974,93.209507 61.267772,94.016985 61.345973,94.797785 L 61.345973,94.792329 C 61.558148,96.841329 62.125563,98.633899 63.056703,100.16944 C 63.980572,101.69407 65.271203,102.97318 66.936463,104.00677 L 66.957681,104.02253 C 68.402291,104.95913 70.054821,105.65627 71.910441,106.12124 C 73.792131,106.59227 75.885991,106.82384 78.184751,106.82384 C 82.387021,106.82324 86.149781,106.01818 89.473051,104.40202 C 92.789641,102.78889 95.692191,100.35615 98.180091,97.099581 L 100.50067,98.304131 L 97.984281,106.27038 L 120.32928,106.27038 L 131.09688,71.830181 C 126.40418,71.556779 120.95128,71.346423 114.74428,71.200932 C 107.83951,71.039073 99.988481,70.955416 91.197181,70.954809 L 91.19713,70.954821 z M 91.19713,68.297791 C 100.03026,68.297791 107.90193,68.381448 114.80673,68.543307 C 121.88427,68.708803 127.93423,68.955532 132.95313,69.275612 L 134.64143,69.382912 L 134.13645,70.998472 L 122.56995,107.99387 L 122.27837,108.92865 L 94.359867,108.92865 L 94.906065,107.19973 L 96.203965,103.089 C 94.484745,104.58271 92.624275,105.81757 90.624985,106.78932 C 86.931935,108.58492 82.784835,109.48151 78.184885,109.48151 C 75.679405,109.48151 73.370945,109.22327 71.266785,108.69586 C 69.135335,108.16179 67.216065,107.34825 65.514425,106.24433 L 65.535036,106.25949 C 63.501196,104.99735 61.920796,103.42726 60.782936,101.55043 C 59.651746,99.684506 58.964296,97.521536 58.709086,95.062736 L 58.709086,95.05728 C 58.617548,94.138261 58.571476,93.2441 58.571476,92.41904 C 58.571476,88.51685 59.518987,85.01233 61.420676,81.90004 C 63.304786,78.81745 66.111556,76.1489 69.845826,73.89015 L 69.84037,73.89015 C 72.9169,72.0218 76.24744,70.62387 79.83016,69.68909 C 83.39409,68.759765 87.18352,68.29783 91.19726,68.29783 L 91.19713,68.297791 z " style="fill:#fce016" id="_47264552"/><path d="M 365.642,83.2337 C 364.3247,86.72003 362.70793,89.74018 360.79472,92.29113 C 358.07343,95.86354 355.3091,97.64945 352.50233,97.64945 C 350.41878,97.648844 349.39791,96.24607 349.39791,93.39687 C 349.39791,91.09993 350.12112,88.50655 351.56694,85.61552 C 353.77841,81.15015 356.96709,78.9393 361.09237,78.9393 L 367.34303,78.938694 L 365.642,83.233714 L 365.642,83.2337 z M 354.033,69.626 C 346.20982,69.626 339.3202,71.41251 333.3672,75.02675 C 326.26602,79.32116 322.736,85.10505 322.736,92.41905 C 322.73661,93.227132 322.77843,94.07765 322.86391,94.92756 C 323.3313,99.43475 325.41485,102.83743 329.07214,105.13316 C 332.2196,107.17428 336.21575,108.15271 341.02124,108.15271 C 349.82406,108.15271 356.83974,104.75064 362.07014,97.90471 L 359.00876,107.59927 L 384.18296,107.59927 L 395.70646,70.60447 C 385.71364,69.966734 371.80776,69.626648 354.03296,69.626042 L 354.033,69.626 z " style="fill:#0000ff" id="_47746752"/><path d="M 366.877,83.7211 L 366.88246,83.701095 C 365.52091,87.302005 363.84412,90.430665 361.85271,93.085875 L 361.84846,93.095574 C 358.86044,97.017164 355.7445,98.978264 352.50187,98.978264 C 351.00937,98.977658 349.87515,98.446615 349.09435,97.375434 C 348.40873,96.434591 348.06924,95.111224 348.06924,93.396854 C 348.06985,90.892584 348.83853,88.101584 350.3777,85.023834 L 350.37831,85.028078 C 351.58528,82.591098 353.07414,80.756098 354.83883,79.519418 C 356.65747,78.244548 358.74405,77.610458 361.09192,77.610458 L 369.29701,77.610458 L 368.57804,79.426668 L 366.87701,83.721078 L 366.877,83.7211 z M 364.40183,82.766921 L 364.40607,82.74631 L 365.38814,80.2675 L 361.09251,80.2675 C 359.30661,80.2675 357.72863,80.743983 356.36465,81.69998 C 354.95945,82.685076 353.7543,84.18424 352.75526,86.20172 L 352.75586,86.20657 C 351.40279,88.91149 350.72626,91.308459 350.72626,93.39686 C 350.72626,94.531689 350.89782,95.33432 351.24276,95.80777 C 351.49252,96.15028 351.91202,96.320626 352.50186,96.320626 C 354.87215,96.320626 357.28488,94.709316 359.74004,91.486686 L 359.73519,91.496385 C 361.5702,89.049105 363.12635,86.139285 364.40182,82.766915 L 364.40183,82.766921 z M 354.03253,70.954821 C 350.22309,70.954821 346.65492,71.386445 343.32983,72.253331 C 340.02476,73.11476 336.93368,74.417511 334.05659,76.163401 L 334.05235,76.162795 C 330.68484,78.199065 328.17572,80.571175 326.51955,83.280945 C 324.88217,85.962225 324.06439,89.007235 324.06439,92.419005 C 324.06439,93.209507 324.10379,94.016985 324.18139,94.797785 L 324.18199,94.792329 C 324.39417,96.843149 324.96825,98.632689 325.89818,100.16156 C 326.82811,101.68922 328.12238,102.97318 329.77734,104.01223 L 329.7931,104.02253 C 331.23771,104.95913 332.89085,105.65627 334.74586,106.12124 C 336.62815,106.59227 338.72141,106.82385 341.02077,106.82385 C 345.22304,106.82324 348.9858,106.01819 352.30847,104.40203 C 355.62627,102.7889 358.52822,100.35616 361.01611,97.099585 L 363.33609,98.304135 L 360.82031,106.27039 L 383.20591,106.27039 L 393.93471,71.830185 C 389.24201,71.556783 383.78791,71.346427 377.58031,71.200936 C 370.67554,71.039077 362.82451,70.95542 354.03261,70.954813 L 354.03253,70.954821 z M 354.03253,68.297791 C 362.86566,68.297791 370.73793,68.381448 377.64273,68.543307 C 384.72027,68.708803 390.77023,68.955532 395.78853,69.275612 L 397.47562,69.382912 L 396.97186,70.998472 L 385.44836,107.99387 L 385.15798,108.92865 L 357.19578,108.92865 L 357.74137,107.19973 L 359.03988,103.08779 C 357.32066,104.58211 355.46019,105.81696 353.4609,106.78933 C 349.76846,108.58493 345.62075,109.48152 341.0208,109.48152 C 338.51532,109.48152 336.20686,109.22328 334.1027,108.69587 C 331.97186,108.1618 330.05198,107.34826 328.35034,106.24434 L 328.3661,106.25465 C 326.35893,104.99433 324.77914,103.42303 323.63521,101.54195 C 322.49856,99.672387 321.79899,97.513057 321.54499,95.062737 L 321.54499,95.057281 C 321.45285,94.138262 321.40678,93.244101 321.40678,92.419041 C 321.40678,88.516851 322.35489,85.012331 324.25659,81.900041 C 326.1407,78.817451 328.94686,76.148901 332.68113,73.890151 L 332.67688,73.890151 C 335.75341,72.021801 339.08273,70.623871 342.66606,69.689091 C 346.22999,68.759766 350.01882,68.297831 354.03256,68.297831 L 354.03253,68.297791 z " style="fill:#fce016" id="_48090368"/><path d="M 301.602,41.9439 L 284.083,2.4819 L 250.149,42.9642 L 262.0975,42.751419 L 243.4728,107.59922 L 269.2423,107.59922 L 270.60325,104.11228 C 273.57915,107.04635 278.68165,108.49278 285.91075,108.49278 C 293.69271,108.49278 300.53865,106.62201 306.44925,102.83742 C 313.25399,98.457529 316.69725,92.588819 316.69725,85.232419 C 316.69725,84.423731 316.65482,83.574429 316.56995,82.723909 C 315.63456,74.005959 308.23513,69.626709 294.33045,69.626709 C 290.5883,69.626103 286.12354,70.264445 280.89315,71.497479 L 288.20711,42.538679 L 301.60201,41.943984 L 301.602,41.9439 z M 289.4402,88.1234 C 286.591,95.56527 283.01919,99.3074 278.6393,99.3074 C 277.06678,99.3074 275.74766,99.095225 274.64193,98.627229 C 274.0048,98.329578 273.36646,97.989493 272.68629,97.691842 L 273.66411,95.012982 C 275.79071,89.101192 277.83122,85.147472 279.78747,83.191182 C 281.44607,81.533192 283.78484,80.682672 286.88865,80.682672 L 292.24757,80.682672 L 289.4402,88.123332 L 289.4402,88.1234 z " style="fill:#000000" id="_47611488"/><path d="M 299.598,40.7011 L 283.7322,4.9642 L 253.0366,41.5837 L 262.07706,41.423054 L 263.86903,41.390318 L 263.37497,43.114998 L 245.23527,106.2703 L 268.33627,106.2703 L 269.36744,103.63024 L 270.09792,101.75522 L 271.53161,103.1683 C 272.8574,104.47469 274.68816,105.45918 277.02511,106.12601 C 279.45542,106.81891 282.41677,107.16385 285.91038,107.16385 C 289.68284,107.16385 293.22434,106.71161 296.53368,105.80169 C 299.82905,104.89601 302.89589,103.53748 305.73296,101.72127 C 308.96226,99.641958 311.38287,97.226198 312.98569,94.471568 C 314.57154,91.749068 315.36871,88.669498 315.36871,85.232278 C 315.36871,84.441776 315.32931,83.634298 315.25111,82.853498 L 315.25171,82.863198 C 314.8304,78.942208 312.96022,76.000868 309.63636,74.043408 C 306.14275,71.986528 301.04268,70.955358 294.33006,70.955358 C 292.50657,70.954752 290.51516,71.109336 288.35098,71.412443 C 286.16619,71.718581 283.78074,72.179909 281.19342,72.789763 L 279.07167,73.289889 L 279.60575,71.174809 L 286.9191,42.216609 L 287.1634,41.253943 L 288.14971,41.209689 L 299.59801,40.701076 L 299.598,40.7011 z M 302.81578,41.409157 L 303.60446,43.185967 L 301.65912,43.272655 L 289.25112,43.823096 L 282.70826,69.728396 C 284.56145,69.333751 286.32068,69.019733 287.98777,68.786341 C 290.29926,68.462017 292.41191,68.297733 294.32997,68.297733 C 301.51238,68.297733 307.05927,69.453173 310.97537,71.759813 C 315.06973,74.170113 317.37274,77.781323 317.88802,82.583113 L 317.88863,82.594025 C 317.98017,83.513044 318.02563,84.407815 318.02563,85.232265 C 318.02624,89.139915 317.10661,92.662615 315.28009,95.800965 C 313.46024,98.927205 310.75168,101.64426 307.16532,103.95272 C 304.09243,105.92109 300.77947,107.39055 297.22888,108.36595 C 293.69223,109.33831 289.91916,109.82147 285.91028,109.82147 C 282.17601,109.82086 278.97096,109.44258 276.29817,108.67997 C 274.29706,108.1077 272.58633,107.31842 271.16839,106.30907 L 270.47731,108.08224 L 270.14692,108.92851 L 241.70942,108.92851 L 242.19561,107.23657 L 260.32501,44.112168 L 250.16911,44.292213 L 247.25989,44.344954 L 249.13127,42.112874 L 283.06407,1.6305738 L 284.43169,-0.0001362 L 285.29615,1.9470238 L 302.81575,41.409024 L 302.81578,41.409157 z M 290.67998,88.591357 L 290.67998,88.596207 C 289.19233,92.482037 287.49191,95.427627 285.56839,97.425097 C 283.50908,99.563207 281.20305,100.63621 278.63877,100.63621 C 277.79068,100.63621 276.99472,100.57619 276.24665,100.45071 C 275.48646,100.3234 274.78204,100.12396 274.12794,99.846918 L 274.08187,99.8257 C 273.73511,99.664447 273.51081,99.554117 273.2853,99.442573 C 272.90824,99.255859 272.5239,99.067327 272.15593,98.906074 L 271.01443,98.406554 L 271.44,97.240204 L 272.41782,94.560744 L 272.41236,94.565594 C 273.49203,91.566054 274.55775,89.046634 275.61074,87.012184 C 276.69829,84.911054 277.77735,83.322164 278.84731,82.251594 C 279.81483,81.284684 280.97936,80.553594 282.35425,80.063774 C 283.67943,79.592746 285.18708,79.353898 286.88812,79.353898 L 294.1645,79.353898 L 293.48736,81.149498 L 290.67999,88.591368 L 290.67998,88.591357 z M 288.19936,87.651121 L 288.19936,87.656577 L 290.32899,82.010917 L 286.88812,82.010917 C 285.48595,82.010917 284.2711,82.197631 283.2369,82.565602 C 282.25241,82.916599 281.41765,83.439761 280.72657,84.130842 C 279.8415,85.015913 278.92127,86.383532 277.96709,88.226422 C 276.97896,90.135382 275.96113,92.548722 274.9142,95.459152 L 274.90935,95.464608 L 274.34557,97.009238 C 274.38376,97.027424 274.42074,97.046823 274.45772,97.065616 C 274.73415,97.201408 275.00756,97.336593 275.17669,97.416007 C 275.17669,97.4154 275.1773,97.416613 275.1779,97.416613 C 275.62347,97.602114 276.1242,97.740937 276.68252,97.8349 C 277.26327,97.9325 277.91434,97.979179 278.63877,97.979179 C 280.45498,97.978573 282.1245,97.18019 283.65821,95.587669 C 285.32833,93.854509 286.8384,91.206569 288.19935,87.651129 L 288.19936,87.651121 z " style="fill:#fce016" id="_46763856"/><path d="M 240.624,79.4915 C 239.90139,72.85771 234.84073,69.49868 225.4432,69.49868 C 213.6639,69.49868 204.8617,70.68928 199.0784,73.07109 C 195.71998,70.68928 190.36166,69.49868 183.0047,69.49868 C 170.9289,69.49868 157.7462,69.838766 143.3735,70.51954 L 131.7645,107.59914 L 157.5334,107.59914 L 158.93678,103.94246 C 163.27423,92.41836 167.10126,85.40266 170.50328,82.89356 C 172.41649,81.4047 175.05291,80.6827 178.3695,80.6827 C 177.26437,83.44643 176.41386,85.74276 175.86099,87.5711 L 169.52485,107.5992 L 195.63505,107.5992 L 197.08087,103.94252 C 199.75912,97.09656 201.62989,92.54632 202.69319,90.33542 C 204.4797,86.6351 206.265,84.16963 207.96603,82.89355 C 209.92228,81.40469 212.51566,80.68269 215.83286,80.68269 C 214.72773,83.44642 213.87661,85.74275 213.32374,87.57109 L 196.05944,141.74589 L 182.83494,141.57554 L 200.39754,181.03634 L 232.50254,142.25624 L 222.08354,142.12833 L 239.56064,87.570333 C 240.49663,84.594433 240.83672,81.873143 240.62394,79.491333 L 240.624,79.4915 z " style="fill:#000000" id="_46760488"/><path d="M 239.295,79.6061 L 239.3047,79.631561 C 238.98947,76.730221 237.73521,74.554531 235.54497,73.112951 C 233.2359,71.592571 229.86839,70.827531 225.44247,70.827531 C 213.83107,70.827531 205.19617,71.983581 199.58147,74.295681 L 198.90675,74.57272 L 198.31024,74.150796 C 195.18521,71.935086 190.08272,70.827536 183.00394,70.827536 C 171.22824,70.827536 158.37294,71.153679 144.36024,71.804751 L 133.56964,106.27035 L 156.62094,106.27035 L 157.69576,103.47025 L 157.69576,103.47571 C 159.88722,97.651207 161.95441,92.959107 163.90763,89.399407 C 165.9245,85.720907 167.85771,83.196637 169.71879,81.824167 L 169.68727,81.845384 C 170.77724,80.997292 172.06969,80.368644 173.55673,79.952784 C 174.99345,79.550865 176.59992,79.353845 178.36885,79.353845 L 180.32813,79.353845 L 179.59946,81.174905 C 179.04962,82.549795 178.56526,83.802235 178.15304,84.929185 C 177.75415,86.019765 177.41225,87.027285 177.13218,87.955405 L 177.12733,87.969954 L 171.33739,106.27035 L 194.73059,106.27035 L 195.84481,103.4551 L 195.84481,103.45995 C 197.1615,100.09486 198.30179,97.240204 199.26688,94.897194 C 200.22833,92.564484 200.97094,90.851324 201.4935,89.764384 L 201.49896,89.758928 C 202.41312,87.865118 203.33397,86.274418 204.24995,84.980758 C 205.22049,83.611318 206.19893,82.563788 207.17129,81.834508 L 207.16159,81.839964 C 208.2752,80.992478 209.56098,80.365044 211.03044,79.952824 C 212.46171,79.550905 214.05847,79.353885 215.83225,79.353885 L 217.79153,79.353885 L 217.06225,81.174945 C 216.51242,82.549835 216.02805,83.802275 215.61643,84.929225 C 215.21754,86.019805 214.87564,87.027325 214.59496,87.955445 L 214.58951,87.969994 L 197.32581,142.14479 L 197.02573,143.08624 L 196.04306,143.07412 L 184.88696,142.93045 L 200.73636,178.54485 L 229.70666,143.54995 L 222.06777,143.45659 L 220.27399,143.43537 L 220.82201,141.72342 L 238.29911,87.166023 L 238.29426,87.176328 C 238.73801,85.764458 239.03929,84.425938 239.20479,83.171078 C 239.36786,81.931978 239.39575,80.740768 239.29512,79.605938 L 239.295,79.6061 z M 241.94173,79.351491 L 241.95204,79.377558 C 242.0654,80.643328 242.0266,82.026708 241.83079,83.513748 C 241.64408,84.937138 241.31006,86.425998 240.82629,87.965778 L 240.82205,87.976084 L 223.89295,140.82148 L 232.51754,140.92696 L 235.29581,140.96152 L 233.52385,143.10206 L 201.41945,181.88276 L 200.05547,183.52984 L 199.18677,181.57662 L 181.62477,142.11582 L 180.78092,140.21959 L 182.84932,140.24626 L 195.09302,140.40448 L 212.05672,87.171084 L 212.05187,87.186846 C 212.32406,86.287226 212.68415,85.231206 213.12487,84.026056 C 213.34735,83.417418 213.5868,82.780286 213.84505,82.112246 C 213.09274,82.193478 212.39317,82.325633 211.74634,82.506891 C 210.6012,82.828184 209.61186,83.307092 208.76983,83.947251 L 208.75952,83.9521 C 208.01146,84.51406 207.22459,85.36761 206.40923,86.51759 C 205.58115,87.68637 204.73669,89.14916 203.88617,90.91142 L 203.89163,90.905965 C 203.35149,92.029275 202.62646,93.697575 201.71714,95.904195 C 200.81146,98.100505 199.67663,100.94485 198.31447,104.42573 L 198.31507,104.42998 L 196.86925,108.08787 L 196.53705,108.92869 L 167.71105,108.92869 L 168.25785,107.19977 L 174.59399,87.171066 L 174.58854,87.186828 C 174.86073,86.287208 175.22142,85.231188 175.66154,84.026038 C 175.88402,83.4174 176.12469,82.779668 176.38233,82.111618 C 175.62153,82.192244 174.91469,82.325005 174.2624,82.506869 C 173.12454,82.824525 172.14065,83.302221 171.31742,83.942379 L 171.2865,83.962384 C 169.74551,85.098424 168.06387,87.337174 166.23311,90.676194 C 164.33748,94.132214 162.32182,98.710334 160.17644,104.40999 L 160.17644,104.41424 L 158.77306,108.07213 L 158.44449,108.92871 L 129.95789,108.92871 L 130.49742,107.20464 L 142.10582,70.125036 L 142.38529,69.233903 L 143.31037,69.190862 C 157.68307,68.510691 170.88637,68.170002 183.00397,68.170002 C 190.21972,68.169396 195.63017,69.307862 199.23597,71.583592 C 205.18292,69.307262 213.93057,68.170002 225.44257,68.170002 C 230.40321,68.169396 234.25933,69.08114 237.00907,70.891292 C 239.8904,72.786922 241.53445,75.611872 241.94183,79.351602 L 241.94173,79.351491 z " style="fill:#fce016" id="_47773920"/></g></svg>