<?xml version="1.0" encoding="UTF-8"?>
<svg height="128px" viewBox="0 0 128 128" width="128px" xmlns="http://www.w3.org/2000/svg" xmlns:xlink="http://www.w3.org/1999/xlink">
    <linearGradient id="a" gradientUnits="userSpaceOnUse">
        <stop offset="0" stop-color="#deddda"/>
        <stop offset="0.85714" stop-color="#deddda"/>
        <stop offset="0.92857" stop-color="#f6f5f4"/>
        <stop offset="1" stop-color="#deddda"/>
    </linearGradient>
    <linearGradient id="b" x1="64" x2="120" xlink:href="#a" y1="80" y2="80"/>
    <linearGradient id="c" gradientTransform="matrix(-1 0 0 1 128 -166)" x1="64" x2="120" xlink:href="#a" y1="246" y2="246"/>
    <linearGradient id="d" gradientTransform="matrix(-0.25 0 0 0.25 168 31)" gradientUnits="userSpaceOnUse" x1="320" x2="416" y1="116" y2="116">
        <stop offset="0" stop-color="#ffffff"/>
        <stop offset="0.5" stop-color="#ffffff"/>
        <stop offset="1" stop-color="#f6f5f4"/>
    </linearGradient>
    <linearGradient id="e" gradientUnits="userSpaceOnUse" x1="40" x2="64" y1="60" y2="60">
        <stop offset="0" stop-color="#ffffff"/>
        <stop offset="0.5" stop-color="#ffffff"/>
        <stop offset="1" stop-color="#deddda"/>
    </linearGradient>
    <clipPath id="f">
        <path d="m 78 68 h 14 v 7.2812 h -14 z"/>
    </clipPath>
    <clipPath id="g">
        <path d="m 78 76 h 14 v 7.2812 h -14 z"/>
    </clipPath>
    <path d="m 120 97.5 v 5.3711 c 0 3.582 -3.5664 6.4648 -8 6.4648 h -22 c -9.6836 0 -15.023 4.6367 -18.816 11.312 h -14.368 c -3.793 -6.6758 -9.1324 -11.312 -18.816 -11.312 h -22 c -4.4336 0 -8 -2.8828 -8 -6.4648 v -5.3711 z" fill="#ff7800"/>
    <path d="m 66.328 63.5 c -0.16016 0.79688 -0.27344 1.6016 -0.32812 2.4102 h -2 v 50.906 h 5.184 c 3.793 -6.6758 11.132 -11.312 20.816 -11.312 h 22 c 4.4336 0 8 -2.8828 8 -6.4648 v -28.805 c 0 -3.582 -3.5664 -6.4648 -8 -6.4648 z" fill="url(#b)"/>
    <path d="m 61.676 63.5 c 0.15625 0.79688 0.26953 1.6016 0.32422 2.4102 h 2 v 50.906 h -5.184 c -3.793 -6.6758 -11.132 -11.312 -20.816 -11.312 h -22 c -4.4336 0 -8 -2.8828 -8 -6.4648 v -28.805 c 0 -3.582 3.5664 -6.4648 8 -6.4648 z" fill="url(#c)"/>
    <path d="m 112 30 c 4.4336 0 8 2.8828 8 6.4648 v 47.676 c 0 3.582 -3.5664 6.4648 -8 6.4648 h -24 c -13.254 0 -24 8.6836 -24 19.395 v -58.988 c 0 -10.711 10.746 -21.012 24 -21.012 z" fill="url(#d)"/>
    <path d="m 16 30 c -4.4336 0 -8 2.8828 -8 6.4648 v 47.676 c 0 3.582 3.5664 6.4648 8 6.4648 h 24 c 13.254 0 24 8.6836 24 19.395 v -58.988 c 0 -10.711 -10.746 -21.012 -24 -21.012 z" fill="url(#e)"/>
    <g fill="#deddda" transform="matrix(1 0 0 1 0 -2)">
        <path d="m 108 52 v 4 h -18 c -4.375 0.18359 -8.4648 1.2969 -12 3.2812 v -3.5508 c 3.5312 -2.3359 7.625 -3.7305 12 -3.7305 z"/>
        <path d="m 108 44 v 4 h -18 c -4.375 0.18359 -8.4648 1.2969 -12 3.2812 v -3.5508 c 3.5312 -2.3359 7.625 -3.7305 12 -3.7305 z"/>
        <path d="m 108 60 v 4 h -18 c -4.375 0.18359 -8.4648 1.2969 -12 3.2812 v -3.5508 c 3.5312 -2.3359 7.625 -3.7305 12 -3.7305 z"/>
        <g clip-path="url(#f)">
            <path d="m 108 68 v 4 h -18 c -4.375 0.18359 -8.4648 1.2969 -12 3.2812 v -3.5508 c 3.5312 -2.3359 7.625 -3.7305 12 -3.7305 z" fill="#deddda"/>
        </g>
        <g clip-path="url(#g)">
            <path d="m 108 76 v 4 h -18 c -4.375 0.18359 -8.4648 1.2969 -12 3.2812 v -3.5508 c 3.5312 -2.3359 7.625 -3.7305 12 -3.7305 z" fill="#deddda"/>
        </g>
        <path d="m 20 52 v 4 h 20 c 3.5742 0.14844 6.9531 0.92969 10 2.293 v -3.7344 c -3.0469 -1.6172 -6.4258 -2.5586 -10 -2.5586 z"/>
        <path d="m 20 60 v 4 h 20 c 3.5742 0.14844 6.9531 0.92969 10 2.293 v -3.7344 c -3.0469 -1.6172 -6.4258 -2.5586 -10 -2.5586 z"/>
        <path d="m 20 68 v 4 h 20 c 3.5742 0.14844 6.9531 0.92969 10 2.293 v -3.7344 c -3.0469 -1.6172 -6.4258 -2.5586 -10 -2.5586 z"/>
    </g>
    <path d="m 20 42 v 4 h 20 c 3.5742 0.14844 6.9531 0.92969 10 2.293 v -3.7344 c -3.0469 -1.6172 -6.4258 -2.5586 -10 -2.5586 z" fill="#faa89f"/>
    <path d="m 20 74 v 4 h 20 c 3.5742 0.14844 6.9531 0.92969 10 2.293 v -3.7344 c -3.0469 -1.6172 -6.4258 -2.5586 -10 -2.5586 z" fill="#deddda"/>
    <path d="m 99 41 c 0 19.328 -15.672 35 -35 35 c -19.332 0 -35 -15.672 -35 -35 s 15.668 -35 35 -35 c 19.328 0 35 15.672 35 35 z" fill="#62a0ea"/>
    <g fill="#8ff0a4">
        <path d="m 59.59 15.969 h -20.047 c -6.5039 6.3555 -10.543 15.219 -10.543 25.031 c 0 8.9258 3.3438 17.07 8.8398 23.25 h 17.266 c 2.668 0 4.8281 -2.1602 4.8281 -4.8281 s -2.1602 -4.8281 -4.8281 -4.8281 h -11.289 c -2.668 0 -4.8281 -2.1602 -4.8281 -4.8281 s 2.1602 -4.8281 4.8281 -4.8281 h 11.289 c 2.668 0 4.8281 -2.1641 4.8281 -4.8281 c 0 -2.668 -2.1602 -4.8281 -4.8281 -4.8281 h -9.0469 c -2.668 0 -4.8281 -2.1641 -4.8281 -4.8281 c 0 -2.668 2.1602 -4.8281 4.8281 -4.8281 h 13.531 c 2.668 0 4.8281 -2.1641 4.8281 -4.8281 c 0 -2.668 -2.1602 -4.8281 -4.8281 -4.8281 z"/>
        <path d="m 99 41 c 0 -6.4297 -1.7383 -12.457 -4.7617 -17.637 h -19.945 c -2.668 0 -4.8281 2.1641 -4.8281 4.832 c 0 2.6641 2.1602 4.8281 4.8281 4.8281 h 11.293 c 2.6641 0 4.8281 2.1602 4.8281 4.8281 c 0 2.6641 -2.1641 4.8281 -4.8281 4.8281 h -11.293 c -2.668 0 -4.8281 2.1602 -4.8281 4.8281 c 0 2.6641 2.1602 4.8281 4.8281 4.8281 h 22.828 c 1.2188 -3.5547 1.8789 -7.3672 1.8789 -11.336 z"/>
        <path d="m 76.16 59.863 h -5.0039 c -2.0195 0 -3.6602 1.6406 -3.6602 3.6641 c 0 2.0195 1.6406 3.6602 3.6602 3.6602 h 5.0039 c 2.0195 0 3.6602 -1.6406 3.6602 -3.6602 c 0 -2.0234 -1.6406 -3.6641 -3.6602 -3.6641 z"/>
    </g>
    <path d="m 96 66 h 12 v 12 h -12 z" fill="#deddda"/>
</svg>
