<?xml version="1.0" encoding="utf-8"?>
<svg width="512px" height="512px" viewBox="0 0 512 512" xmlns="http://www.w3.org/2000/svg">
  <path d="M 66 366 L 66 146 L 167.5 204.5 L 167.5 307 L 66 366 Z" style="fill: rgb(222, 101, 71);"/>
  <path d="M 256.5 476.5 L 256.5 361 L 167 307 L 66 366 L 256.5 476.5 Z" style="fill: rgb(253, 188, 77);"/>
  <path d="M 446 366 L 446 146 L 344.5 204.5 L 344.5 307 L 446 366 Z" style="fill: rgb(105, 179, 86);"/>
  <path d="M 256.5 476.5 L 256.5 361 L 345 307 L 446 366 L 256.5 476.5 Z" style="fill: rgb(209, 233, 147);"/>
  <path d="M 256.5 35.5 L 256.5 151 L 167.5 205 L 66 146 L 256.5 35.5 Z" style="fill: rgb(128, 183, 250);"/>
  <path d="M 256.5 35.5 L 256.5 151 L 344.5 205 L 446 146 L 256.5 35.5 Z" style="fill: rgb(69, 129, 225);"/>
  <path d="M 352 297.5 C 358 303.5 363.5 315.5 363.5 325 C 363.5 334 358 346 352 352 C 346 358 334 363.5 325 363.5 C 315.5 363.5 303.5 358 297.5 352 C 296.5 351 295 349.5 294 347.5 C 294.5 349.5 294.5 351.5 294.5 353.5 C 294.5 362.5 289.5 374.5 283 380.5 C 277 386.5 265.5 392 256 392 C 246.5 392 235 386.5 229 380.5 C 222.5 374.5 217.5 362.5 217.5 353.5 C 217.5 351.5 217.5 349.5 218 348 C 216.5 349.5 215.5 351 214.5 352 C 208.5 358 196.5 363.5 187 363.5 C 177.5 363.5 166 358 160 352 C 154 346 148.5 334 148.5 325 C 148.5 315.5 154 303.5 160 297.5 C 161 296.5 162.5 295 164.5 294 C 162.5 294.5 160.5 294.5 158.5 294.5 C 149.5 294.5 137.5 289.5 131.5 283 C 125.5 277 120 265.5 120 256 C 120 246.5 125.5 235 131.5 229 C 137.5 222.5 149.5 217.5 158.5 217.5 C 160.5 217.5 162.5 217.5 164 218 C 162.5 216.5 161 215.5 160 214.5 C 154 208.5 148.5 196.5 148.5 187 C 148.5 178 154 166 160 160 C 166 154 178 148.5 187 148.5 C 196.5 148.5 208.5 154 214.5 160 C 215.5 161 217 162.5 218 164.5 C 217.5 162.5 217.5 160.5 217.5 158.5 C 217.5 149.5 222.5 137.5 229 131.5 C 235 125.5 246.5 120 256 120 C 265.5 120 277 125.5 283 131.5 C 289.5 137.5 294.5 149.5 294.5 158.5 C 294.5 160.5 294.5 162.5 294 164 C 295.5 162.5 296.5 161 297.5 160 C 303.5 154 315.5 148.5 325 148.5 C 334 148.5 346 154 352 160 C 358 166 363.5 178 363.5 187 C 363.5 196.5 358 208.5 352 214.5 C 351 215.5 349.5 217 347.5 218 C 349.5 217.5 351.5 217.5 353.5 217.5 C 362.5 217.5 374.5 222.5 380.5 229 C 386.5 235 392 246.5 392 256 C 392 265.5 386.5 277 380.5 283 C 374.5 289.5 362.5 294.5 353.5 294.5 C 351.5 294.5 349.5 294.5 348 294 C 349.5 295.5 351 296.5 352 297.5 Z" style="fill: rgb(47, 47, 47);"/>
  <path d="M 292.5 271 L 337.5 271 C 341.5 275.5 347 278 353.5 278 C 365.5 278 375 268 375 256 C 375 244 365.5 234 353.5 234 C 347 234 341.5 237 337.5 241 L 292.5 241 L 324.5 209 C 324.5 209 324.5 209 325 209 C 337 209 346.5 199 346.5 187 C 346.5 175 337 165.5 325 165.5 C 313 165.5 303 175 303 187 C 303 187.5 303 187.5 303 187.5 L 271 219.5 L 271 174.5 C 275.5 170.5 278 165 278 158.5 C 278 146.5 268 137 256 137 C 244 137 234 146.5 234 158.5 C 234 165 237 170.5 241 174.5 L 241 219.5 L 209 187.5 C 209 187.5 209 187.5 209 187 C 209 175 199.5 165.5 187 165.5 C 175 165.5 165.5 175 165.5 187 C 165.5 199 175 209 187 209 C 187.5 209 187.5 209 187.5 209 L 219.5 241 L 174.5 241 C 170.5 237 165 234 158.5 234 C 146.5 234 137 244 137 256 C 137 268 146.5 278 158.5 278 C 165 278 170.5 275.5 174.5 271 L 219.5 271 L 187.5 303 C 187.5 303 187.5 303 187 303 C 175 303 165.5 312.5 165.5 325 C 165.5 337 175 346.5 187 346.5 C 199 346.5 209 337 209 325 C 209 324.5 209 324.5 209 324.5 L 241 292.5 L 241 337.5 C 236.5 341.5 234 347 234 353.5 C 234 365.5 244 375 256 375 C 268 375 278 365.5 278 353.5 C 278 347 275 341.5 271 337.5 L 271 292.5 L 303 324.5 C 303 324.5 303 324.5 303 325 C 303 337 312.5 346.5 325 346.5 C 337 346.5 346.5 337 346.5 325 C 346.5 312.5 337 303 325 303 C 324.5 303 324.5 303 324.5 303 L 292.5 271 Z" style="fill: rgb(255, 255, 255);"/>
</svg>