<?xml version="1.0" encoding="UTF-8"?>
<svg height="128px" viewBox="0 0 128 128" width="128px" xmlns="http://www.w3.org/2000/svg" xmlns:xlink="http://www.w3.org/1999/xlink">
    <linearGradient id="a" gradientUnits="userSpaceOnUse">
        <stop offset="0" stop-color="#dc8add"/>
        <stop offset="1" stop-color="#62a0ea"/>
    </linearGradient>
    <linearGradient id="b" gradientTransform="matrix(0.380952 0 0 0.64 209.698227 -82.849869)" x1="-424.457947" x2="-340.457947" xlink:href="#a" y1="195.077911" y2="263.827911"/>
    <clipPath id="c">
        <path d="m 24 42 h 16 v 44 h -16 z m 0 0"/>
    </clipPath>
    <clipPath id="d">
        <path d="m 24 42 h 16 v 2.078125 v 39.84375 v 2.078125 h -16 s 0 -0.929688 0 -2.078125 v -39.84375 c 0 -1.148437 0 -2.078125 0 -2.078125 z m 0 0"/>
    </clipPath>
    <linearGradient id="e" gradientTransform="matrix(0.380952 0 0 0.64 169.698227 -82.849867)" x1="-424.457947" x2="-340.457947" xlink:href="#a" y1="195.077911" y2="263.827911"/>
    <clipPath id="f">
        <path d="m 88 42 h 16 v 44 h -16 z m 0 0"/>
    </clipPath>
    <clipPath id="g">
        <path d="m 88 42 h 16 v 2.078125 v 39.84375 v 2.078125 h -16 s 0 -0.929688 0 -2.078125 v -39.84375 c 0 -1.148437 0 -2.078125 0 -2.078125 z m 0 0"/>
    </clipPath>
    <linearGradient id="h" gradientTransform="matrix(0.380952 0 0 0.64 249.698227 -82.849867)" x1="-424.457947" x2="-340.457947" xlink:href="#a" y1="195.077911" y2="263.827911"/>
    <path d="m 48 42 h 32 v 2.078125 v 39.84375 v 2.078125 h -32 s 0 -0.929688 0 -2.078125 v -39.84375 c 0 -1.148437 0 -2.078125 0 -2.078125 z m 0 0" fill="url(#b)"/>
    <path d="m 24 28 h 80 v 0.90625 v 0.1875 v 0.90625 h -80 s 0 -0.40625 0 -0.90625 v -0.1875 c 0 -0.5 0 -0.90625 0 -0.90625 z m 0 0" fill="#1a5fb4"/>
    <path d="m 24 24 h 80 v 2 v 2 h -80 s 0 -0.894531 0 -2 s 0 -2 0 -2 z m 0 0" fill="#3584e4"/>
    <path d="m 25 90 h 79 v 1 v 1 h -79 s 0 -0.449219 0 -1 s 0 -1 0 -1 z m 0 0" fill="#1a5fb4"/>
    <path d="m 26 86 h 78 v 1 v 2 v 1 h -78 s 0 -0.449219 0 -1 v -2 c 0 -0.550781 0 -1 0 -1 z m 0 0" fill="#3584e4"/>
    <path d="m 25 100 h 79 v 2 v 2 h -79 s 0 -0.894531 0 -2 s 0 -2 0 -2 z m 0 0" fill="#1a5fb4"/>
    <path d="m 26 96 h 78 v 1 v 2 v 1 h -78 s 0 -0.449219 0 -1 v -2 c 0 -0.550781 0 -1 0 -1 z m 0 0" fill="#3584e4"/>
    <path d="m 24 38 h 80 v 0.90625 v 2.1875 v 0.90625 h -80 s 0 -0.40625 0 -0.90625 v -2.1875 c 0 -0.5 0 -0.90625 0 -0.90625 z m 0 0" fill="#1a5fb4"/>
    <path d="m 24 34 h 80 v 2 v 2 h -80 s 0 -0.894531 0 -2 s 0 -2 0 -2 z m 0 0" fill="#3584e4"/>
    <g clip-path="url(#c)">
        <g clip-path="url(#d)">
            <path d="m 8 42 h 32 v 2.078125 v 39.84375 v 2.078125 h -32 s 0 -0.929688 0 -2.078125 v -39.84375 c 0 -1.148437 0 -2.078125 0 -2.078125 z m 0 0" fill="url(#e)"/>
        </g>
    </g>
    <path d="m 44 16 h -16 v 96 h 16" fill="none" stroke="#f6d32d" stroke-width="8"/>
    <g clip-path="url(#f)">
        <g clip-path="url(#g)">
            <path d="m 88 42 h 32 v 2.078125 v 39.84375 v 2.078125 h -32 s 0 -0.929688 0 -2.078125 v -39.84375 c 0 -1.148437 0 -2.078125 0 -2.078125 z m 0 0" fill="url(#h)"/>
        </g>
    </g>
    <path d="m 84 16 h 16 v 96 h -16" fill="none" stroke="#f6d32d" stroke-width="8"/>
    <path d="m 40 36 h 8 v 3.78125 v 1.078125 v 3.78125 h -8 s 0 -1.691406 0 -3.78125 v -1.078125 c 0 -2.089844 0 -3.78125 0 -3.78125 z m 0 0" fill="#1a5fb4"/>
    <path d="m 40 36 h 8 v 2.550781 v 48.898438 v 2.550781 h -8 s 0 -1.140625 0 -2.550781 v -48.898438 c 0 -1.410156 0 -2.550781 0 -2.550781 z m 0 0" fill="#3584e4"/>
    <path d="m 80 36 h 8 v 3.78125 v 1.078125 v 3.78125 h -8 s 0 -1.691406 0 -3.78125 v -1.078125 c 0 -2.089844 0 -3.78125 0 -3.78125 z m 0 0" fill="#1a5fb4"/>
    <path d="m 80 36 h 8 v 2.550781 v 48.898438 v 2.550781 h -8 s 0 -1.140625 0 -2.550781 v -48.898438 c 0 -1.410156 0 -2.550781 0 -2.550781 z m 0 0" fill="#3584e4"/>
    <path d="m 108 94 h 8 v 2.496094 v 5.007812 v 2.496094 h -8 s 0 -1.117188 0 -2.496094 v -5.007812 c 0 -1.378906 0 -2.496094 0 -2.496094 z m 0 0" fill="#1a5fb4"/>
    <path d="m 108 86 h 8 v 14 h -8 z m 0 0" fill="#3584e4"/>
    <path d="m 24 116 h 20 v 2 h -20 z m 0 0" fill="#e5a50a"/>
    <path d="m 84 116 h 20 v 2 h -20 z m 0 0" fill="#e5a50a"/>
    <path d="m 32 28 h 4 v 0.421875 v 0.117187 v 0.421876 h -4 s 0 -0.1875 0 -0.421876 v -0.117187 c 0 -0.234375 0 -0.421875 0 -0.421875 z m 0 0" fill="#1a5fb4"/>
    <path d="m 32 28 h 4 v 0.285156 v 5.429688 v 0.285156 h -4 s 0 -0.125 0 -0.285156 v -5.429688 c 0 -0.160156 0 -0.285156 0 -0.285156 z m 0 0" fill="#3584e4"/>
    <path d="m 44 28 h 8 v 0.421875 v 0.117187 v 0.421876 h -8 s 0 -0.1875 0 -0.421876 v -0.117187 c 0 -0.234375 0 -0.421875 0 -0.421875 z m 0 0" fill="#1a5fb4"/>
    <path d="m 44 28 h 8 v 0.285156 v 5.429688 v 0.285156 h -8 s 0 -0.125 0 -0.285156 v -5.429688 c 0 -0.160156 0 -0.285156 0 -0.285156 z m 0 0" fill="#3584e4"/>
    <path d="m 60 28 h 8 v 0.421875 v 0.117187 v 0.421876 h -8 s 0 -0.1875 0 -0.421876 v -0.117187 c 0 -0.234375 0 -0.421875 0 -0.421875 z m 0 0" fill="#1a5fb4"/>
    <path d="m 60 28 h 8 v 0.285156 v 5.429688 v 0.285156 h -8 s 0 -0.125 0 -0.285156 v -5.429688 c 0 -0.160156 0 -0.285156 0 -0.285156 z m 0 0" fill="#3584e4"/>
    <path d="m 76 28 h 8 v 0.421875 v 0.117187 v 0.421876 h -8 s 0 -0.1875 0 -0.421876 v -0.117187 c 0 -0.234375 0 -0.421875 0 -0.421875 z m 0 0" fill="#1a5fb4"/>
    <path d="m 76 28 h 8 v 0.285156 v 5.429688 v 0.285156 h -8 s 0 -0.125 0 -0.285156 v -5.429688 c 0 -0.160156 0 -0.285156 0 -0.285156 z m 0 0" fill="#3584e4"/>
    <path d="m 92 28 h 4 v 0.421875 v 0.117187 v 0.421876 h -4 s 0 -0.1875 0 -0.421876 v -0.117187 c 0 -0.234375 0 -0.421875 0 -0.421875 z m 0 0" fill="#1a5fb4"/>
    <path d="m 92 28 h 4 v 0.285156 v 5.429688 v 0.285156 h -4 s 0 -0.125 0 -0.285156 v -5.429688 c 0 -0.160156 0 -0.285156 0 -0.285156 z m 0 0" fill="#3584e4"/>
    <path d="m 32 90 h 4 v 0.421875 v 0.117187 v 0.421876 h -4 s 0 -0.1875 0 -0.421876 v -0.117187 c 0 -0.234375 0 -0.421875 0 -0.421875 z m 0 0" fill="#1a5fb4"/>
    <path d="m 32 90 h 4 v 0.285156 v 5.429688 v 0.285156 h -4 s 0 -0.125 0 -0.285156 v -5.429688 c 0 -0.160156 0 -0.285156 0 -0.285156 z m 0 0" fill="#3584e4"/>
    <path d="m 44 90 h 8 v 0.421875 v 0.117187 v 0.421876 h -8 s 0 -0.1875 0 -0.421876 v -0.117187 c 0 -0.234375 0 -0.421875 0 -0.421875 z m 0 0" fill="#1a5fb4"/>
    <path d="m 44 90 h 8 v 0.285156 v 5.429688 v 0.285156 h -8 s 0 -0.125 0 -0.285156 v -5.429688 c 0 -0.160156 0 -0.285156 0 -0.285156 z m 0 0" fill="#3584e4"/>
    <path d="m 60 90 h 8 v 0.421875 v 0.117187 v 0.421876 h -8 s 0 -0.1875 0 -0.421876 v -0.117187 c 0 -0.234375 0 -0.421875 0 -0.421875 z m 0 0" fill="#1a5fb4"/>
    <path d="m 60 90 h 8 v 0.285156 v 5.429688 v 0.285156 h -8 s 0 -0.125 0 -0.285156 v -5.429688 c 0 -0.160156 0 -0.285156 0 -0.285156 z m 0 0" fill="#3584e4"/>
    <path d="m 76 90 h 8 v 0.421875 v 0.117187 v 0.421876 h -8 s 0 -0.1875 0 -0.421876 v -0.117187 c 0 -0.234375 0 -0.421875 0 -0.421875 z m 0 0" fill="#1a5fb4"/>
    <path d="m 76 90 h 8 v 0.285156 v 5.429688 v 0.285156 h -8 s 0 -0.125 0 -0.285156 v -5.429688 c 0 -0.160156 0 -0.285156 0 -0.285156 z m 0 0" fill="#3584e4"/>
    <path d="m 92 90 h 4 v 0.421875 v 0.117187 v 0.421876 h -4 s 0 -0.1875 0 -0.421876 v -0.117187 c 0 -0.234375 0 -0.421875 0 -0.421875 z m 0 0" fill="#1a5fb4"/>
    <path d="m 92 90 h 4 v 0.285156 v 5.429688 v 0.285156 h -4 s 0 -0.125 0 -0.285156 v -5.429688 c 0 -0.160156 0 -0.285156 0 -0.285156 z m 0 0" fill="#3584e4"/>
    <path d="m 108 32 h 8 v 2.496094 v 5.007812 v 2.496094 h -8 s 0 -1.117188 0 -2.496094 v -5.007812 c 0 -1.378906 0 -2.496094 0 -2.496094 z m 0 0" fill="#1a5fb4"/>
    <path d="m 108 24 h 8 v 14 h -8 z m 0 0" fill="#3584e4"/>
    <path d="m 12 94 h 8 v 2.496094 v 5.007812 v 2.496094 h -8 s 0 -1.117188 0 -2.496094 v -5.007812 c 0 -1.378906 0 -2.496094 0 -2.496094 z m 0 0" fill="#1a5fb4"/>
    <path d="m 12 86 h 8 v 14 h -8 z m 0 0" fill="#3584e4"/>
    <path d="m 12 32 h 8 v 2.496094 v 5.007812 v 2.496094 h -8 s 0 -1.117188 0 -2.496094 v -5.007812 c 0 -1.378906 0 -2.496094 0 -2.496094 z m 0 0" fill="#1a5fb4"/>
    <path d="m 12 24 h 8 v 14 h -8 z m 0 0" fill="#3584e4"/>
</svg>
