<?xml version="1.0" encoding="UTF-8" standalone="no"?>
<!--
SPDX-License-Identifier: CC-BY-SA-4.0
SPDX-FileCopyrightText: Jakub Steiner <jimmac@gmail.com>
-->
<svg height="128" width="128" xmlns="http://www.w3.org/2000/svg" xmlns:xlink="http://www.w3.org/1999/xlink" xmlns:dc="http://purl.org/dc/elements/1.1/" xmlns:cc="http://creativecommons.org/ns#" xmlns:rdf="http://www.w3.org/1999/02/22-rdf-syntax-ns#" xmlns:svg="http://www.w3.org/2000/svg" xmlns:sodipodi="http://sodipodi.sourceforge.net/DTD/sodipodi-0.dtd" xmlns:inkscape="http://www.inkscape.org/namespaces/inkscape" sodipodi:docname="org.gnome.DejaDup.svg" inkscape:version="0.92.4 (5da689c313, 2019-01-14)">
    <linearGradient id="a" gradientUnits="userSpaceOnUse">
        <stop offset="0" stop-color="#deddda"/>
        <stop offset="1" stop-color="#77767b"/>
    </linearGradient>
    <linearGradient id="b" gradientUnits="userSpaceOnUse">
        <stop offset="0" stop-color="#c0bfbc"/>
        <stop offset="0.351" stop-color="#ffffff"/>
        <stop offset="0.602" stop-color="#9a9996"/>
        <stop offset="1" stop-color="#77767b"/>
    </linearGradient>
    <linearGradient id="c" gradientTransform="matrix(0.75 0 0 0.7 -29 80)" x1="60" x2="68" xlink:href="#b" y1="199.856" y2="199.856"/>
    <radialGradient id="d" cx="-209.5" cy="64" r="18" xlink:href="#a"/>
    <linearGradient id="e" gradientTransform="matrix(0.75 0 0 0.7 -29 113)" x1="60" x2="68" xlink:href="#b" y1="199.856" y2="199.856"/>
    <radialGradient id="f" cx="-208.75094" cy="63.99992" r="18.66672" xlink:href="#a"/>
    <linearGradient id="g" gradientTransform="matrix(0.8372 0 0 1.22857 -117.581 -49.114)" gradientUnits="userSpaceOnUse" x1="83.111" x2="102.222" y1="199.512" y2="289.047">
        <stop offset="0" stop-color="#9a9996"/>
        <stop offset="1" stop-color="#77767b"/>
    </linearGradient>
    <linearGradient id="h" gradientTransform="matrix(0.21154 0 0 0.25 9.846 229)" gradientUnits="userSpaceOnUse" x1="48" x2="464" y1="204" y2="204">
        <stop offset="0" stop-color="#3d3846"/>
        <stop offset="0.045" stop-color="#5e5c64"/>
        <stop offset="0.091" stop-color="#3d3846"/>
        <stop offset="0.909" stop-color="#3d3846"/>
        <stop offset="0.955" stop-color="#5e5c64"/>
        <stop offset="1" stop-color="#3d3846"/>
    </linearGradient>
    <radialGradient id="i" cx="-215.99992" cy="-64.00008" gradientUnits="userSpaceOnUse" r="5.66664">
        <stop offset="0" stop-color="#deddda"/>
        <stop offset="1" stop-color="#c0bfbc"/>
    </radialGradient>
    <linearGradient id="j" gradientTransform="matrix(-0.8660254 0.5 0.5 0.8660254 -21.742824 8.814677)" x1="50.981" x2="50.981" xlink:href="#b" y1="248.218" y2="252.218"/>
    <linearGradient id="k" gradientTransform="matrix(0.8660254 0.5 -0.5 0.8660254 149.742698 8.814644)" x1="50.981" x2="50.981" xlink:href="#b" y1="248.218" y2="252.218"/>
    <linearGradient id="l" gradientTransform="matrix(0 1 1 0 -186.218 202.02)" x1="50.981" x2="50.981" xlink:href="#b" y1="248.218" y2="252.218"/>
    <sodipodi:namedview pagecolor="#ffffff" bordercolor="#666666" borderopacity="1" objecttolerance="10" gridtolerance="10" guidetolerance="10" inkscape:pageopacity="0" inkscape:pageshadow="2" inkscape:window-width="1191" inkscape:window-height="783" showgrid="false" inkscape:zoom="1.84375" inkscape:cx="4.6101695" inkscape:cy="61.559322" inkscape:window-x="70" inkscape:window-y="27" inkscape:window-maximized="0" inkscape:current-layer="svg123"/>
    <g transform="matrix(1 0 0 1 0 -172)">
        <rect fill="url(#h)" height="84" rx="8" width="88" x="20" y="208"/>
        <rect fill="#5e5c64" height="104" rx="8" width="88" x="20" y="180"/>
        <rect fill="#3d3846" height="80" rx="3" width="72" x="28" y="198"/>
        <path d="m 24 248 h 6 v 14 h -6 z" fill="#5e5c64"/>
        <rect fill="url(#g)" height="88" rx="3" transform="matrix(-1 0 0 1 0 0)" width="72" x="-100" y="188"/>
        <path d="m 63.588 250 l -15.588 -9 m 16.412 9 l 15.588 -9 m -16 25 v -17" fill="none" opacity="0.2" stroke="#000000" stroke-linecap="round" stroke-width="4"/>
        <circle cx="-248" cy="-64" fill="#3d3846" r="6" transform="matrix(0 -1 -1 0 0 0)"/>
        <circle cx="-216" cy="64" fill="#5e5c64" r="14" transform="matrix(0 -1 1 0 0 0)"/>
        <circle cx="-214" cy="64" fill="url(#f)" r="14" transform="matrix(0 -1 1 0 0 0)"/>
        <path d="m 64 223.333 v 4.667 m 0 -28 v 28 m -7 -26.124 l 14 24.248 m -19.124 -19.124 l 24.248 14 m -26.124 -7 h 28 m -26.124 7 l 24.248 -14 m -19.124 19.124 l 14 -24.248" fill="none" opacity="0.222" stroke="#000000" stroke-width="1.9999"/>
        <circle cx="-214" cy="64" fill="url(#d)" r="9" transform="matrix(0 -1 1 0 0 0)"/>
        <circle cx="-214" cy="-64" fill="#3d3846" r="6" transform="matrix(0 -1 -1 0 0 0)"/>
        <path d="m 19 245 a 3 1 0 0 0 -3 1 v 14 h 6 v -14 a 3 1 0 0 0 -3 -1 z" fill="url(#e)" transform="matrix(1 0 0 1 8 0)"/>
        <path d="m 27 259 a 3 1 0 0 0 -3 1 a 3 1 0 0 0 3 1 a 3 1 0 0 0 1 -0.059 v -0.941 h 2 a 3 1 0 0 0 -3 -1 z m 0 -8 c -1.657 0 -3 0.448 -3 1 v 2 c 0 -0.552 1.343 -1 3 -1 s 3 0.448 3 1 v -2 c 0 -0.552 -1.343 -1 -3 -1 z m 1.197 2.916 l -0.056 0.008 z" fill="#3d3846"/>
        <path d="m 19 212 a 3 1 0 0 0 -3 1 v 14 h 6 v -14 a 3 1 0 0 0 -3 -1 z" fill="url(#c)" transform="matrix(1 0 0 1 8 -9)"/>
        <path d="m 27 217 a 3 1 0 0 0 -3 1 a 3 1 0 0 0 3 1 a 3 1 0 0 0 1 -0.059 v -0.941 h 2 a 3 1 0 0 0 -3 -1 z m 0 -8 c -1.657 0 -3 0.448 -3 1 v 2 c 0 -0.552 1.343 -1 3 -1 s 3 0.448 3 1 v -2 c 0 -0.552 -1.343 -1 -3 -1 z m 1.197 2.916 l -0.056 0.008 z" fill="#3d3846"/>
        <circle cx="-214" cy="-64" fill="url(#i)" r="4" transform="matrix(0 -1 -1 0 0 0)"/>
        <g fill="none" stroke-linecap="round" stroke-width="4">
            <path d="m 63.588 248 l -15.588 -9" stroke="url(#k)"/>
            <path d="m 64.412 248 l 15.588 -9" stroke="url(#j)"/>
            <path d="m 64 264 v -17" stroke="url(#l)"/>
        </g>
        <circle cx="-248" cy="-64" fill="#f6f5f4" r="4" transform="matrix(0 -1 -1 0 0 0)"/>
    </g>
</svg>
