<?xml version="1.0" encoding="UTF-8"?>
<svg height="128px" viewBox="0 0 128 128" width="128px" xmlns="http://www.w3.org/2000/svg" xmlns:xlink="http://www.w3.org/1999/xlink">
    <linearGradient id="a" gradientUnits="userSpaceOnUse" x1="11.99973" x2="115.99973" y1="63.999893" y2="63.999893">
        <stop offset="0" stop-color="#1c71d8"/>
        <stop offset="0.05" stop-color="#3584e4"/>
        <stop offset="0.1" stop-color="#1c71d8"/>
        <stop offset="0.9" stop-color="#1c71d8"/>
        <stop offset="0.95" stop-color="#3584e4"/>
        <stop offset="1" stop-color="#1c71d8"/>
    </linearGradient>
    <linearGradient id="b" gradientUnits="userSpaceOnUse" x1="63.99973" x2="63.99973" y1="11.999893" y2="111.999893">
        <stop offset="0" stop-color="#57e389"/>
        <stop offset="1" stop-color="#3584e4"/>
    </linearGradient>
    <path d="m 20 12 h 88 c 4.417969 0 8 3.582031 8 8 v 88 c 0 4.417969 -3.582031 8 -8 8 h -88 c -4.417969 0 -8 -3.582031 -8 -8 v -88 c 0 -4.417969 3.582031 -8 8 -8 z m 0 0" fill="url(#a)" fill-rule="evenodd"/>
    <path d="m 20 12 h 88 c 4.417969 0 8 3.582031 8 8 v 84 c 0 4.417969 -3.582031 8 -8 8 h -88 c -4.417969 0 -8 -3.582031 -8 -8 v -84 c 0 -4.417969 3.582031 -8 8 -8 z m 0 0" fill="url(#b)" fill-rule="evenodd"/>
    <path d="m 34 32 h 60 c 3.3125 0 6 2.6875 6 6 v 48 c 0 3.3125 -2.6875 6 -6 6 h -60 c -3.3125 0 -6 -2.6875 -6 -6 v -48 c 0 -3.3125 2.6875 -6 6 -6 z m 0 0" fill="#ffffff" fill-rule="evenodd"/>
    <g fill="none" stroke="#ffffff" stroke-linecap="round" stroke-opacity="0.5" stroke-width="4">
        <path d="m 22 42 v -4 c 0 -6.628906 5.371094 -12 12 -12 h 4"/>
        <path d="m 21.99973 42.000107 v -4 c 0 -6.628906 5.371094 -12 12 -12 h 4" transform="matrix(-1 0 0 1 127.99973 -0.000107)"/>
        <path d="m 22.00027 41.999893 v -4 c 0 -6.628906 5.371094 -12 12 -12 h 4" transform="matrix(1 0 0 -1 -0.00027 123.999893)"/>
        <path d="m 21.99973 41.999893 v -4 c 0 -6.628906 5.371094 -12 12 -12 h 4" transform="matrix(-1 0 -0 -1 127.99973 123.999893)"/>
    </g>
    <path d="m 96 39 c 0 1.65625 -1.34375 3 -3 3 s -3 -1.34375 -3 -3 s 1.34375 -3 3 -3 s 3 1.34375 3 3 z m 0 0" fill="#dcdcdc" fill-rule="evenodd"/>
</svg>
