<?xml version="1.0" encoding="UTF-8" standalone="no"?>
<!-- Created with Inkscape (http://www.inkscape.org/) -->
<svg height="128" viewBox="0 0 128 128" width="128" xmlns="http://www.w3.org/2000/svg" xmlns:xlink="http://www.w3.org/1999/xlink" inkscape:version="1.3.2 (091e20ef0f, 2023-11-25)" sodipodi:docname="com.github.cassidyjames.clairvoyant.svg" xmlns:inkscape="http://www.inkscape.org/namespaces/inkscape" xmlns:sodipodi="http://sodipodi.sourceforge.net/DTD/sodipodi-0.dtd" xmlns:svg="http://www.w3.org/2000/svg">
    <linearGradient id="a" gradientUnits="userSpaceOnUse" inkscape:collect="always">
        <stop offset="0.88487101" stop-opacity="0"/>
        <stop offset="1" stop-color="#ffffff"/>
    </linearGradient>
    <radialGradient id="b" cx="18.287395" cy="-65.802" gradientUnits="userSpaceOnUse" r="60" inkscape:collect="always">
        <stop offset="0" stop-color="#5e5c64"/>
        <stop offset="0.60951883" stop-color="#3d3846"/>
        <stop offset="1" stop-color="#241f31"/>
    </radialGradient>
    <radialGradient id="c" cx="-65.573082" cy="-55.780399" gradientTransform="matrix(1.1610924 -0.01939456 0.01963532 1.1755061 95.823535 -0.049083)" r="60" xlink:href="#a" inkscape:collect="always"/>
    <radialGradient id="d" cx="-65.573082" cy="-55.780399" gradientTransform="matrix(1.1610924 -0.01939456 0.01963532 1.1755061 59.248744 102.17278)" r="60" xlink:href="#a" inkscape:collect="always"/>
    <sodipodi:namedview pagecolor="#232323" bordercolor="#000000" borderopacity="0.25" inkscape:showpageshadow="2" inkscape:pageopacity="0" inkscape:pagecheckerboard="true" inkscape:deskcolor="#232323" inkscape:document-units="px" showgrid="false" inkscape:zoom="8.1256282" inkscape:cx="55.626468" inkscape:cy="61.595238" inkscape:window-width="2560" inkscape:window-height="1371" inkscape:window-x="0" inkscape:window-y="0" inkscape:window-maximized="1" inkscape:current-layer="g15174"/>
    <g transform="matrix(1 0 0 1 45.712605 115.11093)">
        <circle cx="18.287395" cy="-51.110931" fill="url(#b)" r="60" stroke-width="1.6455"/>
        <circle cx="18.287395" cy="-51.110931" fill="#f6f5f4" r="32" stroke-width="1.00164"/>
        <path d="m 17.992616 -27.725039 c 11.136139 0 18.472889 -5.633576 18.472889 -13.952926 c 0 -14.804514 -24.106465 -11.201646 -24.106465 -19.586503 c 0 -2.423748 2.227228 -4.192429 5.76459 -4.192429 c 3.537361 0 5.830096 1.768681 5.830096 4.519962 c 0 2.816788 -2.489255 4.781989 -6.15763 5.109523 l 7.664284 3.930402 c 6.092123 -2.227228 9.498471 -6.288643 9.498471 -11.136139 c 0 -6.878203 -6.681683 -11.463672 -16.245661 -11.463672 c -10.4810718 0 -17.3592752 5.568069 -17.3592752 13.821913 c 0 15.132047 24.1064652 11.594686 24.1064652 19.65201 c 0 2.489254 -2.554761 4.257935 -6.74719 4.257935 c -4.585469 0 -7.598777 -2.227228 -7.598777 -5.699083 c 0 -3.209828 2.620268 -5.044016 7.205737 -5.175029 l -6.485163 -4.126922 c -7.3367506 1.310134 -11.72569944 5.502563 -11.72569944 11.398166 c 0 7.53327 7.27124354 12.642792 17.88332844 12.642792 z" fill="#241f31" stroke-width="5.4589"/>
        <g stroke-width="1.69239">
            <circle cx="18.287395" cy="-51.110931" fill="url(#c)" opacity="0.2" r="60"/>
            <circle cx="-18.287395" cy="51.110931" fill="url(#d)" opacity="0.15" r="60" transform="matrix(-1 0 0 -1 0 0)"/>
        </g>
    </g>
</svg>
