<?xml version="1.0" encoding="UTF-8"?>
<svg height="128px" viewBox="0 0 128 128" width="128px" xmlns="http://www.w3.org/2000/svg" xmlns:xlink="http://www.w3.org/1999/xlink">
    <filter id="a" height="100%" width="100%" x="0%" y="0%">
        <feColorMatrix color-interpolation-filters="sRGB" values="0 0 0 0 1 0 0 0 0 1 0 0 0 0 1 0 0 0 1 0"/>
    </filter>
    <clipPath id="b">
        <path d="m 4 4 h 120 v 121 h -120 z m 0 0"/>
    </clipPath>
    <clipPath id="c">
        <path d="m 123.996094 64.492188 c 0 33.132812 -26.863282 59.992187 -59.996094 59.992187 s -59.996094 -26.859375 -59.996094 -59.992187 c 0 -33.136719 26.863282 -59.996094 59.996094 -59.996094 s 59.996094 26.859375 59.996094 59.996094 z m 0 0"/>
    </clipPath>
    <clipPath id="d">
        <path d="m 4 4 h 120 v 116 h -120 z m 0 0"/>
    </clipPath>
    <clipPath id="e">
        <path d="m 123.996094 64.492188 c 0 33.132812 -26.863282 59.992187 -59.996094 59.992187 s -59.996094 -26.859375 -59.996094 -59.992187 c 0 -33.136719 26.863282 -59.996094 59.996094 -59.996094 s 59.996094 26.859375 59.996094 59.996094 z m 0 0"/>
    </clipPath>
    <radialGradient id="f" cx="-14.918645" cy="753.210266" gradientTransform="matrix(0.125579 -0.217509 0.205479 0.118633 -112.895155 -4.600522)" gradientUnits="userSpaceOnUse" r="252.859375">
        <stop offset="0" stop-color="#3584e4"/>
        <stop offset="1" stop-color="#1c71d8" stop-opacity="0"/>
    </radialGradient>
    <clipPath id="g">
        <path d="m 28 4 h 72 v 121 h -72 z m 0 0"/>
    </clipPath>
    <clipPath id="h">
        <path d="m 123.996094 64.492188 c 0 33.132812 -26.863282 59.992187 -59.996094 59.992187 s -59.996094 -26.859375 -59.996094 -59.992187 c 0 -33.136719 26.863282 -59.996094 59.996094 -59.996094 s 59.996094 26.859375 59.996094 59.996094 z m 0 0"/>
    </clipPath>
    <clipPath id="i">
        <path d="m 4 28 h 120 v 73 h -120 z m 0 0"/>
    </clipPath>
    <clipPath id="j">
        <path d="m 123.996094 64.492188 c 0 33.132812 -26.863282 59.992187 -59.996094 59.992187 s -59.996094 -26.859375 -59.996094 -59.992187 c 0 -33.136719 26.863282 -59.996094 59.996094 -59.996094 s 59.996094 26.859375 59.996094 59.996094 z m 0 0"/>
    </clipPath>
    <mask id="k">
        <g filter="url(#a)">
            <rect fill-opacity="0.299238" height="153.6" width="153.6" x="-12.8" y="-12.8"/>
        </g>
    </mask>
    <clipPath id="l">
        <path d="m 13 0 h 128 v 145 h -128 z m 0 0"/>
    </clipPath>
    <clipPath id="m">
        <rect height="152" width="192"/>
    </clipPath>
    <linearGradient id="n" gradientTransform="matrix(0 0.198374 0.198374 0 53.489397 -17.918377)" gradientUnits="userSpaceOnUse" x1="320.5" x2="415.5" y1="-68" y2="-68">
        <stop offset="0" stop-color="#a51d2d"/>
        <stop offset="1" stop-color="#ce1921"/>
    </linearGradient>
    <linearGradient id="o" gradientUnits="userSpaceOnUse" x1="40.000001" x2="40.000001" y1="80.603047" y2="33.096753">
        <stop offset="0" stop-color="#d81d25"/>
        <stop offset="1" stop-color="#f66151"/>
    </linearGradient>
    <linearGradient id="p" gradientUnits="userSpaceOnUse" x1="72" x2="128" y1="128" y2="128">
        <stop offset="0" stop-color="#94929b"/>
        <stop offset="0.284337" stop-color="#5e5c64"/>
        <stop offset="0.437622" stop-color="#b2b0b8"/>
        <stop offset="0.712036" stop-color="#5e5c64"/>
        <stop offset="1" stop-color="#a9a8af"/>
    </linearGradient>
    <radialGradient id="q" cx="99.999947" cy="251.999969" gradientTransform="matrix(-0.00000011 0.988854 -1.144991 0 388.537659 -18.88533)" gradientUnits="userSpaceOnUse" r="28">
        <stop offset="0" stop-color="#ffffff"/>
        <stop offset="1" stop-color="#deddda"/>
    </radialGradient>
    <g clip-path="url(#b)">
        <g clip-path="url(#c)">
            <path d="m 123.996094 64.492188 c 0 33.132812 -26.863282 59.992187 -59.996094 59.992187 s -59.996094 -26.859375 -59.996094 -59.992187 c 0 -33.136719 26.863282 -59.996094 59.996094 -59.996094 s 59.996094 26.859375 59.996094 59.996094 z m 0 0" fill="#1a5fb4"/>
        </g>
    </g>
    <g clip-path="url(#d)">
        <g clip-path="url(#e)">
            <path d="m 123.996094 60 c 0 33.136719 -26.863282 59.996094 -59.996094 59.996094 s -59.996094 -26.859375 -59.996094 -59.996094 c 0 -33.132812 26.863282 -59.9921875 59.996094 -59.9921875 s 59.996094 26.8593755 59.996094 59.9921875 z m 0 0" fill="url(#f)"/>
        </g>
    </g>
    <g clip-path="url(#g)">
        <g clip-path="url(#h)">
            <path d="m 1011.044019 -61.004956 c 0 57.079213 -112.956586 103.358322 -252.304281 103.358322 c -139.36416 0 -252.320745 -46.279109 -252.320745 -103.358322 c 0 -57.095677 112.956585 -103.374785 252.320745 -103.374785 c 139.347695 0 252.304281 46.279108 252.304281 103.374785 z m 0 0" fill="none" stroke="#62a0ea" stroke-width="8.42935" transform="matrix(0 0.237266 -0.237266 0 49.658398 -115.49596)"/>
        </g>
    </g>
    <g clip-path="url(#i)">
        <g clip-path="url(#j)">
            <path d="m 191.315789 -758.739738 c 0 57.095677 -112.973049 103.374785 -252.320745 103.374785 c -139.347695 0 -252.320745 -46.279108 -252.320745 -103.374785 c 0 -57.079213 112.97305 -103.358321 252.320745 -103.358321 c 139.347696 0 252.320745 46.279108 252.320745 103.358321 z m 0 0" fill="none" stroke="#62a0ea" stroke-width="8.42935" transform="matrix(-0.237266 0 0 -0.237266 49.658398 -115.49596)"/>
        </g>
    </g>
    <path d="m 39.363281 45.316406 v -7.527344 c 0 -11.480468 9.308594 -20.789062 20.789063 -20.789062 h 18.105468 c 11.480469 0 20.789063 9.308594 20.789063 20.789062 v 59.148438" fill="none" stroke="#1a5fb4" stroke-width="6"/>
    <path d="m 48 88.03125 c 0 4.402344 -3.566406 7.96875 -7.96875 7.96875 c -4.398438 0 -7.964844 -3.566406 -7.964844 -7.96875 c 0 -4.398438 3.566406 -7.964844 7.964844 -7.964844 c 4.402344 0 7.96875 3.566406 7.96875 7.964844 z m 0 0" fill="#ffffff"/>
    <path d="m 42.371094 34.164062 c 0 1.65625 -1.339844 3 -3 3 c -1.65625 0 -3 -1.34375 -3 -3 s 1.34375 -3 3 -3 c 1.660156 0 3 1.34375 3 3 z m 0 0" fill="#ffffff"/>
    <g mask="url(#k)">
        <g clip-path="url(#m)" transform="matrix(1 0 0 1 -8 -16)">
            <g clip-path="url(#l)">
                <path d="m 39.999929 217.315426 v -7.527344 c 0 -11.480468 9.308594 -20.789062 20.789063 -20.789062 h 18.105468 c 11.480469 0 20.789063 9.308594 20.789063 20.789062 v 59.148438" fill="none" stroke="#ffffff" stroke-width="6" transform="matrix(1 0 0 1 7.363352 -157.93652)"/>
            </g>
        </g>
    </g>
    <path d="m 56 88.03125 c 0 8.820312 -7.148438 15.96875 -15.96875 15.96875 c -8.816406 0 -15.964844 -7.148438 -15.964844 -15.96875 c 0 -8.816406 7.148438 -15.964844 15.964844 -15.964844 c 8.820312 0 15.96875 7.148438 15.96875 15.964844 z m 0 0" fill="none" stroke="#62a0ea" stroke-opacity="0.705882" stroke-width="2"/>
    <path d="m 64 88.03125 c 0 13.238281 -10.730469 23.96875 -23.96875 23.96875 c -13.234375 0 -23.964844 -10.730469 -23.964844 -23.96875 c 0 -13.234375 10.730469 -23.964844 23.964844 -23.964844 c 13.238281 0 23.96875 10.730469 23.96875 23.964844 z m 0 0" fill="none" stroke="#62a0ea" stroke-opacity="0.282353" stroke-width="1.99999"/>
    <path d="m 40 64.507812 c 5.203125 0 9.421875 -4.21875 9.421875 -9.425781 c 0 -5.203125 -4.21875 -9.421875 -9.421875 -9.421875 s -9.421875 4.21875 -9.421875 9.421875 c 0 5.207031 4.21875 9.425781 9.421875 9.425781 z m 0 0" fill="url(#n)"/>
    <path d="m 40 34.667969 c -5.625 0 -11.253906 2.144531 -15.546875 6.4375 c -8.585937 8.585937 -8.585937 22.507812 0 31.09375 l 15.546875 15.546875 s 10.851562 -10.851563 15.546875 -15.546875 c 8.585937 -8.585938 8.585937 -22.507813 0 -31.09375 c -4.292969 -4.292969 -9.921875 -6.4375 -15.546875 -6.4375 z m 0 14.132812 c 4.335938 0 7.851562 3.515625 7.851562 7.851563 c 0 4.339844 -3.515624 7.855468 -7.851562 7.855468 s -7.851562 -3.515624 -7.851562 -7.855468 c 0 -4.335938 3.515624 -7.851563 7.851562 -7.851563 z m 0 0" fill="#a51d2d"/>
    <path d="m 40 33.097656 c -5.625 0 -11.253906 2.144532 -15.546875 6.4375 c -8.585937 8.585938 -8.585937 22.507813 0 31.09375 l 15.546875 15.546875 s 10.851562 -10.851562 15.546875 -15.546875 c 8.585937 -8.585937 8.585937 -22.507812 0 -31.09375 c -4.292969 -4.292968 -9.921875 -6.4375 -15.546875 -6.4375 z m 0 14.132813 c 4.335938 0 7.851562 3.515625 7.851562 7.851562 c 0 4.335938 -3.515624 7.851563 -7.851562 7.851563 s -7.851562 -3.515625 -7.851562 -7.851563 c 0 -4.335937 3.515624 -7.851562 7.851562 -7.851562 z m 0 0" fill="url(#o)"/>
    <path d="m 128 100 c 0 15.464844 -12.535156 28 -28 28 s -28 -12.535156 -28 -28 s 12.535156 -28 28 -28 s 28 12.535156 28 28 z m 0 0" fill="url(#p)"/>
    <path d="m 128 96.707031 c 0 15.464844 -12.535156 28 -28 28 s -28 -12.535156 -28 -28 c 0 -15.464843 12.535156 -28 28 -28 s 28 12.535157 28 28 z m 0 0" fill="url(#q)"/>
    <path d="m 90.195312 87.160156 c 0.53125 -0.078125 1.007813 -0.136718 1.441407 -0.175781 c 0.429687 -0.039063 0.8125 -0.058594 1.144531 -0.058594 c 0.351562 0 0.742188 0.019531 1.175781 0.058594 c 0.449219 0.039063 0.929688 0.097656 1.4375 0.175781 v 20.96875 c -1.039062 0.179688 -1.898437 0.265625 -2.585937 0.265625 c -0.722656 0 -1.59375 -0.085937 -2.613282 -0.265625 z m 13.804688 9.925782 c 0.097656 0.039062 0.265625 0.070312 0.5 0.089843 s 0.480469 0.03125 0.734375 0.03125 c 0.839844 0 1.527344 -0.246093 2.054687 -0.734375 c 0.527344 -0.492187 0.792969 -1.234375 0.792969 -2.234375 c 0 -0.585937 -0.085937 -1.078125 -0.265625 -1.46875 c -0.15625 -0.410156 -0.378906 -0.734375 -0.675781 -0.96875 c -0.292969 -0.253906 -0.632813 -0.429687 -1.027344 -0.527343 c -0.390625 -0.097657 -0.800781 -0.148438 -1.230469 -0.148438 c -0.121093 0 -0.257812 0 -0.414062 0 s -0.3125 0.011719 -0.46875 0.03125 z m -5.082031 -9.925782 c 0.453125 -0.058594 1.136719 -0.136718 2.058593 -0.234375 c 0.9375 -0.117187 2.113282 -0.175781 3.523438 -0.175781 c 1.035156 0 2.085938 0.097656 3.140625 0.292969 c 1.058594 0.195312 2.007813 0.566406 2.851563 1.117187 c 0.859374 0.527344 1.554687 1.28125 2.082031 2.261719 c 0.53125 0.976563 0.792969 2.25 0.792969 3.816406 c 0 1.390625 -0.214844 2.546875 -0.644532 3.464844 c -0.410156 0.921875 -0.96875 1.65625 -1.675781 2.203125 c -0.683594 0.550781 -1.476563 0.941406 -2.378906 1.175781 c -0.878907 0.234375 -1.789063 0.351563 -2.730469 0.351563 c -0.371094 0 -0.753906 -0.007813 -1.144531 -0.027344 c -0.371094 -0.039062 -0.636719 -0.078125 -0.792969 -0.117188 v 6.839844 c -0.507812 0.101563 -0.96875 0.167969 -1.378906 0.207032 c -0.414063 0.039062 -0.792969 0.058593 -1.148438 0.058593 c -0.683594 0 -1.535156 -0.085937 -2.554687 -0.265625 z m 0 0" fill="#5e5c64"/>
    <g fill="#ffffff">
        <path d="m 102 65 c 0 1.65625 -1.34375 3 -3 3 s -3 -1.34375 -3 -3 s 1.34375 -3 3 -3 s 3 1.34375 3 3 z m 0 0"/>
        <path d="m 102 53 c 0 1.65625 -1.34375 3 -3 3 s -3 -1.34375 -3 -3 s 1.34375 -3 3 -3 s 3 1.34375 3 3 z m 0 0"/>
        <path d="m 102 41 c 0 1.65625 -1.34375 3 -3 3 s -3 -1.34375 -3 -3 s 1.34375 -3 3 -3 s 3 1.34375 3 3 z m 0 0"/>
        <path d="m 100.945312 29 c 0 1.65625 -1.34375 3 -3 3 s -3 -1.34375 -3 -3 s 1.34375 -3 3 -3 s 3 1.34375 3 3 z m 0 0"/>
        <path d="m 94.398438 19.734375 c 0 1.65625 -1.339844 3 -3 3 c -1.65625 0 -3 -1.34375 -3 -3 c 0 -1.660156 1.34375 -3 3 -3 c 1.660156 0 3 1.339844 3 3 z m 0 0"/>
        <path d="m 83.125 15.125 c 0 1.65625 -1.34375 3 -3 3 s -3 -1.34375 -3 -3 s 1.34375 -3 3 -3 s 3 1.34375 3 3 z m 0 0"/>
        <path d="m 71 15.0625 c 0 1.65625 -1.34375 3 -3 3 s -3 -1.34375 -3 -3 s 1.34375 -3 3 -3 s 3 1.34375 3 3 z m 0 0"/>
        <path d="m 57 16 c 0 1.65625 -1.34375 3 -3 3 s -3 -1.34375 -3 -3 s 1.34375 -3 3 -3 s 3 1.34375 3 3 z m 0 0"/>
        <path d="m 47.175781 22.546875 c 0 1.660156 -1.34375 3 -3 3 s -3 -1.339844 -3 -3 c 0 -1.65625 1.34375 -3 3 -3 s 3 1.34375 3 3 z m 0 0"/>
    </g>
</svg>
