<?xml version="1.0" encoding="utf-8"?>
<svg width="256" height="36" viewBox="0 0 36.186 36.142" role="img" aria-label="The Official VK Messenger" class="logo" fill="none" xmlns="http://www.w3.org/2000/svg">
  <path fill="var(--vkui--color_text_primary)" d="M58.9822 27.44h-4.4737L48.1431 9.4202h3.2978l5.0872 14.8503h.5113l5.2662-14.8503h3.2466l-6.57 18.0198ZM74.1461 18.1106l8.2827 9.3294h-4.0391l-6.7489-7.7192h-.7669V27.44h-3.0677V9.4202h3.0677v7.3357h.7413l6.391-7.3357h3.7835l-7.6436 8.6904ZM92.8697 27.44h-2.991V9.4202h4.806l4.9083 13.6234h.409l5.011-13.6234h4.703V27.44h-2.991V13.5098h-.409L101.178 27.44h-2.8632l-5.0361-13.9302h-.409V27.44ZM126.404 20.641c0 .2556-.017.5708-.051.9457h-10.686c.137 1.0395.563 1.8744 1.278 2.5049.716.6134 1.628.9202 2.736.9202.75 0 1.423-.1449 2.019-.4346.614-.2896 1.083-.6816 1.406-1.1757l2.761.4601c-.477 1.2268-1.304 2.1726-2.479 2.8371-1.159.6646-2.455.9969-3.886.9969-1.33 0-2.523-.2897-3.579-.8691-1.04-.5964-1.858-1.4143-2.454-2.4537-.58-1.0565-.869-2.2493-.869-3.5784 0-1.3292.289-2.5134.869-3.5529.596-1.0565 1.414-1.8744 2.454-2.4537 1.056-.5964 2.249-.8946 3.579-.8946 1.329 0 2.514.2982 3.553.8946 1.057.5793 1.875 1.3887 2.454 2.4282.597 1.0224.895 2.164.895 3.425Zm-6.902-4.1918c-.886 0-1.662.2556-2.327.7668-.647.5112-1.09 1.2013-1.329 2.0703h7.363c-.256-.852-.716-1.5336-1.381-2.0448-.648-.5282-1.423-.7923-2.326-.7923ZM134.932 27.6956c-1.329 0-2.522-.2897-3.578-.8691-1.057-.5964-1.884-1.4143-2.48-2.4537-.58-1.0565-.869-2.2493-.869-3.5784 0-1.3292.289-2.5134.869-3.5529.596-1.0565 1.423-1.8744 2.48-2.4537 1.056-.5964 2.249-.8946 3.578-.8946 1.466 0 2.761.3663 3.886 1.099 1.142.7157 1.952 1.7381 2.429 3.0672l-2.761.4601c-.29-.5793-.741-1.0479-1.355-1.4058-.597-.3578-1.27-.5367-2.02-.5367-1.193 0-2.164.3919-2.914 1.1757-.75.7839-1.125 1.7977-1.125 3.0417 0 1.2439.375 2.2578 1.125 3.0416.75.7838 1.721 1.1758 2.914 1.1758.784 0 1.483-.179 2.097-.5368.613-.3749 1.073-.8605 1.38-1.4569l2.761.4601c-.477 1.3461-1.304 2.3856-2.48 3.1183-1.176.7327-2.488 1.0991-3.937 1.0991ZM149.639 27.6956c-1.33 0-2.523-.2897-3.579-.8691-1.057-.5964-1.884-1.4143-2.48-2.4537-.58-1.0565-.869-2.2493-.869-3.5784 0-1.3292.289-2.5134.869-3.5529.596-1.0565 1.423-1.8744 2.48-2.4537 1.056-.5964 2.249-.8946 3.579-.8946 1.465 0 2.76.3663 3.885 1.099 1.142.7157 1.952 1.7381 2.429 3.0672l-2.761.4601c-.29-.5793-.741-1.0479-1.355-1.4058-.596-.3578-1.27-.5367-2.019-.5367-1.193 0-2.165.3919-2.915 1.1757-.75.7839-1.125 1.7977-1.125 3.0417 0 1.2439.375 2.2578 1.125 3.0416.75.7838 1.722 1.1758 2.915 1.1758.783 0 1.482-.179 2.096-.5368.613-.3749 1.073-.8605 1.38-1.4569l2.761.4601c-.477 1.3461-1.304 2.3856-2.48 3.1183-1.176.7327-2.488 1.0991-3.936 1.0991ZM171.221 20.641c0 .2556-.017.5708-.051.9457h-10.686c.137 1.0395.563 1.8744 1.279 2.5049.715.6134 1.627.9202 2.735.9202.75 0 1.423-.1449 2.02-.4346.613-.2896 1.082-.6816 1.406-1.1757l2.761.4601c-.478 1.2268-1.304 2.1726-2.48 2.8371-1.159.6646-2.454.9969-3.886.9969-1.329 0-2.522-.2897-3.579-.8691-1.039-.5964-1.858-1.4143-2.454-2.4537-.579-1.0565-.869-2.2493-.869-3.5784 0-1.3292.29-2.5134.869-3.5529.596-1.0565 1.415-1.8744 2.454-2.4537 1.057-.5964 2.25-.8946 3.579-.8946 1.329 0 2.514.2982 3.553.8946 1.057.5793 1.875 1.3887 2.455 2.4282.596 1.0224.894 2.164.894 3.425Zm-6.902-4.1918c-.886 0-1.662.2556-2.326.7668-.648.5112-1.091 1.2013-1.33 2.0703h7.363c-.256-.852-.716-1.5336-1.381-2.0448-.647-.5282-1.423-.7923-2.326-.7923ZM182.485 19.3886v-5.2398h2.94V27.44h-2.94v-5.3676h-5.956V27.44h-2.94V14.1488h2.94v5.2398h5.956ZM187.413 31.4018v-6.6456h.332c1.364 0 2.165-1.2695 2.404-3.8085l.664-6.7989h9.74v10.6074h2.301v6.6456h-2.94V27.44h-9.561v3.9618h-2.94Zm10.2-6.6456v-7.9236h-4.09l-.409 4.064c-.102 1.0394-.247 1.8574-.435 2.4538-.187.5964-.451 1.065-.792 1.4058h5.726ZM223.955 27.44h-3.732l-4.244-5.291h-.69v5.291h-2.812v-5.291h-.69l-4.244 5.291h-3.732l5.649-6.9012-5.138-6.39h3.375l4.039 5.1631h.741v-5.1631h2.812v5.1631h.741l4.04-5.1631h3.374l-5.138 6.39 5.649 6.9012ZM238.234 20.641c0 .2556-.017.5708-.051.9457h-10.686c.137 1.0395.563 1.8744 1.279 2.5049.715.6134 1.627.9202 2.735.9202.75 0 1.423-.1449 2.019-.4346.614-.2896 1.083-.6816 1.406-1.1757l2.761.4601c-.477 1.2268-1.303 2.1726-2.479 2.8371-1.159.6646-2.455.9969-3.886.9969-1.329 0-2.522-.2897-3.579-.8691-1.04-.5964-1.858-1.4143-2.454-2.4537-.58-1.0565-.869-2.2493-.869-3.5784 0-1.3292.289-2.5134.869-3.5529.596-1.0565 1.414-1.8744 2.454-2.4537 1.057-.5964 2.25-.8946 3.579-.8946 1.329 0 2.514.2982 3.553.8946 1.057.5793 1.875 1.3887 2.454 2.4282.597 1.0224.895 2.164.895 3.425Zm-6.902-4.1918c-.886 0-1.662.2556-2.326.7668-.648.5112-1.091 1.2013-1.33 2.0703h7.363c-.256-.852-.716-1.5336-1.381-2.0448-.647-.5282-1.423-.7923-2.326-.7923ZM240.602 32.6798v-18.531h2.198l.614 2.147c.545-.6646 1.244-1.2269 2.096-1.687.852-.4771 1.832-.7156 2.94-.7156 1.244 0 2.36.2982 3.349.8946.988.5793 1.755 1.3972 2.3 2.4537.563 1.0395.844 2.2237.844 3.5529 0 1.3291-.281 2.5219-.844 3.5784-.545 1.0394-1.312 1.8573-2.3 2.4537-.989.5794-2.105.8691-3.349.8691-1.074 0-2.028-.213-2.863-.639-.835-.4431-1.517-.9884-2.045-1.6359v7.2591h-2.94Zm7.132-7.6169c1.227 0 2.224-.3919 2.991-1.1758.767-.8009 1.15-1.8318 1.15-3.0927 0-1.261-.383-2.2834-1.15-3.0672-.767-.8009-1.764-1.2014-2.991-1.2014-1.244 0-2.258.4005-3.042 1.2014-.767.7838-1.15 1.8062-1.15 3.0672 0 1.2609.383 2.2918 1.15 3.0927.784.7839 1.798 1.1758 3.042 1.1758Z"/>
  <g clip-path="url(#a)">
    <path fill="#07F" d="M0 17.1148c0-8.068 0-12.102 2.5063-14.6084C5.0127 0 9.0467 0 17.1147 0h1.7705c8.068 0 12.1019 0 14.6083 2.5064 2.5064 2.5064 2.5064 6.5404 2.5064 14.6084v1.7704c0 8.068 0 12.102-2.5064 14.6084C30.9871 36 26.9532 36 18.8852 36h-1.7705c-8.068 0-12.102 0-14.6084-2.5064C0 30.9872 0 26.9532 0 18.8852v-1.7704Z"/>
    <mask id="b" width="36" height="36" x="0" y="0" maskUnits="userSpaceOnUse" style="mask-type:alpha">
      <path fill="#313131" d="M0 17.1148c0-8.068 0-12.102 2.5063-14.6084C5.0127 0 9.0467 0 17.1147 0h1.7705c8.068 0 12.1019 0 14.6083 2.5064 2.5064 2.5064 2.5064 6.5404 2.5064 14.6084v1.7704c0 8.068 0 12.102-2.5064 14.6084C30.9871 36 26.9532 36 18.8852 36h-1.7705c-8.068 0-12.102 0-14.6084-2.5064C0 30.9872 0 26.9532 0 18.8852v-1.7704Z"/>
    </mask>
    <g mask="url(#b)">
      <path fill="#00EAFF" fill-rule="evenodd" d="M39.9534 13.3197c.5307-1.7164.8166-3.5404.8166-5.4311 0-10.14-8.2201-18.36-18.36-18.36-10.14 0-18.36 8.22-18.36 18.36 0 9.4804 7.1855 17.2826 16.4076 18.2574v5.3544c9.5993-1.5624 17.2889-8.8136 19.4958-18.1807Z" clip-rule="evenodd"/>
      <circle cx="12.2334" cy="10.5772" r="2.7835" fill="#fff"/>
      <circle cx="20.5839" cy="10.5772" r="2.7835" fill="#fff"/>
      <circle cx="28.9348" cy="10.5772" r="2.7835" fill="#fff"/>
    </g>
  </g>
  <defs>
    <clipPath id="a">
      <path fill="#fff" d="M0 0h36v36H0z"/>
    </clipPath>
  </defs>
</svg>