<?xml version="1.0" encoding="UTF-8"?>
<svg height="128px" viewBox="0 0 128 128" width="128px" xmlns="http://www.w3.org/2000/svg" xmlns:xlink="http://www.w3.org/1999/xlink">
    <filter id="a" height="100%" width="100%" x="0%" y="0%">
        <feColorMatrix in="SourceGraphic" type="matrix" values="0 0 0 0 1 0 0 0 0 1 0 0 0 0 1 0 0 0 1 0"/>
    </filter>
    <mask id="b">
        <g filter="url(#a)">
            <rect fill-opacity="0.2" height="128" width="128"/>
        </g>
    </mask>
    <clipPath id="c">
        <rect height="152" width="192"/>
    </clipPath>
    <mask id="d">
        <g filter="url(#a)">
            <rect fill-opacity="0.2" height="128" width="128"/>
        </g>
    </mask>
    <clipPath id="e">
        <rect height="152" width="192"/>
    </clipPath>
    <mask id="f">
        <g filter="url(#a)">
            <rect fill-opacity="0.3" height="128" width="128"/>
        </g>
    </mask>
    <clipPath id="g">
        <rect height="152" width="192"/>
    </clipPath>
    <path d="m 48 80 h -16 v 18 l 16 16 l 8 -18 z m 0 0" fill="#bf9ae5"/>
    <path d="m 80 80 l -24 8 l -8 24 v 2 l 10.34375 10.34375 c 3.132812 3.132812 8.179688 3.132812 11.3125 0 l 26.359375 -26.355469 l -0.003906 -2 l -2.011719 -13.988281 z m 0 0" fill="#50d0e6"/>
    <path d="m 48 48 l 4 -12 l 12 -4 l 8 16 l -8 16 l -14 -2 z m 0 0" fill="#21a57e"/>
    <path d="m 80 80 l 16.011719 15.988281 l 7.988281 -15.988281 l -8 -16 l -12 4 z m 0 0" fill="#ffcd48"/>
    <path d="m 64 64 l 8 -24 l 24 -8 l 8 20 l -8 12 l -16 16 h -16 z m 0 0" fill="#ffaa00"/>
    <path d="m 80 80 l -32 32 v -32 l 4 -12 l 12 -4 z m 0 0" fill="#bee8f6"/>
    <path d="m 64 32 l 4 -13 l 12 -3 l 16 16 l -32 32 z m 0 0" fill="#2ec299"/>
    <path d="m 32.03125 31.96875 l -13.398438 13.398438 l -13.285156 13.320312 c -1.355468 1.515625 -2.035156 3.410156 -2.03125 5.3125 h -0.003906 v 2 h 0.003906 c -0.003906 2.046875 0.773438 4.089844 2.339844 5.65625 l 10.34375 10.34375 v -2 l 24 -8 l 8 -24 l -4 -12 z m 0 0" fill="#6746d6"/>
    <path d="m 64 3.308594 c -2.046875 0 -4.089844 0.78125 -5.65625 2.347656 l -26.34375 26.34375 l 16 8 l 16 -8 l 15.988281 -16.011719 l -10.332031 -10.332031 c -1.566406 -1.566406 -3.609375 -2.347656 -5.65625 -2.347656 z m 0 0" fill="#f8e859"/>
    <path d="m 96 32 l -0.066406 33.902344 l 16.082031 16.082031 l 10.328125 -10.328125 c 1.566406 -1.566406 2.34375 -3.609375 2.34375 -5.65625 v -2 c 0 -2.046875 -0.777344 -4.089844 -2.34375 -5.65625 z m 0 0" fill="#e7375f"/>
    <g clip-path="url(#c)" mask="url(#b)">
        <path d="m 64 32 l 16 16 l 16 -16 l -16 -16 z m 0 0" fill="#ffffff"/>
    </g>
    <path d="m 32 32 l 16 16 l 16 -16 z m 0 0" fill="#eec40a"/>
    <path d="m 96 64 l 0.015625 33.988281 l 15.984375 -15.988281 v -1.980469 z m 0 0" fill="#f87d9e"/>
    <path d="m 32.023438 63.976562 l -16.023438 16.023438 v 2 l 16 16 v -2 l 16 -16 l -4 -12 z m 0 0" fill="#8d60d8"/>
    <path d="m 64 64 l -16 16 l -15.976562 -16.023438 l 15.976562 -7.976562 z m 0 0" fill="#5dc2f3"/>
    <path d="m 64 64 l -16 -16 l -16 16 z m 0 0" fill="#1c8dd3"/>
    <g clip-path="url(#e)" mask="url(#d)">
        <path d="m 3.3125 64 v 2 h 0.003906 c -0.003906 2.046875 0.773438 4.089844 2.339844 5.65625 l 52.6875 52.6875 c 3.132812 3.132812 8.179688 3.132812 11.3125 0 l 52.6875 -52.6875 c 1.566406 -1.566406 2.34375 -3.609375 2.34375 -5.65625 v -2 c 0 2.046875 -0.777344 4.089844 -2.34375 5.65625 l -52.6875 52.6875 c -3.132812 3.132812 -8.179688 3.132812 -11.3125 0 l -52.6875 -52.6875 c -1.566406 -1.566406 -2.34375 -3.609375 -2.339844 -5.65625 z m 0 0"/>
    </g>
    <g clip-path="url(#g)" mask="url(#f)">
        <path d="m 176 24 v 6 l 6 -6 z m 0 0" fill="#241f31"/>
    </g>
</svg>
