<?xml version="1.0" encoding="utf-8"?>
<svg version="1.0" width="1024.000000pt" height="1024.000000pt" viewBox="102.529 104.913 818.942 821.327" preserveAspectRatio="xMidYMid meet" xmlns="http://www.w3.org/2000/svg">
  <defs>
    <linearGradient id="grad1" x1="0%" y1="0%" x2="0%" y2="100%">
      <stop offset="0" style="stop-color:#5c2b8c;stop-opacity:1"/>
      <stop offset="1" style="stop-color:#993cb3;stop-opacity:1"/>
    </linearGradient>
  </defs>
  <rect x="160.138" y="156.572" width="704.573" height="707.63" style="fill: rgb(255, 255, 255);"/>
  <g transform="translate(0.000000,1024.000000) scale(0.100000,-0.100000)" fill="url(#grad1)" stroke="none">
    <path d="M3385 9199 c-640 -6 -728 -12 -967 -63 -686 -145 -1200 -655 -1347 -1339 -66 -304 -75 -736 -67 -3030 6 -1654 11 -1956 36 -2152 59 -457 229 -809 531 -1101 338 -325 723 -472 1320 -503 203 -11 4268 -11 4473 0 597 31 996 189 1336 529 143 143 230 264 320 445 146 295 191 518 211 1040 15 390 6 4298 -9 4450 -19 183 -42 315 -73 425 -16 58 -32 112 -36 120 -3 8 -7 20 -8 26 -9 41 -95 215 -150 302 -260 415 -632 677 -1117 786 -229 52 -328 58 -968 65 -738 9 -2682 9 -3485 0z m1965 -729 c1242 -88 2321 -817 2861 -1935 216 -448 322 -885 336 -1390 9 -337 -21 -620 -99 -929 -195 -779 -644 -1449 -1295 -1933 -234 -174 -556 -350 -818 -447 -153 -57 -220 -63 -280 -26 -72 45 -69 16 -76 685 -5 579 -6 603 -27 680 -30 108 -89 227 -147 298 -26 32 -46 59 -44 61 2 1 62 10 134 20 252 35 454 95 650 191 510 252 764 729 766 1443 1 92 -4 205 -11 250 -30 218 -133 459 -265 623 -27 34 -54 68 -60 75 -6 8 -3 31 8 66 71 229 60 535 -31 798 -17 48 -23 55 -53 62 -56 13 -206 -10 -324 -49 -130 -43 -350 -153 -488 -242 l-99 -64 -131 31 c-473 111 -1000 110 -1479 -4 l-107 -25 -115 70 c-301 184 -556 281 -743 281 l-84 0 -16 -37 c-30 -73 -73 -267 -83 -375 -11 -130 1 -279 31 -394 12 -43 23 -86 25 -94 2 -8 -23 -49 -56 -90 -208 -257 -304 -578 -286 -955 16 -323 67 -552 171 -773 63 -133 126 -223 234 -334 226 -235 543 -381 966 -448 77 -12 150 -24 163 -26 22 -5 21 -7 -25 -58 -27 -29 -63 -79 -80 -112 -33 -62 -83 -219 -83 -261 0 -20 -10 -28 -52 -47 -98 -43 -224 -69 -338 -69 -267 0 -443 106 -617 371 -152 232 -364 365 -555 349 -90 -8 -127 -28 -128 -70 0 -26 74 -101 144 -146 119 -75 250 -245 342 -441 88 -186 99 -204 174 -281 86 -87 188 -144 325 -180 138 -37 397 -38 643 -2 l43 6 -3 -351 c-3 -338 -4 -352 -24 -379 -67 -90 -151 -97 -337 -27 -456 173 -862 438 -1217 793 -176 176 -292 316 -419 506 -309 461 -490 954 -563 1535 -20 159 -17 641 5 800 91 655 329 1220 720 1710 707 886 1797 1368 2917 1290z"/>
  </g>
</svg>