<?xml version="1.0" encoding="utf-8"?>
<svg viewBox="0 0 120 120" xmlns="http://www.w3.org/2000/svg">
  <ellipse style="fill: rgb(87, 101, 242);" cx="60" cy="60" rx="60" ry="60"/>
  <g fill="#fff" transform="matrix(0.6, 0, 0, 0.6, 26, 28)" style="">
    <path d="M 101.686 10.647 C 93.333 6.823 84.515 4.11 75.456 2.577 C 74.217 4.793 73.095 7.073 72.096 9.407 C 62.447 7.953 52.635 7.953 42.986 9.407 C 41.987 7.073 40.865 4.793 39.626 2.577 C 30.562 4.123 21.738 6.842 13.376 10.667 C -3.224 35.227 -7.724 59.177 -5.474 82.787 C 4.248 89.97 15.129 95.432 26.696 98.937 C 29.301 95.434 31.606 91.718 33.586 87.827 C 29.825 86.422 26.194 84.689 22.736 82.647 C 23.646 81.987 24.536 81.307 25.396 80.647 C 45.766 90.227 69.346 90.227 89.716 80.647 C 90.586 81.357 91.476 82.037 92.376 82.647 C 88.912 84.692 85.275 86.429 81.506 87.837 C 83.484 91.726 85.789 95.439 88.396 98.937 C 99.974 95.446 110.863 89.987 120.586 82.797 C 123.226 55.417 116.076 31.687 101.686 10.647 Z M 36.436 68.267 C 30.166 68.267 24.986 62.577 24.986 55.577 C 24.986 48.577 29.986 42.837 36.416 42.837 C 42.846 42.837 47.986 48.577 47.876 55.577 C 47.766 62.577 42.826 68.267 36.436 68.267 Z M 78.676 68.267 C 72.396 68.267 67.236 62.577 67.236 55.577 C 67.236 48.577 72.236 42.837 78.676 42.837 C 85.116 42.837 90.216 48.577 90.106 55.577 C 89.996 62.577 85.066 68.267 78.676 68.267 Z"/>
  </g>
</svg>