<?xml version="1.0" encoding="UTF-8" standalone="no"?>
<svg enable-background="new" height="128" viewBox="0 0 128 128" width="128" xmlns="http://www.w3.org/2000/svg" xmlns:xlink="http://www.w3.org/1999/xlink" xmlns:dc="http://purl.org/dc/elements/1.1/" xmlns:cc="http://creativecommons.org/ns#" xmlns:rdf="http://www.w3.org/1999/02/22-rdf-syntax-ns#" xmlns:svg="http://www.w3.org/2000/svg">
    <linearGradient id="a" gradientUnits="userSpaceOnUse">
        <stop offset="0" stop-color="#deddda"/>
        <stop offset="0.04545455" stop-color="#eeeeec"/>
        <stop offset="0.09090909" stop-color="#deddda"/>
        <stop offset="0.90909094" stop-color="#deddda"/>
        <stop offset="0.95454544" stop-color="#eeeeec"/>
        <stop offset="1" stop-color="#c0bfbc"/>
    </linearGradient>
    <linearGradient id="b" x1="20" x2="108" xlink:href="#a" y1="238" y2="238"/>
    <linearGradient id="c" x1="52" x2="76" xlink:href="#a" y1="216" y2="216"/>
    <linearGradient id="d" gradientUnits="userSpaceOnUse" x1="65" x2="65" y1="204" y2="200">
        <stop offset="0" stop-color="#9a9996"/>
        <stop offset="1" stop-color="#c0bfbc"/>
    </linearGradient>
    <g transform="matrix(1 0 0 1 0 -172)">
        <rect fill="url(#b)" height="58" rx="8.77259" ry="8.017911" width="88" x="20" y="234"/>
        <rect fill="#f6f5f4" height="108" rx="8.77259" ry="8.017911" width="88" x="20" y="180"/>
        <rect fill="#1a5fb4" height="98" rx="4" ry="4.002173" width="80" x="24" y="186"/>
        <rect fill="#3584e4" height="98" rx="4" ry="4.002173" width="80" x="24" y="184"/>
        <rect fill="#1c71d8" height="2" rx="0" width="80" x="24" y="216"/>
        <rect fill="#1c71d8" height="2" rx="0" width="80" x="24" y="248"/>
        <g id="e">
            <path d="m 55 196 h 18 c 1.662 0 3 1 3 3 v 5 h -3.96875 l -0.03125 -4 h -16 l 0.03125 4 h -4.03125 v -5 c 0 -1.662 1.338 -3 3 -3 z" fill="url(#c)" vector-effect="none" paint-order="normal"/>
            <rect height="4" opacity="0.1" ry="1.5" width="24" x="52" y="202"/>
            <path d="m 55 200 c -1.662 0 -3 1.338 -3 3 v 1 h 4 v -2 h 16 v 2 h 4 v -1 c 0 -1.662 -1.338 -3 -3 -3 z" fill="url(#d)"/>
            <rect height="2" opacity="0.1" width="16" x="56" y="202"/>
        </g>
        <use height="100%" transform="matrix(1 0 0 1 0 32)" width="100%" xlink:href="#e"/>
        <use height="100%" transform="matrix(1 0 0 1 0 64)" width="100%" xlink:href="#e"/>
    </g>
</svg>
