<?xml version="1.0" encoding="utf-8"?>
<svg version="1.0" width="382.000000pt" height="382.000000pt" viewBox="0 0 382.000000 382.000000" preserveAspectRatio="xMidYMid meet" xmlns="http://www.w3.org/2000/svg">
  <path style="fill: rgb(255, 255, 255);" d="M 121.723 58.786 L 123.256 57.302 L 139.532 40.977 L 183.231 84.709 L 146.821 84.066 L 121.723 58.786 Z"/>
  <rect x="122.857" y="77.079" width="125.915" height="235.583" style="fill: rgb(255, 255, 255);"/>
  <rect x="196.984" y="125.82" width="114.237" height="139.624" style="fill: rgb(255, 255, 255);"/>
  <g transform="translate(0.000000,382.000000) scale(0.100000,-0.100000)" fill="rgb(240, 80, 51)" stroke="none">
    <path d="M1800 3800 c-19 -10 -118 -102 -220 -204 l-185 -186 218 -218 218 -218 49 10 c186 38 368 -147 333 -339 l-9 -54 203 -203 203 -203 98 0 c89 0 101 -2 151 -30 50 -28 104 -83 130 -132 26 -50 33 -130 17 -194 -54 -209 -282 -294 -459 -172 -54 37 -95 101 -113 176 -14 56 -14 70 -2 120 l15 56 -194 193 -193 193 0 -512 0 -511 63 -64 c50 -50 67 -75 81 -122 33 -106 6 -216 -74 -296 -59 -59 -119 -84 -205 -84 -89 -1 -166 34 -224 100 -117 133 -87 345 64 440 l45 29 0 521 0 521 -48 30 c-53 33 -106 105 -123 167 -11 40 -8 147 5 176 4 11 -58 79 -209 230 l-215 215 -586 -585 c-347 -347 -594 -601 -606 -625 -31 -57 -30 -155 0 -215 32 -62 1721 -1749 1784 -1781 50 -26 132 -30 193 -10 33 11 195 168 908 880 585 584 874 879 887 907 28 56 27 160 -1 217 -29 59 -1717 1747 -1776 1776 -56 28 -172 29 -223 1z"/>
  </g>
</svg>