<?xml version="1.0" encoding="utf-8"?>
<svg viewBox="0 0 500.1016 500" xmlns="http://www.w3.org/2000/svg">
  <path d="M 406.25 46.875 L 406.25 453.125 C 406.25 479.014 385.264 500 359.375 500 L 140.625 500 C 114.736 500 93.75 479.014 93.75 453.125 L 93.75 46.875 C 93.75 20.986 114.736 0 140.625 0 L 359.375 0 C 385.264 0 406.25 20.986 406.25 46.875 Z M 500 103.516 L 500 115.234 C 500 118.471 497.377 121.094 494.141 121.094 L 476.563 121.094 L 476.563 126.953 C 476.563 130.189 473.94 132.812 470.703 132.812 L 429.688 132.812 L 429.688 85.937 L 470.703 85.937 C 473.94 85.937 476.563 88.561 476.563 91.797 L 476.563 97.656 L 494.141 97.656 C 497.377 97.656 500 100.279 500 103.516 Z M 500 197.266 L 500 208.984 C 500 212.221 497.377 214.844 494.141 214.844 L 476.563 214.844 L 476.563 220.703 C 476.563 223.939 473.94 226.563 470.703 226.563 L 429.688 226.563 L 429.688 179.688 L 470.703 179.688 C 473.94 179.688 476.563 182.311 476.563 185.547 L 476.563 191.406 L 494.141 191.406 C 497.377 191.406 500 194.029 500 197.266 Z M 500 291.016 L 500 302.734 C 500 305.971 497.377 308.594 494.141 308.594 L 476.563 308.594 L 476.563 314.453 C 476.563 317.689 473.94 320.313 470.703 320.313 L 429.688 320.313 L 429.688 273.438 L 470.703 273.438 C 473.94 273.438 476.563 276.061 476.563 279.297 L 476.563 285.156 L 494.141 285.156 C 497.377 285.156 500 287.779 500 291.016 Z M 500 384.766 L 500 396.484 C 500 399.721 497.377 402.344 494.141 402.344 L 476.563 402.344 L 476.563 408.203 C 476.563 411.439 473.94 414.063 470.703 414.063 L 429.688 414.063 L 429.688 367.188 L 470.703 367.188 C 473.94 367.188 476.563 369.811 476.563 373.047 L 476.563 378.906 L 494.141 378.906 C 497.377 378.906 500 381.529 500 384.766 Z M 29.297 367.188 L 70.312 367.188 L 70.312 414.063 L 29.297 414.063 C 26.061 414.063 23.437 411.439 23.437 408.203 L 23.437 402.344 L 5.859 402.344 C 2.623 402.344 0 399.721 0 396.484 L 0 384.766 C 0 381.529 2.623 378.906 5.859 378.906 L 23.437 378.906 L 23.437 373.047 C 23.437 369.811 26.061 367.188 29.297 367.188 Z M 29.297 273.438 L 70.312 273.438 L 70.312 320.313 L 29.297 320.313 C 26.061 320.313 23.437 317.689 23.437 314.453 L 23.437 308.594 L 5.859 308.594 C 2.623 308.594 0 305.971 0 302.734 L 0 291.016 C 0 287.779 2.623 285.156 5.859 285.156 L 23.437 285.156 L 23.437 279.297 C 23.437 276.061 26.061 273.438 29.297 273.438 Z M 29.297 179.688 L 70.312 179.688 L 70.312 226.563 L 29.297 226.563 C 26.061 226.563 23.437 223.939 23.437 220.703 L 23.437 214.844 L 5.859 214.844 C 2.623 214.844 0 212.221 0 208.984 L 0 197.266 C 0 194.029 2.623 191.406 5.859 191.406 L 23.437 191.406 L 23.437 185.547 C 23.437 182.311 26.061 179.688 29.297 179.688 Z M 29.297 85.937 L 70.312 85.937 L 70.312 132.812 L 29.297 132.812 C 26.061 132.812 23.437 130.189 23.437 126.953 L 23.437 121.094 L 5.859 121.094 C 2.623 121.094 0 118.471 0 115.234 L 0 103.516 C 0 100.279 2.623 97.656 5.859 97.656 L 23.437 97.656 L 23.437 91.797 C 23.437 88.561 26.061 85.937 29.297 85.937 Z" style="" transform="matrix(0, 1, -1, 0, 499.999985, -0.000015)"/>
  <path d="M 58.65 270.26 Q 58.65 274.01 59.78 275.68 Q 60.91 277.35 63.41 278.18 L 60.43 287.23 Q 55.79 286.69 52.42 284.67 Q 49.06 282.64 47.39 278.54 Q 43.94 282.94 38.64 285.12 Q 33.34 287.29 27.33 287.29 Q 17.74 287.29 12.21 281.9 Q 6.67 276.51 6.67 267.76 Q 6.67 257.82 14.41 252.46 Q 22.15 247.1 36.56 247.1 L 45.55 247.1 L 45.55 242.99 Q 45.55 236.86 41.86 234.21 Q 38.16 231.56 31.56 231.56 Q 28.46 231.56 24.05 232.36 Q 19.65 233.17 14.83 234.84 L 11.55 225.43 Q 17.44 223.23 23.1 222.18 Q 28.76 221.14 33.58 221.14 Q 46.2 221.14 52.42 226.74 Q 58.65 232.33 58.65 242.22 Z M 31.38 277.46 Q 35.43 277.46 39.3 275.32 Q 43.17 273.18 45.55 269.31 L 45.55 255.44 L 38.16 255.44 Q 28.76 255.44 24.71 258.56 Q 20.66 261.69 20.66 267.16 Q 20.66 277.46 31.38 277.46 Z M 129.51 270.26 Q 129.51 274.01 130.64 275.68 Q 131.77 277.35 134.27 278.18 L 131.3 287.23 Q 126.65 286.69 123.29 284.67 Q 119.93 282.64 118.26 278.54 Q 114.81 282.94 109.51 285.12 Q 104.21 287.29 98.19 287.29 Q 88.61 287.29 83.07 281.9 Q 77.53 276.51 77.53 267.76 Q 77.53 257.82 85.27 252.46 Q 93.01 247.1 107.42 247.1 L 116.41 247.1 L 116.41 242.99 Q 116.41 236.86 112.72 234.21 Q 109.03 231.56 102.42 231.56 Q 99.33 231.56 94.92 232.36 Q 90.51 233.17 85.69 234.84 L 82.42 225.43 Q 88.31 223.23 93.97 222.18 Q 99.62 221.14 104.45 221.14 Q 117.07 221.14 123.29 226.74 Q 129.51 232.33 129.51 242.22 Z M 102.24 277.46 Q 106.29 277.46 110.16 275.32 Q 114.03 273.18 116.41 269.31 L 116.41 255.44 L 109.03 255.44 Q 99.62 255.44 95.57 258.56 Q 91.53 261.69 91.53 267.16 Q 91.53 277.46 102.24 277.46 Z M 152.93 285.68 L 152.93 276.15 L 162.15 276.15 L 162.15 232.27 L 152.93 232.27 L 152.93 222.81 L 172.34 222.81 L 174.78 237.4 Q 178.29 229.48 183.5 225.34 Q 188.71 221.2 196.92 221.2 Q 199.72 221.2 201.96 221.65 Q 204.19 222.09 206.39 222.81 L 204.13 245.97 L 194.6 245.97 L 194.6 233.17 Q 187.93 233.41 183.11 238.5 Q 178.29 243.59 175.49 252.82 L 175.49 276.15 L 188.17 276.15 L 188.17 285.68 Z M 253.5 276.33 Q 257.91 276.33 261.72 274.79 Q 265.53 273.24 268.98 270.86 L 275.17 279.43 Q 271.07 282.94 265.2 285.12 Q 259.34 287.29 253.08 287.29 Q 243.44 287.29 236.56 283.21 Q 229.69 279.13 226.08 271.78 Q 222.48 264.43 222.48 254.54 Q 222.48 244.96 226.14 237.43 Q 229.81 229.89 236.71 225.52 Q 243.62 221.14 253.32 221.14 Q 265.94 221.14 275.11 228.7 L 268.98 237.1 Q 265.29 234.54 261.42 233.2 Q 257.55 231.86 253.56 231.86 Q 246.06 231.86 241.36 237.34 Q 236.65 242.81 236.65 254.54 Q 236.65 266.33 241.42 271.33 Q 246.18 276.33 253.5 276.33 Z M 307.4 196.25 L 307.4 230.49 Q 311.21 225.84 316.3 223.49 Q 321.39 221.14 326.87 221.14 Q 335.74 221.14 340.09 226.08 Q 344.43 231.02 344.43 239.84 L 344.43 285.68 L 331.1 285.68 L 331.1 241.92 Q 331.1 236.26 328.95 233.79 Q 326.81 231.32 322.05 231.32 Q 317.58 231.32 313.77 234.21 Q 309.96 237.1 307.4 240.73 L 307.4 285.68 L 294.06 285.68 L 294.06 197.68 Z M 394.94 201.85 Q 399.94 201.85 404.13 203.19 Q 408.33 204.53 411.84 206.85 L 406.66 215.43 Q 401.37 211.97 395 211.97 Q 386.54 211.97 381.54 219.8 Q 376.54 227.63 376.06 241.27 Q 379.93 236.14 384.73 233.85 Q 389.52 231.56 394.94 231.56 Q 401.31 231.56 406.58 234.51 Q 411.84 237.45 415 243.32 Q 418.16 249.18 418.16 257.94 Q 418.16 266.75 414.61 273.36 Q 411.07 279.97 404.94 283.63 Q 398.81 287.29 391.01 287.29 Q 380.71 287.29 374.42 282.17 Q 368.14 277.05 365.29 268.06 Q 362.43 259.07 362.43 247.46 Q 362.43 233.76 366.33 223.49 Q 370.23 213.22 377.49 207.54 Q 384.75 201.85 394.94 201.85 Z M 392.14 241.56 Q 387.26 241.56 383.18 244.18 Q 379.1 246.8 376.18 251.15 Q 376.42 264.49 379.84 270.83 Q 383.27 277.17 391.07 277.17 Q 397.91 277.17 401.28 272.02 Q 404.64 266.87 404.64 258.53 Q 404.64 249.06 401.25 245.31 Q 397.85 241.56 392.14 241.56 Z M 479.5 234.42 L 479.5 256.39 L 489.26 256.39 L 489.26 266.75 L 479.5 266.75 L 479.5 285.68 L 466.7 285.68 L 466.64 266.75 L 432.52 266.75 L 432.52 257.46 L 456.16 201.85 L 467.41 206.32 L 446.45 256.39 L 466.7 256.39 L 468.3 234.42 Z" style="fill: rgb(255, 255, 255);"/>
</svg>