<?xml version="1.0" encoding="utf-8"?>
<svg viewBox="0 0 500.1016 500" xmlns="http://www.w3.org/2000/svg">
  <path d="M 406.25 46.875 L 406.25 453.125 C 406.25 479.014 385.264 500 359.375 500 L 140.625 500 C 114.736 500 93.75 479.014 93.75 453.125 L 93.75 46.875 C 93.75 20.986 114.736 0 140.625 0 L 359.375 0 C 385.264 0 406.25 20.986 406.25 46.875 Z M 500 103.516 L 500 115.234 C 500 118.471 497.377 121.094 494.141 121.094 L 476.563 121.094 L 476.563 126.953 C 476.563 130.189 473.94 132.812 470.703 132.812 L 429.688 132.812 L 429.688 85.937 L 470.703 85.937 C 473.94 85.937 476.563 88.561 476.563 91.797 L 476.563 97.656 L 494.141 97.656 C 497.377 97.656 500 100.279 500 103.516 Z M 500 197.266 L 500 208.984 C 500 212.221 497.377 214.844 494.141 214.844 L 476.563 214.844 L 476.563 220.703 C 476.563 223.939 473.94 226.563 470.703 226.563 L 429.688 226.563 L 429.688 179.688 L 470.703 179.688 C 473.94 179.688 476.563 182.311 476.563 185.547 L 476.563 191.406 L 494.141 191.406 C 497.377 191.406 500 194.029 500 197.266 Z M 500 291.016 L 500 302.734 C 500 305.971 497.377 308.594 494.141 308.594 L 476.563 308.594 L 476.563 314.453 C 476.563 317.689 473.94 320.313 470.703 320.313 L 429.688 320.313 L 429.688 273.438 L 470.703 273.438 C 473.94 273.438 476.563 276.061 476.563 279.297 L 476.563 285.156 L 494.141 285.156 C 497.377 285.156 500 287.779 500 291.016 Z M 500 384.766 L 500 396.484 C 500 399.721 497.377 402.344 494.141 402.344 L 476.563 402.344 L 476.563 408.203 C 476.563 411.439 473.94 414.063 470.703 414.063 L 429.688 414.063 L 429.688 367.188 L 470.703 367.188 C 473.94 367.188 476.563 369.811 476.563 373.047 L 476.563 378.906 L 494.141 378.906 C 497.377 378.906 500 381.529 500 384.766 Z M 29.297 367.188 L 70.312 367.188 L 70.312 414.063 L 29.297 414.063 C 26.061 414.063 23.437 411.439 23.437 408.203 L 23.437 402.344 L 5.859 402.344 C 2.623 402.344 0 399.721 0 396.484 L 0 384.766 C 0 381.529 2.623 378.906 5.859 378.906 L 23.437 378.906 L 23.437 373.047 C 23.437 369.811 26.061 367.188 29.297 367.188 Z M 29.297 273.438 L 70.312 273.438 L 70.312 320.313 L 29.297 320.313 C 26.061 320.313 23.437 317.689 23.437 314.453 L 23.437 308.594 L 5.859 308.594 C 2.623 308.594 0 305.971 0 302.734 L 0 291.016 C 0 287.779 2.623 285.156 5.859 285.156 L 23.437 285.156 L 23.437 279.297 C 23.437 276.061 26.061 273.438 29.297 273.438 Z M 29.297 179.688 L 70.312 179.688 L 70.312 226.563 L 29.297 226.563 C 26.061 226.563 23.437 223.939 23.437 220.703 L 23.437 214.844 L 5.859 214.844 C 2.623 214.844 0 212.221 0 208.984 L 0 197.266 C 0 194.029 2.623 191.406 5.859 191.406 L 23.437 191.406 L 23.437 185.547 C 23.437 182.311 26.061 179.688 29.297 179.688 Z M 29.297 85.937 L 70.312 85.937 L 70.312 132.812 L 29.297 132.812 C 26.061 132.812 23.437 130.189 23.437 126.953 L 23.437 121.094 L 5.859 121.094 C 2.623 121.094 0 118.471 0 115.234 L 0 103.516 C 0 100.279 2.623 97.656 5.859 97.656 L 23.437 97.656 L 23.437 91.797 C 23.437 88.561 26.061 85.937 29.297 85.937 Z" style="" transform="matrix(0, 1, -1, 0, 499.999985, -0.000015)"/>
  <path d="M 40.9 276.33 Q 45.31 276.33 49.12 274.79 Q 52.93 273.24 56.38 270.86 L 62.57 279.43 Q 58.47 282.94 52.6 285.12 Q 46.74 287.29 40.49 287.29 Q 30.84 287.29 23.96 283.21 Q 17.09 279.13 13.49 271.78 Q 9.88 264.43 9.88 254.54 Q 9.88 244.96 13.54 237.43 Q 17.21 229.89 24.11 225.52 Q 31.02 221.14 40.72 221.14 Q 53.35 221.14 62.52 228.7 L 56.38 237.1 Q 52.69 234.54 48.82 233.2 Q 44.95 231.86 40.96 231.86 Q 33.46 231.86 28.76 237.34 Q 24.05 242.81 24.05 254.54 Q 24.05 266.33 28.82 271.33 Q 33.58 276.33 40.9 276.33 Z M 94.8 222.81 L 94.8 266.75 Q 94.8 272.34 97.03 274.73 Q 99.27 277.11 103.79 277.11 Q 108.08 277.11 112.07 274.55 Q 116.06 271.99 118.38 268.3 L 118.38 222.81 L 131.71 222.81 L 131.71 285.68 L 120.22 285.68 L 119.39 277.64 Q 115.88 282.35 110.52 284.82 Q 105.16 287.29 99.56 287.29 Q 90.39 287.29 85.93 282.26 Q 81.46 277.23 81.46 268.41 L 81.46 222.81 Z M 152.93 285.68 L 152.93 276.15 L 162.15 276.15 L 162.15 232.27 L 152.93 232.27 L 152.93 222.81 L 172.34 222.81 L 174.78 237.4 Q 178.29 229.48 183.5 225.34 Q 188.71 221.2 196.92 221.2 Q 199.72 221.2 201.96 221.65 Q 204.19 222.09 206.39 222.81 L 204.13 245.97 L 194.6 245.97 L 194.6 233.17 Q 187.93 233.41 183.11 238.5 Q 178.29 243.59 175.49 252.82 L 175.49 276.15 L 188.17 276.15 L 188.17 285.68 Z M 223.79 285.68 L 223.79 276.15 L 233.02 276.15 L 233.02 232.27 L 223.79 232.27 L 223.79 222.81 L 243.2 222.81 L 245.64 237.4 Q 249.16 229.48 254.36 225.34 Q 259.57 221.2 267.79 221.2 Q 270.59 221.2 272.82 221.65 Q 275.05 222.09 277.26 222.81 L 274.99 245.97 L 265.47 245.97 L 265.47 233.17 Q 258.8 233.41 253.98 238.5 Q 249.16 243.59 246.36 252.82 L 246.36 276.15 L 259.04 276.15 L 259.04 285.68 Z M 305.14 258.53 Q 305.73 268.24 310.58 272.58 Q 315.44 276.93 322.28 276.93 Q 326.87 276.93 330.83 275.5 Q 334.79 274.07 338.78 271.45 L 344.55 279.43 Q 340.15 283 334.25 285.15 Q 328.36 287.29 321.63 287.29 Q 311.8 287.29 305.05 283.12 Q 298.29 278.95 294.81 271.51 Q 291.32 264.07 291.32 254.3 Q 291.32 244.84 294.78 237.37 Q 298.23 229.89 304.66 225.52 Q 311.09 221.14 320.02 221.14 Q 332.52 221.14 339.82 229.54 Q 347.11 237.93 347.11 252.58 Q 347.11 254.19 347.02 255.76 Q 346.93 257.34 346.81 258.53 Z M 320.14 231.02 Q 313.89 231.02 309.78 235.49 Q 305.67 239.96 305.08 249.42 L 334.19 249.42 Q 334.01 240.55 330.41 235.79 Q 326.81 231.02 320.14 231.02 Z M 364.93 285.68 L 364.93 222.81 L 376.42 222.81 L 377.43 230.97 Q 381.36 226.2 386.72 223.67 Q 392.08 221.14 397.73 221.14 Q 406.55 221.14 410.92 226.08 Q 415.3 231.02 415.3 239.84 L 415.3 285.68 L 401.96 285.68 L 401.96 246.45 Q 401.96 238.29 400.32 234.81 Q 398.69 231.32 392.97 231.32 Q 388.39 231.32 384.61 234.15 Q 380.83 236.98 378.27 240.55 L 378.27 285.68 Z M 488.31 282.35 Q 484.85 284.55 480.03 285.92 Q 475.21 287.29 469.97 287.29 Q 459.01 287.29 453.33 281.6 Q 447.64 275.92 447.64 266.63 L 447.64 232.51 L 433.65 232.51 L 433.65 222.81 L 447.64 222.81 L 447.64 208.76 L 460.98 207.15 L 460.98 222.81 L 482.18 222.81 L 480.69 232.51 L 460.98 232.51 L 460.98 266.51 Q 460.98 271.57 463.51 274.04 Q 466.04 276.51 471.82 276.51 Q 475.27 276.51 478.16 275.68 Q 481.04 274.84 483.48 273.54 Z" style="fill: rgb(255, 255, 255);"/>
</svg>