<?xml version="1.0" encoding="utf-8"?>
<svg viewBox="0 0 500 500" xmlns="http://www.w3.org/2000/svg">
  <defs/>
  <path d="M 406.25 46.875 L 406.25 453.125 C 406.25 479.014 385.264 500 359.375 500 L 140.625 500 C 114.736 500 93.75 479.014 93.75 453.125 L 93.75 46.875 C 93.75 20.986 114.736 0 140.625 0 L 359.375 0 C 385.264 0 406.25 20.986 406.25 46.875 Z M 500 103.516 L 500 115.234 C 500 118.471 497.377 121.094 494.141 121.094 L 476.563 121.094 L 476.563 126.953 C 476.563 130.189 473.94 132.812 470.703 132.812 L 429.688 132.812 L 429.688 85.937 L 470.703 85.937 C 473.94 85.937 476.563 88.561 476.563 91.797 L 476.563 97.656 L 494.141 97.656 C 497.377 97.656 500 100.279 500 103.516 Z M 500 197.266 L 500 208.984 C 500 212.221 497.377 214.844 494.141 214.844 L 476.563 214.844 L 476.563 220.703 C 476.563 223.939 473.94 226.563 470.703 226.563 L 429.688 226.563 L 429.688 179.688 L 470.703 179.688 C 473.94 179.688 476.563 182.311 476.563 185.547 L 476.563 191.406 L 494.141 191.406 C 497.377 191.406 500 194.029 500 197.266 Z M 500 291.016 L 500 302.734 C 500 305.971 497.377 308.594 494.141 308.594 L 476.563 308.594 L 476.563 314.453 C 476.563 317.689 473.94 320.313 470.703 320.313 L 429.688 320.313 L 429.688 273.438 L 470.703 273.438 C 473.94 273.438 476.563 276.061 476.563 279.297 L 476.563 285.156 L 494.141 285.156 C 497.377 285.156 500 287.779 500 291.016 Z M 500 384.766 L 500 396.484 C 500 399.721 497.377 402.344 494.141 402.344 L 476.563 402.344 L 476.563 408.203 C 476.563 411.439 473.94 414.063 470.703 414.063 L 429.688 414.063 L 429.688 367.188 L 470.703 367.188 C 473.94 367.188 476.563 369.811 476.563 373.047 L 476.563 378.906 L 494.141 378.906 C 497.377 378.906 500 381.529 500 384.766 Z M 29.297 367.188 L 70.312 367.188 L 70.312 414.063 L 29.297 414.063 C 26.061 414.063 23.437 411.439 23.437 408.203 L 23.437 402.344 L 5.859 402.344 C 2.623 402.344 0 399.721 0 396.484 L 0 384.766 C 0 381.529 2.623 378.906 5.859 378.906 L 23.437 378.906 L 23.437 373.047 C 23.437 369.811 26.061 367.188 29.297 367.188 Z M 29.297 273.438 L 70.312 273.438 L 70.312 320.313 L 29.297 320.313 C 26.061 320.313 23.437 317.689 23.437 314.453 L 23.437 308.594 L 5.859 308.594 C 2.623 308.594 0 305.971 0 302.734 L 0 291.016 C 0 287.779 2.623 285.156 5.859 285.156 L 23.437 285.156 L 23.437 279.297 C 23.437 276.061 26.061 273.438 29.297 273.438 Z M 29.297 179.688 L 70.312 179.688 L 70.312 226.563 L 29.297 226.563 C 26.061 226.563 23.437 223.939 23.437 220.703 L 23.437 214.844 L 5.859 214.844 C 2.623 214.844 0 212.221 0 208.984 L 0 197.266 C 0 194.029 2.623 191.406 5.859 191.406 L 23.437 191.406 L 23.437 185.547 C 23.437 182.311 26.061 179.688 29.297 179.688 Z M 29.297 85.937 L 70.312 85.937 L 70.312 132.812 L 29.297 132.812 C 26.061 132.812 23.437 130.189 23.437 126.953 L 23.437 121.094 L 5.859 121.094 C 2.623 121.094 0 118.471 0 115.234 L 0 103.516 C 0 100.279 2.623 97.656 5.859 97.656 L 23.437 97.656 L 23.437 91.797 C 23.437 88.561 26.061 85.937 29.297 85.937 Z" style="transform-box: fill-box; transform-origin: 50% 50%;" transform="matrix(0, 1, -1, 0, -0.000014, 0)"/>
</svg>