<?xml version="1.0" encoding="utf-8"?>
<svg viewBox="0 0 500 500" xmlns="http://www.w3.org/2000/svg">
  <path d="M 406.25 46.875 L 406.25 453.125 C 406.25 479.014 385.264 500 359.375 500 L 140.625 500 C 114.736 500 93.75 479.014 93.75 453.125 L 93.75 46.875 C 93.75 20.986 114.736 0 140.625 0 L 359.375 0 C 385.264 0 406.25 20.986 406.25 46.875 Z M 500 103.516 L 500 115.234 C 500 118.471 497.377 121.094 494.141 121.094 L 476.563 121.094 L 476.563 126.953 C 476.563 130.189 473.94 132.812 470.703 132.812 L 429.688 132.812 L 429.688 85.937 L 470.703 85.937 C 473.94 85.937 476.563 88.561 476.563 91.797 L 476.563 97.656 L 494.141 97.656 C 497.377 97.656 500 100.279 500 103.516 Z M 500 197.266 L 500 208.984 C 500 212.221 497.377 214.844 494.141 214.844 L 476.563 214.844 L 476.563 220.703 C 476.563 223.939 473.94 226.563 470.703 226.563 L 429.688 226.563 L 429.688 179.688 L 470.703 179.688 C 473.94 179.688 476.563 182.311 476.563 185.547 L 476.563 191.406 L 494.141 191.406 C 497.377 191.406 500 194.029 500 197.266 Z M 500 291.016 L 500 302.734 C 500 305.971 497.377 308.594 494.141 308.594 L 476.563 308.594 L 476.563 314.453 C 476.563 317.689 473.94 320.313 470.703 320.313 L 429.688 320.313 L 429.688 273.438 L 470.703 273.438 C 473.94 273.438 476.563 276.061 476.563 279.297 L 476.563 285.156 L 494.141 285.156 C 497.377 285.156 500 287.779 500 291.016 Z M 500 384.766 L 500 396.484 C 500 399.721 497.377 402.344 494.141 402.344 L 476.563 402.344 L 476.563 408.203 C 476.563 411.439 473.94 414.063 470.703 414.063 L 429.688 414.063 L 429.688 367.188 L 470.703 367.188 C 473.94 367.188 476.563 369.811 476.563 373.047 L 476.563 378.906 L 494.141 378.906 C 497.377 378.906 500 381.529 500 384.766 Z M 29.297 367.188 L 70.312 367.188 L 70.312 414.063 L 29.297 414.063 C 26.061 414.063 23.437 411.439 23.437 408.203 L 23.437 402.344 L 5.859 402.344 C 2.623 402.344 0 399.721 0 396.484 L 0 384.766 C 0 381.529 2.623 378.906 5.859 378.906 L 23.437 378.906 L 23.437 373.047 C 23.437 369.811 26.061 367.188 29.297 367.188 Z M 29.297 273.438 L 70.312 273.438 L 70.312 320.313 L 29.297 320.313 C 26.061 320.313 23.437 317.689 23.437 314.453 L 23.437 308.594 L 5.859 308.594 C 2.623 308.594 0 305.971 0 302.734 L 0 291.016 C 0 287.779 2.623 285.156 5.859 285.156 L 23.437 285.156 L 23.437 279.297 C 23.437 276.061 26.061 273.438 29.297 273.438 Z M 29.297 179.688 L 70.312 179.688 L 70.312 226.563 L 29.297 226.563 C 26.061 226.563 23.437 223.939 23.437 220.703 L 23.437 214.844 L 5.859 214.844 C 2.623 214.844 0 212.221 0 208.984 L 0 197.266 C 0 194.029 2.623 191.406 5.859 191.406 L 23.437 191.406 L 23.437 185.547 C 23.437 182.311 26.061 179.688 29.297 179.688 Z M 29.297 85.937 L 70.312 85.937 L 70.312 132.812 L 29.297 132.812 C 26.061 132.812 23.437 130.189 23.437 126.953 L 23.437 121.094 L 5.859 121.094 C 2.623 121.094 0 118.471 0 115.234 L 0 103.516 C 0 100.279 2.623 97.656 5.859 97.656 L 23.437 97.656 L 23.437 91.797 C 23.437 88.561 26.061 85.937 29.297 85.937 Z" style="" transform="matrix(0, 1, -1, 0, 499.999985, -0.000015)"/>
  <path d="M 73.6 287.73 Q 69.57 290.3 63.95 291.9 Q 58.33 293.49 52.22 293.49 Q 39.44 293.49 32.81 286.86 Q 26.18 280.23 26.18 269.4 L 26.18 229.61 L 9.86 229.61 L 9.86 218.3 L 26.18 218.3 L 26.18 201.91 L 41.73 200.03 L 41.73 218.3 L 66.45 218.3 L 64.71 229.61 L 41.73 229.61 L 41.73 269.26 Q 41.73 275.16 44.68 278.05 Q 47.63 280.93 54.37 280.93 Q 58.4 280.93 61.76 279.95 Q 65.13 278.98 67.98 277.46 Z M 107.31 259.96 Q 108 271.28 113.66 276.34 Q 119.32 281.41 127.3 281.41 Q 132.65 281.41 137.27 279.75 Q 141.88 278.08 146.54 275.02 L 153.27 284.33 Q 148.13 288.5 141.26 291 Q 134.39 293.49 126.54 293.49 Q 115.08 293.49 107.2 288.63 Q 99.32 283.77 95.26 275.09 Q 91.2 266.41 91.2 255.03 Q 91.2 243.99 95.22 235.27 Q 99.25 226.56 106.75 221.46 Q 114.25 216.35 124.66 216.35 Q 139.25 216.35 147.75 226.14 Q 156.26 235.93 156.26 253.01 Q 156.26 254.89 156.15 256.73 Q 156.05 258.57 155.91 259.96 Z M 124.8 227.88 Q 117.51 227.88 112.72 233.09 Q 107.93 238.29 107.24 249.33 L 141.19 249.33 Q 140.98 238.99 136.78 233.43 Q 132.58 227.88 124.8 227.88 Z M 203.09 281.55 Q 210.38 281.55 214.68 278.95 Q 218.99 276.34 218.99 271.76 Q 218.99 268.78 217.74 266.69 Q 216.49 264.61 212.74 262.8 Q 208.99 261 201.35 259.05 Q 194.13 257.18 188.68 254.61 Q 183.23 252.04 180.24 247.94 Q 177.26 243.85 177.26 237.39 Q 177.26 227.95 185.14 222.15 Q 193.02 216.35 206.56 216.35 Q 215.79 216.35 222.67 218.78 Q 229.54 221.21 234.4 224.82 L 227.87 234.61 Q 223.57 231.77 218.47 229.96 Q 213.36 228.16 206.97 228.16 Q 199.54 228.16 196.32 230.38 Q 193.09 232.6 193.09 236.28 Q 193.09 239.06 194.72 240.86 Q 196.35 242.67 200.38 244.26 Q 204.4 245.86 211.76 247.88 Q 218.92 249.82 224.23 252.46 Q 229.54 255.1 232.49 259.44 Q 235.44 263.78 235.44 270.72 Q 235.44 278.64 230.86 283.67 Q 226.28 288.7 218.92 291.1 Q 211.56 293.49 203.09 293.49 Q 192.88 293.49 185.45 290.54 Q 178.02 287.59 172.95 283.15 L 181.21 273.71 Q 185.52 277.18 191.07 279.36 Q 196.63 281.55 203.09 281.55 Z M 319.7 287.73 Q 315.67 290.3 310.04 291.9 Q 304.42 293.49 298.31 293.49 Q 285.53 293.49 278.9 286.86 Q 272.27 280.23 272.27 269.4 L 272.27 229.61 L 255.95 229.61 L 255.95 218.3 L 272.27 218.3 L 272.27 201.91 L 287.82 200.03 L 287.82 218.3 L 312.54 218.3 L 310.81 229.61 L 287.82 229.61 L 287.82 269.26 Q 287.82 275.16 290.78 278.05 Q 293.73 280.93 300.46 280.93 Q 304.49 280.93 307.86 279.95 Q 311.22 278.98 314.07 277.46 Z M 357.31 259.96 Q 358 271.28 363.66 276.34 Q 369.32 281.41 377.3 281.41 Q 382.65 281.41 387.27 279.75 Q 391.88 278.08 396.54 275.02 L 403.27 284.33 Q 398.13 288.5 391.26 291 Q 384.39 293.49 376.54 293.49 Q 365.08 293.49 357.2 288.63 Q 349.32 283.77 345.26 275.09 Q 341.2 266.41 341.2 255.03 Q 341.2 243.99 345.22 235.27 Q 349.25 226.56 356.75 221.46 Q 364.25 216.35 374.66 216.35 Q 389.25 216.35 397.75 226.14 Q 406.26 235.93 406.26 253.01 Q 406.26 254.89 406.15 256.73 Q 406.05 258.57 405.91 259.96 Z M 374.8 227.88 Q 367.51 227.88 362.72 233.09 Q 357.93 238.29 357.24 249.33 L 391.19 249.33 Q 390.98 238.99 386.78 233.43 Q 382.58 227.88 374.8 227.88 Z M 469.47 187.12 L 485.03 188.85 L 485.03 291.62 L 471.35 291.62 L 470.24 282.59 Q 466.49 287.8 461.28 290.65 Q 456.07 293.49 449.61 293.49 Q 440.17 293.49 434.09 288.67 Q 428.02 283.84 425.03 275.16 Q 422.05 266.48 422.05 254.96 Q 422.05 243.78 425.52 235.06 Q 428.99 226.35 435.45 221.35 Q 441.91 216.35 451 216.35 Q 462.32 216.35 469.47 224.34 Z M 455.1 228.29 Q 447.25 228.29 442.88 234.79 Q 438.5 241.28 438.5 254.96 Q 438.5 268.98 442.5 275.27 Q 446.49 281.55 453.71 281.55 Q 458.99 281.55 462.88 278.5 Q 466.76 275.44 469.47 271.14 L 469.47 236.42 Q 466.76 232.53 463.15 230.41 Q 459.54 228.29 455.1 228.29 Z" style="fill: rgb(255, 255, 255);"/>
</svg>