<?xml version="1.0" encoding="utf-8"?>
<svg viewBox="0 0 500.3125 500" xmlns="http://www.w3.org/2000/svg">
  <path d="M 406.25 46.875 L 406.25 453.125 C 406.25 479.014 385.264 500 359.375 500 L 140.625 500 C 114.736 500 93.75 479.014 93.75 453.125 L 93.75 46.875 C 93.75 20.986 114.736 0 140.625 0 L 359.375 0 C 385.264 0 406.25 20.986 406.25 46.875 Z M 500 103.516 L 500 115.234 C 500 118.471 497.377 121.094 494.141 121.094 L 476.563 121.094 L 476.563 126.953 C 476.563 130.189 473.94 132.812 470.703 132.812 L 429.688 132.812 L 429.688 85.937 L 470.703 85.937 C 473.94 85.937 476.563 88.561 476.563 91.797 L 476.563 97.656 L 494.141 97.656 C 497.377 97.656 500 100.279 500 103.516 Z M 500 197.266 L 500 208.984 C 500 212.221 497.377 214.844 494.141 214.844 L 476.563 214.844 L 476.563 220.703 C 476.563 223.939 473.94 226.563 470.703 226.563 L 429.688 226.563 L 429.688 179.688 L 470.703 179.688 C 473.94 179.688 476.563 182.311 476.563 185.547 L 476.563 191.406 L 494.141 191.406 C 497.377 191.406 500 194.029 500 197.266 Z M 500 291.016 L 500 302.734 C 500 305.971 497.377 308.594 494.141 308.594 L 476.563 308.594 L 476.563 314.453 C 476.563 317.689 473.94 320.313 470.703 320.313 L 429.688 320.313 L 429.688 273.438 L 470.703 273.438 C 473.94 273.438 476.563 276.061 476.563 279.297 L 476.563 285.156 L 494.141 285.156 C 497.377 285.156 500 287.779 500 291.016 Z M 500 384.766 L 500 396.484 C 500 399.721 497.377 402.344 494.141 402.344 L 476.563 402.344 L 476.563 408.203 C 476.563 411.439 473.94 414.063 470.703 414.063 L 429.688 414.063 L 429.688 367.188 L 470.703 367.188 C 473.94 367.188 476.563 369.811 476.563 373.047 L 476.563 378.906 L 494.141 378.906 C 497.377 378.906 500 381.529 500 384.766 Z M 29.297 367.188 L 70.312 367.188 L 70.312 414.063 L 29.297 414.063 C 26.061 414.063 23.437 411.439 23.437 408.203 L 23.437 402.344 L 5.859 402.344 C 2.623 402.344 0 399.721 0 396.484 L 0 384.766 C 0 381.529 2.623 378.906 5.859 378.906 L 23.437 378.906 L 23.437 373.047 C 23.437 369.811 26.061 367.188 29.297 367.188 Z M 29.297 273.438 L 70.312 273.438 L 70.312 320.313 L 29.297 320.313 C 26.061 320.313 23.437 317.689 23.437 314.453 L 23.437 308.594 L 5.859 308.594 C 2.623 308.594 0 305.971 0 302.734 L 0 291.016 C 0 287.779 2.623 285.156 5.859 285.156 L 23.437 285.156 L 23.437 279.297 C 23.437 276.061 26.061 273.438 29.297 273.438 Z M 29.297 179.688 L 70.312 179.688 L 70.312 226.563 L 29.297 226.563 C 26.061 226.563 23.437 223.939 23.437 220.703 L 23.437 214.844 L 5.859 214.844 C 2.623 214.844 0 212.221 0 208.984 L 0 197.266 C 0 194.029 2.623 191.406 5.859 191.406 L 23.437 191.406 L 23.437 185.547 C 23.437 182.311 26.061 179.688 29.297 179.688 Z M 29.297 85.937 L 70.312 85.937 L 70.312 132.812 L 29.297 132.812 C 26.061 132.812 23.437 130.189 23.437 126.953 L 23.437 121.094 L 5.859 121.094 C 2.623 121.094 0 118.471 0 115.234 L 0 103.516 C 0 100.279 2.623 97.656 5.859 97.656 L 23.437 97.656 L 23.437 91.797 C 23.437 88.561 26.061 85.937 29.297 85.937 Z" style="" transform="matrix(0, 1, -1, 0, 499.999985, -0.000015)"/>
  <path d="M 23.21 291.6 L 5.98 291.6 L 32.31 252.9 L 8.89 218.22 L 26.82 218.22 L 41.83 244.07 L 56.84 218.22 L 73.93 218.22 L 51 252.27 L 77.41 291.6 L 59.13 291.6 L 41.14 261.65 Z M 150.38 218.57 Q 150.38 225.52 146.35 230.52 Q 142.32 235.52 134.4 239.9 Q 143.92 244.14 149.06 250.67 Q 154.2 257.2 154.2 265.75 Q 154.2 273.46 150.17 279.75 Q 146.14 286.04 138.53 289.76 Q 130.93 293.48 120.09 293.48 Q 109.31 293.48 101.84 289.79 Q 94.37 286.11 90.52 279.89 Q 86.66 273.67 86.66 266.1 Q 86.66 257.55 91.73 251.44 Q 96.81 245.32 105.28 241.5 Q 97.71 237.47 94.1 232.43 Q 90.48 227.39 90.48 219.4 Q 90.48 210.86 94.9 205.16 Q 99.31 199.46 106.19 196.61 Q 113.07 193.76 120.5 193.76 Q 128.35 193.76 135.16 196.54 Q 141.97 199.32 146.18 204.81 Q 150.38 210.3 150.38 218.57 Z M 105.56 219.47 Q 105.56 224.2 107.72 227.12 Q 109.87 230.03 113.97 232.05 Q 118.07 234.06 123.91 236.01 Q 129.88 232.4 132.59 228.64 Q 135.3 224.89 135.3 219.33 Q 135.3 212.87 131.48 208.98 Q 127.66 205.09 120.5 205.09 Q 113.41 205.09 109.49 208.84 Q 105.56 212.59 105.56 219.47 Z M 138.29 265.82 Q 138.29 259.98 135.55 256.51 Q 132.8 253.03 127.66 250.67 Q 122.52 248.31 115.36 245.81 Q 110.08 248.52 106.33 253.17 Q 102.57 257.83 102.57 265.61 Q 102.57 272.98 107.02 277.32 Q 111.47 281.66 120.29 281.66 Q 129.19 281.66 133.74 277.08 Q 138.29 272.49 138.29 265.82 Z M 208.81 193.76 Q 214.64 193.76 219.54 195.33 Q 224.44 196.89 228.54 199.6 L 222.5 209.61 Q 216.31 205.57 208.88 205.57 Q 199.01 205.57 193.17 214.71 Q 187.34 223.85 186.78 239.76 Q 191.3 233.79 196.89 231.11 Q 202.48 228.44 208.81 228.44 Q 216.24 228.44 222.39 231.88 Q 228.54 235.32 232.22 242.16 Q 235.91 249 235.91 259.22 Q 235.91 269.5 231.77 277.22 Q 227.64 284.93 220.48 289.2 Q 213.32 293.48 204.22 293.48 Q 192.2 293.48 184.87 287.5 Q 177.54 281.52 174.2 271.03 Q 170.87 260.54 170.87 246.99 Q 170.87 231.01 175.42 219.02 Q 179.97 207.03 188.45 200.4 Q 196.93 193.76 208.81 193.76 Z M 205.54 240.11 Q 199.84 240.11 195.08 243.17 Q 190.32 246.22 186.92 251.3 Q 187.2 266.86 191.19 274.26 Q 195.19 281.66 204.29 281.66 Q 212.28 281.66 216.21 275.65 Q 220.13 269.64 220.13 259.91 Q 220.13 248.87 216.17 244.49 Q 212.21 240.11 205.54 240.11 Z M 257.09 254.49 L 257.09 241.71 L 314.48 241.71 L 314.48 254.49 Z M 374.16 193.76 Q 380 193.76 384.9 195.33 Q 389.8 196.89 393.9 199.6 L 387.85 209.61 Q 381.67 205.57 374.23 205.57 Q 364.36 205.57 358.53 214.71 Q 352.69 223.85 352.13 239.76 Q 356.65 233.79 362.24 231.11 Q 367.84 228.44 374.16 228.44 Q 381.6 228.44 387.75 231.88 Q 393.9 235.32 397.58 242.16 Q 401.26 249 401.26 259.22 Q 401.26 269.5 397.13 277.22 Q 392.99 284.93 385.84 289.2 Q 378.68 293.48 369.58 293.48 Q 357.55 293.48 350.22 287.5 Q 342.89 281.52 339.56 271.03 Q 336.22 260.54 336.22 246.99 Q 336.22 231.01 340.77 219.02 Q 345.32 207.03 353.8 200.4 Q 362.28 193.76 374.16 193.76 Z M 370.9 240.11 Q 365.2 240.11 360.44 243.17 Q 355.68 246.22 352.27 251.3 Q 352.55 266.86 356.55 274.26 Q 360.54 281.66 369.65 281.66 Q 377.64 281.66 381.56 275.65 Q 385.49 269.64 385.49 259.91 Q 385.49 248.87 381.53 244.49 Q 377.57 240.11 370.9 240.11 Z M 472.82 231.77 L 472.82 257.41 L 484.22 257.41 L 484.22 269.5 L 472.82 269.5 L 472.82 291.6 L 457.88 291.6 L 457.81 269.5 L 418 269.5 L 418 258.66 L 445.58 193.76 L 458.72 198.97 L 434.26 257.41 L 457.88 257.41 L 459.76 231.77 Z" style="fill: rgb(255, 255, 255);"/>
</svg>