<?xml version="1.0" encoding="UTF-8" standalone="no"?>
<svg enable-background="new" height="128" viewBox="0 0 128 128" width="128" xmlns="http://www.w3.org/2000/svg" xmlns:xlink="http://www.w3.org/1999/xlink" xmlns:dc="http://purl.org/dc/elements/1.1/" xmlns:cc="http://creativecommons.org/ns#" xmlns:rdf="http://www.w3.org/1999/02/22-rdf-syntax-ns#" xmlns:svg="http://www.w3.org/2000/svg">
    <linearGradient id="a" gradientUnits="userSpaceOnUse" x1="7.99999" x2="119.99999" y1="103.9999975" y2="103.9999975">
        <stop offset="0" stop-color="#d5d3cf"/>
        <stop offset="0.03571428" stop-color="#e4e1de"/>
        <stop offset="0.07142857" stop-color="#d5d3cf"/>
        <stop offset="0.9285714" stop-color="#d5d3cf"/>
        <stop offset="0.96428573" stop-color="#e4e1de"/>
        <stop offset="1" stop-color="#d5d3cf"/>
    </linearGradient>
    <radialGradient id="b" cx="63.999996" cy="194.19048" gradientTransform="matrix(-4.1363634 0.00000125 -0.00000027 -1.3909091 319.22728 170.63455)" gradientUnits="userSpaceOnUse" r="44">
        <stop offset="0" stop-color="#ffffff"/>
        <stop offset="1" stop-color="#ffffff" stop-opacity="0.094118"/>
    </radialGradient>
    <linearGradient id="c" gradientUnits="userSpaceOnUse" x1="73.24999" x2="23.99999" y1="69.38980875" y2="69.38980875">
        <stop offset="0" stop-color="#f9f06b"/>
        <stop offset="1" stop-color="#f9f06b" stop-opacity="0"/>
    </linearGradient>
    <rect fill="#f6f5f4" height="86" rx="8" ry="7.999999" width="112" x="8" y="28"/>
    <rect fill="#241f31" height="76" rx="4" width="92" x="12" y="32"/>
    <path d="m 7.99999 104 v 4 c 0 4.432 3.568 8 8 8 h 96 c 4.432 0 8 -3.568 8 -8 v -4 c 0 4.432 -3.568 8 -8 8 h -96 c -4.432 0 -8 -3.568 -8 -8 z" fill="url(#a)" vector-effect="none" paint-order="normal"/>
    <rect fill="url(#b)" height="68" opacity="0.05" transform="matrix(1 0 0 -1 0 0)" width="84" x="16" y="-104"/>
    <path d="m 15.99999 74 h 26 l 10 -23 l 6 39 l 8 -16 h 34" fill="none" opacity="0.236" stroke="#e5a50a" stroke-miterlimit="10" stroke-width="4"/>
    <path d="m 15.99999 74 h 26 l 10 -23 l 6 39 l 8 -16 h 6" fill="none" stroke="url(#c)" stroke-linecap="round" stroke-miterlimit="10" stroke-width="4"/>
    <g transform="matrix(1 0 0 1 0 -170)">
        <path d="m 115.99999 232 v 4 c 0 2.20914 -1.79086 4 -4 4 s -4 -1.79086 -4 -4 v -2 l 4 -2 z" fill="#949390" vector-effect="none" paint-order="normal"/>
        <path d="m 115.99999 248 v 6 h -4 c -2.216 0 -4 -1.784 -4 -4 v -2 z" fill="#949390" vector-effect="none" paint-order="normal"/>
        <path d="m 115.99999 252 v -4 a 4 3.9999998 0 0 0 -4 -4 a 4 3.9999998 0 0 0 -4 4 a 4 3.9999998 0 0 0 4 4 z" fill="#d5d3cf" vector-effect="none" paint-order="normal"/>
        <ellipse cx="-113.99997" cy="250" fill="#68676b" rx="1" ry="1" transform="matrix(-1 0 0 1 0 0)"/>
        <path d="m 115.99999 230 v 4 a 4 3.9999998 0 0 1 -4 4 a 4 3.9999998 0 0 1 -4 -4 a 4 3.9999998 0 0 1 4 -4 z" fill="#d5d3cf" vector-effect="none" paint-order="normal"/>
        <ellipse cx="-113.99997" cy="-232" fill="#68676b" rx="1" ry="1" transform="matrix(-1 0 0 -1 0 0)"/>
        <path d="m 107.99999 218 v 4 c 0 2.20914 1.79086 4 4 4 s 4 -1.79086 4 -4 v -2 l -4 -2 z" fill="#949390" vector-effect="none" paint-order="normal"/>
        <path d="m 107.99999 216 v 4 a 4 3.9999998 0 0 0 4 4 a 4 3.9999998 0 0 0 4 -4 a 4 3.9999998 0 0 0 -4 -4 z" fill="#d5d3cf" vector-effect="none" paint-order="normal"/>
        <ellipse cx="109.99997" cy="-218" fill="#68676b" rx="1" ry="1" transform="matrix(1 0 0 -1 0 0)"/>
        <path d="m 115.99999 206 v 6 h -4 c -2.216 0 -4 -1.784 -4 -4 v -2 z" fill="#949390" vector-effect="none" paint-order="normal"/>
        <path d="m 115.99999 210 v -4 a 4 3.9999998 0 0 0 -4 -4 a 4 3.9999998 0 0 0 -4 4 a 4 3.9999998 0 0 0 4 4 z" fill="#d5d3cf" vector-effect="none" paint-order="normal"/>
        <ellipse cx="-113.99997" cy="208" fill="#68676b" rx="1" ry="1" transform="matrix(-1 0 0 1 0 0)"/>
    </g>
</svg>
