<?xml version="1.0" encoding="UTF-8"?>
<svg height="128px" viewBox="0 0 128 128" width="128px" xmlns="http://www.w3.org/2000/svg" xmlns:xlink="http://www.w3.org/1999/xlink">
    <linearGradient id="a" gradientUnits="userSpaceOnUse" x1="25.463174" x2="102.648149" y1="26.541392" y2="26.541392">
        <stop offset="0" stop-color="#c01c28"/>
        <stop offset="0.078" stop-color="#a51d2d"/>
        <stop offset="0.104" stop-color="#f66151"/>
        <stop offset="0.12" stop-color="#c01c28"/>
        <stop offset="0.285" stop-color="#a51d2d"/>
        <stop offset="0.5" stop-color="#a51d2d"/>
        <stop offset="0.762" stop-color="#c01c28"/>
        <stop offset="0.874" stop-color="#c01c28"/>
        <stop offset="0.905" stop-color="#f66151"/>
        <stop offset="0.949" stop-color="#c01c28"/>
        <stop offset="1" stop-color="#c01c28"/>
    </linearGradient>
    <radialGradient id="b" cx="281.385986" cy="-269.136993" gradientTransform="matrix(0.26704 0 0 0.097477 -11.285802 40.441715)" gradientUnits="userSpaceOnUse" r="144.518005">
        <stop offset="0" stop-color="#f66151"/>
        <stop offset="1" stop-color="#ed333b"/>
    </radialGradient>
    <radialGradient id="c" cx="282.138" cy="-218.921005" gradientTransform="matrix(0.293859 0.00967754 -0.00497311 0.150982 -19.940609 50.959873)" gradientUnits="userSpaceOnUse" r="128.518997">
        <stop offset="0" stop-color="#c01c28"/>
        <stop offset="1" stop-color="#ed333b"/>
    </radialGradient>
    <linearGradient id="d" gradientUnits="userSpaceOnUse">
        <stop offset="0" stop-color="#77767b"/>
        <stop offset="1" stop-color="#c0bfbc"/>
    </linearGradient>
    <linearGradient id="e" x1="6" x2="10" xlink:href="#d" y1="35.999969" y2="35.999969"/>
    <linearGradient id="f" x1="5" x2="11" xlink:href="#d" y1="68.999985" y2="68.999985"/>
    <linearGradient id="g" gradientTransform="matrix(1 0 0 0.272727 0 -52.727287)" gradientUnits="userSpaceOnUse" x1="5" x2="11" y1="240.999985" y2="240.999985">
        <stop offset="0" stop-color="#c01c28"/>
        <stop offset="1" stop-color="#e01b24"/>
    </linearGradient>
    <radialGradient id="h" cx="6.020913" cy="6.405056" gradientUnits="userSpaceOnUse" r="7.1004">
        <stop offset="0" stop-color="#f66151"/>
        <stop offset="1" stop-color="#a51d2d"/>
    </radialGradient>
    <linearGradient id="i" gradientUnits="userSpaceOnUse">
        <stop offset="0" stop-color="#3d3846"/>
        <stop offset="1" stop-color="#77767b"/>
    </linearGradient>
    <linearGradient id="j" x1="6.216701" x2="6.216701" xlink:href="#i" y1="99.970703" y2="78.169434"/>
    <linearGradient id="k" gradientUnits="userSpaceOnUse">
        <stop offset="0" stop-color="#c01c28"/>
        <stop offset="1" stop-color="#f66151"/>
    </linearGradient>
    <linearGradient id="l" x1="18.569572" x2="18.569572" xlink:href="#k" y1="113.452789" y2="62.793793"/>
    <filter id="m" height="100%" width="100%" x="0%" y="0%">
        <feColorMatrix in="SourceGraphic" type="matrix" values="0 0 0 0 1 0 0 0 0 1 0 0 0 0 1 0 0 0 1 0"/>
    </filter>
    <mask id="n">
        <g filter="url(#m)">
            <rect fill-opacity="0.6" height="128" width="128"/>
        </g>
    </mask>
    <linearGradient id="o" gradientUnits="userSpaceOnUse">
        <stop offset="0" stop-color="#3d3846"/>
        <stop offset="1" stop-color="#5e5c64" stop-opacity="0"/>
    </linearGradient>
    <linearGradient id="p" x1="42" x2="52" xlink:href="#o" y1="104" y2="104"/>
    <clipPath id="q">
        <rect height="152" width="192"/>
    </clipPath>
    <linearGradient id="r" gradientTransform="matrix(-1 0 0 1 128 -172)" x1="6.216701" x2="6.216701" xlink:href="#i" y1="271.970703" y2="250.169434"/>
    <linearGradient id="s" gradientTransform="matrix(-1 0 0 1 128 -172)" x1="18.569572" x2="18.569572" xlink:href="#k" y1="285.452789" y2="234.793793"/>
    <mask id="t">
        <g filter="url(#m)">
            <rect fill-opacity="0.6" height="128" width="128"/>
        </g>
    </mask>
    <linearGradient id="u" gradientTransform="matrix(-1 0 0 1 144 0)" x1="42" x2="52" xlink:href="#o" y1="104" y2="104"/>
    <clipPath id="v">
        <rect height="152" width="192"/>
    </clipPath>
    <linearGradient id="w" gradientTransform="matrix(1 0 0 0.0909091 0 -2.909088)" gradientUnits="userSpaceOnUse" x1="5" x2="11" y1="240.999985" y2="240.999985">
        <stop offset="0" stop-color="#555458"/>
        <stop offset="1" stop-color="#77767b"/>
    </linearGradient>
    <path d="m 27.410157 53.574218 c 0 -20.207031 16.382812 -36.589843 36.589843 -36.589843 c 20.210938 0 36.589844 16.382812 36.589844 36.589843" fill="none" stroke="#5e5c64" stroke-linejoin="bevel" stroke-width="9.99996"/>
    <path d="m 64.054688 12.515625 c -14.179688 0 -27.542969 5.050781 -35.835938 15.988281 c -1.769531 2.335938 -2.738281 8.035156 0.878906 10.121094 l 2.972656 1.648438 c 1.058594 0.609374 2.40625 0.246093 3.015626 -0.808594 c 5.980468 -10.355469 16.691406 -17.835938 28.96875 -17.835938 c 12.277343 0 22.992187 7.480469 28.972656 17.835938 c 0.609375 1.054687 1.957031 1.417968 3.011718 0.808594 l 2.804688 -1.429688 c 4.253906 -2.453125 2.285156 -8.179688 1.179688 -10.09375 c -8.273438 -11.09375 -21.691407 -16.234375 -35.96875 -16.234375 z m 0 0" fill="url(#a)"/>
    <path d="m 100.601563 53.398437 v 18.648438 m -73.203125 -18.648438 v 18.648438" fill="none" stroke="#5e5c64" stroke-linejoin="bevel" stroke-width="9.99996"/>
    <path d="m 64.054688 10 c -14.007813 0 -27.085938 6.636719 -35.371094 17.683594 c 0 0 -3.96875 6.429687 0.964844 9.277344 l 1.574218 0.910156 c 1.082032 0.625 2.46875 0.253906 3.09375 -0.828125 c 6.132813 -10.628907 17.46875 -17.175781 29.738282 -17.171875 c 12.277343 0 23.601562 6.539062 29.738281 17.171875 c 0.628906 1.082031 2.011719 1.453125 3.097656 0.828125 l 1.621094 -0.933594 c 4.714843 -2.554688 0.90625 -9.265625 0.90625 -9.265625 c -8.285157 -11.039063 -21.359375 -17.671875 -35.363281 -17.671875 z m 0 0" fill="url(#b)"/>
    <path d="m 64.054688 15.917969 c -16.675782 0 -27.132813 8.597656 -34.179688 20.804687 c -0.054688 0.09375 -0.101562 0.191406 -0.136719 0.292969 l 1.484375 0.855469 c 1.082032 0.625 2.46875 0.253906 3.09375 -0.828125 c 6.132813 -10.628907 17.46875 -17.175781 29.738282 -17.171875 c 12.277343 0 23.601562 6.539062 29.738281 17.171875 c 0.628906 1.082031 2.011719 1.453125 3.097656 0.828125 l 1.484375 -0.859375 c -0.035156 -0.097657 -0.082031 -0.195313 -0.136719 -0.289063 c -7.046875 -12.207031 -17.507812 -20.804687 -34.183593 -20.804687 z m 0 0" fill="url(#c)"/>
    <path d="m 6 12 h 4 v 48 h -4 z m 0 0" fill="url(#e)"/>
    <path d="m 5 58 h 6 v 22 h -6 z m 0 0" fill="url(#f)"/>
    <g fill="#77767b">
        <path d="m 6 56 h 4 v 2 h -4 z m 0 0"/>
        <path d="m 6 52 h 4 v 2 h -4 z m 0 0"/>
        <path d="m 6 48 h 4 v 2 h -4 z m 0 0"/>
        <path d="m 6 44 h 4 v 2 h -4 z m 0 0"/>
        <path d="m 6 40 h 4 v 2 h -4 z m 0 0"/>
        <path d="m 6 36 h 4 v 2 h -4 z m 0 0"/>
    </g>
    <path d="m 5 10 h 6 v 6 h -6 z m 0 0" fill="url(#g)"/>
    <path d="m 13.5 7.5 c 0 3.039062 -2.460938 5.5 -5.5 5.5 s -5.5 -2.460938 -5.5 -5.5 s 2.460938 -5.5 5.5 -5.5 s 5.5 2.460938 5.5 5.5 z m 0 0" fill="url(#h)"/>
    <path d="m 4 83 v 10 c 0 1.921875 0.761719 3.761719 2.121094 5.121094 l 11.757812 11.757812 c 0.355469 0.355469 0.890625 0.460938 1.355469 0.269532 c 0.460937 -0.191407 0.765625 -0.644532 0.765625 -1.148438 v -42 c 0 -0.503906 -0.304688 -0.957031 -0.765625 -1.148438 c -0.464844 -0.191406 -1 -0.085937 -1.355469 0.269532 l -11.757812 11.757812 c -1.359375 1.359375 -2.121094 3.199219 -2.121094 5.121094 z m 0 0" fill="url(#j)"/>
    <path d="m 22 60 h 12 c 5.523438 0 10 4.476562 10 10 v 36 c 0 5.523438 -4.476562 10 -10 10 h -12 c -5.523438 0 -10 -4.476562 -10 -10 v -36 c 0 -5.523438 4.476562 -10 10 -10 z m 0 0" fill="url(#l)"/>
    <path d="m 28 60 h 2 v 56 h -2 z m 0 0" fill="#5e5c64"/>
    <g clip-path="url(#q)" mask="url(#n)" transform="matrix(1 0 0 1 -8 -16)">
        <path d="m 42 76 v 56 c 5.539062 0 10 -4.460938 10 -10 v -36 c 0 -5.539062 -4.460938 -10 -10 -10 z m 0 0" fill="url(#p)"/>
    </g>
    <path d="m 5 66 h 6 v 2 h -6 z m 0 0" fill="#77767b"/>
    <path d="m 124 83 v 10 c 0 1.921875 -0.761719 3.761719 -2.121094 5.121094 l -11.757812 11.757812 c -0.355469 0.355469 -0.890625 0.460938 -1.355469 0.269532 c -0.460937 -0.191407 -0.765625 -0.644532 -0.765625 -1.148438 v -42 c 0 -0.503906 0.304688 -0.957031 0.765625 -1.148438 c 0.464844 -0.191406 1 -0.085937 1.355469 0.269532 l 11.757812 11.757812 c 1.359375 1.359375 2.121094 3.199219 2.121094 5.121094 z m 0 0" fill="url(#r)"/>
    <path d="m 106 60 h -12 c -5.523438 0 -10 4.476562 -10 10 v 36 c 0 5.523438 4.476562 10 10 10 h 12 c 5.523438 0 10 -4.476562 10 -10 v -36 c 0 -5.523438 -4.476562 -10 -10 -10 z m 0 0" fill="url(#s)"/>
    <g clip-path="url(#v)" mask="url(#t)" transform="matrix(1 0 0 1 -8 -16)">
        <path d="m 102 76 v 56 c -5.539062 0 -10 -4.460938 -10 -10 v -36 c 0 -5.539062 4.460938 -10 10 -10 z m 0 0" fill="url(#u)"/>
    </g>
    <path d="m 98 60 h 2 v 56 h -2 z m 0 0" fill="#5e5c64"/>
    <path d="m 12 100 v 6 c 0 5.539062 4.460938 10 10 10 h 12 c 5.539062 0 10 -4.460938 10 -10 v -6 c 0 5.539062 -4.460938 10 -10 10 h -12 c -5.539062 0 -10 -4.460938 -10 -10 z m 0 0" fill="#3d3846" fill-opacity="0.35"/>
    <path d="m 84 100 v 6 c 0 5.539062 4.460938 10 10 10 h 12 c 5.539062 0 10 -4.460938 10 -10 v -6 c 0 5.539062 -4.460938 10 -10 10 h -12 c -5.539062 0 -10 -4.460938 -10 -10 z m 0 0" fill="#3d3846" fill-opacity="0.35"/>
    <path d="m 5 18 h 6 v 2 h -6 z m 0 0" fill="url(#w)"/>
</svg>
