<?xml version="1.0" encoding="UTF-8"?>
<svg height="128px" viewBox="0 0 128 128" width="128px" xmlns="http://www.w3.org/2000/svg" xmlns:xlink="http://www.w3.org/1999/xlink">
    <linearGradient id="a" gradientTransform="matrix(0.995678 0 0 1.068531 444.562714 -187.980814)" gradientUnits="userSpaceOnUse" x1="-382.457947" x2="-382.457947" y1="179.078186" y2="319.199951">
        <stop offset="0" stop-color="#5e5c64"/>
        <stop offset="1" stop-color="#241f31"/>
    </linearGradient>
    <linearGradient id="b" gradientTransform="matrix(0.995678 0 0 1.059176 444.562714 -186.15593)" gradientUnits="userSpaceOnUse" x1="-438.457947" x2="-326.457947" y1="246.176407" y2="246.176407">
        <stop offset="0" stop-color="#3d3846"/>
        <stop offset="0.0525566" stop-color="#5e5c64"/>
        <stop offset="0.12397" stop-color="#241f31"/>
        <stop offset="0.878716" stop-color="#241f31"/>
        <stop offset="0.947047" stop-color="#5e5c64"/>
        <stop offset="1" stop-color="#3d3846"/>
    </linearGradient>
    <linearGradient id="c" gradientTransform="matrix(1.389416 0 0 1.369469 23.599438 -66.281555)" gradientUnits="userSpaceOnUse" x1="93.440887" x2="34.762424" y1="73.757309" y2="73.757309">
        <stop offset="0" stop-color="#c01c28"/>
        <stop offset="1" stop-color="#ffbe6f"/>
    </linearGradient>
    <path d="m 15.964844 33.175781 h 95.585937 c 4.398438 0 7.964844 3.902344 7.964844 8.71875 v 65.386719 c 0 4.816406 -3.566406 8.71875 -7.964844 8.71875 h -95.585937 c -4.398438 0 -7.964844 -3.902344 -7.964844 -8.71875 v -65.386719 c 0 -4.816406 3.566406 -8.71875 7.964844 -8.71875 z m 0 0"/>
    <path d="m 15.964844 20.464844 h 95.585937 c 4.398438 0 7.964844 3.828125 7.964844 8.550781 v 72.660156 c 0 4.71875 -3.566406 8.546875 -7.964844 8.546875 h -95.585937 c -4.398438 0 -7.964844 -3.828125 -7.964844 -8.546875 v -72.660156 c 0 -4.722656 3.566406 -8.550781 7.964844 -8.550781 z m 0 0" fill="url(#a)"/>
    <path d="m 15.964844 33.175781 h 95.585937 c 4.398438 0 7.964844 3.902344 7.964844 8.71875 v 65.386719 c 0 4.816406 -3.566406 8.71875 -7.964844 8.71875 h -95.585937 c -4.398438 0 -7.964844 -3.902344 -7.964844 -8.71875 v -65.386719 c 0 -4.816406 3.566406 -8.71875 7.964844 -8.71875 z m 0 0" fill="url(#b)"/>
    <path d="m 15.964844 20.464844 h 95.585937 c 4.398438 0 7.964844 3.828125 7.964844 8.550781 v 72.660156 c 0 4.71875 -3.566406 8.546875 -7.964844 8.546875 h -95.585937 c -4.398438 0 -7.964844 -3.828125 -7.964844 -8.546875 v -72.660156 c 0 -4.722656 3.566406 -8.550781 7.964844 -8.550781 z m 0 0" fill="url(#a)"/>
    <path d="m 73.679688 74.589844 h 8.492187 c 2.992187 0 5.414063 2.316406 5.414063 5.171875 v 9.09375 c 0 2.859375 -2.421876 5.171875 -5.414063 5.171875 h -8.492187 c -2.988282 0 -5.414063 -2.3125 -5.414063 -5.171875 v -9.09375 c 0 -2.855469 2.425781 -5.171875 5.414063 -5.171875 z m 0 0" fill="#241f31"/>
    <path d="m 73.679688 77.636719 h 8.492187 c 2.992187 0 5.414063 2.316406 5.414063 5.171875 v 9.097656 c 0 2.855469 -2.421876 5.171875 -5.414063 5.171875 h -8.492187 c -2.988282 0 -5.414063 -2.316406 -5.414063 -5.171875 v -9.097656 c 0 -2.855469 2.425781 -5.171875 5.414063 -5.171875 z m 0 0" fill="#ffbe6f"/>
    <path d="m 78.807659 100.778468 l 4.557636 4.696785 l 4.592967 -4.730069" fill="none" stroke="#986a44" stroke-linecap="round" stroke-linejoin="round" stroke-width="2.41869" transform="matrix(1.105631 0 0 1.056241 -14.264974 -21.551832)"/>
    <path d="m 97.769531 77.636719 h 8.910157 c 2.859374 0 5.171874 2.316406 5.171874 5.171875 v 9.097656 c 0 2.855469 -2.3125 5.171875 -5.171874 5.171875 h -8.910157 c -2.859375 0 -5.175781 -2.316406 -5.175781 -5.171875 v -9.097656 c 0 -2.855469 2.316406 -5.171875 5.175781 -5.171875 z m 0 0" fill="#77767b"/>
    <path d="m 97.769531 74.589844 h 8.910157 c 2.859374 0 5.171874 2.316406 5.171874 5.171875 v 9.09375 c 0 2.859375 -2.3125 5.171875 -5.171874 5.171875 h -8.910157 c -2.859375 0 -5.175781 -2.3125 -5.175781 -5.171875 v -9.09375 c 0 -2.855469 2.316406 -5.171875 5.175781 -5.171875 z m 0 0" fill="#f6f5f4"/>
    <path d="m 98.86329350418 87.5078256953 l 6.77734494622 -6.39843847186 m -0.05468752332 6.39843847186 l -6.77734494622 -6.39843847186" fill="#c0bfbc" stroke="#c0bfbc" stroke-linecap="round" stroke-width="2.1103787417"/>
    <path d="m 79.058594 29.539062 h 22.003906 c 5.957031 0 10.789062 4.832032 10.789062 10.792969 c 0 5.960938 -4.832031 10.792969 -10.789062 10.792969 h -22.003906 c -5.960938 0 -10.792969 -4.832031 -10.792969 -10.792969 c 0 -5.960937 4.832031 -10.792969 10.792969 -10.792969 z m 0 0" fill="#241f31"/>
    <path d="m 79.058594 34.175781 h 22.003906 c 5.957031 0 10.789062 4.832031 10.789062 10.792969 s -4.832031 10.792969 -10.789062 10.792969 h -22.003906 c -5.960938 0 -10.792969 -4.832031 -10.792969 -10.792969 s 4.832031 -10.792969 10.792969 -10.792969 z m 0 0" fill="#f6f5f4"/>
    <path d="m 80.351562 36.390625 h 19.417969 c 4.734375 0 8.578125 3.839844 8.578125 8.578125 s -3.84375 8.578125 -8.578125 8.578125 h -19.417969 c -4.738281 0 -8.578124 -3.839844 -8.578124 -8.578125 s 3.839843 -8.578125 8.578124 -8.578125 z m 0 0" fill="url(#c)"/>
    <path d="m 82.351562 40.578125 v 8.78125" fill="none" stroke="#ffffff" stroke-linecap="round" stroke-width="2.692"/>
    <path d="m 104.886719 45.707031 c 0 3.726563 -2.980469 6.746094 -6.65625 6.746094 s -6.65625 -3.019531 -6.65625 -6.746094 c 0 -3.722656 2.980469 -6.742187 6.65625 -6.742187 s 6.65625 3.019531 6.65625 6.742187 z m 0 0" fill="#a51d2d"/>
    <path d="m 104.886719 43.9375 c 0 3.722656 -2.980469 6.742188 -6.65625 6.742188 s -6.65625 -3.019532 -6.65625 -6.742188 c 0 -3.726562 2.980469 -6.746094 6.65625 -6.746094 s 6.65625 3.019532 6.65625 6.746094 z m 0 0" fill="#ffffff"/>
    <g fill="#77767b">
        <path d="m 20.226562 33.84375 h 10.726563 c 2.1875 0 3.960937 1.777344 3.960937 3.964844 s -1.773437 3.964844 -3.960937 3.964844 h -10.726563 c -2.1875 0 -3.960937 -1.777344 -3.960937 -3.964844 s 1.773437 -3.964844 3.960937 -3.964844 z m 0 0"/>
        <path d="m 20.113281 44.96875 h 29.601563 c 2.128906 0 3.851562 1.722656 3.851562 3.851562 c 0 2.125 -1.722656 3.847657 -3.851562 3.847657 h -29.601563 c -2.125 0 -3.847656 -1.722657 -3.847656 -3.847657 c 0 -2.128906 1.722656 -3.851562 3.847656 -3.851562 z m 0 0"/>
        <path d="m 20.226562 77.4375 h 10.726563 c 2.1875 0 3.960937 1.773438 3.960937 3.964844 c 0 2.1875 -1.773437 3.960937 -3.960937 3.960937 h -10.726563 c -2.1875 0 -3.960937 -1.773437 -3.960937 -3.960937 c 0 -2.191406 1.773437 -3.964844 3.960937 -3.964844 z m 0 0"/>
        <path d="m 20.113281 88.5625 h 29.601563 c 2.128906 0 3.851562 1.722656 3.851562 3.851562 c 0 2.125 -1.722656 3.847657 -3.851562 3.847657 h -29.601563 c -2.125 0 -3.847656 -1.722657 -3.847656 -3.847657 c 0 -2.128906 1.722656 -3.851562 3.847656 -3.851562 z m 0 0"/>
    </g>
    <path d="m 8 66.09375 h 111.515625" fill="none" stroke="#241f31" stroke-linejoin="round" stroke-width="5.089"/>
</svg>
