<?xml version="1.0" encoding="utf-8"?>
<svg version="1.1" id="Layer_1" x="0px" y="0px" width="469.86px" height="110.329px" viewBox="71.07 323.663 114.807 111.924" enable-background="new 71.07 323.663 469.86 110.329" xmlns="http://www.w3.org/2000/svg">
  <path fill="#2C2255" d="M101.124,392.936H84.38c2.217,7.605,6.331,14.422,12.354,20.445c9.602,9.604,21.148,14.398,34.65,14.398  c2.699,0,5.314-0.201,7.854-0.584c10.17-1.535,19.074-6.133,26.703-13.814c6.062-6.021,10.205-12.84,12.439-20.445h-6.795h-9.936  H101.124z"/>
  <g>
    <path fill="#2C2255" d="M91.891,370.194h-8.747c-0.32,1.922-0.538,3.884-0.637,5.896h10.396h5.215h75.275h6.871   c-0.1-2.012-0.318-3.974-0.641-5.896"/>
    <path fill="#2C2255" d="M82.507,381.565c0.099,2.013,0.316,3.975,0.637,5.896h9.094h6.893h73.648h6.846   c0.322-1.921,0.542-3.883,0.642-5.896"/>
  </g>
  <path fill="#2C2255" d="M178.382,364.718c-2.232-7.626-6.376-14.474-12.441-20.54c-7.609-7.608-16.488-12.174-26.625-13.71  c-2.564-0.389-5.205-0.593-7.932-0.593c-13.502,0-25.049,4.769-34.65,14.303c-6.025,6.066-10.141,12.914-12.357,20.54"/>
  <g>
    <path fill="#F7941E" d="M79.6,378.829c0-25.824,19.395-47.281,44.626-51.055c-0.626-0.023-1.255-0.049-1.887-0.049   c-28.314,0-51.269,22.881-51.269,51.104c0,28.224,22.954,51.103,51.269,51.103c0.634,0,1.263-0.023,1.891-0.047   C98.995,426.111,79.6,404.654,79.6,378.829z"/>
  </g>
  <g>
    <linearGradient id="SVGID_1_" gradientUnits="userSpaceOnUse" x1="502.3848" y1="-40.0757" x2="502.3848" y2="-113.7106" gradientTransform="matrix(1 0 0 1 -371 474.5)">
      <stop offset="0.3033" style="stop-color:#473788"/>
      <stop offset="0.872" style="stop-color:#2C2255"/>
    </linearGradient>
    <path fill="url(#SVGID_1_)" d="M164.653,376.089c-0.164-2.021-0.504-3.992-1.012-5.896h-64.51   c-0.508,1.902-0.849,3.874-1.013,5.896H164.653z"/>
    <linearGradient id="SVGID_2_" gradientUnits="userSpaceOnUse" x1="502.3857" y1="-40.0747" x2="502.3857" y2="-113.7096" gradientTransform="matrix(1 0 0 1 -371 474.5)">
      <stop offset="0.3033" style="stop-color:#473788"/>
      <stop offset="0.872" style="stop-color:#2C2255"/>
    </linearGradient>
    <path fill="url(#SVGID_2_)" d="M164.653,381.565H98.119c0.164,2.021,0.503,3.991,1.012,5.896h64.511   C164.15,385.557,164.489,383.586,164.653,381.565z"/>
    <linearGradient id="SVGID_3_" gradientUnits="userSpaceOnUse" x1="502.3857" y1="-40.0776" x2="502.3857" y2="-113.7071" gradientTransform="matrix(1 0 0 1 -371 474.5)">
      <stop offset="0.3033" style="stop-color:#473788"/>
      <stop offset="0.8631" style="stop-color:#2C2255"/>
    </linearGradient>
    <path fill="url(#SVGID_3_)" d="M131.386,412.217c13.397,0,24.945-7.893,30.263-19.281h-60.526   C106.441,404.324,117.989,412.217,131.386,412.217z"/>
  </g>
  <g>
    <path fill="#FFFFFF" d="M93.188,381.565h4.884h66.706h8.763h6.657c0.046-0.871,0.072-1.748,0.072-2.632   c0-0.955-0.035-1.901-0.089-2.845h-6.641h-8.763H98.071h-5.229H82.507c-0.054,0.942-0.089,1.89-0.089,2.845   c0,0.884,0.026,1.761,0.072,2.632H93.188z"/>
    <path fill="#FFFFFF" d="M100.928,364.718H84.376c-0.544,1.783-0.895,3.612-1.232,5.477h8.525h7.259h64.679h9.16h6.547   c-0.338-1.863-0.773-3.692-1.316-5.477"/>
    <path fill="#FFFFFF" d="M173.026,387.46h-9.16H99.188h-6.912h-9.133c0.328,1.863,0.701,3.691,1.236,5.476h16.807h60.682h9.962   h6.488c0.534-1.783,0.965-3.611,1.294-5.476H173.026z"/>
  </g>
</svg>