<?xml version="1.0" encoding="utf-8"?>
<svg width="400px" height="225px" viewBox="36.512 -6.443 95.455 97.856" xmlns="http://www.w3.org/2000/svg">
  <defs>
    <clipPath id="clippath0" transform="">
      <path d="M 71.428 149.999 C 62.435 149.999 55.129 142.774 55 133.812 L 55 133.812 L 55 92.288 C 55.129 83.326 62.435 76.1 71.428 76.1 L 71.428 76.1 L 112.468 76.1 C 121.542 76.1 128.898 83.456 128.898 92.53 L 128.898 92.53 L 128.898 133.571 C 128.898 142.645 121.542 149.999 112.468 149.999 L 112.468 149.999 Z" style="fill: none; clip-rule: nonzero;"/>
    </clipPath>
    <linearGradient id="shading0" gradientUnits="userSpaceOnUse" x1="0" y1="0" x2="1" y2="0">
      <stop offset="0" style="stop-color: rgb(233, 145, 62);"/>
      <stop offset="0.03333333333333333" style="stop-color: rgb(233, 142, 61);"/>
      <stop offset="1" style="stop-color: rgb(242, 0, 0);"/>
    </linearGradient>
    <clipPath id="clippath1" transform="">
      <path d="M 73.79 121.449 C 73.758 121.373 73.724 121.308 73.703 121.232 L 73.703 121.232 C 78.111 117.141 80.988 111.492 81.531 105.301 L 81.531 105.301 C 81.683 103.612 81.661 101.881 81.445 100.127 L 81.445 100.127 C 81.26 98.688 80.967 97.281 80.555 95.939 L 80.555 95.939 C 80.348 95.246 80.109 94.564 79.837 93.904 L 79.837 93.904 C 83.529 90.473 88.295 88.146 93.681 87.486 L 93.681 87.486 C 94.495 89.467 95.071 91.588 95.352 93.818 L 95.352 93.818 C 95.375 93.861 95.375 93.893 95.375 93.937 L 95.375 93.937 C 95.386 93.98 95.386 94.034 95.386 94.077 L 95.386 94.077 C 96.96 107.563 87.307 119.804 73.779 121.46 L 73.779 121.46 Z" style="fill: none; clip-rule: nonzero;"/>
    </clipPath>
    <linearGradient id="shading1" gradientUnits="userSpaceOnUse" x1="0" y1="0" x2="1" y2="0">
      <stop offset="0" style="stop-color: rgb(255, 255, 255);"/>
      <stop offset="0.3952380952380952" style="stop-color: rgb(253, 253, 253);"/>
      <stop offset="0.5345238095238095" style="stop-color: rgb(245, 245, 245);"/>
      <stop offset="0.625" style="stop-color: rgb(233, 233, 233);"/>
      <stop offset="0.6964285714285714" style="stop-color: rgb(218, 218, 218);"/>
      <stop offset="0.8154761904761905" style="stop-color: rgb(184, 184, 184);"/>
      <stop offset="0.8773809523809524" style="stop-color: rgb(156, 156, 156);"/>
      <stop offset="0.9547619047619048" style="stop-color: rgb(107, 107, 107);"/>
      <stop offset="1" style="stop-color: rgb(77, 77, 77);"/>
    </linearGradient>
    <linearGradient id="shading2" gradientUnits="userSpaceOnUse" x1="0" y1="0" x2="1" y2="0">
      <stop offset="0" style="stop-color: rgb(255, 255, 255);"/>
      <stop offset="0.36428571428571427" style="stop-color: rgb(253, 253, 253);"/>
      <stop offset="0.4607142857142857" style="stop-color: rgb(251, 248, 248);"/>
      <stop offset="0.5357142857142857" style="stop-color: rgb(247, 240, 242);"/>
      <stop offset="0.6083333333333333" style="stop-color: rgb(242, 229, 231);"/>
      <stop offset="0.6904761904761905" style="stop-color: rgb(229, 205, 208);"/>
      <stop offset="0.7583333333333333" style="stop-color: rgb(217, 179, 185);"/>
      <stop offset="0.8202380952380952" style="stop-color: rgb(203, 150, 158);"/>
      <stop offset="0.875" style="stop-color: rgb(186, 116, 127);"/>
      <stop offset="0.9357142857142857" style="stop-color: rgb(161, 63, 78);"/>
      <stop offset="1" style="stop-color: rgb(132, 4, 24);"/>
    </linearGradient>
    <clipPath id="clippath2" transform="">
      <path d="M 88.773 132.283 C 88.752 132.24 88.752 132.206 88.752 132.163 L 88.752 132.163 C 88.741 132.12 88.741 132.066 88.741 132.023 L 88.741 132.023 C 87.166 118.537 96.818 106.297 110.347 104.641 L 110.347 104.641 L 110.336 104.651 C 110.368 104.727 110.401 104.792 110.423 104.868 L 110.423 104.868 C 106.015 108.959 103.137 114.609 102.594 120.799 L 102.594 120.799 C 102.442 122.488 102.464 124.219 102.681 125.973 L 102.681 125.973 C 102.866 127.412 103.159 128.819 103.572 130.162 L 103.572 130.162 C 103.778 130.854 104.017 131.536 104.288 132.196 L 104.288 132.196 C 100.597 135.627 95.83 137.954 90.446 138.614 L 90.446 138.614 C 89.631 136.633 89.055 134.512 88.773 132.283" style="fill: none; clip-rule: nonzero;"/>
    </clipPath>
    <linearGradient id="shading3" gradientUnits="userSpaceOnUse" x1="0" y1="0" x2="1" y2="0">
      <stop offset="0" style="stop-color: rgb(255, 255, 255);"/>
      <stop offset="0.3952380952380952" style="stop-color: rgb(253, 253, 253);"/>
      <stop offset="0.5345238095238095" style="stop-color: rgb(245, 245, 245);"/>
      <stop offset="0.625" style="stop-color: rgb(233, 233, 233);"/>
      <stop offset="0.6964285714285714" style="stop-color: rgb(218, 218, 218);"/>
      <stop offset="0.8154761904761905" style="stop-color: rgb(184, 184, 184);"/>
      <stop offset="0.8773809523809524" style="stop-color: rgb(156, 156, 156);"/>
      <stop offset="0.9547619047619048" style="stop-color: rgb(107, 107, 107);"/>
      <stop offset="1" style="stop-color: rgb(77, 77, 77);"/>
    </linearGradient>
    <linearGradient id="shading4" gradientUnits="userSpaceOnUse" x1="0" y1="0" x2="1" y2="0">
      <stop offset="0" style="stop-color: rgb(255, 255, 255);"/>
      <stop offset="0.36428571428571427" style="stop-color: rgb(253, 253, 253);"/>
      <stop offset="0.4607142857142857" style="stop-color: rgb(251, 248, 248);"/>
      <stop offset="0.5357142857142857" style="stop-color: rgb(247, 240, 242);"/>
      <stop offset="0.6083333333333333" style="stop-color: rgb(242, 229, 231);"/>
      <stop offset="0.6904761904761905" style="stop-color: rgb(229, 205, 208);"/>
      <stop offset="0.7583333333333333" style="stop-color: rgb(217, 179, 185);"/>
      <stop offset="0.8202380952380952" style="stop-color: rgb(203, 150, 158);"/>
      <stop offset="0.875" style="stop-color: rgb(186, 116, 127);"/>
      <stop offset="0.9357142857142857" style="stop-color: rgb(161, 63, 78);"/>
      <stop offset="1" style="stop-color: rgb(132, 4, 24);"/>
    </linearGradient>
    <clipPath id="clippath3" transform="">
      <path d="M 55 76.1 L 345 76.1 L 345 150 L 55 150 Z" style="fill: none; clip-rule: nonzero;"/>
    </clipPath>
  </defs>
  <g class="page-1" transform="matrix(1, 0, 0, -1, -7.302184, 155.41449)">
    <g transform="">
      <path d="M 71.428 149.999 C 62.435 149.999 55.129 142.774 55 133.812 L 55 133.812 L 55 92.288 C 55.129 83.326 62.435 76.1 71.428 76.1 L 71.428 76.1 L 112.468 76.1 C 121.542 76.1 128.898 83.456 128.898 92.53 L 128.898 92.53 L 128.898 133.571 C 128.898 142.645 121.542 149.999 112.468 149.999 L 112.468 149.999 Z" style="fill: none;"/>
    </g>
    <g style="clip-path: url('#clippath0');">
      <g transform="matrix(-65.8798981 -69.4620056 69.4620056 -65.8798981 130.0588989 153.2332153)">
        <rect x="-2.4842805354520876" y="-1.5015759330611569" width="4.5805029523164125" height="4.648900097880259" style="fill: url('#shading0');"/>
      </g>
    </g>
    <g transform="">
      <path d="M 73.79 121.449 C 73.758 121.373 73.724 121.308 73.703 121.232 L 73.703 121.232 C 78.111 117.141 80.988 111.492 81.531 105.301 L 81.531 105.301 C 81.683 103.612 81.661 101.881 81.445 100.127 L 81.445 100.127 C 81.26 98.688 80.967 97.281 80.555 95.939 L 80.555 95.939 C 80.348 95.246 80.109 94.564 79.837 93.904 L 79.837 93.904 C 83.529 90.473 88.295 88.146 93.681 87.486 L 93.681 87.486 C 94.495 89.467 95.071 91.588 95.352 93.818 L 95.352 93.818 C 95.375 93.861 95.375 93.893 95.375 93.937 L 95.375 93.937 C 95.386 93.98 95.386 94.034 95.386 94.077 L 95.386 94.077 C 96.96 107.563 87.307 119.804 73.779 121.46 L 73.779 121.46 Z" style="fill: none;"/>
    </g>
    <g style="clip-path: url('#clippath1');">
      <g transform="matrix(15.8600016 29.8590012 -29.8590012 15.8600016 73.6917038 85.5744247)">
        <rect x="-3.257736577688167" y="-9.710833848002302" width="11.427067134825798" height="13.570209274569493" style="fill: url('#shading1');"/>
      </g>
    </g>
    <g style="clip-path: url('#clippath1');">
      <g transform="matrix(15.8600016 29.8590012 -29.8590012 15.8600016 73.6917038 85.5744247)">
        <rect x="-3.257736577688167" y="-9.710833848002302" width="11.427067134825798" height="13.570209274569493" style="fill: url('#shading2');"/>
      </g>
    </g>
    <g transform="">
      <path d="M 88.773 132.283 C 88.752 132.24 88.752 132.206 88.752 132.163 L 88.752 132.163 C 88.741 132.12 88.741 132.066 88.741 132.023 L 88.741 132.023 C 87.166 118.537 96.818 106.297 110.347 104.641 L 110.347 104.641 L 110.336 104.651 C 110.368 104.727 110.401 104.792 110.423 104.868 L 110.423 104.868 C 106.015 108.959 103.137 114.609 102.594 120.799 L 102.594 120.799 C 102.442 122.488 102.464 124.219 102.681 125.973 L 102.681 125.973 C 102.866 127.412 103.159 128.819 103.572 130.162 L 103.572 130.162 C 103.778 130.854 104.017 131.536 104.288 132.196 L 104.288 132.196 C 100.597 135.627 95.83 137.954 90.446 138.614 L 90.446 138.614 C 89.631 136.633 89.055 134.512 88.773 132.283" style="fill: none;"/>
    </g>
    <g style="clip-path: url('#clippath2');">
      <g transform="matrix(-23.8943977 -63.1376076 63.1376076 -23.8943977 115.7733994 162.2740784)">
        <rect x="-2.359245316618792" y="-1.9328229633864784" width="5.214430073148414" height="6.721366665427372" style="fill: url('#shading3');"/>
      </g>
    </g>
    <g style="clip-path: url('#clippath2');">
      <g transform="matrix(-23.8943977 -63.1376076 63.1376076 -23.8943977 115.7733994 162.2740784)">
        <rect x="-2.359245316618792" y="-1.9328229633864784" width="5.214430073148414" height="6.721366665427372" style="fill: url('#shading4');"/>
      </g>
    </g>
    <g transform="">
      <path d="M 55 76.1 L 345 76.1 L 345 150 L 55 150 Z" style="fill: none;"/>
    </g>
    <g style="clip-path: url('#clippath3');">
      <g transform="translate(110.347 104.641)">
        <path d="M 0 0 C -13.529 1.656 -23.181 13.896 -21.606 27.382 C -18.599 22.154 -13.713 18.074 -7.753 16.148 C -6.265 15.661 -4.702 15.314 -3.095 15.119 C -1.629 14.946 -0.174 14.892 1.248 14.968 C 2.215 15.022 3.159 15.13 4.104 15.282 C 6.579 10.866 7.719 5.66 7.068 0.249 C 7.068 0.205 7.068 0.173 7.046 0.129 C 4.885 -0.228 2.649 -0.293 0.369 -0.054 C 0.217 -0.033 0.097 -0.022 0 -0.011 Z" style="fill: rgb(255, 255, 255); fill-opacity: 1;"/>
      </g>
    </g>
    <g style="clip-path: url('#clippath3');">
      <g transform="translate(73.7789 121.46)">
        <path d="M 0 0 C 13.528 -1.656 23.18 -13.897 21.606 -27.383 C 18.599 -22.155 13.713 -18.075 7.752 -16.148 C 6.265 -15.661 4.701 -15.315 3.094 -15.12 C 1.629 -14.947 0.174 -14.893 -1.249 -14.969 C -2.215 -15.023 -3.16 -15.131 -4.104 -15.283 C -6.579 -10.867 -7.72 -5.661 -7.068 -0.249 C -7.068 -0.206 -7.068 -0.174 -7.046 -0.13 C -4.886 0.227 -2.649 0.292 -0.369 0.054 C -0.239 0.043 -0.13 0.032 0 0.01 Z" style="fill: rgb(255, 255, 255); fill-opacity: 1;"/>
      </g>
    </g>
  </g>
</svg>