<?xml version="1.0" encoding="UTF-8" standalone="no"?>
<svg enable-background="new" height="128" viewBox="0 0 128 128" width="128" xmlns="http://www.w3.org/2000/svg" xmlns:xlink="http://www.w3.org/1999/xlink" xmlns:dc="http://purl.org/dc/elements/1.1/" xmlns:cc="http://creativecommons.org/ns#" xmlns:rdf="http://www.w3.org/1999/02/22-rdf-syntax-ns#" xmlns:svg="http://www.w3.org/2000/svg">
    <linearGradient id="a" gradientTransform="matrix(0.26040102 0 0 0.28124928 228.62254 9.99973)" gradientUnits="userSpaceOnUse" x1="-156" x2="220" y1="-256" y2="-256">
        <stop offset="0"/>
        <stop offset="1" stop-color="#424048"/>
    </linearGradient>
    <radialGradient id="b" cx="-72.631592" cy="88.04454" gradientTransform="matrix(0.08037048 0 0 2.3749942 234.08741 -273.1054)" gradientUnits="userSpaceOnUse" r="200">
        <stop offset="0" stop-color="#d5d3cf"/>
        <stop offset="1" stop-color="#d5d3cf" stop-opacity="0"/>
    </radialGradient>
    <clipPath id="c">
        <rect height="229.05319" rx="0" width="288.00003" x="270.26764" y="-71.789413"/>
    </clipPath>
    <filter id="d" color-interpolation-filters="sRGB" height="1.036986" width="1.468487" x="-0.234243" y="-0.018493">
        <feGaussianBlur stdDeviation="2.3424332"/>
    </filter>
    <linearGradient id="e" gradientTransform="matrix(0.93103454 0 0 1.0588258 292.89656 192.23586)" gradientUnits="userSpaceOnUse" x1="-74" x2="-16" y1="-243.12489" y2="-242">
        <stop offset="0" stop-color="#6bf9f4"/>
        <stop offset="1" stop-color="#6bf9f4" stop-opacity="0"/>
    </linearGradient>
    <linearGradient id="f" gradientTransform="matrix(0 -1 1 0 -178 300)" gradientUnits="userSpaceOnUse" x1="72" x2="24" y1="244" y2="244">
        <stop offset="0" stop-color="#6bf9f4" stop-opacity="0.489627"/>
        <stop offset="1" stop-color="#08c5bf" stop-opacity="0.65098"/>
    </linearGradient>
    <linearGradient id="g" gradientTransform="matrix(-0.24999998 0 0 0.24999998 145.99999 125.00905)" gradientUnits="userSpaceOnUse" x1="231.99998" x2="583.64319" y1="619.96387" y2="619.96387">
        <stop offset="0" stop-color="#d5d3cf"/>
        <stop offset="0.04550065" stop-color="#e4e1de"/>
        <stop offset="0.09100132" stop-color="#b8b4ae"/>
        <stop offset="0.91001338" stop-color="#ada9a1"/>
        <stop offset="0.95551407" stop-color="#e4e1de"/>
        <stop offset="1" stop-color="#d5d3cf"/>
    </linearGradient>
    <g enable-background="new" transform="matrix(1 0 0 1 20 -172.000001)">
        <rect fill="#deddda" height="87.999786" rx="8" ry="8.799982" transform="matrix(0 1 -1 0 0 0)" width="111.91078" x="180" y="-88"/>
        <g transform="matrix(-1 -0 0 -1 108.000046 468)">
            <rect fill="url(#a)" height="72" rx="4.75" transform="matrix(0 1 -1 0 0 0)" width="92" x="188" y="-100"/>
            <rect fill="url(#b)" height="72" opacity="0.486" rx="0" transform="matrix(0 1 -1 0 0 0)" width="92" x="188" y="-100"/>
            <path clip-path="url(#c)" d="m 372.26766 -113.05191 v 304 h 24 v -304 z" fill="#6bf9f4" filter="url(#d)" transform="matrix(0.00000002 0.33333331 -0.31425019 0 77.44022 97.91079)" font-variant-ligatures="normal" font-variant-position="normal" font-variant-caps="normal" font-variant-numeric="normal" font-variant-alternates="normal" font-feature-settings="normal" text-indent="0" text-align="start" text-decoration-line="none" text-decoration-style="solid" text-decoration-color="#000000" text-transform="none" text-orientation="mixed" white-space="normal" shape-padding="0" isolation="auto" mix-blend-mode="normal" solid-color="#000000" solid-opacity="1" vector-effect="none"/>
            <rect fill="#ffffff" height="60" opacity="0.5" transform="matrix(0 -1 1 0 0 0)" width="4" x="-228" y="36"/>
            <rect fill="url(#e)" height="72.000076" opacity="0.8" rx="0" transform="matrix(0 1 -1 0 0 0)" width="54" x="224" y="-100.00006"/>
            <path d="m 95 227 v 46 s 0 2 -2 2 h -58 c -2 0 -2 -2 -2 -2 v -46" fill="url(#f)" stroke="#abebe9" stroke-width="2"/>
            <g transform="matrix(0 -1 -1 0 306 300)">
                <path d="m 74 210 v 64 h 12 l 9 -15 l 13 -7 v -39 c 0 -3 -3 -3 -3 -3 z" fill="#f6f5f4"/>
                <path d="m 108 252 h -19 s -3 0 -3 3 v 19 z" fill="#deddda" vector-effect="none"/>
            </g>
            <path d="m 100.00006 224 h -72.00008 v 4 h 72.00008 z" fill="#ffffff" font-variant-ligatures="normal" font-variant-position="normal" font-variant-caps="normal" font-variant-numeric="normal" font-variant-alternates="normal" font-feature-settings="normal" text-indent="0" text-align="start" text-decoration-line="none" text-decoration-style="solid" text-decoration-color="#000000" text-transform="none" text-orientation="mixed" white-space="normal" shape-padding="0" isolation="auto" mix-blend-mode="normal" solid-color="#000000" solid-opacity="1" vector-effect="none"/>
        </g>
        <path d="m 87.99998 280.00001 l 0.00001 4.00001 c 0.00001 4.43197 -3.56799 7.99999 -8 7.99999 l -71.999997 0.00001 c -4.431989 0 -7.999992 -3.56801 -7.999995 -8.00001 l -0.000003 -3.99997 c 0.000008 4.43197 3.568009 7.99996 8.000005 7.99996 l 72.00001 0.00003 c 4.43199 0 7.99999 -3.56802 7.99997 -8.00002 z" fill="url(#g)" vector-effect="none" paint-order="normal"/>
    </g>
</svg>