<?xml version="1.0" encoding="UTF-8" standalone="no"?>
<svg enable-background="new" height="128" viewBox="0 0 128 128" width="128" xmlns="http://www.w3.org/2000/svg" xmlns:xlink="http://www.w3.org/1999/xlink" xmlns:dc="http://purl.org/dc/elements/1.1/" xmlns:cc="http://creativecommons.org/ns#" xmlns:rdf="http://www.w3.org/1999/02/22-rdf-syntax-ns#" xmlns:svg="http://www.w3.org/2000/svg">
    <linearGradient id="a" gradientUnits="userSpaceOnUse">
        <stop offset="0" stop-color="#5e5c64"/>
        <stop offset="1" stop-color="#77767b"/>
    </linearGradient>
    <linearGradient id="b" gradientTransform="matrix(1.0769231 0 0 1.0666667 -4.92308 -14.933327)" gradientUnits="userSpaceOnUse" x1="11.999994" x2="116" y1="254" y2="254">
        <stop offset="0" stop-color="#9a9996"/>
        <stop offset="0.03846159" stop-color="#c0bfbc"/>
        <stop offset="0.07692312" stop-color="#77767b"/>
        <stop offset="0.92307693" stop-color="#77767b"/>
        <stop offset="0.96153843" stop-color="#c0bfbc"/>
        <stop offset="1" stop-color="#9a9996"/>
    </linearGradient>
    <linearGradient id="c" gradientTransform="matrix(0 1 -1 0 233 193)" x1="19" x2="31" xlink:href="#a" y1="209" y2="209"/>
    <linearGradient id="d" gradientTransform="matrix(0 1 -1 0 309 237)" x1="19" x2="31" xlink:href="#a" y1="209" y2="209"/>
    <linearGradient id="e" gradientTransform="matrix(0 1 -1 0 257 237)" gradientUnits="userSpaceOnUse" x1="17" x2="31" y1="209" y2="209">
        <stop offset="0" stop-color="#aeadab"/>
        <stop offset="1" stop-color="#ceccc8"/>
    </linearGradient>
    <linearGradient id="f" gradientTransform="matrix(0 1 -1 0 253 193)" x1="19" x2="31" xlink:href="#a" y1="209" y2="209"/>
    <linearGradient id="g" gradientTransform="matrix(0 1 -1 0 273 193)" x1="19" x2="31" xlink:href="#a" y1="209" y2="209"/>
    <linearGradient id="h" gradientTransform="matrix(0 1 -1 0 293 193)" x1="19" x2="31" xlink:href="#a" y1="209" y2="209"/>
    <linearGradient id="i" gradientTransform="matrix(0 1 -1 0 313 193)" x1="19" x2="31" xlink:href="#a" y1="209" y2="209"/>
    <linearGradient id="j" gradientTransform="matrix(0 1 -1 0 243 215)" x1="19" x2="31" xlink:href="#a" y1="209" y2="209"/>
    <linearGradient id="k" gradientTransform="matrix(0 1 -1 0 263 215)" x1="19" x2="31" xlink:href="#a" y1="209" y2="209"/>
    <linearGradient id="l" gradientTransform="matrix(0 1 -1 0 283 215)" x1="19" x2="31" xlink:href="#a" y1="209" y2="209"/>
    <linearGradient id="m" gradientTransform="matrix(0 1 -1 0 313 215)" gradientUnits="userSpaceOnUse" x1="19" x2="31" y1="209" y2="209">
        <stop offset="0" stop-color="#e66100"/>
        <stop offset="1" stop-color="#ff7800"/>
    </linearGradient>
    <linearGradient id="n" gradientTransform="matrix(0 1 -1 0 237 237)" x1="19" x2="31" xlink:href="#a" y1="209" y2="209"/>
    <g transform="matrix(1 0 0 1 0 -172)">
        <rect fill="url(#b)" height="64" rx="8" width="112.00001" x="8" y="224.00003"/>
        <rect fill="#f6f5f4" height="84.000015" rx="8" ry="8.842109" width="112" x="8" y="200"/>
        <path d="m 21 212 h 6 c 2.216 0 3.7795 1.79499 4 4 l 1 10 c 0.2205 2.20501 -1.784 4 -4 4 h -8 c -2.216 0 -4.2205 -1.79499 -4 -4 l 1 -10 c 0.2205 -2.20501 1.784 -4 4 -4 z" fill="#3d3846" vector-effect="none"/>
        <path d="m 31 216 v 4 c 0 2.216 -1.784 4 -4 4 h -6 c -2.216 0 -4 -1.784 -4 -4 v -4 c 0 -2.216 1.784 -4 4 -4 h 6 c 2.216 0 4 1.784 4 4 z" fill="url(#c)" vector-effect="none"/>
        <g fill="#3d3846">
            <path d="m 41 212 h 6 c 2.216 0 3.7795 1.79499 4 4 l 1 10 c 0.2205 2.20501 -1.784 4 -4 4 h -8 c -2.216 0 -4.2205 -1.79499 -4 -4 l 1 -10 c 0.2205 -2.20501 1.784 -4 4 -4 z" vector-effect="none"/>
            <path d="m 61 212 h 6 c 2.216 0 3.7795 1.79499 4 4 l 1 10 c 0.2205 2.20501 -1.784 4 -4 4 h -8 c -2.216 0 -4.2205 -1.79499 -4 -4 l 1 -10 c 0.2205 -2.20501 1.784 -4 4 -4 z" vector-effect="none"/>
            <path d="m 81 212 h 6 c 2.216 0 3.7795 1.79499 4 4 l 1 10 c 0.2205 2.20501 -1.784 4 -4 4 h -8 c -2.216 0 -4.2205 -1.79499 -4 -4 l 1 -10 c 0.2205 -2.20501 1.784 -4 4 -4 z" vector-effect="none"/>
            <path d="m 101 212 h 6 c 2.216 0 3.7795 1.79499 4 4 l 1 10 c 0.2205 2.20501 -1.784 4 -4 4 h -8 c -2.216 0 -4.2205 -1.79499 -4 -4 l 1 -10 c 0.2205 -2.20501 1.784 -4 4 -4 z" vector-effect="none"/>
            <path d="m 31 234 h 6 c 2.216 0 3.7795 1.79499 4 4 l 1 10 c 0.2205 2.20501 -1.784 4 -4 4 h -8 c -2.216 0 -4.2205 -1.79499 -4 -4 l 1 -10 c 0.2205 -2.20501 1.784 -4 4 -4 z" vector-effect="none"/>
            <path d="m 51 234 h 6 c 2.216 0 3.7795 1.79499 4 4 l 1 10 c 0.2205 2.20501 -1.784 4 -4 4 h -8 c -2.216 0 -4.2205 -1.79499 -4 -4 l 1 -10 c 0.2205 -2.20501 1.784 -4 4 -4 z" vector-effect="none"/>
            <path d="m 71 234 h 6 c 2.216 0 3.7795 1.79499 4 4 l 1 10 c 0.2205 2.20501 -1.784 4 -4 4 h -8 c -2.216 0 -4.2205 -1.79499 -4 -4 l 1 -10 c 0.2205 -2.20501 1.784 -4 4 -4 z" vector-effect="none"/>
        </g>
        <path d="m 91 234 h 7 c 2.216 0 3.7795 1.79499 4 4 l 1 10 c 0.2205 2.20501 -1.784 4 -4 4 h -9 c -2.216 0 -4.220501 -1.79499 -4 -4 l 1 -10 c 0.220501 -2.20501 1.784 -4 4 -4 z" fill="#c64600" vector-effect="none"/>
        <path d="m 25 256 h 6 c 2.216 0 3.7795 1.79499 4 4 l 1 10 c 0.2205 2.20501 -1.784 4 -4 4 h -8 c -2.216 0 -4.2205 -1.79499 -4 -4 l 1 -10 c 0.2205 -2.20501 1.784 -4 4 -4 z" fill="#3d3846" vector-effect="none"/>
        <path d="m 97 256 h 6 c 2.216 0 3.7795 1.79499 4 4 l 1 10 c 0.2205 2.20501 -1.784 4 -4 4 h -8 c -2.216 0 -4.2205 -1.79499 -4 -4 l 1 -10 c 0.2205 -2.20501 1.784 -4 4 -4 z" fill="#3d3846" vector-effect="none"/>
        <path d="m 107 260 v 4 c 0 2.216 -1.784 4 -4 4 h -6 c -2.216 0 -4 -1.784 -4 -4 v -4 c 0 -2.216 1.784 -4 4 -4 h 6 c 2.216 0 4 1.784 4 4 z" fill="url(#d)" vector-effect="none"/>
        <path d="m 45 256 h 38 c 2.216 0 3.7795 1.79499 4 4 l 1 10 c 0.2205 2.20501 -1.784 4 -4 4 h -40 c -2.216 0 -4.2205 -1.79499 -4 -4 l 1 -10 c 0.2205 -2.20501 1.784 -4 4 -4 z" fill="#828186" vector-effect="none"/>
        <path d="m 87 260 v 4 c 0 2.216 -1.784 4 -4 4 h -38 c -2.216 0 -4 -1.784 -4 -4 v -4 c 0 -2.216 1.784 -4 4 -4 h 38 c 2.216 0 4 1.784 4 4 z" fill="url(#e)" vector-effect="none"/>
        <path d="m 51 216 v 4 c 0 2.216 -1.784 4 -4 4 h -6 c -2.216 0 -4 -1.784 -4 -4 v -4 c 0 -2.216 1.784 -4 4 -4 h 6 c 2.216 0 4 1.784 4 4 z" fill="url(#f)" vector-effect="none"/>
        <path d="m 71 216 v 4 c 0 2.216 -1.784 4 -4 4 h -6 c -2.216 0 -4 -1.784 -4 -4 v -4 c 0 -2.216 1.784 -4 4 -4 h 6 c 2.216 0 4 1.784 4 4 z" fill="url(#g)" vector-effect="none"/>
        <path d="m 91 216 v 4 c 0 2.216 -1.784 4 -4 4 h -6 c -2.216 0 -4 -1.784 -4 -4 v -4 c 0 -2.216 1.784 -4 4 -4 h 6 c 2.216 0 4 1.784 4 4 z" fill="url(#h)" vector-effect="none"/>
        <path d="m 111 216 v 4 c 0 2.216 -1.784 4 -4 4 h -6 c -2.216 0 -4 -1.784 -4 -4 v -4 c 0 -2.216 1.784 -4 4 -4 h 6 c 2.216 0 4 1.784 4 4 z" fill="url(#i)" vector-effect="none"/>
        <path d="m 41 238 v 4 c 0 2.216 -1.784 4 -4 4 h -6 c -2.216 0 -4 -1.784 -4 -4 v -4 c 0 -2.216 1.784 -4 4 -4 h 6 c 2.216 0 4 1.784 4 4 z" fill="url(#j)" vector-effect="none"/>
        <path d="m 61 238 v 4 c 0 2.216 -1.784 4 -4 4 h -6 c -2.216 0 -4 -1.784 -4 -4 v -4 c 0 -2.216 1.784 -4 4 -4 h 6 c 2.216 0 4 1.784 4 4 z" fill="url(#k)" vector-effect="none"/>
        <path d="m 81 238 v 4 c 0 2.216 -1.784 4 -4 4 h -6 c -2.216 0 -4 -1.784 -4 -4 v -4 c 0 -2.216 1.784 -4 4 -4 h 6 c 2.216 0 4 1.784 4 4 z" fill="url(#l)" vector-effect="none"/>
        <path d="m 102 238 v 4 c 0 2.216 -1.784 4 -4 4 h -7 c -2.216 0 -4 -1.784 -4 -4 v -4 c 0 -2.216 1.784 -4 4 -4 h 7 c 2.216 0 4 1.784 4 4 z" fill="url(#m)" vector-effect="none"/>
        <path d="m 35 260 v 4 c 0 2.216 -1.784 4 -4 4 h -6 c -2.216 0 -4 -1.784 -4 -4 v -4 c 0 -2.216 1.784 -4 4 -4 h 6 c 2.216 0 4 1.784 4 4 z" fill="url(#n)" vector-effect="none"/>
    </g>
</svg>
