<?xml version="1.0" encoding="UTF-8" standalone="no"?>
<svg
    xmlns="http://www.w3.org/2000/svg"
    viewBox="0 0 128 128"
    fill="none"
    version="1.0"
    height="128"
    width="128">
    <title>Lenspect Scalable Icon</title>
    <path d="M110 14H18C14.6863 14 12 16.6863 12 20V110C12 113.314 14.6863 116 18 116H110C113.314 116 116 113.314 116 110V20C116 16.6863 113.314 14 110 14Z" fill="url(#a)"/>
    <path d="M108 12H20C15.5817 12 12 15.5817 12 20V100C12 104.418 15.5817 108 20 108H108C112.418 108 116 104.418 116 100V20C116 15.5817 112.418 12 108 12Z" fill="#dcdcdc"/>
    <path d="M104 20H24C21.7909 20 20 21.7909 20 24V96C20 98.2091 21.7909 100 24 100H104C106.209 100 108 98.2091 108 96V24C108 21.7909 106.209 20 104 20Z" fill="url(#b)"/>
    <path d="M104 19C106.761 19 109 21.2386 109 24V96C109 98.7614 106.761 101 104 101H24C21.2386 101 19 98.7614 19 96V24C19 21.2386 21.2386 19 24 19H104Z" stroke="url(#c)" stroke-linecap="square" stroke-linejoin="round" stroke-miterlimit="16" stroke-width="2" stroke-opacity="0.42"/>
    <mask id="d" height="80" width="88" x="20" y="20" style="mask-type:luminance" maskUnits="userSpaceOnUse">
        <path d="M103.8 20H24.2C21.8804 20 20 21.8804 20 24.2V95.8C20 98.1196 21.8804 100 24.2 100H103.8C106.12 100 108 98.1196 108 95.8V24.2C108 21.8804 106.12 20 103.8 20Z" fill="#ffffff"/>
    </mask>
    <g mask="url(#d)">
        <g fill="#000000" opacity="0.35">
            <path d="M79 68H73V62H79V68ZM75 66H77V64H75V66Z" fill-rule="evenodd" clip-rule="evenodd"/>
            <path d="M85 62V68H83V64H82V63L83 62H85ZM62 44V50H60V46H59V45L60 44H62Z"/>
            <path d="M73 59H67V53H73V59ZM69 57H71V55H69V57Z" fill-rule="evenodd" clip-rule="evenodd"/>
            <path d="M79 53V59H77V55H76V54L77 53H79Z"/>
            <path d="M71 50H65V44H71V50ZM67 48H69V46H67V48Z" fill-rule="evenodd" clip-rule="evenodd"/>
        </g>
        <g filter="url(#e)" opacity="0.2">
            <path d="M90.0488 69.1354C90.3138 68.2963 91.2033 67.8155 92.0332 68.067C92.8637 68.3166 93.321 69.2008 93.0537 70.0416L91.9277 73.6012C93.4902 74.1855 94.6617 74.9783 95.4257 75.9703C95.4607 75.9806 95.5004 75.9851 95.5361 75.9967C96.2084 76.2192 97.1093 76.6169 98.1259 77.2692L98.5468 75.8395C98.834 74.8657 99.4813 74.0378 100.356 73.5231L102.3 72.3795C103.059 71.9335 104.022 72.1838 104.449 72.9381C104.877 73.694 104.607 74.6676 103.849 75.1139L103.016 75.6041C102.141 76.1185 101.494 76.9458 101.207 77.9186L100.762 79.4284C101.582 80.2544 102.425 81.2687 103.255 82.5006L105.111 81.9479C106.672 81.4833 108.354 81.6729 109.772 82.4733L112.217 83.8532C112.969 84.2782 113.223 85.2439 112.786 86.0114C112.64 86.267 112.435 86.469 112.198 86.608C111.727 86.8853 111.13 86.9139 110.627 86.6305L109.169 85.8073C107.854 85.0647 106.294 84.8882 104.847 85.319C105.266 86.3885 105.782 88.1899 105.823 90.6207C107.786 90.4811 109.722 91.1402 111.191 92.4489L112.184 93.3327C112.829 93.906 112.877 94.9091 112.293 95.5719C112.177 95.7037 112.043 95.8132 111.898 95.8981C111.323 96.2367 110.581 96.1906 110.063 95.7301L109.341 95.0866C108.319 94.177 106.973 93.7178 105.608 93.8141C105.482 94.6706 105.297 95.5751 105.034 96.528L104.75 97.5641C104.211 99.5177 102.953 101.158 101.207 102.185C99.4626 103.211 97.4394 103.501 95.5107 102.999L94.4853 102.732C93.5161 102.48 92.6343 102.182 91.8261 101.855C90.781 103.253 90.3734 105.028 90.705 106.742L90.7705 107.077C90.9046 107.763 90.5729 108.442 89.997 108.781C89.854 108.865 89.6925 108.928 89.5224 108.964C88.667 109.148 87.8387 108.604 87.6738 107.749L87.4902 106.803C87.0612 104.589 87.587 102.295 88.9384 100.489L88.9882 100.422C86.9018 99.1309 85.6322 97.7355 84.9638 96.8473L84.5966 97.2047C83.4617 98.3096 82.8091 99.8183 82.7822 101.402L82.7548 103.024C82.7441 103.61 82.4207 104.121 81.9492 104.398C81.7129 104.537 81.4406 104.619 81.1494 104.619C80.2768 104.622 79.584 103.914 79.5986 103.038L79.6494 100.078C79.6769 98.4957 80.3285 96.9886 81.4619 95.8844L83.3808 94.0153C82.7888 92.7379 82.3792 91.5544 82.0957 90.4655L80.0127 90.1588C79.1095 90.026 78.188 90.2055 77.4013 90.6686L76.3535 91.2858C75.5946 91.7321 74.6315 91.4831 74.2031 90.7272C73.7757 89.9727 74.0451 88.9988 74.8037 88.5524L76.8232 87.3639C77.6095 86.9013 78.531 86.7206 79.4336 86.8532L81.5693 87.1676C81.5045 85.8664 81.6287 84.8262 81.7812 84.0895C81.7895 84.0427 81.8096 83.9974 81.8222 83.9518C81.3445 82.711 81.2746 81.2329 81.5888 79.5172L78.5839 78.3493C77.7758 78.0355 77.3907 77.1179 77.7177 76.2985C78.0459 75.4805 78.9657 75.0678 79.7734 75.3834L82.6494 76.5006C83.7848 74.8523 86.2024 72.8788 88.8574 72.903L90.0488 69.1354Z" fill="#000000"/>
        </g>
        <path d="M91.0488 67.1354C91.3138 66.2963 92.2033 65.8155 93.0332 66.067C93.8637 66.3166 94.321 67.2008 94.0537 68.0416L92.9277 71.6012C94.4902 72.1855 95.6617 72.9783 96.4257 73.9703C96.4607 73.9806 96.5004 73.9851 96.5361 73.9967C97.2084 74.2192 98.1093 74.6169 99.1259 75.2692L99.5468 73.8395C99.834 72.8657 100.481 72.0378 101.356 71.5231L103.3 70.3795C104.059 69.9335 105.022 70.1838 105.449 70.9381C105.877 71.694 105.607 72.6676 104.849 73.1139L104.016 73.6041C103.141 74.1185 102.494 74.9458 102.207 75.9186L101.762 77.4284C102.582 78.2544 103.425 79.2687 104.255 80.5006L106.111 79.9479C107.672 79.4833 109.354 79.6729 110.772 80.4733L113.217 81.8532C113.969 82.2782 114.223 83.2439 113.786 84.0114C113.64 84.267 113.435 84.469 113.198 84.608C112.727 84.8853 112.13 84.9139 111.627 84.6305L110.169 83.8073C108.854 83.0647 107.294 82.8882 105.847 83.319C106.266 84.3885 106.782 86.1899 106.823 88.6207C108.786 88.4811 110.722 89.1402 112.191 90.4489L113.184 91.3327C113.829 91.906 113.877 92.9091 113.293 93.5719C113.177 93.7037 113.043 93.8132 112.898 93.8981C112.323 94.2367 111.581 94.1906 111.063 93.7301L110.341 93.0866C109.319 92.177 107.973 91.7178 106.608 91.8141C106.482 92.6706 106.297 93.5751 106.034 94.528L105.75 95.5641C105.211 97.5177 103.953 99.1583 102.207 100.185C100.463 101.211 98.4394 101.501 96.5107 100.999L95.4853 100.732C94.5161 100.48 93.6343 100.182 92.8261 99.8551C91.781 101.253 91.3734 103.028 91.705 104.742L91.7705 105.077C91.9046 105.763 91.5729 106.442 90.997 106.781C90.854 106.865 90.6925 106.928 90.5224 106.964C89.667 107.148 88.8387 106.604 88.6738 105.749L88.4902 104.803C88.0612 102.589 88.587 100.295 89.9384 98.4889L89.9882 98.4225C87.9018 97.1309 86.6322 95.7355 85.9638 94.8473L85.5966 95.2047C84.4617 96.3096 83.8091 97.8183 83.7822 99.402L83.7548 101.024C83.7441 101.61 83.4207 102.121 82.9492 102.398C82.7129 102.537 82.4406 102.619 82.1494 102.619C81.2768 102.622 80.584 101.914 80.5986 101.038L80.6494 98.0778C80.6769 96.4957 81.3285 94.9886 82.4619 93.8844L84.3808 92.0153C83.7888 90.7379 83.3792 89.5544 83.0957 88.4655L81.0127 88.1588C80.1095 88.026 79.188 88.2055 78.4013 88.6686L77.3535 89.2858C76.5946 89.7321 75.6315 89.4831 75.2031 88.7272C74.7757 87.9727 75.0451 86.9988 75.8037 86.5524L77.8232 85.3639C78.6095 84.9013 79.531 84.7206 80.4336 84.8532L82.5693 85.1676C82.5045 83.8664 82.6287 82.8262 82.7812 82.0895C82.7895 82.0427 82.8096 81.9974 82.8222 81.9518C82.3445 80.711 82.2746 79.2329 82.5888 77.5172L79.5839 76.3493C78.7758 76.0355 78.3907 75.1179 78.7177 74.2985C79.0459 73.4805 79.9657 73.0678 80.7734 73.3834L83.6494 74.5006C84.7848 72.8523 87.2024 70.8788 89.8574 70.903L91.0488 67.1354Z" fill="url(#f)" opacity="0.72"/>
        <g filter="url(#g)" opacity="0.2">
            <path d="M87.7469 16.6634C88.24 15.9564 89.2338 15.7876 89.9666 16.2865C90.2105 16.4535 90.3945 16.6746 90.5135 16.9203C90.7507 17.4107 90.7272 18.0026 90.3983 18.4759L89.4373 19.8558C88.5804 21.0855 88.2676 22.6141 88.5731 24.0814C89.6845 23.7595 91.541 23.4039 93.9871 23.5736C94.0187 21.6219 94.8453 19.7674 96.2762 18.4398L97.2703 17.5179C97.9031 16.9293 98.9154 16.9674 99.5301 17.6029C99.6523 17.7288 99.7504 17.8718 99.8231 18.0218C100.113 18.6208 100 19.3503 99.492 19.8226L98.7694 20.4945C97.775 21.4178 97.1998 22.7062 97.1766 24.0629C98.026 24.2625 98.919 24.5241 99.8533 24.8666L100.869 25.2377C102.784 25.9399 104.322 27.3263 105.201 29.142C106.079 30.9565 106.192 32.9837 105.518 34.848L105.161 35.8382C104.823 36.7751 104.445 37.6219 104.046 38.3929C105.36 39.5496 107.098 40.1049 108.84 39.9261L109.2 39.889C109.901 39.8158 110.554 40.2033 110.844 40.8021C110.915 40.9507 110.966 41.1152 110.987 41.2865C111.097 42.1489 110.478 42.9222 109.603 43.0111L108.561 43.1185C106.344 43.3459 104.133 42.6378 102.46 41.1654L102.358 41.0756C100.877 43.0276 99.3621 44.1623 98.411 44.7465L98.7518 45.1576C99.7546 46.366 101.192 47.1331 102.754 47.2943L104.425 47.4672C105.012 47.5286 105.497 47.8928 105.734 48.3832C105.853 48.6289 105.911 48.9057 105.886 49.1937C105.812 50.0568 105.04 50.6805 104.161 50.5902L101.149 50.2787C99.5879 50.1172 98.1518 49.3508 97.1492 48.1429L95.4266 46.0677C94.0912 46.5425 92.8659 46.8435 91.7469 47.0297L91.2625 49.0355C91.0457 49.9354 91.1483 50.8831 91.5516 51.7162L92.0672 52.7816C92.4489 53.5709 92.1143 54.5014 91.3172 54.8597C90.5215 55.2173 89.5664 54.8666 89.1844 54.0775L88.1795 52.0023C87.7761 51.1689 87.6742 50.2207 87.8914 49.3207L88.3875 47.266C87.0748 47.2174 86.0401 47.005 85.3133 46.7904C85.267 46.7781 85.2223 46.7541 85.1776 46.7377C83.8889 47.1026 82.3973 47.0429 80.701 46.5834L79.2645 49.4545C78.8782 50.2266 77.9214 50.5287 77.1268 50.1341C76.3337 49.7386 76.0004 48.7924 76.3885 48.0209L77.7635 45.2738C76.2069 44.0079 74.4359 41.4447 74.6932 38.8207L71.0125 37.3158C70.1927 36.981 69.7874 36.0592 70.1131 35.2601C70.4368 34.4601 71.3659 34.0848 72.1873 34.4222L75.6649 35.8441C76.3892 34.3491 77.2893 33.259 78.3533 32.5892C78.3666 32.5556 78.3738 32.5161 78.3885 32.4818C78.671 31.8361 79.1509 30.9804 79.8953 30.0316L78.4832 29.4857C77.5378 29.1203 76.7656 28.4088 76.324 27.4965L75.3475 25.4779C74.9665 24.6889 75.3024 23.7584 76.0975 23.4007C76.8945 23.0427 77.8493 23.394 78.2313 24.183L78.6492 25.0472C79.0905 25.9587 79.8611 26.669 80.8055 27.0345L82.2947 27.6107C83.1967 26.8712 84.2898 26.1259 85.6004 25.4115L85.2195 23.5785C84.8836 21.9632 85.2277 20.2809 86.1707 18.9271L87.7469 16.6634Z" fill="#000000"/>
        </g>
        <path d="M86.7469 14.6634C87.24 13.9564 88.2338 13.7876 88.9666 14.2865C89.2105 14.4535 89.3945 14.6746 89.5135 14.9203C89.7507 15.4107 89.7272 16.0026 89.3983 16.4759L88.4373 17.8558C87.5804 19.0855 87.2676 20.6141 87.5731 22.0814C88.6845 21.7595 90.541 21.4039 92.9871 21.5736C93.0187 19.6219 93.8453 17.7674 95.2762 16.4398L96.2703 15.5179C96.9031 14.9293 97.9154 14.9674 98.5301 15.6029C98.6523 15.7288 98.7504 15.8718 98.8231 16.0218C99.1128 16.6208 99.0003 17.3503 98.492 17.8226L97.7694 18.4945C96.775 19.4178 96.1998 20.7062 96.1766 22.0629C97.026 22.2625 97.919 22.5241 98.8533 22.8666L99.869 23.2377C101.784 23.9399 103.322 25.3263 104.201 27.142C105.079 28.9565 105.192 30.9837 104.518 32.848L104.161 33.8382C103.823 34.7751 103.445 35.6219 103.046 36.3929C104.36 37.5496 106.098 38.1049 107.84 37.9261L108.2 37.889C108.901 37.8158 109.554 38.2033 109.844 38.8021C109.915 38.9507 109.966 39.1152 109.987 39.2865C110.097 40.1489 109.478 40.9222 108.603 41.0111L107.561 41.1185C105.344 41.3459 103.133 40.6378 101.46 39.1654L101.358 39.0756C99.8771 41.0276 98.3621 42.1623 97.411 42.7465L97.7518 43.1576C98.7546 44.366 100.192 45.1331 101.754 45.2943L103.425 45.4672C104.012 45.5286 104.497 45.8928 104.734 46.3832C104.853 46.6289 104.911 46.9057 104.886 47.1937C104.812 48.0568 104.04 48.6805 103.161 48.5902L100.149 48.2787C98.5879 48.1172 97.1518 47.3508 96.1492 46.1429L94.4266 44.0677C93.0912 44.5425 91.8659 44.8435 90.7469 45.0297L90.2625 47.0355C90.0457 47.9354 90.1483 48.8831 90.5516 49.7162L91.0672 50.7816C91.4489 51.5709 91.1143 52.5014 90.3172 52.8597C89.5215 53.2173 88.5664 52.8666 88.1844 52.0775L87.1795 50.0023C86.7761 49.1689 86.6742 48.2207 86.8914 47.3207L87.3875 45.266C86.0748 45.2174 85.0401 45.005 84.3133 44.7904C84.267 44.7781 84.2223 44.7541 84.1776 44.7377C82.8889 45.1026 81.3973 45.0429 79.701 44.5834L78.2645 47.4545C77.8782 48.2266 76.9214 48.5287 76.1268 48.1341C75.3337 47.7386 75.0004 46.7924 75.3885 46.0209L76.7635 43.2738C75.2069 42.0079 73.4359 39.4447 73.6932 36.8207L70.0125 35.3158C69.1927 34.981 68.7874 34.0592 69.1131 33.2601C69.4368 32.4601 70.3659 32.0848 71.1873 32.4222L74.6649 33.8441C75.3892 32.3491 76.2893 31.259 77.3533 30.5892C77.3666 30.5556 77.3738 30.5161 77.3885 30.4818C77.671 29.8361 78.1509 28.9804 78.8953 28.0316L77.4832 27.4857C76.5378 27.1203 75.7656 26.4088 75.324 25.4965L74.3475 23.4779C73.9665 22.6889 74.3024 21.7584 75.0975 21.4007C75.8945 21.0427 76.8493 21.394 77.2313 22.183L77.6492 23.0472C78.0905 23.9587 78.8611 24.669 79.8055 25.0345L81.2947 25.6107C82.1967 24.8712 83.2898 24.1259 84.6004 23.4115L84.2195 21.5785C83.8836 19.9632 84.2277 18.2809 85.1707 16.9271L86.7469 14.6634Z" fill="url(#h)" opacity="0.72"/>
        <g filter="url(#i)" opacity="0.2">
            <path d="M33.793 20.1348C34.5942 19.7854 35.5298 20.1378 35.8779 20.9268L37.1221 23.7324C39.0705 23.3599 42.1476 23.6544 43.999 25.5303L47.4648 23.6953C48.2364 23.2867 49.1979 23.5689 49.6064 24.3281C50.0167 25.0864 49.7216 26.033 48.9473 26.4414L45.6738 28.1748C46.3658 29.6826 46.6367 31.0652 46.4824 32.3027C46.4999 32.3343 46.525 32.3644 46.542 32.3975C46.86 33.0257 47.216 33.9387 47.4766 35.1123L48.7539 34.4043C49.6453 33.9099 50.6918 33.7741 51.6797 34.0254L53.8232 34.5713C54.6681 34.7866 55.1712 35.638 54.9463 36.4717C54.7204 37.3066 53.8518 37.8076 53.0068 37.5928L52.1006 37.3613C51.1129 37.1098 50.0663 37.2454 49.1748 37.7393L47.8262 38.4863C47.8272 39.6456 47.7123 40.9543 47.4375 42.4082L49.1103 43.3057C50.545 44.0761 51.6051 45.3975 52.0469 46.9648L52.8008 49.6416C53.0335 50.4691 52.539 51.3307 51.6963 51.5684C51.4151 51.6468 51.1304 51.6461 50.8672 51.5791C50.3421 51.4454 49.9027 51.0493 49.7461 50.4961L49.291 48.8828C48.8852 47.4418 47.9107 46.2278 46.5918 45.5195C46.1409 46.5706 45.2488 48.2094 43.583 49.96C45.0618 51.2351 45.9634 53.053 46.084 55.002L46.167 56.333C46.2214 57.1908 45.5568 57.9354 44.6836 57.9961C44.5102 58.0084 44.3375 57.9921 44.1768 57.9512C43.5357 57.7877 43.0472 57.2354 43.0039 56.5469L42.9434 55.5791C42.8588 54.2232 42.2322 52.9584 41.2041 52.0703C40.5177 52.5882 39.7584 53.0999 38.9092 53.5908L37.9854 54.125C36.2439 55.1315 34.2142 55.4139 32.2695 54.9189C30.3268 54.4242 28.7013 53.2118 27.6943 51.5059L27.1592 50.5996C26.6529 49.7429 26.2403 48.9141 25.8994 48.1172C24.1889 48.3757 22.6668 49.3445 21.709 50.7852L21.5156 51.0771C21.1314 51.6572 20.4237 51.9053 19.7822 51.7422C19.6232 51.7017 19.4661 51.6333 19.3213 51.54C18.5906 51.0714 18.387 50.1056 18.8682 49.3838L19.3857 48.6045C20.6358 46.7237 22.6224 45.4588 24.8555 45.1221L24.9004 45.1152C24.333 42.74 24.4135 40.8628 24.5625 39.7656L24.0859 39.7617C22.4971 39.7494 20.9675 40.368 19.834 41.4814L18.7012 42.5947C18.2851 43.0021 17.7009 43.1356 17.1758 43.002C16.9126 42.9349 16.663 42.8035 16.458 42.5996C15.8421 41.9908 15.8487 41.0039 16.4697 40.3936L18.5537 38.3486C19.6865 37.2371 21.2138 36.6191 22.8008 36.6309L25.4229 36.6504C25.897 35.3313 26.4344 34.2061 26.9941 33.2363L25.751 31.5723C25.2026 30.8384 24.4191 30.3153 23.5312 30.0898L22.3818 29.7979C21.5367 29.5827 21.0325 28.7317 21.2578 27.8965C21.483 27.0627 22.3521 26.5595 23.1973 26.7744L25.4307 27.3438C26.3172 27.5695 27.0997 28.0925 27.6475 28.8252L28.9238 30.5312C29.7853 29.5645 30.5978 28.915 31.2188 28.5C31.2572 28.4727 31.3031 28.4542 31.3438 28.4307C31.8728 27.2173 32.8548 26.1213 34.2725 25.126L32.9717 22.1953C32.6217 21.4072 32.9912 20.4861 33.793 20.1348Z" fill="#000000"/>
        </g>
        <path d="M32.793 18.1348C33.5942 17.7854 34.5298 18.1378 34.8779 18.9268L36.1221 21.7324C38.0705 21.3599 41.1476 21.6544 42.999 23.5303L46.4648 21.6953C47.2364 21.2867 48.1979 21.5689 48.6064 22.3281C49.0167 23.0864 48.7216 24.033 47.9473 24.4414L44.6738 26.1748C45.3658 27.6826 45.6367 29.0652 45.4824 30.3027C45.4999 30.3343 45.525 30.3644 45.542 30.3975C45.86 31.0257 46.216 31.9387 46.4766 33.1123L47.7539 32.4043C48.6453 31.9099 49.6918 31.7741 50.6797 32.0254L52.8232 32.5713C53.6681 32.7866 54.1712 33.638 53.9463 34.4717C53.7204 35.3066 52.8518 35.8076 52.0068 35.5928L51.1006 35.3613C50.1129 35.1098 49.0663 35.2454 48.1748 35.7393L46.8262 36.4863C46.8272 37.6456 46.7123 38.9543 46.4375 40.4082L48.1103 41.3057C49.545 42.0761 50.6051 43.3975 51.0469 44.9648L51.8008 47.6416C52.0335 48.4691 51.539 49.3307 50.6963 49.5684C50.4151 49.6468 50.1304 49.6461 49.8672 49.5791C49.3421 49.4454 48.9027 49.0493 48.7461 48.4961L48.291 46.8828C47.8852 45.4418 46.9107 44.2278 45.5918 43.5195C45.1409 44.5706 44.2488 46.2094 42.583 47.96C44.0618 49.2351 44.9634 51.053 45.084 53.002L45.167 54.333C45.2214 55.1908 44.5568 55.9354 43.6836 55.9961C43.5102 56.0084 43.3375 55.9921 43.1768 55.9512C42.5357 55.7877 42.0472 55.2354 42.0039 54.5469L41.9434 53.5791C41.8588 52.2232 41.2322 50.9584 40.2041 50.0703C39.5177 50.5882 38.7584 51.0999 37.9092 51.5908L36.9854 52.125C35.2439 53.1315 33.2142 53.4139 31.2695 52.9189C29.3268 52.4242 27.7013 51.2118 26.6943 49.5059L26.1592 48.5996C25.6529 47.7429 25.2403 46.9141 24.8994 46.1172C23.1889 46.3757 21.6668 47.3445 20.709 48.7852L20.5156 49.0771C20.1314 49.6572 19.4237 49.9053 18.7822 49.7422C18.6232 49.7017 18.4661 49.6333 18.3213 49.54C17.5906 49.0714 17.387 48.1056 17.8682 47.3838L18.3857 46.6045C19.6358 44.7237 21.6224 43.4588 23.8555 43.1221L23.9004 43.1152C23.333 40.74 23.4135 38.8628 23.5625 37.7656L23.0859 37.7617C21.4971 37.7494 19.9675 38.368 18.834 39.4814L17.7012 40.5947C17.2851 41.0021 16.7009 41.1356 16.1758 41.002C15.9126 40.9349 15.663 40.8035 15.458 40.5996C14.8421 39.9908 14.8487 39.0039 15.4697 38.3936L17.5537 36.3486C18.6865 35.2371 20.2138 34.6191 21.8008 34.6309L24.4229 34.6504C24.897 33.3313 25.4344 32.2061 25.9941 31.2363L24.751 29.5723C24.2026 28.8384 23.4191 28.3153 22.5312 28.0898L21.3818 27.7979C20.5367 27.5827 20.0325 26.7317 20.2578 25.8965C20.483 25.0627 21.3521 24.5595 22.1973 24.7744L24.4307 25.3438C25.3172 25.5695 26.0997 26.0925 26.6475 26.8252L27.9238 28.5312C28.7853 27.5645 29.5978 26.915 30.2188 26.5C30.2572 26.4727 30.3031 26.4542 30.3438 26.4307C30.8728 25.2173 31.8548 24.1213 33.2725 23.126L31.9717 20.1953C31.6217 19.4072 31.9912 18.4861 32.793 18.1348Z" fill="url(#j)" opacity="0.72"/>
    </g>
    <path d="M18 82H38V102H18z" fill="#dcdcdc"/>
    <g filter="url(#k)" opacity="0.2">
        <path d="M48.1923 50C64.6542 50 78 62.0655 78 78.4082C78 94.7508 64.6542 108 48.1923 108C43.9162 108 39.8512 107.104 36.1749 105.494C24.8302 104.243 16 94.5091 16 82.684C16 78.2565 17.2384 74.2342 19.3825 70.8738C22.7677 58.4906 34.3831 50 48.1923 50Z" fill="#000000"/>
    </g>
    <mask id="l" height="60" width="60" x="15" y="45" style="mask-type:alpha" maskUnits="userSpaceOnUse">
        <path d="M15 75C15 91.5681 28.4319 105 45 105C61.5681 105 75 91.5681 75 75C75 58.4319 61.5681 45 45 45C28.4319 45 15 58.4319 15 75Z" fill="#000000"/>
    </mask>
    <g mask="url(#l)">
        <path d="M15 75C15 91.5681 28.4319 105 45 105C61.5681 105 75 91.5681 75 75C75 58.4319 61.5681 45 45 45C28.4319 45 15 58.4319 15 75Z" fill="#192628"/>
        <g filter="url(#m)" opacity="0.2">
            <path d="M39.9784 54.0364C41.8366 53.7644 43.5768 55.0465 43.8536 56.9069L44.8519 63.5228C49.1003 63.8659 55.3135 66.263 58.0931 71.2769L66.3102 69.4243C68.1399 69.0111 69.9735 70.1614 70.392 71.9939C70.8146 73.8251 69.669 75.6444 67.8339 76.0552L60.0699 77.8051C60.6541 81.3753 59.3726 84.4378 58.3551 86.9506C58.3735 87.0274 58.407 87.1065 58.4236 87.1862C58.7284 88.6909 58.9524 89.7914 58.8307 92.4098L61.2294 91.8182C63.771 91.1919 66.4545 91.5735 68.7245 92.8837L72.291 94.9419C73.9209 95.883 74.4837 97.9634 73.547 99.5861C72.6082 101.212 70.5255 101.762 68.8951 100.822L67.7137 100.14C65.4449 98.8309 62.7627 98.4496 60.2224 99.0747L57.6518 99.7064C57.0002 102.144 56.0265 105.853 54.6369 108.751L56.9149 110.947C59.8922 113.819 61.5919 117.78 61.629 121.932L61.6751 127.057C61.6911 128.932 60.1798 130.459 58.2991 130.472C57.6717 130.474 57.0805 130.307 56.5726 130.014C55.5598 129.43 54.8711 128.342 54.8584 127.089L54.8273 123.42C54.7993 120.163 53.4659 117.057 51.1302 114.804C49.603 116.753 46.8287 119.679 42.389 122.397C44.7358 125.936 45.5791 130.273 44.7306 134.442L44.1505 137.291C43.7795 139.127 41.9807 140.308 40.1359 139.929C39.7697 139.855 39.4239 139.721 39.1139 139.542C37.8769 138.828 37.1755 137.384 37.4745 135.911L37.8952 133.839C38.4851 130.94 37.8992 127.924 36.2682 125.462C34.5536 126.154 32.6899 126.788 30.6528 127.329L28.437 127.921C24.2602 129.03 20.9606 128.449 17.2093 126.284C13.4612 124.121 11.8396 120.633 10.7145 116.464L10.1169 114.249C9.55043 112.155 9.16178 110.173 8.90448 108.3C5.21665 107.855 1.51466 109.012 -1.27569 111.48L-1.8508 111.989C-2.97426 112.987 -4.57927 113.1 -5.81681 112.386C-6.12407 112.209 -6.41173 111.975 -6.65955 111.695C-7.90941 110.287 -7.78805 108.139 -6.38445 106.9L-4.93423 105.618C-1.24432 102.352 3.65133 100.823 8.52855 101.413C8.69187 96.0905 9.91636 92.1893 10.8439 89.969C6.92859 88.8448 2.72902 89.3427 -0.820084 91.3516L-2.90018 92.5286C-3.99241 93.1449 -5.27915 93.0907 -6.29233 92.5061C-6.79983 92.213 -7.2409 91.7906 -7.55085 91.2438C-8.48397 89.608 -7.91589 87.5377 -6.28486 86.6134L-1.72009 84.0325C1.83456 82.0226 6.03937 81.5252 9.9601 82.6499L14.3854 83.9184C16.1121 81.4191 18.8843 78.3412 20.5914 76.6259L19.1449 72.9042C18.2973 70.7236 16.735 68.8999 14.7171 67.7361L12.9693 66.7283C11.3389 65.7873 10.7747 63.7087 11.7133 62.0828C12.6503 60.4602 14.7335 59.9066 16.364 60.8469L20.2005 63.0606C22.2172 64.2241 23.7783 66.0469 24.6259 68.2262L26.1159 72.0556C28.4474 70.5207 29.4727 70.646 30.9939 70.1325C31.0889 70.0974 31.194 70.0869 31.2914 70.061C33.0723 67.8159 34.6603 66.0794 38.1597 64.8064L37.1178 57.8921C36.837 56.0332 38.119 54.312 39.9784 54.0364Z" fill="#000000"/>
        </g>
        <path d="M38.9784 52.0364C40.8366 51.7644 42.5768 53.0465 42.8536 54.9069L43.8519 61.5228C48.1003 61.8659 54.3135 64.263 57.0931 69.2769L65.3102 67.4243C67.1399 67.0111 68.9735 68.1614 69.392 69.9939C69.8146 71.8251 68.669 73.6444 66.8339 74.0552L59.0699 75.8051C59.6541 79.3753 58.3726 82.4378 57.3551 84.9506C57.3735 85.0274 57.407 85.1065 57.4236 85.1862C57.7284 86.6909 57.9524 87.7914 57.8307 90.4098L60.2294 89.8182C62.771 89.1919 65.4545 89.5735 67.7245 90.8837L71.291 92.9419C72.9209 93.883 73.4837 95.9634 72.547 97.5861C71.6082 99.2115 69.5255 99.7624 67.8951 98.822L66.7137 98.1401C64.4449 96.8309 61.7627 96.4496 59.2224 97.0747L56.6518 97.7064C56.0002 100.144 55.0265 103.853 53.6369 106.751L55.9149 108.947C58.8922 111.819 60.5919 115.78 60.629 119.932L60.6751 125.057C60.6911 126.932 59.1798 128.459 57.2991 128.472C56.6717 128.474 56.0805 128.307 55.5726 128.014C54.5598 127.43 53.8711 126.342 53.8584 125.089L53.8273 121.42C53.7993 118.163 52.4659 115.057 50.1302 112.804C48.603 114.753 45.8287 117.679 41.389 120.397C43.7358 123.936 44.5791 128.273 43.7306 132.442L43.1505 135.291C42.7795 137.127 40.9807 138.308 39.1359 137.929C38.7697 137.855 38.4239 137.721 38.1139 137.542C36.8769 136.828 36.1755 135.384 36.4745 133.911L36.8952 131.839C37.4851 128.94 36.8992 125.924 35.2682 123.462C33.5536 124.154 31.6899 124.788 29.6528 125.329L27.437 125.921C23.2602 127.03 19.9606 126.449 16.2093 124.284C12.4612 122.121 10.8396 118.633 9.71446 114.464L9.11694 112.249C8.55043 110.155 8.16178 108.173 7.90448 106.3C4.21665 105.855 0.514658 107.012 -2.27569 109.48L-2.8508 109.989C-3.97426 110.987 -5.57927 111.1 -6.81681 110.386C-7.12407 110.209 -7.41173 109.975 -7.65955 109.695C-8.90941 108.287 -8.78805 106.139 -7.38445 104.9L-5.93423 103.618C-2.24432 100.352 2.65133 98.8231 7.52855 99.4134C7.69187 94.0905 8.91636 90.1893 9.84392 87.969C5.92859 86.8448 1.72902 87.3427 -1.82008 89.3516L-3.90018 90.5286C-4.99241 91.1449 -6.27915 91.0907 -7.29233 90.5061C-7.79983 90.213 -8.2409 89.7906 -8.55085 89.2438C-9.48397 87.608 -8.91589 85.5377 -7.28486 84.6134L-2.72009 82.0325C0.834558 80.0226 5.03937 79.5252 8.9601 80.6499L13.3854 81.9184C15.1121 79.4191 17.8843 76.3412 19.5914 74.6259L18.1449 70.9042C17.2973 68.7236 15.735 66.8999 13.7171 65.7361L11.9693 64.7283C10.3389 63.7873 9.7747 61.7087 10.7133 60.0828C11.6503 58.4602 13.7335 57.9066 15.364 58.8469L19.2005 61.0606C21.2172 62.2241 22.7783 64.0469 23.6259 66.2262L25.1159 70.0556C27.4474 68.5207 28.4727 68.646 29.9939 68.1325C30.0889 68.0974 30.194 68.0869 30.2914 68.061C32.0723 65.8159 33.6603 64.0794 37.1597 62.8064L36.1178 55.8921C35.837 54.0332 37.119 52.312 38.9784 52.0364Z" fill="url(#n)" opacity="0.72"/>
        <path d="M47.3077 70.954C46.6389 70.5212 45.7426 70.5296 44.7147 71.1077L27.9937 81.2098C26.5826 82.0392 26.3256 84.2405 27.6935 85.0303L44.8836 94.955C46.1647 95.6947 48.2253 94.9074 48.2054 92.8791L48.4659 73.38C48.4209 72.2557 47.9766 71.3868 47.3077 70.954ZM45.8546 76.7714L42.1652 83.1614C41.7863 83.8413 40.8098 84.0829 40.1208 83.6851C39.4317 83.2873 39.1527 82.3208 39.552 81.6527L43.2413 75.2626L45.8546 76.7714ZM39.3829 84.9631C40.1026 85.3786 40.3581 86.2916 39.9517 86.9955C39.5453 87.6994 38.6268 87.9346 37.9072 87.5191C37.1875 87.1036 36.932 86.1906 37.3384 85.4867C37.7448 84.7828 38.6632 84.5476 39.3829 84.9631Z" fill="#000000" opacity="0.35"/>
    </g>
    <path d="M15 75.4082C15 91.7508 28.4319 105 45 105C61.5681 105 75 91.7508 75 75.4082C75 59.0655 61.5681 47 45 47C28.4319 47 15 59.0655 15 75.4082Z" stroke="url(#o)" stroke-linejoin="round" stroke-width="3"/>
    <circle cx="45" cy="76" r="30" fill="url(#p)"/>
    <path d="M15 75C15 91.5681 28.4319 105 45 105C61.5681 105 75 91.5681 75 75C75 58.4319 61.5681 45 45 45C28.4319 45 15 58.4319 15 75Z" stroke="url(#q)" stroke-linejoin="round" stroke-width="3"/>
    <defs>
        <linearGradient id="a" x1="12" y1="-5" x2="116" y2="-5" gradientUnits="userSpaceOnUse">
            <stop stop-color="#384446"/>
            <stop stop-color="#9a9996" offset="0.0357143"/>
            <stop stop-color="#5c6364" offset="0.0713653"/>
            <stop stop-color="#5c6364" offset="0.928571"/>
            <stop stop-color="#9a9996" offset="0.964286"/>
            <stop stop-color="#384446" offset="1"/>
        </linearGradient>
        <linearGradient id="c" x1="64" y1="18" x2="64" y2="102" gradientUnits="userSpaceOnUse">
            <stop stop-color="#384446"/>
            <stop stop-color="#384446" stop-opacity="0.5" offset="1"/>
        </linearGradient>
        <linearGradient id="f" x1="75" y1="66.0002" x2="99.6253" y2="102.519" gradientUnits="userSpaceOnUse">
            <stop stop-color="#57e389"/>
            <stop stop-color="#57e389" stop-opacity="0.45" offset="0.548369"/>
            <stop stop-color="#4b4b4b" stop-opacity="0.5" offset="1"/>
        </linearGradient>
        <linearGradient id="h" x1="69.0005" y1="52.9998" x2="86.1375" y2="10.5884" gradientUnits="userSpaceOnUse">
            <stop stop-color="#57e389"/>
            <stop stop-color="#57e389" stop-opacity="0.5" offset="0.548369"/>
            <stop stop-color="#4b4b4b" stop-opacity="0.45" offset="0.896473"/>
        </linearGradient>
        <linearGradient id="j" x1="53.9999" y1="56.0001" x2="31.2935" y2="13.553" gradientUnits="userSpaceOnUse">
            <stop stop-color="#57e389"/>
            <stop stop-color="#57e389" stop-opacity="0.5" offset="0.548369"/>
            <stop stop-color="#4b4b4b" stop-opacity="0.45" offset="1"/>
        </linearGradient>
        <linearGradient id="n" x1="74.0649" y1="52" x2="-11.9143" y2="136.11" gradientUnits="userSpaceOnUse">
            <stop stop-color="#ff3c3c"/>
            <stop stop-color="#ff2828" stop-opacity="0.92" offset="0.445091"/>
            <stop stop-color="#4b4b4b" stop-opacity="0.48" offset="0.8"/>
        </linearGradient>
        <linearGradient id="o" x1="45" y1="46.4082" x2="45" y2="105.592" gradientUnits="userSpaceOnUse">
            <stop stop-opacity="0.5" offset="0.300718"/>
            <stop stop-color="#6b7273" offset="1"/>
        </linearGradient>
        <linearGradient id="q" x1="45" y1="45" x2="45" y2="105" gradientUnits="userSpaceOnUse">
            <stop stop-color="#8a9192"/>
            <stop stop-color="#929899" offset="0.50015"/>
            <stop stop-color="#6c7273" offset="1"/>
        </linearGradient>
        <filter id="e" height="45" width="42.9998" x="72" y="66.0002" filterUnits="userSpaceOnUse">
            <feFlood flood-opacity="0" result="BackgroundImageFix"/>
            <feBlend in="SourceGraphic" in2="BackgroundImageFix" result="shape"/>
            <feGaussianBlur stdDeviation="1" result="effect1_foregroundBlur_36_2"/>
        </filter>
        <filter id="g" height="43" width="44.9993" x="68.0005" y="13.9998" filterUnits="userSpaceOnUse">
            <feFlood flood-opacity="0" result="BackgroundImageFix"/>
            <feBlend in="SourceGraphic" in2="BackgroundImageFix" result="shape"/>
            <feGaussianBlur stdDeviation="1" result="effect1_foregroundBlur_36_2"/>
        </filter>
        <filter id="i" height="42.0002" width="42.9999" x="14" y="17.9999" filterUnits="userSpaceOnUse">
            <feFlood flood-opacity="0" result="BackgroundImageFix"/>
            <feBlend in="SourceGraphic" in2="BackgroundImageFix" result="shape"/>
            <feGaussianBlur stdDeviation="1" result="effect1_foregroundBlur_36_2"/>
        </filter>
        <filter id="k" height="62" width="66" x="14" y="48" filterUnits="userSpaceOnUse">
            <feFlood flood-opacity="0" result="BackgroundImageFix"/>
            <feBlend in="SourceGraphic" in2="BackgroundImageFix" result="shape"/>
            <feGaussianBlur stdDeviation="1" result="effect1_foregroundBlur_36_2"/>
        </filter>
        <filter id="m" height="90" width="86" x="-10" y="52" filterUnits="userSpaceOnUse">
            <feFlood flood-opacity="0" result="BackgroundImageFix"/>
            <feBlend in="SourceGraphic" in2="BackgroundImageFix" result="shape"/>
            <feGaussianBlur stdDeviation="1" result="effect1_foregroundBlur_36_2"/>
        </filter>
        <radialGradient id="b" cx="0" cy="0" r="1" gradientTransform="matrix(58 0 0 54.19 64 61)" gradientUnits="userSpaceOnUse">
            <stop stop-color="#324042"/>
            <stop stop-color="#1a282a" offset="0.45"/>
            <stop offset="1"/>
        </radialGradient>
        <radialGradient id="p" cx="0" cy="0" r="1" gradientTransform="matrix(0 60 -60 0 45 46)" gradientUnits="userSpaceOnUse">
            <stop stop-color="#d9d9d9" stop-opacity="0.45"/>
            <stop stop-opacity="0" offset="0.7"/>
        </radialGradient>
    </defs>
</svg>
