<svg height="128" width="128" xmlns="http://www.w3.org/2000/svg" xmlns:xlink="http://www.w3.org/1999/xlink">
    <radialGradient id="a" cx="64" cy="203.706" gradientTransform="matrix(1 0 0 0.98499 0 -168.648)" gradientUnits="userSpaceOnUse" r="48">
        <stop offset="0" stop-color="#ed686f"/>
        <stop offset="0.833" stop-color="#a51d2d"/>
        <stop offset="1" stop-color="#8a1f24"/>
    </radialGradient>
    <radialGradient id="b" cx="64" cy="209.913" gradientTransform="matrix(1.55293 0 0 1.31029 -35.388 -243.047)" gradientUnits="userSpaceOnUse" r="41.212">
        <stop offset="0" stop-color="#ffffff"/>
        <stop offset="0.519" stop-color="#ffffff"/>
        <stop offset="0.734" stop-color="#cfcfcf"/>
        <stop offset="1" stop-color="#cecece"/>
    </radialGradient>
    <linearGradient id="c" gradientUnits="userSpaceOnUse" x1="38" x2="88.377" y1="86" y2="86">
        <stop offset="0" stop-color="#9a9996"/>
        <stop offset="0.278" stop-color="#c0bfbc"/>
        <stop offset="0.774" stop-color="#9f9e9b"/>
        <stop offset="1" stop-color="#77767b"/>
    </linearGradient>
    <linearGradient id="d" gradientUnits="userSpaceOnUse" x1="54" x2="66" y1="112" y2="112">
        <stop offset="0" stop-color="#c64600"/>
        <stop offset="1" stop-color="#ff7800"/>
    </linearGradient>
    <clipPath id="e">
        <path d="m 0 0 h 192 v 152 h -192 z"/>
    </clipPath>
    <clipPath id="f">
        <path d="m 0 0 h 192 v 152 h -192 z"/>
    </clipPath>
    <mask id="g">
        <g filter="url(#i)">
            <path d="m 0 0 h 128 v 128 h -128 z" fill-opacity="0.1"/>
        </g>
    </mask>
    <mask id="h">
        <g filter="url(#i)">
            <path d="m 0 0 h 128 v 128 h -128 z" fill-opacity="0.3"/>
        </g>
    </mask>
    <filter id="i" height="100%" width="100%" x="0%" y="0%">
        <feColorMatrix in="SourceGraphic" values="0 0 0 0 1 0 0 0 0 1 0 0 0 0 1 0 0 0 1 0"/>
    </filter>
    <path d="m 77 88 l -5 22" fill="none" stroke="#77767b" stroke-width="2"/>
    <path d="m 64 4 c -12.355 0.09 -24.879 4.074 -34.176 12.215 c -4.652 4.066 -8.449 9.133 -10.898 14.805 c -2.446 5.675 -3.524 11.957 -2.926 18.105 c 0.695 7.16 3.594 13.941 7.207 20.16 a 90.703 90.703 0 0 0 14.398 18.7 l 6.79 12.015 h 37.96 l 8.645 -13 a 114.167 114.167 0 0 0 13.125 -17.648 c 3.766 -6.243 6.977 -12.993 7.875 -20.227 c 0.766 -6.168 -0.207 -12.52 -2.613 -18.254 c -2.403 -5.734 -6.219 -10.848 -10.907 -14.93 c -9.375 -8.168 -22.046 -12.03 -34.48 -11.941 z m 0 0" fill="url(#a)"/>
    <path d="m 65.262 4.016 c -17.219 2.597 -33.532 8.3 -40.848 28.23 c -6.604 24.704 3.66 36.617 16.676 55.754 l 5.851 12.008 h 7.922 c -4.925 -14.512 -17.086 -39.668 -17.086 -52.305 c 0 -37.058 27.282 -43.558 27.485 -43.687 z m 0.004 0 c 0.07 0.187 8.511 17.238 8.507 43.687 c 0 13.957 -1.949 38.047 -3.847 52.305 h 10.074 c 24.254 -43.512 32.934 -82.988 -14.734 -95.992 z m 0 0" fill="url(#b)"/>
    <g clip-path="url(#e)" mask="url(#g)" transform="matrix(1 0 0 1 -8 -16)">
        <path d="m 91 116 l 8 -13 h -54 l 8.004 13 z m 0 0" fill-rule="evenodd"/>
    </g>
    <path d="m 52 86 l 5 23" fill="none" stroke="#c0bfbc" stroke-width="2"/>
    <path d="m 80 110 v 11.316 a 4.666 4.666 0 0 1 -4.676 4.676 h -22.648 a 4.666 4.666 0 0 1 -4.676 -4.676 v -11.316 z m 0 0" fill="#c64600"/>
    <path d="m 37.457 86.395 l 12.105 22.605" fill="none" stroke="#9a9996" stroke-width="2"/>
    <path d="m 36 84 v 2 s 0 2 1.871 2 h 52.259 c 1.87 0 1.87 -2 1.87 -2 v -2 z m 0 0" fill="url(#c)"/>
    <g clip-path="url(#f)" mask="url(#h)" transform="matrix(1 0 0 1 -8 -16)">
        <path d="m 44 100 h 56 v 2 h -56 z m 0 0" fill="#ffffff"/>
    </g>
    <path d="m 90.5 87 l -12.063 22" fill="none" stroke="#77767b" stroke-width="2"/>
    <path d="m 80 108 v 11.316 a 4.666 4.666 0 0 1 -4.676 4.676 h -22.648 a 4.666 4.666 0 0 1 -4.676 -4.676 v -11.316 z m 0 0" fill="url(#d)"/>
</svg>
