<?xml version="1.0" encoding="utf-8"?>
<svg width="131" height="48" viewBox="-0.119 1.907 43.99 44.186" fill="none" xmlns="http://www.w3.org/2000/svg">
  <path fill-rule="evenodd" clip-rule="evenodd" d="M21.9998 2C4.39996 2 0 6.4 0 24C0 41.6 4.39996 46 21.9998 46C39.5996 46 43.9996 41.6 43.9996 24C43.9996 6.4 39.5996 2 21.9998 2Z" fill="#FF0032"/>
  <path fill-rule="evenodd" clip-rule="evenodd" d="M10.1846 27.6994V12.1536H16.4029V27.6994C16.4029 28.7301 17.2377 29.5649 18.2684 29.5649H33.8142V35.7832H18.2684C13.8036 35.7832 10.1846 32.1641 10.1846 27.6994Z" fill="white"/>
  <path fill-rule="evenodd" clip-rule="evenodd" d="M18.8887 22.1029V12.1536H25.107V20.8592H33.8126V27.0775H23.8633C21.1164 27.0775 18.8887 24.8498 18.8887 22.1029Z" fill="white"/>
</svg>