<?xml version="1.0" encoding="utf-8" ?><svg xmlns="http://www.w3.org/2000/svg" xmlns:xlink="http://www.w3.org/1999/xlink" width="1024" height="1024" viewBox="64 64 896 896" ><path fill="#203942" d="M806.962 264.201C816.399 264.217 826.789 267.514 834.816 272.389C840.637 275.925 844.703 280.239 848.928 285.523C855.369 293.576 860.816 302.399 866.443 311.028L890.6 348.222C899.761 362.328 911.042 376.983 918.841 391.642C922.581 398.671 925.054 406.829 926.929 414.544C928.488 420.96 931.207 430.796 927.221 436.79C925.51 439.365 922.128 440.831 919.326 441.821C914.313 443.593 908.693 444.198 903.478 445.221C894.722 447.025 885.942 448.706 877.139 450.264C880.661 453.987 882.387 457.185 882.768 462.307C883.237 468.598 883.005 475.012 883.014 481.325L883.006 514.318C882.984 527.747 884.356 545.512 882.128 558.453C881.64 561.288 880.223 564.043 878.277 566.155C875.486 569.186 871.261 569.614 867.354 569.853C853.76 570.687 839.654 569.862 826.007 569.844L743.166 569.808L490.649 569.989L403.07 569.991C387.129 570.001 371.065 569.587 355.141 570.208C354.968 585.423 354.958 600.64 355.11 615.856C355.192 624.865 356.232 634.88 354.63 643.72C354.22 645.984 353.242 647.538 351.957 649.422C351.647 654.071 351.935 658.85 351.997 663.512C392.349 664.04 432.757 663.497 473.115 663.49L755.394 663.403L858.405 663.576C872.814 663.584 889.423 662.493 903.459 663.288C906.784 663.476 911.092 664.092 913.58 666.52C918.821 671.637 917.54 684.207 917.595 691.128C917.7 704.534 918.963 725.263 914.48 737.562C912.808 742.172 910.123 746.349 906.623 749.784C902.24 754.169 897.073 757.366 890.963 758.693C876.999 761.726 859.241 759.971 844.734 759.958L762.75 759.926L334.852 759.85L197.759 759.634L159.325 759.596C150.687 759.644 141.81 760.146 133.214 759.251C123.996 758.291 115.488 754.031 109.644 746.767C106.28 742.584 104.19 737.699 103.107 732.461C100.951 722.044 102.222 710.572 102.111 699.97C102.028 691.987 101.093 683.21 102.099 675.324C102.595 671.434 103.969 667.878 107.242 665.515C112.437 661.763 121.599 662.173 127.658 663.089C127.596 651.886 127.882 640.701 127.99 629.501C121.578 629.752 111.622 630.928 106.551 626.145C104.07 623.804 103.476 620.135 102.977 616.891C101.121 604.821 101.318 589.137 100.565 576.606L95.4595 495.828C94.0883 472.886 96.4159 455.451 112.229 437.793C121.189 427.788 131.816 421.187 144.575 417.092C160.469 411.991 177.551 409.08 193.84 405.276L283.935 384.15L543.163 323.798L720.101 282.69L765.35 272.017C779.1 268.737 792.787 265.001 806.962 264.201Z"/><path fill="#3B9298" d="M804.639 289.204C810.854 288.756 817.057 290.219 822.415 293.398C826.102 295.565 828.376 298.208 830.914 301.553C835.523 307.627 839.467 314.285 843.619 320.677L864.753 353.106L884.617 383.352C888.099 388.645 892.031 393.906 895.038 399.478C898.431 405.765 900.702 412.37 902.545 419.25C891.269 424.314 877.62 425.702 865.565 428.393L798.459 443.666L485.849 515.971L389.273 538.212C375.925 541.255 362.363 543.582 349.113 547.002C345.051 548.05 340.788 549.007 337.424 551.657C334.434 554.012 333.293 557.821 332.649 561.435C331.476 568.016 331.955 575.093 331.957 581.768L332.047 615.392C332.11 624.29 332.606 633.356 331.362 642.184C319.383 643.9 307.392 643.325 295.332 643.681C268.487 644.416 241.635 644.902 214.781 645.141C193.903 646.009 172.932 646.265 152.037 646.507C151.437 637.729 152.215 629.012 151.734 620.293C151.501 616.088 150.296 611.95 146.982 609.145C141.394 604.415 133.299 605.4 126.556 605.949C126.404 590.81 124.777 575.497 123.799 560.382C122.398 538.76 121.389 517.035 119.041 495.5C117.408 480.523 119.307 466.792 129.1 454.805C134.685 447.968 141.891 443.267 150.3 440.638C164.167 436.303 178.68 433.748 192.802 430.364C221.712 423.251 250.688 416.407 279.726 409.835L521.74 353.795L710.219 309.853L765.974 296.988C778.73 294.058 791.605 290.519 804.639 289.204Z"/><path fill="#203942" d="M206.886 487.24C238.244 486.2 264.551 510.691 265.752 542.043C266.954 573.396 242.599 599.828 211.253 601.191C179.679 602.563 153.011 577.992 151.801 546.41C150.59 514.829 175.299 488.288 206.886 487.24Z"/><path fill="#F4F4F3" d="M205.231 501.758C228.489 499.694 249.049 516.797 251.254 540.042C253.459 563.287 236.482 583.951 213.251 586.297C189.819 588.664 168.937 571.508 166.713 548.062C164.489 524.616 181.772 503.839 205.231 501.758Z"/><path fill="#203942" d="M207.488 517.767C221.835 517.198 233.975 528.265 234.731 542.602C235.488 556.94 224.58 569.224 210.254 570.168C200.818 570.79 191.778 566.286 186.59 558.38C181.403 550.474 180.87 540.388 185.197 531.98C189.524 523.571 198.04 518.141 207.488 517.767Z"/><path fill="#3B9298" d="M126.889 691.91C126.945 690.521 126.77 689.1 127.513 687.898C137.728 685.889 149.126 687.425 159.499 687.476L213.296 687.51L448.338 687.7L756.947 687.872L849.306 687.979C863.48 687.968 878.425 686.536 892.48 688.008C893.635 689.071 893.488 689.99 893.54 691.495C893.545 691.662 893.546 691.828 893.549 691.995C893.628 701.749 895.898 726.403 889.042 733.209C886.648 735.586 879.275 735.396 875.81 735.501C850.18 736.281 824.366 735.63 798.713 735.628L651.941 735.564L164.628 735.838C156.968 735.89 140.5 736.439 133.779 734.497C132.57 734.148 131.288 733.121 130.43 732.212C123.829 725.222 126.675 701.399 126.889 691.91Z"/><path fill="#F4F4F3" d="M126.889 691.91C126.945 690.521 126.77 689.1 127.513 687.898C137.728 685.889 149.126 687.425 159.499 687.476L213.296 687.51L448.338 687.7L756.947 687.872L849.306 687.979C863.48 687.968 878.425 686.536 892.48 688.008C893.635 689.071 893.488 689.99 893.54 691.495C893.545 691.662 893.546 691.828 893.549 691.995C865.065 692.673 836.391 692.012 807.888 692.012L637.813 692.004L126.889 691.91Z"/><path fill="#F4F4F3" d="M818.952 464.149C822.406 467.139 821.01 476.303 828.513 480.308C835.888 484.245 850.52 478.494 857.997 476.424C858.293 499.438 858.313 522.456 858.059 545.471L505.375 546.148C490.13 546.429 474.811 546.922 459.6 545.653C480.039 542.428 500.25 537.377 520.371 532.594L616.492 509.342C683.798 493.527 751.7 480.154 818.952 464.149Z"/></svg>