<?xml version="1.0" encoding="utf-8"?>
<svg width="770" height="1014" viewBox="-1.801 0 771.801 765.453" fill="none" xmlns="http://www.w3.org/2000/svg">
  <path d="M657.568 0H215.385L382.035 165.643C385.781 165.425 389.553 165.315 393.351 165.315C431.308 165.298 468.516 175.804 500.789 195.651C533.062 215.498 559.118 243.898 576.026 277.656C579.282 277.444 582.576 277.329 585.889 277.329C613.27 277.335 640.102 284.947 663.356 299.305C686.611 313.663 705.359 334.195 717.484 358.581L769.805 306.607V117.288C769.3 87.3215 757.484 58.6364 736.697 36.9143C715.911 15.1923 687.67 2.01764 657.568 0V0Z" fill="#00B4FF"/>
  <path d="M717.561 358.582L504.87 569.924L692.389 756.202C714.927 747.744 734.376 732.737 748.202 713.138C762.029 693.539 769.59 670.256 769.9 646.325V306.531L717.561 358.582Z" fill="#FF6E6E"/>
  <path d="M85.4589 501.226C79.7911 487.408 76.8884 472.624 76.9133 457.703C76.9133 395.7 125.997 345.439 186.534 345.439C187.948 345.439 189.343 345.439 190.739 345.535C196.051 297.897 218.202 253.675 253.252 220.737C288.301 187.798 333.977 168.277 382.153 165.648L215.504 0.101562H113.092C82.6303 2.03028 54.0529 15.4151 33.1739 37.5327C12.2948 59.6503 0.682752 88.8391 0.700215 119.16V585.443L85.4589 501.226Z" fill="#23D3FF"/>
  <path d="M504.698 569.922H186.495C169.949 569.938 153.627 566.122 138.825 558.777C114.592 546.643 95.615 526.185 85.4198 501.201L0.661133 585.437V644.553C0.661133 676.206 13.319 706.562 35.8501 728.944C47.0063 740.027 60.2508 748.818 74.8271 754.816C89.4035 760.813 105.026 763.9 120.804 763.9H649.76C664.277 763.893 678.672 761.285 692.256 756.201L504.698 569.922Z" fill="#00F5D0"/>
  <path d="M769.3 117.288C768.797 87.2953 756.961 58.587 736.141 36.8602C715.321 15.1334 687.039 1.97629 656.909 0L112.391 0C81.94 1.95568 53.3786 15.3487 32.5051 37.4605C11.6317 59.5722 0.0102538 88.7456 0 119.059H0V644.572C0 676.225 12.6578 706.582 35.1889 728.964C57.72 751.346 88.2788 763.92 120.143 763.92H649.157C663.674 763.914 678.07 761.306 691.653 756.22H691.789C714.328 747.764 733.779 732.758 747.605 713.158C761.432 693.559 768.992 670.275 769.3 646.343V646.343V310.457V117.288Z" fill="url(#paint0_radial_5291_11181)"/>
  <path d="M718.046 358.813C705.921 334.426 687.172 313.894 663.918 299.536C640.664 285.178 613.831 277.566 586.451 277.56C583.137 277.56 579.862 277.676 576.607 277.888C559.694 244.13 533.634 215.73 501.358 195.883C469.082 176.037 431.872 165.53 393.913 165.547C390.037 165.547 386.355 165.662 382.596 165.874C334.42 168.503 288.744 188.024 253.695 220.963C218.645 253.902 196.494 298.123 191.182 345.762C189.787 345.762 188.391 345.665 186.977 345.665C126.44 345.665 77.3564 395.926 77.3564 457.929C77.3315 472.85 80.2342 487.634 85.902 501.452C96.0972 526.436 115.074 546.894 139.307 559.028C154.109 566.373 170.431 570.189 186.977 570.173H505.355L718.065 358.832L718.046 358.813Z" fill="white"/>
  <path fill-rule="evenodd" clip-rule="evenodd" d="M652.469 344.202C675.271 343.873 697.835 348.85 718.354 358.735L505.566 570.077V483.588H505.759C507.46 446.065 523.658 410.638 550.983 384.677C578.309 358.715 614.658 344.218 652.469 344.202V344.202Z" fill="#FFD12F"/>
  <defs>
    <radialGradient id="paint0_radial_5291_11181" cx="0" cy="0" r="1" gradientUnits="userSpaceOnUse" gradientTransform="translate(384.65 381.97) scale(384.573 382.027)">
      <stop stop-color="#261C38" stop-opacity="0.6"/>
      <stop offset="0.28" stop-color="#261C38" stop-opacity="0.3"/>
      <stop offset="0.86" stop-color="#302640" stop-opacity="0.05"/>
      <stop offset="1" stop-color="#302640" stop-opacity="0"/>
    </radialGradient>
  </defs>
</svg>