<?xml version="1.0" encoding="UTF-8"?>
<!--
SPDX-FileCopyrightText: Metadata Cleaner contributors
SPDX-License-Identifier: CC-BY-SA-4.0
-->
<svg height="128" viewBox="0 0 128 128" width="128" xmlns="http://www.w3.org/2000/svg" xmlns:xlink="http://www.w3.org/1999/xlink">
    <linearGradient id="a" gradientUnits="userSpaceOnUse" x1="30.111" x2="89.889" y1="281.38" y2="281.38">
        <stop offset="0" stop-color="#b5835a"/>
        <stop offset="0.097354" stop-color="#e5a50a"/>
        <stop offset="0.28912" stop-color="#e5a50a"/>
        <stop offset="0.45415" stop-color="#b5835a"/>
        <stop offset="0.66135" stop-color="#e5a50a"/>
        <stop offset="1" stop-color="#e5a50a"/>
    </linearGradient>
    <path d="m 20 104 v 5 c 0 4.432 3.568 8 8 8 h 72 c 4.432 0 8 -3.568 8 -8 v -5 z" fill="#c0bfbc"/>
    <rect fill="#f6f5f4" height="108" rx="8" width="88" x="20" y="5"/>
    <g fill="#813d9c">
        <path d="m 58.746 47.242 a 2 2 0 0 0 -1.1543 2.582 c 7.056 18.489 22.133 27.506 22.133 27.506 a 2 2 0 0 0 2.7441 -0.68555 a 2 2 0 0 0 -0.68555 -2.7441 s -13.92 -8.3786 -20.455 -25.502 a 2 2 0 0 0 -2.582 -1.1562 z"/>
        <path d="m 59.262 38.004 c -0.83784 0.0153 -1.7138 0.13067 -2.623 0.35742 c -4.3119 1.0753 -7.0263 4.0708 -7.6348 7.6758 s 0.46802 7.6083 2.4023 11.764 c 3.8687 8.3107 11.411 17.331 19.145 23.475 a 2 2 0 0 0 2.8105 -0.32227 a 2 2 0 0 0 -0.32227 -2.8105 c -7.217 -5.7327 -14.522 -14.542 -18.008 -22.029 c -1.7427 -3.7436 -2.4687 -7.1308 -2.084 -9.4102 s 1.4596 -3.6633 4.6582 -4.4609 c 2.7331 -0.68164 3.874 -0.24636 5.2168 1 c 1.3428 1.2464 2.6866 3.668 4.3184 6.75 c 3.2635 6.1639 7.935 14.81 19.154 21.348 a 2 2 0 0 0 2.7344 -0.7207 a 2 2 0 0 0 -0.7207 -2.7344 c -10.328 -6.0189 -14.379 -13.618 -17.633 -19.764 c -1.627 -3.0731 -2.9895 -5.8231 -5.1328 -7.8125 c -1.6075 -1.492 -3.7677 -2.3506 -6.2812 -2.3047 z"/>
        <path d="m 62.223 29.453 c -3.6233 -0.40368 -7.8406 0.50957 -12.73 3.0293 c -7.3209 3.7724 -10.222 11.77 -8.5312 20.705 c 1.6909 8.9349 7.6383 19.09 17.805 28.742 a 2 2 0 0 0 2.8281 -0.07227 a 2 2 0 0 0 -0.07422 -2.8281 c -9.7096 -9.2186 -15.157 -18.81 -16.629 -26.586 s 0.69988 -13.452 6.4336 -16.406 c 5.9031 -3.0419 9.8108 -3.2061 12.887 -2.0195 c 3.0759 1.1866 5.6107 3.9809 8.0508 7.6797 c 4.8801 7.3975 8.9869 18.195 18.459 22.658 a 2 2 0 0 0 2.6621 -0.95703 a 2 2 0 0 0 -0.95703 -2.6621 c -7.5339 -3.5503 -11.586 -13.297 -16.826 -21.24 c -2.6199 -3.9714 -5.6344 -7.5464 -9.9492 -9.2109 c -1.0787 -0.41614 -2.22 -0.69747 -3.4277 -0.83203 z"/>
        <path d="m 62.623 20.734 c -4.4893 -0.3054 -9.6522 0.73135 -15.576 3.5156 c -11.332 5.3259 -15.237 15.197 -14.721 25.02 s 5.0382 19.77 10.125 26.83 a 2 2 0 0 0 2.791 0.45312 a 2 2 0 0 0 0.45312 -2.791 c -4.6901 -6.5097 -8.9171 -15.986 -9.375 -24.701 c -0.45786 -8.7152 2.4379 -16.495 12.43 -21.191 c 7.2928 -3.4276 12.71 -3.787 17.045 -2.5508 c 4.3352 1.2363 7.7614 4.1611 10.762 7.8926 c 3.0003 3.7314 5.5056 8.2197 7.9688 12.277 c 2.4632 4.0576 4.8136 7.7485 8.1523 9.7949 a 2 2 0 0 0 2.75 -0.66016 a 2 2 0 0 0 -0.66016 -2.75 c -2.1137 -1.2956 -4.4204 -4.501 -6.8242 -8.4609 s -4.9748 -8.6095 -8.2695 -12.707 s -7.382 -7.6922 -12.783 -9.2324 c -1.3503 -0.38506 -2.7712 -0.63648 -4.2676 -0.73828 z"/>
    </g>
    <path d="m 108 25.436 c -40.541 10.75 -71.772 60.021 -71.772 60.021 l 48.851 22.011 s 8.9944 -19.125 22.921 -26.059 z" fill="#ffffff" opacity="0.9"/>
    <path d="m 30.11 89.271 l 59.778 1.0104 s -0.0095 2.4996 0.0001 6.6775 c 0.0046 1.968 -0.4492 3.9705 -1.4557 5.8305 l -7.6143 14.072 c -3.1637 5.847 -10.418 8.007 -16.265 4.843 c -4.6734 -2.528 -7.4951 -8.603 -12.168 -11.132 c -4.708 -2.547 -11.268 -1.549 -15.976 -4.096 c -4.0234 -2.177 -6.301 -6.291 -6.2996 -10.55 c 0.0007 -1.9306 0 -6.655 0 -6.655 z" fill="url(#a)"/>
    <path d="m 31.567 83.55 l 7.6143 -14.072 c 3.1637 -5.8469 10.418 -8.007 16.265 -4.8433 c 4.7533 2.572 7.4153 8.5604 12.168 11.132 c 4.6281 2.5043 11.348 1.5921 15.976 4.0963 c 5.847 3.1638 8.0071 10.418 4.8433 16.265 l -7.6143 14.072 c -3.1637 5.847 -10.418 8.007 -16.265 4.844 c -4.6734 -2.529 -7.4951 -8.604 -12.168 -11.133 c -4.708 -2.547 -11.268 -1.548 -15.976 -4.0959 c -5.847 -3.1637 -8.0071 -10.418 -4.8433 -16.265 z" fill="#f5c211"/>
</svg>
