<?xml version="1.0" encoding="UTF-8"?>
<!-- Created with Inkscape (http://www.inkscape.org/) -->
<svg width="128" height="128" version="1.1" viewBox="0 0 128 128" xmlns="http://www.w3.org/2000/svg" xmlns:xlink="http://www.w3.org/1999/xlink">
 <defs>
  <linearGradient id="k" x1="36.418" x2="21.723" y1="218.4" y2="218.4" gradientTransform="matrix(1.0208 0 0 .9305 -2.1752 -109.41)" xlink:href="#g"/>
  <linearGradient id="g" gradientUnits="userSpaceOnUse">
   <stop stop-color="#4fd2fd" offset="0"/>
   <stop stop-color="#4fd2fd" stop-opacity="0" offset="1"/>
  </linearGradient>
  <clipPath id="q">
   <rect width="192" height="152"/>
  </clipPath>
  <mask id="p">
   <g filter="url(#b)">
    <rect width="128" height="128" fill-opacity=".236"/>
   </g>
  </mask>
  <filter id="b" x="0" y="0" width="1" height="1">
   <feColorMatrix in="SourceGraphic" values="0 0 0 0 1 0 0 0 0 1 0 0 0 0 1 0 0 0 1 0"/>
  </filter>
  <clipPath id="o">
   <rect width="192" height="152"/>
  </clipPath>
  <mask id="n">
   <g filter="url(#b)">
    <rect width="128" height="128" fill-opacity=".236"/>
   </g>
  </mask>
  <clipPath id="m">
   <rect width="192" height="152"/>
  </clipPath>
  <mask id="l">
   <g filter="url(#b)">
    <rect width="128" height="128" fill-opacity=".236"/>
   </g>
  </mask>
  <clipPath id="j">
   <rect width="192" height="152"/>
  </clipPath>
  <mask id="i">
   <g filter="url(#b)">
    <rect width="128" height="128" fill-opacity=".236"/>
   </g>
  </mask>
  <linearGradient id="h" x1="93.539" x2="58.923" y1="240.42" y2="240.42" gradientTransform="matrix(.975 0 0 .98939 3.05 -170.32)" xlink:href="#g"/>
  <clipPath id="f">
   <rect width="192" height="152"/>
  </clipPath>
  <mask id="e">
   <g filter="url(#b)">
    <rect width="128" height="128" fill-opacity=".236"/>
   </g>
  </mask>
  <clipPath id="d">
   <rect width="192" height="152"/>
  </clipPath>
  <mask id="c">
   <g filter="url(#b)">
    <rect width="128" height="128" fill-opacity=".02"/>
   </g>
  </mask>
  <linearGradient id="a" x1="8" x2="120" y1="104" y2="104" gradientUnits="userSpaceOnUse">
   <stop stop-color="#d5d3cf" offset="0"/>
   <stop stop-color="#e4e1de" offset=".035714"/>
   <stop stop-color="#d5d3cf" offset=".071429"/>
   <stop stop-color="#d5d3cf" offset=".92857"/>
   <stop stop-color="#e4e1de" offset=".96429"/>
   <stop stop-color="#d5d3cf" offset="1"/>
  </linearGradient>
  <linearGradient id="linearGradient1" x1="36.418" x2="21.723" y1="218.4" y2="218.4" gradientTransform="matrix(1.0208 0 0 .9305 -2.1752 -157.41)" xlink:href="#g"/>
  <linearGradient id="linearGradient2" x1="36.418" x2="21.723" y1="218.4" y2="218.4" gradientTransform="matrix(1.0208 0 0 .9305 -2.1752 -141.41)" xlink:href="#g"/>
  <linearGradient id="linearGradient3" x1="36.418" x2="21.723" y1="218.4" y2="218.4" gradientTransform="matrix(1.0208 0 0 .9305 -2.1752 -125.41)" xlink:href="#g"/>
 </defs>
 <path d="m16 28h96c4.418 0 8 3.582 8 8v70c0 4.418-3.582 8-8 8h-96c-4.418 0-8-3.582-8-8v-70c0-4.418 3.582-8 8-8z" fill="#f6f5f4"/>
 <path d="m56 50h54v36h-54z" fill="none" stroke="#241f31" stroke-linejoin="round" stroke-width="8"/>
 <path d="m56 50h54v36h-54z" fill="#241f31"/>
 <path d="m8 104v4c0 4.4336 3.5664 8 8 8h96c4.4336 0 8-3.5664 8-8v-4c0 4.4336-3.5664 8-8 8h-96c-4.4336 0-8-3.5664-8-8z" fill="url(#a)"/>
 <g transform="translate(-8,-16)" clip-path="url(#d)" mask="url(#c)">
  <path d="m184 16h-16v16h16z" fill="#2e3436"/>
 </g>
 <path d="m56 38h54z" fill="none" stroke="#241f31" stroke-linejoin="round" stroke-width="8"/>
 <path d="m18 38h24v64h-24z" fill="none" stroke="#241f31" stroke-linejoin="round" stroke-width="8"/>
 <path d="m18 38h24v64h-24z" fill="#241f31"/>
 <path d="m54 96h58z" fill="none" stroke="#241f31" stroke-linejoin="round" stroke-width="4"/>
 <path d="m54 104h58z" fill="none" stroke="#241f31" stroke-linejoin="round" stroke-width="4"/>
 <g transform="translate(-8,-16)" clip-path="url(#f)" mask="url(#e)">
  <path transform="matrix(.975 0 0 .98939 11.05 -154.32)" d="m54.308 243.08h20.769l5.7692-13.27 3.4615 22.5 4.6154-9.2308h20.769" fill="none" stroke="#4fd2fd" stroke-miterlimit="10" stroke-width="2.3077"/>
 </g>
 <path d="m57.527 70.176h18.723l5.625-13.129 3.375 22.262 4.5-9.1328h3.375" fill="none" stroke="url(#h)" stroke-linecap="round" stroke-miterlimit="10" stroke-width="2.2665"/>
 <g transform="translate(-8,-16)" clip-path="url(#j)" mask="url(#i)">
  <path transform="matrix(1.0208 0 0 .9305 5.8248 -141.41)" d="m19.764 219.53h8.8167l2.4491-5.6337 1.4694 9.5505 1.9593-3.9168h8.8167" fill="none" stroke="#4fd2fd" stroke-miterlimit="10" stroke-width=".97963"/>
 </g>
 <path d="m20.043 46.871h6.957l2.5-5.2422 1.5 8.8867 2-3.6445h1.5" fill="none" stroke="url(#linearGradient1)" stroke-linecap="round" stroke-miterlimit="10" stroke-width=".95475"/>
 <g transform="translate(-8,-16)" clip-path="url(#m)" mask="url(#l)">
  <path transform="matrix(1.0208 0 0 .9305 5.8248 -125.41)" d="m19.764 219.53h8.8167l2.4491-5.6337 1.4694 9.5505 1.9593-3.9168h8.8167" fill="none" stroke="#4fd2fd" stroke-miterlimit="10" stroke-width=".97963"/>
 </g>
 <path d="m20.043 62.871h6.957l2.5-5.2422 1.5 8.8867 2-3.6445h1.5" fill="none" stroke="url(#linearGradient2)" stroke-linecap="round" stroke-miterlimit="10" stroke-width=".95475"/>
 <g transform="translate(-8,-16)" clip-path="url(#o)" mask="url(#n)">
  <path transform="matrix(1.0208 0 0 .9305 5.8248 -109.41)" d="m19.764 219.53h8.8167l2.4491-5.6337 1.4694 9.5505 1.9593-3.9168h8.8167" fill="none" stroke="#4fd2fd" stroke-miterlimit="10" stroke-width=".97963"/>
 </g>
 <path d="m20.043 78.871h6.957l2.5-5.2422 1.5 8.8867 2-3.6445h1.5" fill="none" stroke="url(#linearGradient3)" stroke-linecap="round" stroke-miterlimit="10" stroke-width=".95475"/>
 <g transform="translate(-8,-16)" clip-path="url(#q)" mask="url(#p)">
  <path transform="matrix(1.0208 0 0 .9305 5.8248 -93.406)" d="m19.764 219.53h8.8167l2.4491-5.6337 1.4694 9.5505 1.9593-3.9168h8.8167" fill="none" stroke="#4fd2fd" stroke-miterlimit="10" stroke-width=".97963"/>
 </g>
 <path d="m20.043 94.871h6.957l2.5-5.2422 1.5 8.8867 2-3.6445h1.5" fill="none" stroke="url(#k)" stroke-linecap="round" stroke-miterlimit="10" stroke-width=".95475"/>
</svg>