<?xml version="1.0" encoding="UTF-8" standalone="no"?>
<svg enable-background="new" height="128" viewBox="0 0 128 128" width="128" xmlns="http://www.w3.org/2000/svg" xmlns:xlink="http://www.w3.org/1999/xlink" xmlns:dc="http://purl.org/dc/elements/1.1/" xmlns:cc="http://creativecommons.org/ns#" xmlns:rdf="http://www.w3.org/1999/02/22-rdf-syntax-ns#" xmlns:svg="http://www.w3.org/2000/svg">
    <linearGradient id="a" gradientTransform="matrix(1.8293937 -0.81599442 0.81599442 1.8293937 -3645.9624 100.02949)" gradientUnits="userSpaceOnUse" x1="1660.8571" x2="1662.9901" y1="806.29718" y2="812.88245">
        <stop offset="0" stop-color="#9a9996"/>
        <stop offset="1" stop-color="#77767b"/>
    </linearGradient>
    <g transform="matrix(1 0 0 1 0 -172)">
        <path d="m 123.99993 237 a 59.999995 59.999995 0 0 1 -59.999985 60 a 59.999995 59.999995 0 0 1 -60.0000069 -60 a 59.999995 59.999995 0 0 1 60.0000069 -59.99999 a 59.999995 59.999995 0 0 1 59.999985 59.99999 z" fill="#deddda" paint-order="normal"/>
        <rect fill="#d5d3cf" height="114" rx="56" width="112" x="8" y="179"/>
        <path d="m 123.99993 235 a 59.999995 59.999995 0 0 1 -59.999985 59.99999 a 59.999995 59.999995 0 0 1 -60.0000069 -59.99999 a 59.999995 59.999995 0 0 1 60.0000069 -60 a 59.999995 59.999995 0 0 1 59.999985 60 z" fill="#f6f5f4" paint-order="normal"/>
        <circle cx="63.999943" cy="235" fill="#3d3846" r="54"/>
        <path d="m 90.034858 207.99195 a 1.0016649 1.0016649 0 0 0 -0.77686 0.33008 l -21.974605 23.66504 a 5.9999995 5.9999995 0 0 0 -5.582033 -0.52246 l -14.220702 -15.80079 a 2.0033298 2.0033298 0 0 0 -1.603515 -0.68212 a 2.0033298 2.0033298 0 0 0 -1.374025 3.36181 l 14.21924 15.79932 a 5.9999995 5.9999995 0 0 0 -0.209963 5.30517 a 5.9999995 5.9999995 0 0 0 2.404298 2.69922 l -11.8584 30.49366 a 1.0016649 1.0016649 0 1 0 1.86719 0.72558 l 11.85742 -30.49121 a 5.9999995 5.9999995 0 0 0 3.65332 -0.39209 a 5.9999995 5.9999995 0 0 0 3.035157 -7.92383 a 5.9999995 5.9999995 0 0 0 -0.725097 -1.2041 l 21.979495 -23.66992 a 1.0016649 1.0016649 0 0 0 -0.69092 -1.69336 z" fill-rule="evenodd" opacity="0.2" font-variant-ligatures="normal" font-variant-position="normal" font-variant-caps="normal" font-variant-numeric="normal" font-variant-alternates="normal" font-feature-settings="normal" text-indent="0" text-align="start" text-decoration-line="none" text-decoration-style="solid" text-decoration-color="#000000" text-transform="none" text-orientation="mixed" white-space="normal" shape-padding="0" isolation="auto" mix-blend-mode="normal" solid-color="#000000" solid-opacity="1"/>
        <g stroke-linecap="round">
            <path d="m 64.000045 235 l -18 -20" fill="#c0bfbc" fill-rule="evenodd" stroke="url(#a)" stroke-width="4.006259"/>
            <path d="m 64.000045 235 l 26.000003 -28" fill="none" stroke="#ffffff" stroke-width="2.003129"/>
            <path d="m 64.000045 235 l -14 36" fill="none" stroke="#ed333b" stroke-width="2.003129"/>
        </g>
        <circle cx="-37.280369" cy="240.68896" fill="#d5d3cf" r="6" transform="matrix(0.91326776 -0.40735978 0.40735978 0.91326776 0 0)"/>
        <circle cx="64.029114" cy="235" fill="#131c1a" r="2.00313"/>
        <circle cx="64.029114" cy="235" fill="#131c1a" r="2"/>
        <path d="m 64.000045 181 a 54 54 0 0 0 -54 54 a 54 54 0 0 0 0.0415 1.1709 a 54 54 0 0 1 53.9585 -53.1709 a 54 54 0 0 1 53.958495 52.82813 a 54 54 0 0 0 0.0415 -0.82813 a 54 54 0 0 0 -54.000005 -54 z" opacity="0.1" paint-order="normal"/>
    </g>
</svg>
